<svg fill="none" xmlns="http://www.w3.org/2000/svg" viewBox="120.07 0 244.84 245.02">
  <path
    d="M182.333 194.985C183.527 194.985 184.661 195.498 185.441 196.393C186.23 197.284 186.576 198.47 186.407 199.634L181.856 230.226L214.641 200.482C215.449 199.75 216.445 199.35 217.619 199.415C218.313 199.447 289.005 202.151 301.289 153.642C308.343 125.795 305.624 103.908 293.225 88.5824C278.855 70.8336 251.622 62.2801 212.017 63.1591C128.288 65.0183 128.288 110.458 128.288 137.604C128.288 153.065 134.978 168.886 146.175 179.929C153.149 186.801 165.06 194.985 182.25 194.985H182.333ZM176.104 245.022C175.446 245.022 174.788 244.863 174.181 244.549C172.64 243.743 171.785 242.075 172.034 240.372L177.601 202.933C163.582 201.866 150.789 195.954 140.364 185.677C127.653 173.145 120.065 155.174 120.065 137.604C120.065 109.463 120.065 57.0795 211.832 55.0412C254.037 54.1 283.595 63.6804 299.649 83.5139C313.538 100.675 316.868 125.605 309.268 155.61C303.464 178.525 285.565 194.772 257.492 202.602C240.168 207.432 224.191 207.674 218.979 207.577L178.885 243.95C178.109 244.658 177.112 245.022 176.104 245.022Z"
    fill="#FA8B8B"></path>
  <path
    d="M245.554 94.4946C246.645 94.8564 247.678 95.0314 248.71 95.0314C249.253 95.0314 249.801 94.9809 250.341 94.8797C251.787 94.6034 253.134 93.9616 254.241 93.0243C255.884 91.6395 257.149 89.6557 258.099 86.9642C258.867 84.7742 259.226 82.4132 259.541 80.3283C259.82 78.4691 260.084 76.6446 260.179 74.7854C260.226 73.8014 259.982 72.9921 259.446 72.3194C258.879 71.6152 258.032 71.1525 257.126 71.0551C256.219 70.9384 255.203 71.2613 254.45 71.8836C253.749 72.4711 253.339 73.2567 253.296 74.1048C253.237 75.1821 253.103 76.2869 252.969 77.3564L252.937 77.5939C252.768 78.9396 252.563 80.2778 252.335 81.604C252.114 82.7671 251.889 83.7044 251.633 84.5329C251.464 85.0076 251.275 85.4744 251.082 85.9023C250.885 86.2912 250.676 86.6684 250.471 86.9951L250.093 87.4969L249.675 87.9016L249.356 88.0766L248.855 88.2049L248.572 88.2128L248.391 88.1971L247.981 88.1037L247.587 87.9561L247.236 87.7653L246.949 87.5553L246.566 87.1859L245.885 86.3458L245.266 85.3422C244.943 84.7042 244.647 84.0195 244.352 83.2572C244.025 82.3549 243.603 81.1684 243.308 79.947C243.205 79.4959 243.131 79.0368 243.08 78.6712C243.107 77.7106 242.725 76.7808 242.043 76.1236C241.042 75.1626 239.502 74.8983 238.229 75.4505C237.252 75.8823 236.515 76.7496 236.271 77.7648C236.047 78.6867 236.212 79.636 236.346 80.3983C236.716 82.4716 237.425 84.4629 237.997 85.9683C239.73 90.4883 242.343 93.4406 245.554 94.4946Z"
    fill="#395AB1"></path>
  <path
    d="M272.953 181.857C266.889 181.994 261.152 181.881 255.668 181.574C255.656 180.967 255.629 180.345 255.656 179.777C255.778 177.201 255.983 175.136 256.306 173.292C256.409 172.778 256.523 172.269 256.661 171.815L256.7 171.705C257.476 171.549 258.256 171.422 259.033 171.289C260.033 171.125 261.038 170.963 262.027 170.741C264.052 170.282 266.932 169.375 268.564 166.821C269.836 164.829 269.946 162.525 269.88 160.538C269.836 159.161 269.753 157.795 269.667 156.423L269.576 154.851C269.493 153.416 269.43 151.977 269.367 150.542C269.245 147.811 269.123 144.987 268.867 142.209C268.784 141.268 268.666 140.16 268.477 139.067C268.256 137.807 268.008 136.379 267.291 135.177C266.696 134.182 265.869 133.469 264.836 133.061C264.434 132.901 264.025 132.786 263.615 132.688C262.772 132.466 261.936 132.24 261.113 131.983C259.533 131.462 258.02 130.871 256.629 130.222C255.42 129.63 254.32 129.024 253.276 128.373C252.351 127.764 251.452 127.101 250.633 126.429C249.986 125.865 249.36 125.266 248.773 124.663C249.529 124.792 250.286 124.92 251.046 125.044C254.052 125.535 256.57 125.865 258.962 126.083C260.124 126.196 261.365 126.301 262.594 126.32C263.174 126.333 263.761 126.323 264.344 126.278C264.746 126.243 265.128 126.204 265.522 126.126C266.113 126.009 266.688 125.8 267.334 125.461C268.441 124.885 269.257 123.652 269.47 122.256C269.533 121.84 269.549 121.384 269.517 120.82C269.478 120.12 269.423 119.416 269.363 118.72L269.304 117.957C269.151 115.866 269.009 113.769 268.879 111.675L268.812 110.667C268.729 109.358 268.642 108.004 268.634 106.67C269.009 106.759 269.383 106.844 269.761 106.93C271.625 107.37 273.56 107.82 275.514 108.054C276.582 108.183 277.716 108.241 278.764 107.934C280.518 107.413 281.727 106 281.849 104.336C281.92 103.347 281.699 102.391 281.483 101.469L281.313 100.687L281.14 99.8429C280.793 98.1042 280.443 96.3693 280.128 94.623C279.812 92.8998 279.548 91.1689 279.28 89.4378L278.406 83.7745C277.952 80.8105 277.499 77.8427 277.027 74.8788C275.577 65.8352 273.465 56.7875 271.42 48.0356L271.318 47.6C271.034 46.3514 270.821 45.2895 270.687 44.2081L303.11 14.7941L298.562 45.3829C298.39 46.5498 298.739 47.7363 299.525 48.6269C300.308 49.5217 301.443 50.031 302.637 50.031H302.719C319.906 50.031 331.82 58.219 338.791 65.0921C349.991 76.1274 356.678 91.9546 356.678 107.416C356.678 134.562 356.678 180.002 272.953 181.857ZM191.745 156.438C179.342 141.117 176.628 119.225 183.676 91.379C194.397 49.0353 249.584 45.7134 263.926 45.5734C264.115 47.0282 264.411 48.4673 264.749 49.8676L265.151 51.5325C265.577 53.3375 266.007 55.1383 266.416 56.9432L266.448 57.0637C267.232 60.5373 268.142 64.6291 268.922 68.6941C269.683 72.6616 270.309 76.6758 270.837 80.1337L271.207 82.5647C271.755 86.1704 272.302 89.7762 272.898 93.3744C273.24 95.4749 273.642 97.5674 274.056 99.6641L274.312 100.924C273.319 100.726 272.33 100.5 271.341 100.283L269.395 99.8391C268.701 99.6833 268.004 99.5241 267.314 99.4345C266.243 99.2945 265.25 99.4812 264.253 100.003C263.26 100.524 262.449 101.636 262.082 102.982C261.743 104.204 261.708 105.448 261.716 106.603C261.72 107.587 261.771 108.568 261.826 109.547L261.838 109.742C261.956 111.879 262.094 114.008 262.24 116.14C262.311 117.14 262.385 118.137 262.461 119.14L262.492 119.486L262.062 119.474C257.752 119.229 253.497 118.561 249.541 117.876L245.85 117.217C245.03 117.058 244.191 116.888 243.32 116.953C242.004 117.032 240.995 117.456 240.239 118.249C239.372 119.162 238.974 120.498 239.175 121.82C239.356 122.987 239.849 124.212 240.641 125.453C241.854 127.351 243.399 129.153 245.235 130.816C246.984 132.407 248.844 133.769 250.759 134.866C252.784 136.021 254.864 136.998 256.929 137.768C257.926 138.141 259.001 138.499 260.132 138.83C260.483 138.93 260.841 139.02 261.203 139.114L261.456 139.179L261.464 139.222C261.759 140.63 261.913 142.058 262.027 143.26C262.232 145.691 262.338 148.18 262.445 150.589L262.543 152.738C262.602 154.1 262.689 155.469 262.768 156.83L262.858 158.279C262.929 159.511 263.008 160.792 262.973 162.001L262.918 162.541L262.846 162.876L262.693 163.23L262.271 163.51L261.807 163.712C261.322 163.872 260.833 164.004 260.349 164.121C259.541 164.288 258.725 164.42 257.914 164.552C257.035 164.697 256.164 164.839 255.293 165.026C254.356 165.225 253.154 165.559 252.181 166.397C251.172 167.267 250.471 168.422 249.982 170.033C249.332 172.16 249.131 174.428 248.958 176.423C248.808 178.092 248.73 179.478 248.706 180.779L248.718 181.049C222.083 178.513 202.959 170.29 191.745 156.438ZM344.607 59.3433C334.175 49.0666 321.386 43.1541 307.368 42.0884L312.932 4.64974C313.18 2.94604 312.32 1.27346 310.784 0.468282C309.244 -0.32911 307.365 -0.0957552 306.079 1.07116L265.991 37.4441C260.794 37.3545 244.805 37.5841 227.47 42.4151C199.401 50.2451 181.497 66.4962 175.698 89.4107C168.101 119.416 171.431 144.345 185.319 161.51C200.658 180.453 228.301 190.042 267.551 190.042C269.387 190.042 271.255 190.022 273.138 189.98C364.904 187.941 364.904 135.558 364.904 107.416C364.904 89.8462 357.316 71.876 344.607 59.3433Z"
    fill="#395AB1"></path>
</svg>