<svg width="584" height="342" viewBox="0 0 584 342" fill="none" xmlns="http://www.w3.org/2000/svg">
  <path
    d="M182.333 194.985C183.527 194.985 184.661 195.498 185.441 196.393C186.23 197.284 186.576 198.47 186.407 199.634L181.856 230.226L214.641 200.482C215.449 199.75 216.445 199.35 217.619 199.415C218.313 199.447 289.005 202.151 301.289 153.642C308.343 125.795 305.624 103.908 293.225 88.5824C278.855 70.8336 251.622 62.2801 212.017 63.1591C128.288 65.0183 128.288 110.458 128.288 137.604C128.288 153.065 134.978 168.886 146.175 179.929C153.149 186.801 165.06 194.985 182.25 194.985H182.333ZM176.104 245.022C175.446 245.022 174.788 244.863 174.181 244.549C172.64 243.743 171.785 242.075 172.034 240.372L177.601 202.933C163.582 201.866 150.789 195.954 140.364 185.677C127.653 173.145 120.065 155.174 120.065 137.604C120.065 109.463 120.065 57.0795 211.832 55.0412C254.037 54.1 283.595 63.6804 299.649 83.5139C313.538 100.675 316.868 125.605 309.268 155.61C303.464 178.525 285.565 194.772 257.492 202.602C240.168 207.432 224.191 207.674 218.979 207.577L178.885 243.95C178.109 244.658 177.112 245.022 176.104 245.022Z"
    fill="#FA8B8B" />
  <path
    d="M245.554 94.4946C246.645 94.8564 247.678 95.0314 248.71 95.0314C249.253 95.0314 249.801 94.9809 250.341 94.8797C251.787 94.6034 253.134 93.9616 254.241 93.0243C255.884 91.6395 257.149 89.6557 258.099 86.9642C258.867 84.7742 259.226 82.4132 259.541 80.3283C259.82 78.4691 260.084 76.6446 260.179 74.7854C260.226 73.8014 259.982 72.9921 259.446 72.3194C258.879 71.6152 258.032 71.1525 257.126 71.0551C256.219 70.9384 255.203 71.2613 254.45 71.8836C253.749 72.4711 253.339 73.2567 253.296 74.1048C253.237 75.1821 253.103 76.2869 252.969 77.3564L252.937 77.5939C252.768 78.9396 252.563 80.2778 252.335 81.604C252.114 82.7671 251.889 83.7044 251.633 84.5329C251.464 85.0076 251.275 85.4744 251.082 85.9023C250.885 86.2912 250.676 86.6684 250.471 86.9951L250.093 87.4969L249.675 87.9016L249.356 88.0766L248.855 88.2049L248.572 88.2128L248.391 88.1971L247.981 88.1037L247.587 87.9561L247.236 87.7653L246.949 87.5553L246.566 87.1859L245.885 86.3458L245.266 85.3422C244.943 84.7042 244.647 84.0195 244.352 83.2572C244.025 82.3549 243.603 81.1684 243.308 79.947C243.205 79.4959 243.131 79.0368 243.08 78.6712C243.107 77.7106 242.725 76.7808 242.043 76.1236C241.042 75.1626 239.502 74.8983 238.229 75.4505C237.252 75.8823 236.515 76.7496 236.271 77.7648C236.047 78.6867 236.212 79.636 236.346 80.3983C236.716 82.4716 237.425 84.4629 237.997 85.9683C239.73 90.4883 242.343 93.4406 245.554 94.4946Z"
    fill="#395AB1" />
  <path
    d="M272.953 181.857C266.889 181.994 261.152 181.881 255.668 181.574C255.656 180.967 255.629 180.345 255.656 179.777C255.778 177.201 255.983 175.136 256.306 173.292C256.409 172.778 256.523 172.269 256.661 171.815L256.7 171.705C257.476 171.549 258.256 171.422 259.033 171.289C260.033 171.125 261.038 170.963 262.027 170.741C264.052 170.282 266.932 169.375 268.564 166.821C269.836 164.829 269.946 162.525 269.88 160.538C269.836 159.161 269.753 157.795 269.667 156.423L269.576 154.851C269.493 153.416 269.43 151.977 269.367 150.542C269.245 147.811 269.123 144.987 268.867 142.209C268.784 141.268 268.666 140.16 268.477 139.067C268.256 137.807 268.008 136.379 267.291 135.177C266.696 134.182 265.869 133.469 264.836 133.061C264.434 132.901 264.025 132.786 263.615 132.688C262.772 132.466 261.936 132.24 261.113 131.983C259.533 131.462 258.02 130.871 256.629 130.222C255.42 129.63 254.32 129.024 253.276 128.373C252.351 127.764 251.452 127.101 250.633 126.429C249.986 125.865 249.36 125.266 248.773 124.663C249.529 124.792 250.286 124.92 251.046 125.044C254.052 125.535 256.57 125.865 258.962 126.083C260.124 126.196 261.365 126.301 262.594 126.32C263.174 126.333 263.761 126.323 264.344 126.278C264.746 126.243 265.128 126.204 265.522 126.126C266.113 126.009 266.688 125.8 267.334 125.461C268.441 124.885 269.257 123.652 269.47 122.256C269.533 121.84 269.549 121.384 269.517 120.82C269.478 120.12 269.423 119.416 269.363 118.72L269.304 117.957C269.151 115.866 269.009 113.769 268.879 111.675L268.812 110.667C268.729 109.358 268.642 108.004 268.634 106.67C269.009 106.759 269.383 106.844 269.761 106.93C271.625 107.37 273.56 107.82 275.514 108.054C276.582 108.183 277.716 108.241 278.764 107.934C280.518 107.413 281.727 106 281.849 104.336C281.92 103.347 281.699 102.391 281.483 101.469L281.313 100.687L281.14 99.8429C280.793 98.1042 280.443 96.3693 280.128 94.623C279.812 92.8998 279.548 91.1689 279.28 89.4378L278.406 83.7745C277.952 80.8105 277.499 77.8427 277.027 74.8788C275.577 65.8352 273.465 56.7875 271.42 48.0356L271.318 47.6C271.034 46.3514 270.821 45.2895 270.687 44.2081L303.11 14.7941L298.562 45.3829C298.39 46.5498 298.739 47.7363 299.525 48.6269C300.308 49.5217 301.443 50.031 302.637 50.031H302.719C319.906 50.031 331.82 58.219 338.791 65.0921C349.991 76.1274 356.678 91.9546 356.678 107.416C356.678 134.562 356.678 180.002 272.953 181.857ZM191.745 156.438C179.342 141.117 176.628 119.225 183.676 91.379C194.397 49.0353 249.584 45.7134 263.926 45.5734C264.115 47.0282 264.411 48.4673 264.749 49.8676L265.151 51.5325C265.577 53.3375 266.007 55.1383 266.416 56.9432L266.448 57.0637C267.232 60.5373 268.142 64.6291 268.922 68.6941C269.683 72.6616 270.309 76.6758 270.837 80.1337L271.207 82.5647C271.755 86.1704 272.302 89.7762 272.898 93.3744C273.24 95.4749 273.642 97.5674 274.056 99.6641L274.312 100.924C273.319 100.726 272.33 100.5 271.341 100.283L269.395 99.8391C268.701 99.6833 268.004 99.5241 267.314 99.4345C266.243 99.2945 265.25 99.4812 264.253 100.003C263.26 100.524 262.449 101.636 262.082 102.982C261.743 104.204 261.708 105.448 261.716 106.603C261.72 107.587 261.771 108.568 261.826 109.547L261.838 109.742C261.956 111.879 262.094 114.008 262.24 116.14C262.311 117.14 262.385 118.137 262.461 119.14L262.492 119.486L262.062 119.474C257.752 119.229 253.497 118.561 249.541 117.876L245.85 117.217C245.03 117.058 244.191 116.888 243.32 116.953C242.004 117.032 240.995 117.456 240.239 118.249C239.372 119.162 238.974 120.498 239.175 121.82C239.356 122.987 239.849 124.212 240.641 125.453C241.854 127.351 243.399 129.153 245.235 130.816C246.984 132.407 248.844 133.769 250.759 134.866C252.784 136.021 254.864 136.998 256.929 137.768C257.926 138.141 259.001 138.499 260.132 138.83C260.483 138.93 260.841 139.02 261.203 139.114L261.456 139.179L261.464 139.222C261.759 140.63 261.913 142.058 262.027 143.26C262.232 145.691 262.338 148.18 262.445 150.589L262.543 152.738C262.602 154.1 262.689 155.469 262.768 156.83L262.858 158.279C262.929 159.511 263.008 160.792 262.973 162.001L262.918 162.541L262.846 162.876L262.693 163.23L262.271 163.51L261.807 163.712C261.322 163.872 260.833 164.004 260.349 164.121C259.541 164.288 258.725 164.42 257.914 164.552C257.035 164.697 256.164 164.839 255.293 165.026C254.356 165.225 253.154 165.559 252.181 166.397C251.172 167.267 250.471 168.422 249.982 170.033C249.332 172.16 249.131 174.428 248.958 176.423C248.808 178.092 248.73 179.478 248.706 180.779L248.718 181.049C222.083 178.513 202.959 170.29 191.745 156.438ZM344.607 59.3433C334.175 49.0666 321.386 43.1541 307.368 42.0884L312.932 4.64974C313.18 2.94604 312.32 1.27346 310.784 0.468282C309.244 -0.32911 307.365 -0.0957552 306.079 1.07116L265.991 37.4441C260.794 37.3545 244.805 37.5841 227.47 42.4151C199.401 50.2451 181.497 66.4962 175.698 89.4107C168.101 119.416 171.431 144.345 185.319 161.51C200.658 180.453 228.301 190.042 267.551 190.042C269.387 190.042 271.255 190.022 273.138 189.98C364.904 187.941 364.904 135.558 364.904 107.416C364.904 89.8462 357.316 71.876 344.607 59.3433Z"
    fill="#395AB1" />
  <path
    d="M56.4585 283.26C56.4585 289.982 54.0688 295.583 49.2892 300.065C44.5893 304.469 37.3799 306.671 27.6615 306.671H11.6499V340.397H0.776306V259.617H27.6615C37.0615 259.617 44.1908 261.819 49.0502 266.223C53.989 270.627 56.4585 276.306 56.4585 283.26ZM27.6615 297.979C33.7158 297.979 38.1766 296.704 41.0444 294.154C43.9121 291.605 45.346 287.973 45.346 283.26C45.346 273.293 39.4513 268.31 27.6615 268.31H11.6499V297.979H27.6615ZM93.1542 341.44C88.1356 341.44 83.6347 340.629 79.6518 339.006C75.6686 337.305 72.5222 334.987 70.2121 332.052C67.9018 329.039 66.6274 325.6 66.3885 321.738H77.6205C77.9389 324.905 79.4526 327.495 82.1611 329.503C84.9491 331.511 88.5735 332.516 93.0347 332.516C97.1768 332.516 100.443 331.626 102.833 329.85C105.223 328.074 106.418 325.832 106.418 323.128C106.418 320.347 105.143 318.298 102.594 316.986C100.045 315.595 96.1014 314.242 90.7644 312.93C85.905 311.692 81.9221 310.458 78.8154 309.221C75.7881 307.908 73.1593 306.013 70.9291 303.542C68.7782 300.992 67.7028 297.669 67.7028 293.575C67.7028 290.33 68.6985 287.355 70.6901 284.651C72.6814 281.947 75.5094 279.822 79.1739 278.277C82.838 276.654 87.0202 275.843 91.7203 275.843C98.9691 275.843 104.824 277.62 109.285 281.174C113.746 284.728 116.136 289.596 116.455 295.777H105.581C105.342 292.454 103.948 289.789 101.399 287.78C98.9294 285.771 95.5837 284.767 91.3618 284.767C87.4584 284.767 84.3517 285.578 82.0416 287.201C79.7313 288.823 78.5764 290.948 78.5764 293.575C78.5764 295.661 79.2533 297.399 80.6077 298.79C82.0416 300.103 83.7939 301.186 85.8653 302.035C88.0161 302.809 90.9633 303.696 94.7075 304.701C99.4074 305.938 103.231 307.172 106.179 308.41C109.126 309.569 111.635 311.345 113.706 313.741C115.857 316.137 116.972 319.266 117.052 323.128C117.052 326.605 116.056 329.734 114.065 332.516C112.073 335.298 109.245 337.5 105.581 339.122C101.996 340.666 97.854 341.44 93.1542 341.44ZM138.018 266.571C135.947 266.571 134.194 265.876 132.76 264.485C131.326 263.094 130.609 261.394 130.609 259.386C130.609 257.377 131.326 255.677 132.76 254.286C134.194 252.895 135.947 252.2 138.018 252.2C140.009 252.2 141.682 252.895 143.036 254.286C144.47 255.677 145.187 257.377 145.187 259.386C145.187 261.394 144.47 263.094 143.036 264.485C141.682 265.876 140.009 266.571 138.018 266.571ZM143.275 276.886V340.397H132.402V276.886H143.275ZM157.745 299.949C157.745 292.068 159.577 284.999 163.242 278.74C166.906 272.404 171.885 267.46 178.178 263.906C184.55 260.351 191.6 258.574 199.327 258.574C208.409 258.574 216.335 260.699 223.106 264.949C229.877 269.198 234.816 275.225 237.923 283.028H224.898C222.588 278.161 219.242 274.414 214.861 271.786C210.559 269.159 205.381 267.846 199.327 267.846C193.512 267.846 188.294 269.159 183.674 271.786C179.054 274.414 175.429 278.161 172.801 283.028C170.172 287.819 168.858 293.459 168.858 299.949C168.858 306.361 170.172 312.002 172.801 316.87C175.429 321.659 179.054 325.368 183.674 327.996C188.294 330.624 193.512 331.937 199.327 331.937C205.381 331.937 210.559 330.662 214.861 328.112C219.242 325.484 222.588 321.738 224.898 316.87H237.923C234.816 324.597 229.877 330.583 223.106 334.834C216.335 339.006 208.409 341.092 199.327 341.092C191.6 341.092 184.55 339.354 178.178 335.877C171.885 332.322 166.906 327.417 163.242 321.158C159.577 314.9 157.745 307.83 157.745 299.949ZM282.667 341.44C276.533 341.44 270.957 340.087 265.938 337.384C260.999 334.68 257.096 330.856 254.228 325.91C251.44 320.889 250.046 315.094 250.046 308.526C250.046 302.035 251.48 296.319 254.348 291.373C257.295 286.351 261.278 282.526 266.297 279.899C271.315 277.195 276.931 275.843 283.145 275.843C289.358 275.843 294.975 277.195 299.994 279.899C305.012 282.526 308.955 286.312 311.823 291.257C314.769 296.203 316.244 301.957 316.244 308.526C316.244 315.094 314.73 320.889 311.704 325.91C308.755 330.856 304.731 334.68 299.635 337.384C294.536 340.087 288.88 341.44 282.667 341.44ZM282.667 332.168C286.57 332.168 290.234 331.279 293.661 329.503C297.084 327.727 299.832 325.061 301.906 321.506C304.056 317.951 305.132 313.625 305.132 308.526C305.132 303.426 304.095 299.1 302.025 295.545C299.952 291.99 297.245 289.364 293.9 287.664C290.554 285.887 286.929 284.999 283.025 284.999C279.042 284.999 275.378 285.887 272.032 287.664C268.766 289.364 266.137 291.99 264.146 295.545C262.154 299.1 261.159 303.426 261.159 308.526C261.159 313.703 262.115 318.067 264.026 321.622C266.018 325.177 268.647 327.842 271.913 329.619C275.179 331.319 278.763 332.168 282.667 332.168ZM362.445 275.727C370.409 275.727 376.861 278.083 381.802 282.797C386.74 287.432 389.211 294.154 389.211 302.962V340.397H378.457V304.469C378.457 298.133 376.823 293.305 373.558 289.982C370.29 286.583 365.83 284.883 360.175 284.883C354.439 284.883 349.857 286.621 346.433 290.098C343.088 293.575 341.415 298.637 341.415 305.28V340.397H330.541V276.886H341.415V285.926C343.566 282.681 346.472 280.169 350.138 278.393C353.881 276.616 357.982 275.727 362.445 275.727ZM466.718 306.208C466.718 308.215 466.598 310.342 466.359 312.582H414.023C414.42 318.84 416.61 323.746 420.595 327.301C424.657 330.778 429.556 332.516 435.292 332.516C439.991 332.516 443.895 331.473 447.002 329.387C450.186 327.222 452.418 324.366 453.693 320.81H465.403C463.65 326.915 460.146 331.899 454.888 335.761C449.631 339.548 443.098 341.44 435.292 341.44C429.079 341.44 423.501 340.087 418.563 337.384C413.703 334.68 409.88 330.856 407.092 325.91C404.302 320.889 402.91 315.094 402.91 308.526C402.91 301.957 404.263 296.203 406.973 291.257C409.679 286.312 413.464 282.526 418.324 279.899C423.262 277.195 428.917 275.843 435.292 275.843C441.505 275.843 447.002 277.156 451.782 279.783C456.561 282.41 460.224 286.042 462.775 290.677C465.403 295.235 466.718 300.413 466.718 306.208ZM455.486 304.006C455.486 299.987 454.569 296.551 452.738 293.691C450.903 290.755 448.394 288.553 445.21 287.085C442.103 285.54 438.638 284.767 434.814 284.767C429.318 284.767 424.616 286.467 420.714 289.866C416.891 293.265 414.698 297.979 414.142 304.006H455.486ZM477.006 308.526C477.006 301.957 478.362 296.241 481.069 291.373C483.778 286.428 487.521 282.603 492.301 279.899C497.161 277.195 502.696 275.843 508.91 275.843C516.957 275.843 523.568 277.736 528.745 281.522C534.003 285.308 537.468 290.562 539.141 297.284H527.431C526.316 293.421 524.127 290.368 520.859 288.128C517.674 285.887 513.689 284.767 508.91 284.767C502.696 284.767 497.678 286.853 493.854 291.025C490.03 295.119 488.118 300.955 488.118 308.526C488.118 316.175 490.03 322.085 493.854 326.258C497.678 330.43 502.696 332.516 508.91 332.516C513.689 332.516 517.674 331.435 520.859 329.271C524.046 327.107 526.236 324.018 527.431 319.999H539.141C537.39 326.489 533.883 331.705 528.625 335.645C523.368 339.507 516.796 341.44 508.91 341.44C502.696 341.44 497.161 340.087 492.301 337.384C487.521 334.68 483.778 330.856 481.069 325.91C478.362 320.964 477.006 315.169 477.006 308.526ZM566.913 285.578V323.013C566.913 326.104 567.591 328.306 568.944 329.619C570.298 330.856 572.648 331.473 575.994 331.473H584V340.397H574.202C568.147 340.397 563.606 339.044 560.58 336.341C557.554 333.637 556.039 329.193 556.039 323.013V285.578H547.556V276.886H556.039V260.892H566.913V276.886H584V285.578H566.913Z"
    fill="#395AB1" />
</svg>