<svg width="1088" height="940" viewBox="0 0 1088 940" fill="none" xmlns="http://www.w3.org/2000/svg">
  <path d="M0 658.82H1088V658.255H0V658.82Z" fill="#DADBD8" />
  <path d="M112.439 690.558H147.386V691.123H112.439V690.558Z" fill="#DADBD8" />
  <path d="M370.686 684.986H487.167V684.421H370.686V684.986Z" fill="#DADBD8" />
  <path d="M149.562 711.595H228.441V712.16H149.562V711.595Z" fill="#DADBD8" />
  <path d="M823.294 684.126H917.275V684.691H823.294V684.126Z" fill="#DADBD8" />
  <path d="M936.664 684.126H950.438V684.691H936.664V684.126Z" fill="#DADBD8" />
  <path d="M688.077 698.801H805.341V698.235H688.077V698.801Z" fill="#DADBD8" />
  <path
    d="M76.9029 346.8C76.5884 345.611 76.3998 344.247 76.3147 342.746C75.8345 334.342 68.124 335.674 61.5647 334.534C56.4409 333.642 70.0093 320.17 59.6768 315.824C57.7584 315.016 55.6725 314.103 54.6907 312.208C53.3936 309.699 54.7068 306.397 56.9416 304.75C59.177 303.106 62.0491 302.758 64.786 302.703C66.4718 300.572 65.1007 297.363 63.4696 295.185C61.8384 293.008 59.8417 290.531 60.4597 287.845C61.393 283.792 66.8371 283.644 70.7709 284.432C72.2245 281.984 72.1955 278.92 72.901 276.137C73.6067 273.352 75.7341 270.43 78.4796 270.779C81.0671 271.108 82.6473 274.147 85.1845 274.769C88.1306 275.492 90.6813 272.781 92.9918 270.745C95.3029 268.712 99.3446 267.443 100.937 270.122C101.889 271.726 101.319 273.961 102.309 275.542C104.027 278.28 108.096 276.579 110.624 274.638C113.15 272.697 117.177 270.94 118.955 273.635C119.5 274.459 119.62 275.499 119.935 276.445C121.13 280.037 124.86 281.824 127.763 284.127C130.669 286.43 132.97 291.009 130.511 293.819C129.299 295.205 127.166 295.767 126.563 297.533C125.81 299.741 127.979 301.72 129.694 303.238C132.548 305.765 133.066 313.329 129.292 315.396C127.707 316.264 125.383 316.531 124.994 318.349C124.646 319.975 126.233 321.241 127.287 322.496C130.181 325.94 128.955 332.143 124.99 334.12C124.084 334.571 122.97 334.942 122.635 335.927C122.395 336.634 122.657 337.401 122.851 338.124C123.219 339.487 123.343 340.923 123.214 342.334C123.171 342.816 123.076 343.337 122.722 343.654C122.402 343.942 121.948 343.985 121.526 344.005C116.075 344.256 113.445 342.25 110.118 347.185C109.799 347.66 109.464 348.149 108.983 348.439C108.533 348.713 107.998 348.786 107.479 348.831C103.732 349.153 101.283 346.718 97.8588 346.263C93.1073 345.633 92.1009 348.183 87.9154 350.23C81.3306 353.453 78.1397 351.467 76.9029 346.8Z"
    fill="#7AD872" />
  <path
    d="M139.679 339.738C139.364 338.551 139.176 337.188 139.091 335.687C138.61 327.283 130.901 328.614 124.341 327.473C119.217 326.583 132.785 313.111 122.454 308.763C120.534 307.956 118.448 307.044 117.467 305.146C116.169 302.639 117.483 299.335 119.717 297.691C121.953 296.047 124.825 295.698 127.562 295.644C129.248 293.513 127.877 290.304 126.245 288.125C124.615 285.947 122.617 283.469 123.236 280.786C124.169 276.73 129.613 276.585 133.547 277.373C135 274.923 134.972 271.861 135.677 269.075C136.383 266.292 138.51 263.371 141.255 263.72C143.843 264.046 145.424 267.087 147.96 267.708C150.906 268.432 153.457 265.719 155.769 263.686C158.08 261.652 162.121 260.382 163.712 263.061C164.665 264.666 164.095 266.901 165.086 268.48C166.802 271.218 170.873 269.519 173.4 267.579C175.927 265.638 179.953 263.878 181.731 266.573C182.277 267.4 182.396 268.439 182.711 269.386C183.906 272.975 187.636 274.764 190.54 277.067C193.445 279.37 195.746 283.949 193.288 286.76C192.075 288.146 189.943 288.707 189.34 290.474C188.586 292.682 190.754 294.661 192.47 296.178C195.325 298.706 195.842 306.267 192.068 308.335C190.483 309.204 188.159 309.469 187.77 311.29C187.422 312.916 189.008 314.182 190.062 315.436C192.957 318.881 191.731 325.081 187.767 327.058C186.86 327.511 185.746 327.883 185.41 328.868C185.171 329.572 185.433 330.342 185.627 331.062C185.995 332.428 186.119 333.861 185.99 335.272C185.947 335.754 185.852 336.278 185.498 336.595C185.178 336.88 184.725 336.925 184.302 336.943C178.851 337.197 176.222 335.188 172.894 340.125C172.575 340.598 172.241 341.088 171.759 341.38C171.309 341.654 170.775 341.726 170.255 341.769C166.508 342.091 164.058 339.656 160.636 339.203C155.884 338.574 154.877 341.122 150.691 343.171C144.107 346.391 140.916 344.407 139.679 339.738Z"
    fill="#7AD872" />
  <path
    d="M145.729 298.133C145.414 296.944 145.226 295.581 145.141 294.082C144.661 285.676 136.95 287.007 130.391 285.868C125.266 284.976 138.836 271.504 128.503 267.158C126.584 266.349 124.498 265.439 123.517 263.541C122.22 261.032 123.532 257.73 125.767 256.086C128.002 254.44 130.874 254.091 133.611 254.039C135.297 251.906 133.927 248.697 132.296 246.518C130.664 244.342 128.667 241.864 129.286 239.179C130.218 235.125 135.663 234.98 139.596 235.768C141.051 233.318 141.022 230.254 141.726 227.471C142.432 224.687 144.56 221.764 147.305 222.113C149.892 222.441 151.473 225.48 154.01 226.103C156.956 226.825 159.507 224.115 161.818 222.081C164.129 220.045 168.171 218.777 169.763 221.456C170.716 223.059 170.144 225.297 171.136 226.875C172.852 229.613 176.923 227.915 179.45 225.974C181.976 224.031 186.003 222.273 187.781 224.968C188.325 225.793 188.446 226.834 188.76 227.779C189.955 231.37 193.685 233.159 196.59 235.46C199.495 237.763 201.796 242.345 199.338 245.153C198.125 246.539 195.992 247.103 195.39 248.869C194.636 251.075 196.805 253.054 198.519 254.573C201.374 257.101 201.892 264.662 198.117 266.73C196.533 267.597 194.209 267.864 193.82 269.683C193.473 271.309 195.058 272.577 196.112 273.829C199.006 277.274 197.781 283.477 193.816 285.454C192.909 285.904 191.797 286.276 191.46 287.263C191.22 287.967 191.483 288.737 191.677 289.457C192.045 290.821 192.169 292.256 192.04 293.667C191.996 294.15 191.901 294.673 191.548 294.988C191.228 295.275 190.774 295.318 190.351 295.339C184.901 295.592 182.272 293.583 178.944 298.52C178.625 298.994 178.29 299.483 177.809 299.775C177.358 300.047 176.824 300.119 176.305 300.164C172.558 300.486 170.109 298.052 166.685 297.599C161.934 296.967 160.927 299.517 156.742 301.564C150.157 304.786 146.965 302.803 145.729 298.133Z"
    fill="#7AD872" />
  <path
    d="M228.876 309.285C228.56 308.098 228.373 306.735 228.286 305.233C227.808 296.829 220.098 298.161 213.538 297.02C208.413 296.13 221.982 282.658 211.649 278.31C209.731 277.503 207.645 276.591 206.664 274.693C205.367 272.186 206.679 268.882 208.915 267.238C211.149 265.594 214.022 265.245 216.759 265.191C218.444 263.06 217.073 259.851 215.443 257.672C213.812 255.494 211.814 253.016 212.432 250.333C213.365 246.277 218.81 246.132 222.744 246.92C224.198 244.47 224.169 241.408 224.874 238.622C225.579 235.839 227.705 232.918 230.451 233.267C233.039 233.593 234.621 236.634 237.158 237.255C240.102 237.979 242.654 235.266 244.965 233.233C247.276 231.199 251.317 229.929 252.91 232.608C253.863 234.213 253.291 236.448 254.283 238.027C256 240.765 260.069 239.066 262.595 237.125C265.124 235.185 269.149 233.425 270.927 236.12C271.471 236.947 271.593 237.986 271.906 238.933C273.103 242.522 276.833 244.311 279.736 246.614C282.641 248.917 284.943 253.496 282.484 256.307C281.272 257.693 279.139 258.254 278.537 260.021C277.784 262.229 279.951 264.208 281.666 265.725C284.521 268.252 285.039 275.814 281.263 277.882C279.679 278.751 277.355 279.016 276.968 280.837C276.62 282.463 278.206 283.729 279.259 284.983C282.153 288.428 280.928 294.628 276.963 296.605C276.056 297.058 274.944 297.43 274.607 298.415C274.367 299.121 274.629 299.889 274.824 300.609C275.192 301.975 275.316 303.408 275.188 304.819C275.142 305.301 275.049 305.824 274.696 306.139C274.374 306.427 273.921 306.472 273.499 306.49C268.048 306.744 265.418 304.735 262.09 309.672C261.771 310.145 261.438 310.634 260.957 310.927C260.506 311.201 259.971 311.273 259.451 311.316C255.704 311.638 253.256 309.203 249.831 308.75C245.081 308.121 244.073 310.671 239.889 312.718C233.304 315.938 230.112 313.954 228.876 309.285Z"
    fill="#7AD872" />
  <path
    d="M229.42 355.812C229.172 354.875 229.024 353.804 228.956 352.622C228.58 346.002 222.509 347.051 217.344 346.154C213.309 345.452 223.993 334.844 215.857 331.423C214.346 330.786 212.704 330.068 211.931 328.574C210.91 326.599 211.943 323.999 213.704 322.704C215.463 321.409 217.724 321.135 219.88 321.092C221.208 319.413 220.128 316.886 218.845 315.172C217.559 313.455 215.987 311.505 216.473 309.393C217.208 306.2 221.495 306.084 224.591 306.705C225.736 304.777 225.714 302.366 226.269 300.173C226.826 297.979 228.5 295.678 230.662 295.954C232.699 296.213 233.944 298.606 235.941 299.095C238.261 299.664 240.27 297.528 242.089 295.927C243.91 294.326 247.091 293.328 248.345 295.436C249.095 296.7 248.645 298.459 249.426 299.702C250.777 301.858 253.983 300.52 255.974 298.994C257.963 297.465 261.133 296.079 262.532 298.201C262.961 298.851 263.057 299.671 263.305 300.416C264.245 303.242 267.182 304.651 269.469 306.464C271.756 308.276 273.569 311.884 271.632 314.096C270.677 315.188 268.999 315.629 268.523 317.02C267.931 318.759 269.637 320.317 270.988 321.513C273.236 323.503 273.643 329.457 270.67 331.085C269.424 331.769 267.594 331.978 267.287 333.411C267.015 334.69 268.264 335.689 269.093 336.677C271.371 339.387 270.407 344.272 267.285 345.828C266.571 346.183 265.694 346.475 265.431 347.252C265.241 347.807 265.448 348.414 265.6 348.98C265.89 350.056 265.988 351.184 265.885 352.295C265.853 352.676 265.777 353.086 265.498 353.335C265.246 353.561 264.889 353.595 264.558 353.611C263.503 353.661 262.582 353.602 261.755 353.543C259.214 353.364 257.551 353.183 255.576 356.116C255.323 356.49 255.06 356.875 254.681 357.103C254.326 357.318 253.907 357.377 253.497 357.411C250.547 357.665 248.617 355.747 245.921 355.391C242.18 354.895 241.388 356.902 238.091 358.514C232.908 361.05 230.395 359.488 229.42 355.812Z"
    fill="#7AD872" />
  <path
    d="M110.666 322.304C110.666 322.304 124.305 342.371 129.007 348.734C133.71 355.098 157.226 394.742 160.426 420.964C160.768 423.763 161.104 426.173 161.433 428.279C151.318 497.759 152.906 624.876 153.261 646.641H185.306C185.6 622.099 188.323 397.772 189.327 390.922C190.39 383.675 203.786 356.076 224.478 344.735C245.172 333.396 263.054 295.874 263.054 295.874H256.459C256.459 295.874 244.232 318.878 226.831 331.603C224.302 333.451 221.686 334.988 219.001 336.433C219.626 315.703 212.081 295.874 212.081 295.874L208.521 299.3C213.328 319.788 212.696 332.909 211.241 340.448C205.401 343.494 199.342 347.02 193.248 352.981C175.198 328.552 165.048 272.689 165.048 272.689L160.426 275.316C160.426 275.316 161.928 290.489 166.394 309.577C169.776 324.037 179.729 351.26 184.359 363.62C179.757 370.273 175.186 378.874 170.725 390.256C170.219 389.448 169.648 388.712 168.983 388.084C157.226 377.022 135.121 324.75 135.121 324.75C129.776 312.598 137.944 280.701 137.944 280.701H131.773L129.007 308.599L113.488 290.978L110.666 293.426L127.126 315.452L135.592 343.356L113.488 317.897L110.666 322.304Z"
    fill="#C8685A" />
  <path
    d="M735.096 296.09C734.729 294.7 734.509 293.108 734.409 291.353C733.847 281.529 724.836 283.085 717.168 281.753C711.18 280.711 727.039 264.965 714.962 259.884C712.718 258.939 710.281 257.873 709.134 255.658C707.618 252.725 709.152 248.864 711.765 246.941C714.376 245.019 717.734 244.611 720.935 244.55C722.904 242.057 721.303 238.307 719.396 235.761C717.488 233.216 715.153 230.319 715.878 227.181C716.968 222.443 723.331 222.273 727.929 223.195C729.628 220.33 729.595 216.75 730.42 213.496C731.243 210.241 733.73 206.826 736.939 207.234C739.964 207.617 741.811 211.17 744.775 211.897C748.22 212.744 751.201 209.573 753.903 207.195C756.604 204.818 761.328 203.334 763.188 206.466C764.303 208.341 763.634 210.955 764.792 212.8C766.798 216 771.557 214.014 774.51 211.745C777.463 209.476 782.17 207.422 784.248 210.57C784.885 211.534 785.025 212.751 785.392 213.856C786.792 218.054 791.15 220.144 794.545 222.835C797.939 225.527 800.631 230.881 797.756 234.165C796.34 235.784 793.846 236.441 793.143 238.506C792.262 241.085 794.795 243.4 796.799 245.173C800.137 248.128 800.742 256.967 796.331 259.383C794.477 260.398 791.761 260.71 791.307 262.837C790.902 264.737 792.756 266.218 793.988 267.683C797.369 271.709 795.937 278.958 791.302 281.268C790.243 281.796 788.941 282.231 788.55 283.383C788.269 284.208 788.576 285.107 788.802 285.949C789.233 287.544 789.377 289.219 789.226 290.868C789.176 291.432 789.065 292.043 788.652 292.412C788.278 292.748 787.747 292.8 787.253 292.822C780.881 293.119 777.809 290.771 773.92 296.541C773.546 297.096 773.155 297.666 772.593 298.008C772.067 298.328 771.442 298.411 770.835 298.463C766.455 298.839 763.593 295.993 759.592 295.463C754.036 294.727 752.861 297.707 747.967 300.101C740.273 303.867 736.541 301.546 735.096 296.09Z"
    fill="#7AD872" />
  <path
    d="M808.471 287.838C808.103 286.448 807.883 284.856 807.783 283.103C807.222 273.279 798.211 274.835 790.545 273.501C784.555 272.459 800.415 256.713 788.336 251.634C786.095 250.69 783.656 249.623 782.509 247.406C780.992 244.473 782.529 240.614 785.14 238.69C787.753 236.769 791.111 236.362 794.31 236.298C796.279 233.805 794.677 230.055 792.771 227.509C790.865 224.964 788.53 222.07 789.253 218.931C790.343 214.191 796.705 214.021 801.303 214.943C803.003 212.08 802.97 208.498 803.795 205.246C804.619 201.992 807.104 198.577 810.314 198.982C813.339 199.367 815.186 202.92 818.152 203.645C821.594 204.492 824.576 201.321 827.278 198.944C829.979 196.566 834.703 195.082 836.563 198.214C837.677 200.089 837.009 202.703 838.167 204.548C840.175 207.748 844.932 205.762 847.887 203.493C850.84 201.224 855.544 199.17 857.625 202.32C858.26 203.285 858.401 204.501 858.769 205.606C860.166 209.802 864.525 211.893 867.919 214.585C871.314 217.275 874.006 222.629 871.131 225.913C869.715 227.534 867.223 228.191 866.518 230.254C865.637 232.836 868.172 235.148 870.176 236.923C873.512 239.876 874.117 248.715 869.706 251.134C867.854 252.146 865.136 252.458 864.684 254.585C864.277 256.487 866.131 257.966 867.362 259.431C870.744 263.458 869.312 270.706 864.677 273.016C863.617 273.546 862.316 273.979 861.924 275.131C861.644 275.956 861.951 276.855 862.179 277.697C862.608 279.292 862.753 280.967 862.603 282.616C862.551 283.18 862.44 283.791 862.027 284.163C861.652 284.498 861.121 284.548 860.63 284.57C854.258 284.867 851.184 282.521 847.295 288.289C846.921 288.844 846.531 289.414 845.968 289.756C845.441 290.076 844.817 290.159 844.21 290.211C839.831 290.587 836.968 287.743 832.966 287.213C827.411 286.477 826.236 289.455 821.344 291.849C813.648 295.615 809.916 293.294 808.471 287.838Z"
    fill="#7AD872" />
  <path
    d="M815.543 239.207C815.175 237.817 814.955 236.225 814.855 234.47C814.294 224.646 805.283 226.202 797.615 224.87C791.627 223.828 807.485 208.08 795.409 203.001C793.165 202.057 790.728 200.992 789.581 198.773C788.065 195.842 789.599 191.981 792.212 190.059C794.823 188.136 798.181 187.728 801.382 187.667C803.351 185.174 801.747 181.424 799.841 178.878C797.935 176.333 795.6 173.436 796.322 170.3C797.415 165.56 803.777 165.388 808.375 166.31C810.075 163.447 810.042 159.867 810.865 156.613C811.689 153.359 814.177 149.943 817.386 150.351C820.411 150.734 822.258 154.287 825.222 155.014C828.666 155.859 831.648 152.688 834.348 150.313C837.051 147.935 841.773 146.451 843.635 149.583C844.749 151.459 844.081 154.072 845.239 155.918C847.245 159.115 852.004 157.131 854.957 154.862C857.912 152.593 862.616 150.537 864.695 153.687C865.332 154.652 865.471 155.868 865.839 156.973C867.238 161.171 871.597 163.262 874.991 165.952C878.386 168.645 881.075 173.996 878.203 177.282C876.787 178.901 874.293 179.558 873.588 181.623C872.709 184.205 875.242 186.517 877.246 188.29C880.584 191.245 881.189 200.084 876.776 202.5C874.924 203.515 872.208 203.827 871.753 205.954C871.349 207.854 873.201 209.335 874.434 210.8C877.816 214.827 876.384 222.076 871.749 224.386C870.689 224.915 869.388 225.348 868.996 226.498C868.716 227.325 869.023 228.222 869.249 229.066C869.68 230.661 869.823 232.337 869.673 233.985C869.623 234.549 869.51 235.16 869.099 235.53C868.724 235.865 868.194 235.917 867.7 235.94C861.328 236.234 858.256 233.888 854.367 239.658C853.993 240.213 853.601 240.783 853.04 241.123C852.513 241.442 851.889 241.529 851.282 241.581C846.901 241.957 844.038 239.11 840.036 238.58C834.483 237.844 833.308 240.824 828.414 243.218C820.718 246.984 816.988 244.663 815.543 239.207Z"
    fill="#7AD872" />
  <path
    d="M863.878 263.43C863.509 262.04 863.289 260.448 863.189 258.692C862.629 248.869 853.616 250.424 845.95 249.093C839.96 248.051 855.821 232.303 843.744 227.224C841.501 226.279 839.063 225.215 837.917 222.996C836.4 220.065 837.934 216.204 840.547 214.281C843.159 212.359 846.516 211.951 849.715 211.89C851.684 209.397 850.083 205.646 848.176 203.101C846.27 200.556 843.935 197.659 844.658 194.523C845.75 189.783 852.113 189.613 856.711 190.535C858.41 187.67 858.375 184.09 859.2 180.835C860.025 177.581 862.512 174.166 865.722 174.574C868.744 174.957 870.594 178.51 873.557 179.237C877.002 180.081 879.983 176.913 882.683 174.535C885.386 172.157 890.108 170.674 891.968 173.806C893.083 175.681 892.417 178.295 893.574 180.14C895.581 183.34 900.337 181.354 903.292 179.085C906.245 176.816 910.952 174.76 913.03 177.91C913.668 178.874 913.807 180.09 914.175 181.198C915.572 185.394 919.932 187.484 923.327 190.177C926.721 192.867 929.411 198.221 926.539 201.504C925.12 203.124 922.628 203.78 921.923 205.846C921.042 208.427 923.577 210.739 925.581 212.513C928.919 215.468 929.524 224.307 925.111 226.723C923.259 227.738 920.544 228.05 920.089 230.177C919.682 232.077 921.536 233.558 922.768 235.023C926.151 239.049 924.719 246.298 920.085 248.608C919.025 249.138 917.724 249.571 917.33 250.723C917.051 251.548 917.356 252.447 917.584 253.289C918.015 254.883 918.159 256.561 918.009 258.208C917.956 258.772 917.845 259.383 917.432 259.752C917.058 260.087 916.527 260.14 916.035 260.162C909.664 260.459 906.591 258.113 902.7 263.881C902.328 264.435 901.937 265.006 901.375 265.346C900.849 265.667 900.224 265.751 899.617 265.803C895.237 266.179 892.373 263.335 888.372 262.803C882.818 262.067 881.641 265.047 876.75 267.441C869.053 271.207 865.323 268.885 863.878 263.43Z"
    fill="#7AD872" />
  <path
    d="M912.728 252.241C912.36 250.853 912.14 249.259 912.04 247.506C911.481 237.682 902.468 239.238 894.802 237.906C888.811 236.865 904.672 221.117 892.595 216.037C890.352 215.093 887.912 214.026 886.766 211.809C885.249 208.876 886.785 205.018 889.396 203.095C892.01 201.172 895.365 200.765 898.566 200.703C900.535 198.21 898.934 194.46 897.028 191.915C895.122 189.369 892.787 186.473 893.509 183.334C894.599 178.594 900.962 178.424 905.56 179.346C907.259 176.484 907.227 172.903 908.051 169.649C908.876 166.395 911.361 162.98 914.571 163.385C917.595 163.77 919.443 167.323 922.408 168.05C925.851 168.895 928.832 165.727 931.535 163.349C934.235 160.971 938.959 159.488 940.82 162.617C941.934 164.493 941.266 167.106 942.423 168.954C944.432 172.151 949.189 170.165 952.144 167.898C955.096 165.629 959.803 163.575 961.881 166.723C962.517 167.688 962.656 168.904 963.026 170.009C964.423 174.205 968.783 176.296 972.176 178.988C975.573 181.681 978.262 187.032 975.39 190.318C973.971 191.937 971.479 192.594 970.774 194.659C969.893 197.239 972.428 199.553 974.432 201.326C977.768 204.279 978.373 213.118 973.962 215.537C972.111 216.551 969.393 216.861 968.938 218.988C968.533 220.89 970.387 222.369 971.619 223.836C975 227.863 973.568 235.112 968.936 237.422C967.876 237.949 966.575 238.382 966.181 239.535C965.9 240.361 966.207 241.258 966.433 242.1C966.864 243.695 967.01 245.373 966.86 247.021C966.808 247.585 966.697 248.197 966.283 248.566C965.909 248.901 965.378 248.953 964.886 248.976C958.513 249.27 955.44 246.924 951.552 252.694C951.177 253.249 950.788 253.82 950.224 254.159C949.698 254.479 949.075 254.565 948.466 254.617C944.086 254.991 941.224 252.146 937.223 251.616C931.67 250.88 930.492 253.861 925.601 256.254C917.904 260.018 914.172 257.699 912.728 252.241Z"
    fill="#7AD872" />
  <path
    d="M913.365 306.622C913.076 305.529 912.904 304.276 912.823 302.895C912.384 295.159 905.288 296.384 899.249 295.336C894.534 294.516 907.022 282.115 897.513 278.116C895.746 277.373 893.827 276.533 892.924 274.787C891.729 272.479 892.937 269.44 894.995 267.925C897.052 266.412 899.696 266.091 902.213 266.041C903.765 264.08 902.503 261.127 901.003 259.122C899.502 257.118 897.663 254.838 898.231 252.367C899.091 248.635 904.102 248.501 907.723 249.226C909.059 246.971 909.033 244.151 909.683 241.59C910.332 239.029 912.29 236.338 914.817 236.66C917.197 236.961 918.653 239.758 920.988 240.331C923.699 240.997 926.047 238.501 928.173 236.628C930.301 234.758 934.02 233.589 935.484 236.055C936.361 237.529 935.837 239.588 936.748 241.042C938.328 243.56 942.075 241.997 944.401 240.211C946.728 238.424 950.431 236.807 952.067 239.287C952.57 240.045 952.679 241.003 952.968 241.875C954.069 245.179 957.503 246.826 960.175 248.943C962.847 251.063 964.967 255.277 962.704 257.866C961.587 259.141 959.625 259.657 959.07 261.283C958.378 263.314 960.373 265.135 961.951 266.532C964.579 268.86 965.054 275.819 961.581 277.722C960.123 278.521 957.984 278.766 957.627 280.441C957.305 281.938 958.765 283.102 959.736 284.257C962.399 287.428 961.272 293.134 957.623 294.955C956.787 295.37 955.764 295.712 955.455 296.617C955.233 297.267 955.475 297.976 955.653 298.64C955.993 299.894 956.106 301.215 955.989 302.514C955.947 302.956 955.86 303.438 955.536 303.728C955.24 303.993 954.822 304.034 954.435 304.052C949.417 304.285 946.997 302.435 943.936 306.98C943.642 307.415 943.333 307.866 942.891 308.135C942.476 308.387 941.984 308.452 941.505 308.493C938.056 308.79 935.804 306.548 932.653 306.131C928.279 305.551 927.352 307.897 923.501 309.782C917.441 312.748 914.503 310.921 913.365 306.622Z"
    fill="#7AD872" />
  <path
    d="M940.739 287.838C940.369 286.448 940.149 284.856 940.049 283.103C939.488 273.279 930.477 274.835 922.809 273.501C916.821 272.459 932.679 256.713 920.602 251.634C918.361 250.69 915.922 249.623 914.777 247.406C913.258 244.473 914.792 240.614 917.406 238.69C920.019 236.769 923.375 236.362 926.576 236.298C928.545 233.805 926.943 230.055 925.037 227.509C923.131 224.964 920.796 222.07 921.518 218.931C922.609 214.191 928.971 214.021 933.569 214.943C935.269 212.08 935.236 208.498 936.061 205.246C936.883 201.992 939.37 198.577 942.58 198.982C945.605 199.367 947.452 202.92 950.418 203.645C953.86 204.492 956.841 201.321 959.544 198.944C962.244 196.566 966.969 195.082 968.829 198.214C969.943 200.089 969.277 202.703 970.433 204.548C972.441 207.748 977.198 205.762 980.153 203.493C983.106 201.224 987.81 199.17 989.888 202.32C990.526 203.285 990.667 204.501 991.035 205.606C992.432 209.802 996.791 211.893 1000.19 214.585C1003.58 217.275 1006.27 222.629 1003.4 225.913C1001.98 227.534 999.487 228.191 998.784 230.254C997.903 232.836 1000.44 235.148 1002.44 236.923C1005.78 239.876 1006.38 248.715 1001.97 251.134C1000.12 252.146 997.402 252.458 996.949 254.585C996.543 256.487 998.397 257.966 999.628 259.431C1003.01 263.458 1001.58 270.706 996.943 273.016C995.883 273.546 994.582 273.979 994.19 275.131C993.91 275.956 994.216 276.855 994.443 277.697C994.874 279.292 995.019 280.967 994.869 282.616C994.817 283.18 994.706 283.791 994.293 284.163C993.918 284.498 993.387 284.548 992.893 284.57C986.524 284.867 983.45 282.521 979.561 288.289C979.187 288.844 978.795 289.414 978.234 289.756C977.707 290.076 977.083 290.159 976.476 290.211C972.095 290.587 969.234 287.743 965.232 287.213C959.679 286.477 958.502 289.455 953.61 291.849C945.914 295.615 942.182 293.294 940.739 287.838Z"
    fill="#7AD872" />
  <path
    d="M863.878 203.611C863.509 202.221 863.289 200.629 863.189 198.874C862.629 189.05 853.616 190.608 845.95 189.274C839.96 188.232 855.821 172.484 843.744 167.405C841.501 166.463 839.063 165.396 837.917 163.179C836.4 160.246 837.934 156.385 840.547 154.465C843.159 152.542 846.516 152.134 849.715 152.071C851.684 149.578 850.083 145.828 848.176 143.282C846.27 140.737 843.935 137.843 844.658 134.704C845.75 129.964 852.113 129.794 856.711 130.714C858.41 127.851 858.375 124.271 859.2 121.017C860.025 117.762 862.512 114.35 865.722 114.755C868.744 115.138 870.594 118.691 873.557 119.42C877.002 120.262 879.983 117.094 882.683 114.716C885.386 112.339 890.108 110.855 891.968 113.987C893.083 115.862 892.417 118.476 893.574 120.321C895.581 123.521 900.337 121.535 903.292 119.266C906.245 116.997 910.952 114.943 913.03 118.093C913.668 119.058 913.807 120.274 914.175 121.379C915.572 125.575 919.932 127.665 923.327 130.356C926.721 133.048 929.411 138.402 926.539 141.686C925.12 143.307 922.628 143.964 921.923 146.027C921.042 148.608 923.577 150.921 925.581 152.696C928.919 155.649 929.524 164.488 925.111 166.904C923.259 167.919 920.544 168.231 920.089 170.358C919.682 172.258 921.536 173.739 922.768 175.204C926.151 179.23 924.719 186.479 920.085 188.792C919.025 189.319 917.724 189.752 917.33 190.904C917.051 191.729 917.356 192.628 917.584 193.47C918.015 195.065 918.159 196.743 918.009 198.391C917.956 198.955 917.845 199.564 917.432 199.933C917.058 200.269 916.527 200.323 916.035 200.343C909.664 200.64 906.591 198.292 902.7 204.062C902.328 204.617 901.937 205.187 901.375 205.529C900.849 205.849 900.224 205.932 899.617 205.984C895.237 206.36 892.373 203.516 888.372 202.986C882.818 202.248 881.641 205.228 876.75 207.622C869.053 211.388 865.323 209.069 863.878 203.611Z"
    fill="#7AD872" />
  <path
    d="M763.003 233.677C762.636 232.289 762.416 230.695 762.316 228.942C761.754 219.118 752.744 220.674 745.075 219.34C739.087 218.301 754.946 202.553 742.869 197.473C740.625 196.529 738.188 195.462 737.042 193.245C735.525 190.313 737.059 186.454 739.672 184.531C742.284 182.609 745.641 182.201 748.84 182.137C750.809 179.646 749.21 175.896 747.301 173.349C745.395 170.805 743.06 167.909 743.785 164.77C744.875 160.033 751.238 159.861 755.836 160.782C757.535 157.918 757.5 154.339 758.325 151.083C759.15 147.831 761.637 144.414 764.846 144.821C767.871 145.206 769.719 148.76 772.682 149.486C776.127 150.331 779.108 147.161 781.808 144.783C784.511 142.407 789.235 140.922 791.096 144.054C792.21 145.929 791.542 148.542 792.699 150.388C794.706 153.588 799.465 151.602 802.417 149.335C805.372 147.066 810.077 145.009 812.155 148.159C812.793 149.124 812.932 150.338 813.3 151.445C814.697 155.642 819.057 157.732 822.452 160.424C825.846 163.115 828.538 168.468 825.664 171.752C824.247 173.373 821.753 174.03 821.048 176.096C820.169 178.675 822.702 180.987 824.706 182.762C828.044 185.716 828.649 194.554 824.236 196.973C822.384 197.987 819.669 198.298 819.214 200.424C818.809 202.326 820.663 203.805 821.893 205.27C825.276 209.297 823.844 216.546 819.21 218.856C818.15 219.386 816.849 219.818 816.457 220.971C816.176 221.795 816.483 222.694 816.709 223.537C817.14 225.131 817.284 226.807 817.134 228.458C817.084 229.022 816.97 229.633 816.559 230.002C816.185 230.337 815.654 230.387 815.16 230.412C808.789 230.706 805.716 228.36 801.828 234.128C801.453 234.683 801.062 235.254 800.5 235.596C799.974 235.915 799.349 235.999 798.742 236.051C794.362 236.427 791.5 233.582 787.496 233.053C781.943 232.314 780.768 235.294 775.875 237.688C768.178 241.454 764.448 239.135 763.003 233.677Z"
    fill="#7AD872" />
  <path
    d="M774.56 267.46C774.56 267.46 790.502 290.914 795.998 298.353C801.495 305.79 828.98 352.129 832.722 382.78C833.121 386.05 833.515 388.865 833.898 391.327C822.075 472.54 823.931 621.118 824.347 646.559H861.803C862.146 617.875 865.33 355.671 866.503 347.665C867.745 339.196 883.402 306.934 907.59 293.682C931.776 280.427 952.677 236.568 952.677 236.568H944.969C944.969 236.568 930.677 263.456 910.338 278.33C907.383 280.49 904.326 282.288 901.186 283.975C901.915 259.747 893.098 236.568 893.098 236.568L888.937 240.572C894.556 264.52 893.816 279.858 892.116 288.668C885.29 292.228 878.207 296.349 871.085 303.317C849.989 274.765 838.125 209.468 838.125 209.468L832.722 212.539C832.722 212.539 834.478 230.275 839.697 252.586C843.65 269.487 855.283 301.304 860.697 315.752C855.316 323.529 849.974 333.582 844.76 346.886C844.168 345.94 843.5 345.079 842.723 344.348C828.98 331.417 803.144 270.32 803.144 270.32C796.897 256.119 806.443 218.834 806.443 218.834H799.232L795.998 251.442L777.859 230.848L774.56 233.708L793.8 259.452L803.695 292.069L777.859 262.312L774.56 267.46Z"
    fill="#C8685A" />
  <path
    d="M851.094 644.848C860.654 639.349 873.137 654.33 873.137 654.33C873.137 654.33 859.226 634.775 865.948 631.405C872.67 628.038 885.406 644.848 885.406 644.848C885.406 644.848 874.33 620.365 882 618.689C885.721 617.874 891.89 624.679 897.258 631.903C897.824 622.661 899.972 612.96 906.424 612.061C914.005 611.003 917.341 624.054 918.796 634.605C924.552 626.491 931.831 617.774 936.015 618.689C943.688 620.365 932.61 644.848 932.61 644.848C932.61 644.848 945.346 628.038 952.07 631.405C958.791 634.775 944.878 654.33 944.878 654.33C944.878 654.33 957.362 639.349 966.921 644.848C976.482 650.346 977.823 658.82 977.823 658.82H926.254H891.764H840.193C840.193 658.82 841.535 650.346 851.094 644.848Z"
    fill="#7AD872" />
  <path
    d="M798.91 644.848C808.469 639.349 820.955 654.33 820.955 654.33C820.955 654.33 807.041 634.775 813.763 631.405C820.485 628.038 833.221 644.848 833.221 644.848C833.221 644.848 822.145 620.365 829.818 618.689C833.539 617.874 839.705 624.679 845.076 631.903C845.639 622.661 847.787 612.96 854.241 612.061C861.822 611.003 865.156 624.054 866.612 634.605C872.367 626.491 879.646 617.774 883.83 618.689C891.503 620.365 880.427 644.848 880.427 644.848C880.427 644.848 893.161 628.038 899.885 631.405C906.606 634.775 892.693 654.33 892.693 654.33C892.693 654.33 905.179 639.349 914.738 644.848C924.297 650.346 925.64 658.82 925.64 658.82H874.069H839.579H788.008C788.008 658.82 789.351 650.346 798.91 644.848Z"
    fill="#7AD872" />
  <path
    d="M675.134 644.848C684.694 639.349 697.179 654.33 697.179 654.33C697.179 654.33 683.266 634.775 689.988 631.405C696.712 628.038 709.446 644.848 709.446 644.848C709.446 644.848 698.37 620.365 706.042 618.689C709.763 617.874 715.93 624.679 721.3 631.903C721.864 622.661 724.012 612.96 730.466 612.061C738.047 611.003 741.381 624.054 742.836 634.605C748.592 626.491 755.87 617.772 760.055 618.689C767.727 620.365 756.652 644.848 756.652 644.848C756.652 644.848 769.388 628.038 776.109 631.405C782.831 634.775 768.918 654.33 768.918 654.33C768.918 654.33 781.404 639.349 790.963 644.848C800.522 650.346 801.862 658.82 801.862 658.82H750.293H715.804H664.233C664.233 658.82 665.575 650.346 675.134 644.848Z"
    fill="#DADBD8" />
  <path
    d="M570.449 644.848C580.011 639.349 592.494 654.33 592.494 654.33C592.494 654.33 578.581 634.775 585.305 631.405C592.026 628.038 604.76 644.848 604.76 644.848C604.76 644.848 593.685 620.365 601.357 618.689C605.078 617.874 611.247 624.679 616.615 631.903C617.181 622.661 619.329 612.96 625.781 612.061C633.362 611.003 636.695 624.054 638.153 634.605C643.909 626.491 651.188 617.772 655.372 618.689C663.045 620.365 651.967 644.848 651.967 644.848C651.967 644.848 664.703 628.038 671.424 631.405C678.148 634.775 664.235 654.33 664.235 654.33C664.235 654.33 676.719 639.349 686.278 644.848C695.837 650.346 697.179 658.82 697.179 658.82H645.61H611.119H559.55C559.55 658.82 560.892 650.346 570.449 644.848Z"
    fill="#DADBD8" />
  <path
    d="M465.766 644.848C475.325 639.349 487.811 654.33 487.811 654.33C487.811 654.33 473.898 634.775 480.62 631.405C487.341 628.038 500.077 644.848 500.077 644.848C500.077 644.848 489.002 620.365 496.672 618.689C500.393 617.874 506.562 624.679 511.93 631.903C512.496 622.661 514.644 612.96 521.098 612.061C528.679 611.003 532.012 624.054 533.468 634.605C539.224 626.491 546.502 617.772 550.687 618.689C558.359 620.365 547.284 644.848 547.284 644.848C547.284 644.848 560.018 628.038 566.741 631.405C573.463 634.775 559.55 654.33 559.55 654.33C559.55 654.33 572.036 639.349 581.595 644.848C591.154 650.346 592.494 658.82 592.494 658.82H540.925H506.436H454.865C454.865 658.82 456.207 650.346 465.766 644.848Z"
    fill="#DADBD8" />
  <path
    d="M361.081 644.848C370.642 639.349 383.126 654.33 383.126 654.33C383.126 654.33 369.213 634.775 375.934 631.405C382.658 628.038 395.392 644.848 395.392 644.848C395.392 644.848 384.316 620.365 391.989 618.689C395.71 617.874 401.877 624.679 407.247 631.903C407.813 622.661 409.961 612.96 416.412 612.061C423.994 611.003 427.327 624.054 428.785 634.605C434.541 626.491 441.819 617.772 446.004 618.689C453.674 620.365 442.598 644.848 442.598 644.848C442.598 644.848 455.334 628.038 462.056 631.405C468.778 634.775 454.864 654.33 454.864 654.33C454.864 654.33 467.35 639.349 476.91 644.848C486.469 650.346 487.811 658.82 487.811 658.82H436.24H401.75H350.181C350.181 658.82 351.522 650.346 361.081 644.848Z"
    fill="#DADBD8" />
  <path
    d="M294.578 644.848C304.14 639.349 316.623 654.33 316.623 654.33C316.623 654.33 302.71 634.775 309.434 631.405C316.155 628.038 328.889 644.848 328.889 644.848C328.889 644.848 317.814 620.365 325.486 618.689C329.207 617.874 335.376 624.679 340.744 631.903C341.31 622.661 343.458 612.96 349.91 612.061C357.491 611.003 360.826 624.054 362.282 634.605C368.038 626.491 375.316 617.772 379.501 618.689C387.174 620.365 376.095 644.848 376.095 644.848C376.095 644.848 388.832 628.038 395.553 631.405C402.277 634.775 388.362 654.33 388.362 654.33C388.362 654.33 400.847 639.349 410.407 644.848C419.966 650.346 421.308 658.82 421.308 658.82H369.737H335.248H283.679C283.679 658.82 285.021 650.346 294.578 644.848Z"
    fill="#DADBD8" />
  <path
    d="M1011.56 870.813C1011.56 897.986 802.228 920.016 544 920.016C285.772 920.016 76.437 897.986 76.437 870.813C76.437 843.64 285.772 821.61 544 821.61C802.228 821.61 1011.56 843.64 1011.56 870.813Z"
    fill="#7AD872" />
  <path
    d="M123.331 855.545C123.435 840.724 126.055 826.076 131.061 812.201C131.43 811.175 129.853 810.734 129.486 811.75C124.433 825.759 121.804 840.583 121.699 855.545C121.691 856.639 123.323 856.639 123.331 855.545Z"
    fill="#17282F" />
  <path
    d="M133.025 855.177C135.645 848.071 138.915 841.243 142.769 834.774C143.324 833.842 141.913 832.989 141.36 833.917C137.43 840.512 134.122 847.48 131.452 854.727C131.075 855.748 132.653 856.189 133.025 855.177Z"
    fill="#17282F" />
  <path
    d="M154.301 793.326C152.672 788.555 146.212 787.375 141.912 789.744C137.611 792.112 135.005 796.759 132.621 801.173C132.785 796.938 132.942 792.636 131.97 788.52C130.998 784.404 128.727 780.425 125.128 778.443C121.527 776.461 116.52 777.026 114.05 780.395C111.696 783.607 112.189 788.23 113.727 791.938C116.236 797.994 121.284 802.856 127.282 804.988C122.749 803.782 117.798 804.196 113.24 805.297C108.683 806.398 104.45 810.609 104.88 815.46C105.395 821.271 112.36 824.491 117.761 822.922C123.162 821.353 127.103 816.61 130.409 811.898C130.889 816.104 131.43 820.488 133.698 824.005C135.966 827.521 140.534 829.825 144.217 828.022C148.281 826.032 149.196 820.051 147.304 815.813C145.411 811.574 141.582 808.689 137.911 805.997C141.903 805.861 146.066 805.678 149.567 803.673C153.068 801.669 155.638 797.244 154.301 793.326Z"
    fill="#406FBF" />
  <path
    d="M134.577 806.435C134.577 808.344 133.09 809.891 131.255 809.891C129.42 809.891 127.934 808.344 127.934 806.435C127.934 804.524 129.42 802.977 131.255 802.977C133.09 802.977 134.577 804.524 134.577 806.435Z"
    fill="white" />
  <path
    d="M117.053 856.893C112.836 849.438 110.353 841.05 109.837 832.413C109.772 831.328 108.14 831.319 108.205 832.413C108.739 841.349 111.279 850.033 115.643 857.749C116.176 858.691 117.587 857.837 117.053 856.893Z"
    fill="#17282F" />
  <path
    d="M476.955 918.856C480.911 925.117 484.066 931.877 486.327 938.995C486.654 940.027 488.231 939.586 487.901 938.542C485.596 931.291 482.397 924.379 478.363 917.998C477.789 917.089 476.374 917.938 476.955 918.856Z"
    fill="#17282F" />
  <path
    d="M490.703 913.982C493.301 921.408 494.653 929.205 494.431 937.115C494.4 938.209 496.032 938.209 496.063 937.115C496.289 929.067 494.92 921.086 492.276 913.529C491.92 912.51 490.342 912.952 490.703 913.982Z"
    fill="#17282F" />
  <path
    d="M503.557 937.749C504.096 930.969 505.524 924.302 507.767 917.911C508.129 916.883 506.553 916.439 506.194 917.461C503.898 923.996 502.475 930.815 501.925 937.749C501.838 938.838 503.472 938.834 503.557 937.749Z"
    fill="#17282F" />
  <path
    d="M843.529 882.008C847.487 888.269 850.642 895.032 852.901 902.147C853.229 903.179 854.805 902.738 854.474 901.697C852.172 894.443 848.971 887.531 844.939 881.15C844.364 880.241 842.95 881.091 843.529 882.008Z"
    fill="#17282F" />
  <path
    d="M857.277 877.134C859.875 884.559 861.228 892.356 861.004 900.269C860.974 901.361 862.606 901.361 862.636 900.269C862.865 892.218 861.494 884.238 858.852 876.684C858.495 875.664 856.917 876.103 857.277 877.134Z"
    fill="#17282F" />
  <path
    d="M870.132 900.905C870.67 894.122 872.097 887.455 874.343 881.065C874.704 880.036 873.126 879.593 872.77 880.613C870.474 887.149 869.051 893.97 868.5 900.905C868.413 901.994 870.045 901.986 870.132 900.905Z"
    fill="#17282F" />
  <path
    d="M747.154 74.1517C747.154 80.3703 738.515 85.3072 737.039 91.0343C735.564 96.7592 740.575 105.732 737.701 110.906C734.826 116.081 724.921 115.983 720.817 120.234C716.716 124.482 716.905 134.773 711.857 137.805C709.091 139.465 705.331 138.625 701.562 137.787C698.45 137.096 695.332 136.403 692.76 137.114C687.07 138.691 682.494 147.643 676.538 147.643C670.584 147.643 665.819 138.65 660.318 137.114C657.837 136.424 654.726 137.108 651.601 137.792C647.793 138.625 643.963 139.456 641.221 137.805C636.23 134.793 636.362 124.503 632.261 120.234C628.157 115.963 618.306 116.18 615.377 110.906C612.446 105.634 617.551 96.8974 616.039 90.9936C614.526 85.092 605.922 80.3296 605.922 74.1132C605.922 67.8946 614.563 62.9759 616.039 57.251C617.514 51.5238 612.503 42.5515 615.377 37.3769C618.249 32.2023 628.157 32.2996 632.261 28.0309C636.362 23.7598 636.173 13.5103 641.221 10.4599C643.985 8.78857 647.741 9.63322 651.51 10.4757C654.621 11.1732 657.742 11.8684 660.316 11.1483C666.008 9.55402 670.582 0.640457 676.538 0.640457C682.494 0.640457 687.259 9.63329 692.76 11.1483C695.238 11.8299 698.346 11.1505 701.468 10.4733C705.279 9.6445 709.113 8.81575 711.857 10.4599C716.848 13.4514 716.716 23.7598 720.817 28.0309C724.921 32.2996 734.77 32.1026 737.701 37.3769C740.632 42.6511 735.527 51.3268 737.039 57.251C738.552 63.1707 747.154 67.9535 747.154 74.1517Z"
    fill="#406FBF" />
  <path
    d="M676.538 147.643C670.584 147.643 665.819 138.65 660.318 137.114C659.585 136.911 658.799 136.827 657.972 136.827C655.999 136.827 653.803 137.309 651.601 137.792C649.397 138.274 647.184 138.756 645.182 138.756C643.724 138.756 642.377 138.5 641.221 137.805C636.23 134.793 636.362 124.503 632.261 120.234C628.157 115.963 618.306 116.18 615.377 110.906C614.7 109.692 614.452 108.293 614.452 106.787C614.448 102.638 616.321 97.6787 616.326 93.5209C616.326 92.6354 616.243 91.7907 616.039 90.9936C614.526 85.092 605.922 80.3296 605.922 74.1132C605.922 67.8946 614.563 62.9759 616.039 57.251C616.234 56.4901 616.315 55.6726 616.317 54.812C616.319 50.6973 614.468 45.6449 614.47 41.4735C614.47 39.963 614.713 38.5681 615.377 37.3769C618.249 32.2023 628.157 32.2996 632.261 28.0309C636.362 23.7598 636.173 13.5103 641.221 10.4599C642.386 9.75555 643.724 9.4996 645.164 9.4996C647.149 9.4996 649.327 9.98651 651.51 10.4757C653.69 10.9648 655.877 11.4517 657.877 11.4517C658.73 11.4517 659.548 11.3634 660.316 11.1483C666.008 9.55402 670.582 0.640457 676.538 0.640457C682.494 0.640457 687.259 9.63329 692.76 11.1483C693.489 11.3476 694.27 11.4314 695.093 11.4314C697.066 11.4314 699.264 10.9512 701.468 10.4733C703.675 9.99324 705.888 9.5132 707.894 9.5132C709.352 9.5132 710.701 9.76688 711.857 10.4599C716.848 13.4514 716.716 23.7598 720.817 28.0309C724.921 32.2996 734.77 32.1026 737.701 37.3769C738.376 38.593 738.626 39.9879 738.626 41.4894C738.63 45.6245 736.757 50.5613 736.752 54.7192C736.752 55.6046 736.835 56.4516 737.039 57.251C738.552 63.1707 747.154 67.9535 747.154 74.1517C747.154 80.3703 738.515 85.3072 737.039 91.0343C736.844 91.7952 736.763 92.6105 736.761 93.4711C736.759 97.5858 738.611 102.638 738.608 106.81C738.606 108.32 738.362 109.713 737.701 110.906C734.826 116.081 724.921 115.983 720.817 120.234C716.716 124.482 716.905 134.773 711.857 137.805C710.692 138.503 709.352 138.759 707.912 138.759C705.925 138.759 703.745 138.274 701.562 137.787C699.377 137.302 697.19 136.816 695.191 136.816C694.342 136.816 693.526 136.904 692.76 137.114C687.07 138.691 682.494 147.643 676.538 147.643ZM626.061 74.1744C626.063 80.8685 627.302 87.6714 629.915 94.241C637.966 114.464 656.754 126.672 676.555 126.672C682.99 126.672 689.531 125.384 695.846 122.662C715.284 114.283 727.015 94.7234 727.01 74.111C727.008 67.4168 725.77 60.6139 723.157 54.0466C715.105 33.8214 696.318 21.613 676.516 21.613C670.082 21.613 663.539 22.9015 657.226 25.6236C637.788 34.0026 626.057 53.5642 626.061 74.1744Z"
    fill="#B8D2EF" />
  <path
    d="M657.226 25.6246C682.972 14.5258 712.49 27.2506 723.157 54.0476C733.821 80.8424 721.594 111.562 695.846 122.663C670.099 133.762 640.582 121.037 629.915 94.242C619.25 67.445 631.477 36.7257 657.226 25.6246Z"
    fill="#406FBF" />
  <path
    d="M676.555 126.674C656.754 126.674 637.966 114.465 629.915 94.2424C627.302 87.6728 626.063 80.87 626.061 74.1758C626.057 53.5657 637.788 34.004 657.226 25.625C663.539 22.9029 670.082 21.6144 676.516 21.6144C696.318 21.6144 715.105 33.8228 723.157 54.048C725.77 60.6153 727.008 67.4182 727.01 74.1124C727.015 94.7248 715.284 114.284 695.846 122.663C689.531 125.385 682.99 126.674 676.555 126.674Z"
    fill="#90B4E3" />
  <path
    d="M359.721 262.106C379.769 248.113 406.921 253.679 420.368 274.543C433.816 295.409 428.465 323.666 408.418 337.662C392.94 348.466 373.251 347.567 358.881 337.014L346.091 340.096L348.203 325.829C348.064 325.621 347.905 325.435 347.768 325.225C334.321 304.361 339.671 276.101 359.721 262.106Z"
    fill="#406FBF" />
  <path
    d="M366.634 250.924C352.721 254.808 341.066 266.403 336.716 280.695C336.625 280.994 336.784 281.311 337.071 281.406C337.356 281.499 337.663 281.333 337.752 281.037C341.978 267.128 353.376 255.786 366.915 252.018C367.207 251.937 367.378 251.626 367.3 251.325C367.222 251.022 366.924 250.843 366.634 250.924Z"
    fill="#406FBF" />
  <path
    d="M334.982 287.196C334.212 289.198 333.816 291.351 333.816 293.509L333.822 294.042C333.833 294.354 334.083 294.599 334.384 294.59C334.684 294.581 334.919 294.318 334.91 294.005L334.904 293.509C334.902 291.496 335.274 289.483 335.992 287.617C336.105 287.327 335.968 286.996 335.689 286.881C335.411 286.763 335.093 286.906 334.982 287.196Z"
    fill="#406FBF" />
  <path
    d="M382.153 317.477L363.703 299.955L369.578 293.254L381.951 305.003L402.508 284.112L408.596 290.603L382.153 317.477Z"
    fill="white" />
  <path
    d="M45.0569 283.692L76.489 279.02C76.489 279.02 182.878 786.581 538.73 795.929C538.73 795.929 712.355 799.668 813.297 687.625C938.896 548.216 985.547 332.875 985.547 332.875L1022.11 344.447C1022.11 344.447 930.314 802.012 575.774 829.807C207.362 858.691 52.9151 405.193 45.0569 283.692Z"
    fill="#C8685A" />
  <path
    d="M301.065 880.992L289.256 849.242C289.256 849.242 355.415 818.38 411.384 804.365L452.891 817.798L301.065 880.992Z"
    fill="#C8685A" />
  <path
    d="M774.475 878.309L786.254 846.643C786.254 846.643 717.63 816.648 662.044 807.363L620.536 820.797L774.475 878.309Z"
    fill="#C8685A" />
  <path
    d="M774.475 878.309L754.843 870.973C754.843 870.973 756.885 848.638 761.707 847.353C764.255 846.677 770.968 846.516 776.73 846.516C781.869 846.516 786.254 846.643 786.254 846.643L774.475 878.309Z"
    fill="#82443D" />
  <path
    d="M674.53 809.736C674.345 809.698 674.157 809.658 673.972 809.619C679.371 807.764 684.7 805.794 689.944 803.729C689.862 803.924 689.707 804.091 689.472 804.184C684.526 806.14 679.545 807.993 674.53 809.736ZM404.555 806.142C400.349 804.67 396.16 803.137 391.996 801.543C391.676 801.421 391.506 801.165 391.456 800.887C395.771 802.707 400.162 804.467 404.566 806.14C404.562 806.14 404.558 806.142 404.555 806.142Z"
    fill="#A7A9A8" />
  <path
    d="M561.839 830.678C566.445 830.464 571.098 830.174 575.774 829.807C593.086 828.451 609.741 826.076 625.82 822.772L626.412 822.993C625.848 823.109 625.282 823.225 624.716 823.338C603.975 827.496 582.937 829.916 561.839 830.678Z"
    fill="#9FA1A1" />
  <path
    d="M547.275 830.938C534.051 830.938 520.821 830.292 507.654 829.021C488.02 827.124 468.536 823.847 449.331 819.279L451.977 818.179C453.459 818.523 454.945 818.86 456.429 819.189C486.303 825.794 516.833 829.246 547.373 829.246C556.122 829.246 564.877 828.963 573.613 828.387C590.318 827.291 606.943 825.113 623.365 821.854L625.82 822.772C609.741 826.076 593.086 828.451 575.774 829.807C571.098 830.174 566.445 830.464 561.839 830.678C556.984 830.852 552.132 830.938 547.275 830.938ZM673.972 809.618C673.067 809.431 672.169 809.245 671.268 809.064C677.239 807.043 683.164 804.87 689.037 802.546C689.141 802.505 689.237 802.485 689.326 802.485C689.888 802.485 690.171 803.205 689.944 803.729C684.7 805.793 679.371 807.763 673.972 809.618ZM404.566 806.14C400.162 804.466 395.771 802.707 391.456 800.886C391.369 800.399 391.652 799.849 392.146 799.849C392.233 799.849 392.328 799.867 392.429 799.905C397.412 801.813 402.427 803.636 407.467 805.368C406.503 805.622 405.535 805.877 404.566 806.14Z"
    fill="#82443D" />
  <path
    d="M449.331 819.279C434.21 815.685 419.263 811.289 404.555 806.142C404.558 806.142 404.562 806.14 404.566 806.14C405.535 805.877 406.503 805.622 407.467 805.368C422.09 810.398 436.943 814.689 451.977 818.179L449.331 819.279Z"
    fill="#82443D" />
  <path
    d="M626.412 822.992L625.82 822.771L623.365 821.854C639.568 818.64 655.574 814.376 671.268 809.063C672.169 809.244 673.067 809.43 673.972 809.618C674.157 809.657 674.345 809.697 674.53 809.735C670.576 811.113 666.602 812.421 662.609 813.665C662.461 813.615 662.316 813.565 662.168 813.515C662.074 813.484 661.987 813.47 661.904 813.47C661.534 813.47 661.278 813.758 661.195 814.102C649.743 817.616 638.134 820.585 626.412 822.992Z"
    fill="#82443D" />
  <path
    d="M301.065 880.992L289.256 849.242C289.256 849.242 306.133 849.319 310.737 851.831C310.617 852.326 310.909 852.922 311.429 852.922C311.516 852.922 311.608 852.907 311.703 852.871C311.753 852.852 311.806 852.834 311.856 852.816C314.702 856.688 321.132 872.64 321.132 872.64L301.065 880.992Z"
    fill="#82443D" />
  <path
    d="M311.856 852.814C311.76 852.685 311.668 852.57 311.584 852.47C311.386 852.239 311.101 852.026 310.737 851.83C310.798 851.572 310.968 851.341 311.27 851.232C346.28 838.611 380.959 825.012 415.266 810.451C415.374 810.405 415.475 810.385 415.566 810.385C416.314 810.385 416.554 811.725 415.701 812.088C381.442 826.629 346.815 840.21 311.856 852.814Z"
    fill="#82443D" />
  <path
    d="M311.429 852.922C310.909 852.922 310.617 852.327 310.737 851.831C311.101 852.028 311.386 852.241 311.584 852.472C311.668 852.572 311.76 852.687 311.856 852.816C311.806 852.834 311.753 852.852 311.703 852.871C311.608 852.907 311.516 852.922 311.429 852.922Z"
    fill="#542B27" />
  <path
    d="M755.292 846.721C755.209 846.721 755.122 846.708 755.028 846.676C723.929 836.168 692.832 825.66 661.732 815.153C661.243 814.987 661.097 814.507 661.195 814.102C661.667 813.957 662.137 813.812 662.609 813.665C693.561 824.122 724.512 834.58 755.461 845.038C756.367 845.344 756.097 846.721 755.292 846.721Z"
    fill="#82443D" />
  <path
    d="M661.195 814.102C661.278 813.758 661.534 813.471 661.904 813.471C661.987 813.471 662.074 813.484 662.168 813.516C662.316 813.565 662.461 813.616 662.609 813.665C662.137 813.812 661.667 813.957 661.195 814.102Z"
    fill="#542B27" />
  <path
    d="M46.7279 305.187C58.6976 305.244 70.5823 304.313 82.4458 302.687C83.4718 302.547 83.4853 300.846 82.4458 300.988C70.5823 302.614 58.6976 303.545 46.7279 303.489C45.6773 303.484 45.6764 305.182 46.7279 305.187Z"
    fill="#17282F" />
  <path
    d="M978.166 357.875C990.406 363.192 1002.65 368.507 1014.89 373.824C1015.86 374.245 1016.28 372.601 1015.32 372.187C1003.08 366.87 990.842 361.555 978.599 356.237C977.631 355.816 977.209 357.46 978.166 357.875Z"
    fill="#17282F" />
  <path
    d="M979.276 356.965C992.295 360.204 1005.31 363.442 1018.34 366.68C1019.36 366.934 1019.79 365.297 1018.77 365.043C1005.75 361.805 992.728 358.566 979.709 355.326C978.689 355.072 978.253 356.709 979.276 356.965Z"
    fill="#17282F" />
  <path
    d="M930.314 409.179C930.314 409.179 823.233 541.314 685.573 572.93C547.91 604.549 307.338 500.429 227.016 435.591C160.255 381.701 148.681 347.453 148.681 347.453C148.681 347.453 205.181 707.305 516.58 691.496C827.981 675.689 883.996 521.553 891.59 509.696C899.186 497.838 930.314 409.179 930.314 409.179Z"
    fill="#406FBF" />
  <path
    d="M769.131 608.166C760.632 594.977 732.589 558.526 732.309 558.161C840.808 514.699 921.579 419.699 929.648 409.986C923.81 420.954 892.053 541.272 769.131 608.166ZM428.182 557.233C424.546 552.083 420.832 546.644 417.085 541.032C421.713 545.289 426.805 549.563 432.323 553.623C430.976 554.785 429.595 555.99 428.182 557.233ZM237.569 503.113C220.662 480.035 211.556 461.63 207.068 455.049C192.683 433.957 165.454 380.786 153.985 358.043C162.258 372.099 182.206 399.42 227.016 435.592C237.056 443.697 249.596 452.413 264.132 461.404C255.634 468.295 242.778 480.372 239.523 491.883C239.491 492.006 239.473 492.148 239.473 492.314C239.473 492.585 239.521 492.916 239.612 493.303C238.762 495.846 238.037 499.055 237.569 503.113Z"
    fill="#2D5BB2" />
  <path
    d="M712.927 565.254C712.918 565.243 712.91 565.227 712.901 565.215L716.139 564.038V564.171C715.071 564.536 714 564.898 712.927 565.254Z"
    fill="#A7A9A8" />
  <path
    d="M716.139 564.172V564.038L732.307 558.157C732.307 558.157 732.307 558.159 732.309 558.162C726.988 560.29 721.586 562.304 716.139 564.172Z"
    fill="#979999" />
  <path
    d="M746.096 619.555C746.179 618.952 746.148 618.425 745.996 617.988C744.986 615.096 730.126 591.834 712.927 565.254C719.47 563.087 725.946 560.709 732.309 558.161C732.59 558.526 760.632 594.977 769.131 608.166C761.778 612.168 754.112 615.97 746.096 619.555Z"
    fill="#24437F" />
  <path
    d="M760.011 799.783C760.011 799.783 766.829 808.724 768.335 815.422C769.84 822.123 765.656 831.827 774.175 836.379C782.696 840.931 801.234 838.039 806.158 836.546C811.082 835.051 833.985 834.667 840.33 834.266C850.113 833.648 871.207 829.401 869.667 818.145C868.128 806.889 857.829 805.125 843.315 801.592C828.799 798.057 812.375 799.257 803.523 790.077C794.669 780.896 792.425 772.166 788.548 770.019C784.67 767.87 754.38 794.235 760.011 799.783Z"
    fill="#F89FAB" />
  <path
    d="M529.891 493.108C531.079 491.613 532.187 490.256 533.14 489.172C541.844 479.26 554.349 465.504 563.138 461.224C571.925 456.946 583.738 459.761 579.473 463.897C576.431 466.845 571.979 466.689 568.994 468.385C561.526 472.627 557.15 475.67 557.15 475.67C572.405 469.812 583.956 470.328 586.863 473.012C588.702 474.708 587.57 478.716 587.241 479.549C587.988 480.295 589.557 481.592 589.246 485.793C588.873 490.852 569.094 492.718 569.094 492.718C569.094 492.718 587.537 493.386 587.002 498.792C586.469 504.197 569.788 501.376 561.147 503.602C557.92 504.433 554.58 512.891 547.425 515.604C542.971 517.294 535.999 521.485 528.217 521.592L529.891 493.108Z"
    fill="#F89FAB" />
  <path
    d="M569.503 491.97C566.765 492.581 563.936 493.046 561.275 493.963C558.956 494.762 556.841 496.039 555.376 498.114C554.754 498.995 556.168 499.842 556.784 498.97C558.14 497.054 560.296 496.014 562.435 495.367C564.892 494.624 567.438 494.167 569.936 493.607C570.963 493.379 570.528 491.741 569.503 491.97Z"
    fill="#F03F4E" />
  <path
    d="M547.836 483.001C550.88 481.852 553.981 480.881 557.141 480.134C558.612 479.785 560.096 479.481 561.586 479.223C563.01 478.979 565.562 478.127 566.839 479.124C569.507 481.205 562.091 485.213 560.559 485.967C557.683 487.38 554.582 488.22 551.416 488.519C550.941 488.565 550.65 488.875 550.6 489.369C549.753 497.917 541.239 502.859 533.734 499.564C532.767 499.14 532.345 500.782 533.298 501.201C541.887 504.972 551.29 498.898 552.232 489.369C551.96 489.652 551.688 489.935 551.416 490.218C555.269 489.856 559.001 488.771 562.431 486.889C564.683 485.652 569.914 482.917 569.157 479.549C568.323 475.863 563.251 477.215 560.834 477.643C556.253 478.453 551.768 479.717 547.403 481.363C546.422 481.732 546.846 483.374 547.836 483.001Z"
    fill="#F03F4E" />
  <path
    d="M404.473 480.878C404.473 480.878 432.415 518.712 449.633 523.493C466.85 528.276 540.662 481.931 540.662 481.931L548.032 503.555C548.032 503.555 468.569 578.43 437.11 557.013C405.65 535.595 386.499 505.704 386.499 505.704L404.473 480.878Z"
    fill="#F89FAB" />
  <path
    d="M467.266 585.837C467.266 585.837 583.651 480.386 600.946 469.935C618.241 459.484 647.251 462.966 660.64 484.449C674.029 505.933 743.765 611.601 745.996 617.988C748.228 624.374 724.238 649.921 705.27 647.597C686.302 645.276 615.451 559.928 615.451 559.928C615.451 559.928 566.915 626.697 552.41 626.697C537.905 626.697 457.741 617.578 457.741 617.578L467.266 585.837Z"
    fill="#17282F" />
  <path
    d="M614.021 561.578C613.843 561.49 613.706 561.313 613.658 561.039C611.754 549.866 609.848 538.692 607.944 527.519C607.833 526.875 608.357 526.454 608.834 526.454C609.149 526.454 609.443 526.64 609.517 527.068C611.338 537.745 613.158 548.423 614.979 559.101C614.67 559.932 614.35 560.756 614.021 561.578Z"
    fill="#0F191D" />
  <path
    d="M614.761 562.607C614.367 562.607 613.987 562.363 613.952 561.969C614.037 561.853 614.117 561.745 614.196 561.64C614.243 561.649 614.291 561.654 614.341 561.654C614.818 561.654 615.342 561.233 615.233 560.59C615.216 560.49 615.199 560.393 615.183 560.295C615.36 560.055 615.451 559.928 615.451 559.928C615.451 559.928 615.677 560.202 616.11 560.719C615.938 561.163 615.767 561.604 615.588 562.046C615.431 562.438 615.092 562.607 614.761 562.607Z"
    fill="#979999" />
  <path
    d="M613.952 561.969C613.943 561.856 613.961 561.729 614.015 561.593C614.017 561.588 614.019 561.584 614.022 561.579C614.076 561.609 614.135 561.627 614.196 561.64C614.117 561.745 614.037 561.853 613.952 561.969ZM616.11 560.719C615.677 560.202 615.451 559.928 615.451 559.928C615.451 559.928 615.36 560.055 615.183 560.295C615.116 559.899 615.046 559.5 614.979 559.102C618.484 549.706 620.7 539.841 621.518 529.786C621.564 529.243 621.994 528.971 622.403 528.971C622.81 528.971 623.196 529.243 623.15 529.786C622.286 540.412 619.927 550.829 616.11 560.719Z"
    fill="#0F191D" />
  <path
    d="M614.341 561.652C614.291 561.652 614.243 561.648 614.196 561.639C614.637 561.036 614.97 560.583 615.183 560.294C615.199 560.391 615.216 560.488 615.234 560.588C615.342 561.231 614.818 561.652 614.341 561.652Z"
    fill="#626668" />
  <path
    d="M614.196 561.641C614.135 561.627 614.076 561.609 614.021 561.579C614.35 560.757 614.67 559.933 614.979 559.102C615.046 559.501 615.116 559.899 615.183 560.295C614.97 560.585 614.637 561.038 614.196 561.641Z"
    fill="#0A0F12" />
  <path
    d="M385.602 519.863C373.628 532.157 419.807 488.034 408.657 475.698C397.505 463.365 357.995 420.786 329.775 431.876C304.435 441.834 385.602 519.863 385.602 519.863Z"
    fill="#406FBF" />
  <path
    d="M395.869 508.217C395.077 506.964 394.282 505.708 393.497 504.46C394.304 505.694 395.107 506.931 395.908 508.169C395.893 508.185 395.882 508.199 395.869 508.217ZM396.987 506.801C389.991 495.992 382.767 485.313 375.029 475.068C360.957 452.782 349.74 435.752 345.205 433.401C341.943 431.712 338.129 431.057 334.184 431.057C333.455 431.057 332.719 431.08 331.984 431.121C334.503 430.389 337.099 430.05 339.75 430.05C366.589 430.05 398.769 464.764 408.657 475.697C409.874 477.045 410.407 478.768 410.409 480.756C410.413 487.82 403.696 498.216 396.987 506.801Z"
    fill="#6D97D6" />
  <path
    d="M306.398 438.386C310.137 436.527 332.118 426.619 345.205 433.402C358.291 440.184 426.992 569.147 459.458 594.152C476.875 607.566 399.442 715.014 391.943 711.758C384.447 708.499 236.342 503.133 239.523 491.883C244.517 474.226 272.1 455.237 271.887 455.679L306.398 438.386Z"
    fill="#406FBF" />
  <path
    d="M447.701 638.158C426.918 633.142 407.861 626.996 390.383 620.023C396.4 615.159 400.697 609.011 400.697 609.011C400.697 609.011 433.749 614.93 455.589 617.899L447.701 638.158ZM345.936 598.854C329.808 589.804 315.468 580.121 302.682 570.177C298.123 554.877 294.498 539.34 290.315 523.916C287.262 512.659 283.502 501.218 275.647 492.538C271.023 487.426 265.322 483.572 259.329 480.426C259.199 480.358 259.07 480.329 258.948 480.329C258.198 480.329 257.699 481.47 258.507 481.894C259.777 482.562 261.02 483.262 262.23 483.995C259.386 483.028 256.642 482.723 254.303 482.723C250.218 482.723 247.365 483.656 247.365 483.656C247.365 483.656 242.678 484.136 239.612 493.303C239.521 492.916 239.473 492.585 239.473 492.313C239.473 492.148 239.491 492.005 239.523 491.883C243.766 476.882 264.314 460.919 270.268 456.727C270.176 457.103 270.063 457.427 269.924 457.694C269.976 457.688 270.035 457.683 270.1 457.683C270.919 457.683 272.831 458.238 275.571 458.79C278.31 459.345 281.875 459.9 286.003 459.9C290.289 459.9 295.181 459.3 300.377 457.484C315.468 452.696 310.715 444.254 305.689 439.054C304.858 439.657 304.002 439.958 303.158 440.01L306.398 438.386C309.205 436.991 322.296 431.058 334.184 431.058C338.129 431.058 341.943 431.713 345.205 433.402C349.74 435.753 360.957 452.782 375.029 475.068C368.908 466.966 362.469 459.135 355.569 451.727C355.402 451.548 355.21 451.471 355.025 451.471C354.407 451.471 353.852 452.323 354.416 452.93C369.08 468.671 381.655 486.339 393.497 504.461C404.867 522.496 416.906 541.263 428.182 557.233C413.851 569.842 396.656 586.093 387.522 594.814C387.232 594.777 386.958 594.741 386.699 594.71L383.365 582.139C383.365 582.139 364.785 591.632 345.936 598.854ZM294.036 545.189C287.545 525.311 280.449 505.145 276.794 497.717C276.256 496.625 275.693 495.611 275.107 494.669C277.964 497.948 280.415 501.653 282.388 505.853C288.157 518.146 290.698 532.046 294.036 545.189Z"
    fill="#6D97D6" />
  <path
    d="M148.681 347.455C147.385 352.853 180.702 772.253 546.428 742.559C912.157 712.866 930.312 409.181 930.312 409.181C925.29 409.498 874.008 647.231 587.973 652.318C300.014 657.44 223.305 478.86 207.068 455.05C188.535 427.875 148.681 347.455 148.681 347.455Z"
    fill="#406FBF" />
  <path
    d="M678.61 716.211C683.836 714.428 688.952 712.578 693.966 710.66C693.992 710.737 694.018 710.814 694.044 710.893C688.517 713.146 681.963 715.629 678.61 716.211Z"
    fill="#A7A9A8" />
  <path
    d="M678.374 716.232C671.67 716.231 649.127 664.643 649.127 664.643C649.127 664.643 640.399 661.615 618.569 660.605C607.008 660.071 567.15 656.368 532.21 653.001C553.955 654.26 576.89 654.896 597.086 654.896C628.727 654.896 653.635 653.334 656.641 650.156C656.706 650.181 656.775 650.197 656.847 650.204C656.858 650.281 656.869 650.358 656.882 650.433C656.921 650.686 657.037 650.856 657.191 650.951C657.437 652.391 657.922 655.261 658.891 660.968C660.836 672.44 684.828 698.084 690.016 704.833C692.349 707.867 693.369 708.991 693.965 710.66C688.952 712.578 683.836 714.428 678.609 716.21C678.599 716.212 678.59 716.215 678.581 716.217C678.514 716.228 678.446 716.232 678.374 716.232Z"
    fill="#2D5BB2" />
  <path
    d="M463.788 596.843C482.487 603.182 609.609 572.562 645.922 567.161C682.235 561.762 703.823 561.853 723.361 593.014C743.5 625.13 798.955 778.392 798.955 778.392L760.049 802.012L754.212 791.889C754.212 791.889 741.243 793.239 731.517 777.717C721.79 762.195 729.571 762.195 721.142 756.796C712.712 751.398 697.798 738.575 695.852 723.729C693.907 708.882 695.204 711.582 690.016 704.833C684.829 698.085 660.836 672.44 658.891 660.968C656.945 649.495 656.945 649.495 656.945 649.495C656.941 659.6 453.981 655.361 447.69 638.184L463.788 596.843Z"
    fill="#17282F" />
  <path
    d="M657.191 650.951C657.037 650.856 656.921 650.687 656.882 650.433C656.869 650.359 656.858 650.282 656.847 650.205C656.873 650.209 656.902 650.209 656.93 650.209C656.974 650.209 657.019 650.207 657.065 650.198C657.098 650.39 657.139 650.637 657.191 650.951Z"
    fill="#24437F" />
  <path
    d="M657.55 651.047C657.422 651.047 657.298 651.017 657.191 650.952C657.139 650.637 657.098 650.39 657.065 650.198C657.263 650.161 657.452 650.037 657.587 649.801C657.807 649.414 658.029 649.027 658.249 648.637C658.318 649.086 658.386 649.534 658.455 649.982C658.553 650.626 658.025 651.047 657.55 651.047ZM656.554 648.286C655.485 641.318 654.419 634.352 653.351 627.384C653.253 626.741 653.781 626.317 654.256 626.317C654.569 626.317 654.858 626.503 654.924 626.933C655.899 633.292 656.873 639.651 657.846 646.013C657.415 646.769 656.984 647.528 656.554 648.286Z"
    fill="#0F191D" />
  <path
    d="M656.847 650.203C656.776 650.196 656.706 650.181 656.641 650.156C656.706 650.086 656.762 650.016 656.806 649.943C656.819 650.032 656.832 650.117 656.847 650.203Z"
    fill="#24437F" />
  <path
    d="M656.641 650.156C656.201 649.993 655.87 649.484 656.177 648.945C656.303 648.725 656.427 648.505 656.554 648.286C656.636 648.838 656.721 649.391 656.806 649.943C656.762 650.016 656.706 650.086 656.641 650.156ZM658.249 648.637C658.116 647.763 657.981 646.886 657.846 646.012C661.471 639.642 665.094 633.274 668.72 626.906C668.885 626.618 669.131 626.498 669.377 626.498C669.936 626.498 670.502 627.109 670.13 627.762C666.169 634.721 662.209 641.68 658.249 648.637Z"
    fill="#0F191D" />
  <path
    d="M656.93 650.209C656.902 650.209 656.873 650.209 656.847 650.204C656.832 650.119 656.819 650.033 656.806 649.944C656.897 649.797 656.945 649.648 656.945 649.496C656.945 649.496 656.945 649.496 657.065 650.198C657.019 650.207 656.974 650.209 656.93 650.209Z"
    fill="#1D2D51" />
  <path
    d="M657.065 650.197C656.945 649.495 656.945 649.495 656.945 649.495C656.945 649.647 656.897 649.796 656.806 649.944C656.721 649.391 656.636 648.838 656.554 648.286C656.984 647.527 657.415 646.769 657.846 646.012C657.981 646.886 658.116 647.763 658.249 648.637C658.029 649.026 657.807 649.414 657.587 649.801C657.452 650.036 657.263 650.161 657.065 650.197Z"
    fill="#0A0F12" />
  <path
    d="M754.876 790.953C754.252 790.953 753.694 790.101 754.267 789.502C765.064 778.16 778.401 769.707 793.03 764.903C793.121 764.874 793.206 764.86 793.289 764.86C794.101 764.86 794.37 766.243 793.463 766.541C779.097 771.257 766.024 779.566 755.42 790.701C755.253 790.881 755.061 790.953 754.876 790.953Z"
    fill="#0F191D" />
  <path
    d="M738.219 622.957C734.245 613.987 730.581 606.197 727.424 600.189C731.702 607.39 735.318 615.049 738.763 622.728C738.584 622.803 738.399 622.882 738.219 622.957ZM505.92 594.027C525.806 590.138 545.704 586.3 565.608 582.516C575.467 580.641 585.329 578.777 595.193 576.929C566.321 582.846 532.384 589.851 505.92 594.027ZM656.443 565.726C661.859 564.902 667.314 564.306 672.782 564.306C673.872 564.306 674.965 564.329 676.055 564.379C677.054 564.426 678.044 564.499 679.025 564.598C677.491 564.514 675.922 564.474 674.323 564.474C668.798 564.474 662.868 564.952 656.443 565.726Z"
    fill="#0F191D" />
  <path
    d="M741.161 629.678C740.164 627.375 739.183 625.13 738.219 622.956C738.399 622.882 738.584 622.802 738.763 622.728C739.646 624.693 740.517 626.661 741.385 628.622C741.57 629.041 741.424 629.438 741.161 629.678Z"
    fill="#2D5BB2" />
  <path
    d="M740.586 629.92C740.345 629.92 740.112 629.791 739.975 629.481C732.313 612.165 724.358 594.241 710.547 581.211C704.839 575.825 698.209 571.382 690.878 568.819C685.02 566.769 678.89 566.011 672.743 566.011C670.127 566.011 667.508 566.149 664.907 566.382C655.822 567.2 646.84 569.079 637.87 570.725C628.999 572.356 620.127 573.996 611.258 575.646C575.073 582.379 538.917 589.286 502.791 596.361C502.732 596.374 502.673 596.379 502.619 596.379C501.718 596.379 501.385 594.914 502.358 594.723C503.546 594.49 504.732 594.259 505.92 594.026C532.384 589.85 566.321 582.846 595.193 576.928C604.127 575.252 613.062 573.588 622.001 571.935C631.321 570.209 640.64 568.45 649.973 566.801C652.123 566.42 654.28 566.056 656.443 565.725C662.868 564.951 668.798 564.473 674.323 564.473C675.922 564.473 677.491 564.514 679.025 564.597C693.321 566.058 705.788 573.198 715.715 584.1C720.202 589.023 724.023 594.461 727.424 600.188C730.581 606.196 734.245 613.986 738.219 622.956C739.183 625.13 740.164 627.375 741.161 629.678C740.998 629.829 740.789 629.92 740.586 629.92Z"
    fill="#0F191D" />
  <path
    d="M390.383 620.023C386.029 618.286 381.764 616.493 377.603 614.659C384.86 608.952 389.417 604.955 389.417 604.955L388.636 602.006C403.487 603.97 436.875 608.349 458.318 610.895L455.589 617.899C433.749 614.93 400.697 609.011 400.697 609.011C400.697 609.011 396.4 615.159 390.383 620.023ZM386.888 595.419L386.699 594.71C386.958 594.741 387.232 594.778 387.522 594.814C387.304 595.02 387.095 595.222 386.888 595.419Z"
    fill="#4971BF" />
  <path
    d="M318.716 661.742C304.653 661.742 305.532 653.644 305.55 653.504C328.421 651.015 360.509 628.097 377.603 614.659C381.764 616.493 386.029 618.287 390.383 620.024C390.065 620.28 389.745 620.533 389.417 620.782C382.9 625.737 344.744 658.88 324.507 661.357C322.337 661.622 320.42 661.742 318.716 661.742Z"
    fill="#2D5BB2" />
  <path
    d="M472.085 619.555C468.945 619.555 462.894 618.891 455.589 617.899L458.318 610.895C467.775 612.016 474.905 612.781 477.103 612.827C477.512 615.383 477.242 618.447 474.011 619.389C473.624 619.503 472.971 619.555 472.085 619.555Z"
    fill="#0F191D" />
  <path
    d="M256.154 554.422C256.154 554.422 262.711 636.915 291.255 651.481C319.798 666.044 389.417 604.954 389.417 604.954L383.365 582.138C383.365 582.138 316.403 616.35 307.76 604.289C299.117 592.225 289.83 541.84 289.83 541.84L256.154 554.422Z"
    fill="#F89FAB" />
  <path
    d="M247.366 483.657C247.366 483.657 266.749 477.307 276.794 497.718C282.632 509.58 297.244 553.93 304.157 577.717L251.228 596.844C221.682 486.277 247.366 483.657 247.366 483.657Z"
    fill="#406FBF" />
  <path
    d="M251.228 596.844C240.437 556.461 237.012 530.48 237.014 513.765C237.016 484.714 247.365 483.657 247.365 483.657C247.365 483.657 250.218 482.724 254.303 482.724C256.642 482.724 259.386 483.029 262.23 483.996C267.091 486.945 271.436 490.455 275.107 494.669C275.693 495.612 276.256 496.626 276.794 497.718C280.449 505.145 287.545 525.312 294.036 545.19C294.047 545.231 294.058 545.272 294.069 545.313C296.861 556.285 299.907 567.18 303.371 577.943C303.376 577.961 303.382 577.98 303.389 577.995L298.441 579.784L261.99 592.955L251.228 596.844Z"
    fill="#6D97D6" />
  <path
    d="M222.733 350.318C219.541 341.344 222.08 330.476 228.874 324.029C235.669 317.581 246.301 315.951 254.594 320.084C255.919 317.008 259.399 311.591 264.935 311.25C268.168 311.048 273.554 312.425 273.554 312.425C273.554 312.425 274.868 308.874 277.462 305.828C280.617 302.123 287.471 301.258 291.641 303.64C295.812 306.021 298.399 309.397 297.091 314.157C306.766 309.97 319.099 314.218 324.468 323.583C329.834 332.949 324.32 346.829 316.181 353.7C316.456 360.231 315.474 370.079 315.748 376.61L240.957 391.484C238.796 385.979 231.026 371.549 228.867 366.044C224.831 368.263 219.162 366.114 217.446 361.712C215.728 357.309 218.353 351.655 222.733 350.318Z"
    fill="#17282F" />
  <path
    d="M302.856 365.862C317.866 367.023 312.158 347.011 305.724 338.732C294.711 324.342 287.846 364.7 302.856 365.862Z"
    fill="#17282F" />
  <path
    d="M300.377 457.483C290.178 461.05 281.157 459.92 275.571 458.79C272.611 458.192 270.616 457.594 269.924 457.694C272.222 453.278 267.755 432.847 266.765 425.808C263.518 415.887 266.614 422.572 262.504 411.919C260.274 405.714 257.747 399.627 254.931 393.685L274.598 403.382L296.267 413.883C296.289 417.631 296.589 421.37 297.17 425.065C293.41 433.771 300.155 443.071 305.689 439.054C310.715 444.253 315.468 452.696 300.377 457.483Z"
    fill="#F89FAB" />
  <path
    d="M296.532 433.663C296.406 433.208 296.306 432.737 296.23 432.252L296.532 433.663C296.534 433.663 296.532 433.665 296.532 433.663Z"
    fill="#C3C5C2" />
  <path
    d="M289.253 434.982C282.915 434.982 278.169 431.846 275.212 429.072C279.457 431.056 283.774 431.966 287.983 431.966C290.694 431.966 293.364 431.588 295.934 430.872L296.23 432.251C296.306 432.736 296.406 433.207 296.532 433.662C293.914 434.593 291.486 434.982 289.253 434.982Z"
    fill="#D78186" />
  <path
    d="M243.705 362.095C246.058 342.359 263.34 328.341 282.306 330.789C308.461 334.207 321.056 370.741 321.458 394.821C321.904 421.632 294.892 441.51 271.708 427.175C256.259 417.646 252.956 402.709 245.216 377.907C243.588 372.82 243.072 367.417 243.705 362.095Z"
    fill="#F89FAB" />
  <path
    d="M282.702 397.279C282.432 397.084 282.356 396.706 282.527 396.418C282.712 396.137 283.076 396.058 283.354 396.235C287.428 399.484 292.746 400.519 297.672 399.02L297.971 398.955C298.31 398.97 298.573 399.269 298.56 399.623C298.545 399.976 298.258 400.25 297.918 400.234C297.065 400.483 296.199 400.673 295.322 400.805C290.829 401.482 286.264 400.207 282.702 397.279Z"
    fill="#17282F" />
  <path
    d="M282.042 376.187C282.858 379.031 285.271 380.689 287.054 379.985C288.836 379.285 289.395 376.457 288.405 373.667C287.415 370.877 285.13 369.178 283.391 369.867C281.653 370.555 281.039 373.352 282.042 376.187Z"
    fill="#17282F" />
  <path
    d="M305.61 367.434C306.426 370.279 308.883 371.923 310.622 371.234C312.363 370.546 312.963 367.704 311.973 364.914C310.983 362.126 308.698 360.425 306.96 361.114C305.221 361.802 304.657 364.78 305.61 367.434Z"
    fill="#17282F" />
  <path
    d="M310.163 351.486C309.845 351.873 309.355 352.057 308.875 351.966C305.632 351.205 302.236 352.084 299.711 354.335C299.211 354.869 298.388 354.879 297.875 354.358C297.361 353.837 297.35 352.981 297.851 352.446L297.855 352.442C300.978 349.514 305.271 348.341 309.371 349.299C310.078 349.425 310.554 350.121 310.435 350.859L310.428 350.891C310.372 351.103 310.28 351.305 310.163 351.486Z"
    fill="#17282F" />
  <path
    d="M273.462 366.637C273.212 366.728 272.942 366.732 272.69 366.653C272.057 366.302 271.815 365.482 272.152 364.825L272.168 364.798C274.117 360.908 277.766 358.249 281.946 357.672C282.662 357.617 283.285 358.177 283.337 358.922L283.339 358.926C283.372 359.667 282.843 360.303 282.134 360.373C278.848 360.928 276.006 363.068 274.472 366.143C274.222 366.456 273.852 366.635 273.462 366.637Z"
    fill="#17282F" />
  <path
    d="M297.292 397.194C291.926 397.554 286.544 396.718 281.511 394.746C281.355 395.695 281.333 396.664 281.448 397.619C281.605 399.327 282.164 400.969 283.076 402.398C284.936 405.321 288.747 407.853 296.7 407.375C297.289 407.371 297.879 407.335 298.465 407.264C298.791 403.82 299.355 400.403 300.155 397.042C300.155 397.042 299.08 397.148 297.292 397.194Z"
    fill="#17282F" />
  <path
    d="M281.635 394.701C281.479 395.649 281.457 396.619 281.572 397.574C284.031 399.81 289.349 400.555 296.85 400.172L297.416 397.149C292.047 397.506 286.668 396.673 281.635 394.701Z"
    fill="white" />
  <path
    d="M292.013 403.689C289.129 402.715 286.103 402.278 283.076 402.398C284.936 405.321 288.746 407.853 296.7 407.375C295.544 405.668 293.906 404.377 292.013 403.689Z"
    fill="#F03F4E" />
  <path
    d="M298.123 369.381C303.001 375.038 308.611 379.968 314.789 384.029C312.672 387.319 309.264 389.468 305.48 389.898L298.123 369.381Z"
    fill="#F03F4E" />
  <path
    d="M237.256 344.565C237.534 342.782 237.88 340.964 238.781 339.422C239.732 337.798 241.229 336.607 242.757 335.563C249.742 330.791 258.054 328.355 266.39 327.761C274.727 327.166 283.108 328.348 291.236 330.372C296.134 331.591 301.037 333.153 305.249 336.025C309.462 338.894 312.952 343.242 313.931 348.383C314.01 348.802 314.069 349.252 313.895 349.637C313.566 350.362 312.63 350.471 311.862 350.434C310.694 350.38 309.033 350.536 307.121 350.693C300.458 351.236 290.748 351.78 288.259 343.41C288.068 342.764 287.952 343.083 287.944 343.403C287.937 343.72 288.033 344.037 288.259 343.41C281.27 346.433 279.307 346.302 273.726 346.168C272.507 346.141 271.119 346.111 269.469 346.116C271.669 348.047 271.98 351.755 270.446 354.291C268.91 356.823 265.87 358.134 263 357.912C263.759 361.674 264.404 365.696 263.05 369.271C262.145 371.665 259.738 373.862 257.401 373.028C258.169 375.347 258.82 377.709 259.347 380.101C259.854 382.404 260.234 384.874 259.431 387.085C258.57 389.46 256.505 391.098 254.538 392.604L238.085 377.311C235.854 366.576 235.574 355.405 237.256 344.565Z"
    fill="#17282F" />
  <path
    d="M236.309 402.074C240.178 408.005 246.151 412.097 252.916 413.452C261.886 415.179 265.557 406.615 262.408 398.233C259.538 390.812 251.424 380.705 242.739 382.864C234.057 385.022 231.646 394.732 236.309 402.074Z"
    fill="#F89FAB" />
  <path
    d="M253.584 399.932C253.258 399.932 252.929 399.755 252.795 399.347C251.976 396.865 250.49 394.671 248.536 393.011C247.555 392.175 246.36 391.365 245.076 391.19C244.946 391.174 244.811 391.165 244.674 391.165C243.736 391.165 242.681 391.582 242.304 392.517C242.163 392.868 241.884 393.145 241.523 393.145C241.451 393.145 241.377 393.133 241.299 393.111C240.916 392.995 240.557 392.492 240.729 392.067C241.331 390.574 242.615 389.673 244.154 389.496C244.321 389.476 244.487 389.467 244.654 389.467C246.138 389.467 247.574 390.198 248.762 391.072C251.382 393 253.328 395.742 254.368 398.897C254.575 399.522 254.083 399.932 253.584 399.932Z"
    fill="#B87074" />
  <path
    d="M228.297 367.836C228.099 367.836 227.901 367.831 227.703 367.82C227.111 367.786 226.852 367.229 226.931 366.76C227.546 366.629 228.147 366.418 228.717 366.124C228.776 366.122 228.835 366.117 228.893 366.113C229.085 366.599 229.32 367.152 229.588 367.759C229.161 367.809 228.73 367.836 228.297 367.836Z"
    fill="#A7A9A8" />
  <path
    d="M229.588 367.758C229.32 367.151 229.085 366.598 228.893 366.111C231.796 365.914 234.453 364.422 236.24 362.137C236.27 362.921 236.309 363.704 236.359 364.485C234.507 366.268 232.133 367.454 229.588 367.758ZM226.931 366.759C226.987 366.415 227.227 366.118 227.651 366.118C227.668 366.118 227.686 366.118 227.703 366.121C227.882 366.13 228.06 366.134 228.236 366.134C228.397 366.134 228.558 366.13 228.717 366.123C228.147 366.417 227.546 366.628 226.931 366.759Z"
    fill="#0F191D" />
  <path
    d="M263.148 358.414C263.133 358.414 263.12 358.414 263.105 358.414C263.102 358.414 263.1 358.412 263.1 358.412C263.065 358.246 263.033 358.079 263 357.911C263.209 357.929 263.42 357.936 263.629 357.936C263.696 357.936 263.766 357.936 263.833 357.934C263.733 358.206 263.505 358.414 263.148 358.414Z"
    fill="#B87074" />
  <path
    d="M247.72 365.428C244.239 365.428 240.988 363.322 239.242 360.228C238.583 361.854 237.587 363.301 236.359 364.486C236.309 363.704 236.27 362.921 236.24 362.137C237.249 360.849 237.98 359.307 238.32 357.604C238.405 357.187 238.725 356.997 239.055 356.997C239.41 356.997 239.78 357.212 239.895 357.604C240.927 361.109 244.193 363.729 247.711 363.729C248.09 363.729 248.471 363.7 248.852 363.636C252.797 362.991 255.643 359.1 255.602 355.036C255.597 354.589 256.017 354.164 256.444 354.164C256.576 354.164 256.709 354.207 256.831 354.302C258.689 355.785 260.759 356.607 263.104 356.716C263.77 356.745 264.014 357.443 263.833 357.934C263.766 357.936 263.696 357.936 263.629 357.936C263.42 357.936 263.209 357.93 263 357.912C263.033 358.079 263.065 358.247 263.1 358.412C260.939 358.315 258.94 357.712 257.136 356.571C256.535 360.867 253.306 364.646 249.071 365.321C248.619 365.394 248.168 365.428 247.72 365.428Z"
    fill="#0F191D" />
  <path
    d="M402.884 518.422C402.636 518.422 402.386 518.309 402.212 518.032C400.125 514.74 398.025 511.447 395.908 508.17C396.267 507.719 396.626 507.264 396.987 506.802C399.218 510.251 401.426 513.712 403.62 517.176C404.024 517.815 403.459 518.422 402.884 518.422Z"
    fill="#B87074" />
  <path
    d="M395.908 508.17C395.107 506.931 394.304 505.695 393.497 504.461C387.034 494.209 380.796 484.201 375.029 475.068C382.767 485.313 389.991 495.993 396.987 506.802C396.626 507.264 396.267 507.719 395.908 508.17Z"
    fill="#4971BF" />
  <path
    d="M393.497 504.461C381.655 486.34 369.08 468.671 354.416 452.93C353.852 452.323 354.407 451.472 355.025 451.472C355.21 451.472 355.402 451.549 355.569 451.727C362.469 459.135 368.908 466.966 375.029 475.069C380.796 484.202 387.034 494.209 393.497 504.461Z"
    fill="#4971BF" />
  <path
    d="M302.682 570.178C302.353 569.922 302.007 569.652 301.681 569.396C299.45 562.048 296.798 553.644 294.036 545.19C290.698 532.046 288.157 518.146 282.388 505.854C280.415 501.653 277.964 497.948 275.107 494.669C271.347 488.614 266.669 485.502 262.23 483.996C261.02 483.262 259.777 482.563 258.507 481.894C257.699 481.471 258.198 480.33 258.948 480.33C259.07 480.33 259.199 480.359 259.329 480.427C265.322 483.573 271.023 487.427 275.647 492.538C283.502 501.218 287.262 512.659 290.315 523.916C294.498 539.341 298.123 554.878 302.682 570.178Z"
    fill="#4971BF" />
  <path
    d="M304.157 578.529C303.844 578.529 303.53 578.366 303.389 577.995L304.157 577.716C303.415 575.16 302.581 572.365 301.681 569.396C302.007 569.652 302.353 569.922 302.682 570.177C303.411 572.623 304.161 575.06 304.945 577.492C305.147 578.119 304.653 578.529 304.157 578.529Z"
    fill="#2D5BB2" />
  <path
    d="M303.389 577.994C303.382 577.978 303.376 577.96 303.371 577.942C299.907 567.178 296.861 556.283 294.069 545.311C294.058 545.271 294.047 545.23 294.036 545.189C297.912 557.058 301.572 568.822 304.157 577.716L303.389 577.994ZM275.107 494.668C271.436 490.454 267.091 486.944 262.23 483.995C266.669 485.501 271.347 488.613 275.107 494.668Z"
    fill="#4971BF" />
  <path
    d="M526.496 675.033C476.86 675.033 427.125 667.069 383.413 641.316C382.637 640.858 383.113 639.73 383.836 639.73C383.964 639.73 384.099 639.767 384.238 639.848C399.864 649.054 416.554 656.112 433.805 661.26C463.858 670.225 494.605 673.389 525.515 673.389C562.849 673.389 600.419 668.772 637.279 664.188C637.316 664.181 637.353 664.179 637.387 664.179C638.319 664.179 638.271 665.762 637.279 665.886C617.246 668.378 597.21 670.869 577.106 672.635C560.407 674.102 543.46 675.033 526.496 675.033Z"
    fill="#2D5BB2" />
  <path
    d="M503.087 734.246C497.162 734.246 491.236 734.026 485.331 733.573C471.413 732.5 457.373 730.183 444.272 725.031C443.399 724.687 443.649 723.335 444.418 723.335C444.507 723.335 444.605 723.353 444.707 723.394C451.838 726.197 459.249 728.133 466.75 729.513C478.794 731.725 491.184 732.772 503.611 732.772C520.271 732.772 536.998 730.89 553.019 727.421C553.085 727.405 553.148 727.397 553.207 727.397C554.094 727.397 554.416 728.849 553.453 729.058C545.989 730.675 538.443 731.854 530.861 732.692C521.646 733.709 512.365 734.246 503.087 734.246Z"
    fill="#2D5BB2" />
  <path
    d="M381.07 601.003C381.07 601.003 475.719 613.632 477.776 612.788C486.29 609.291 533.005 547.304 529.828 549.225C529.828 549.225 459.086 538.452 451.139 539.682C443.192 540.914 381.07 601.003 381.07 601.003Z"
    fill="#17282F" />
  <path
    d="M477.293 612.828C477.234 612.828 477.171 612.828 477.103 612.826C474.905 612.781 467.775 612.015 458.318 610.894C436.875 608.349 403.487 603.969 388.636 602.006C383.918 601.381 381.07 601.002 381.07 601.002C381.07 601.002 443.192 540.913 451.139 539.681C451.568 539.616 452.181 539.584 452.956 539.584C457.395 539.584 467.168 540.617 478.302 542.007C478.226 544.145 478.156 546.36 478.098 548.627C476.601 548.287 473.778 547.739 471.108 547.739C468.939 547.739 466.869 548.099 465.688 549.225C462.396 552.359 416.7 596.025 418.621 596.595C420.392 597.123 469.141 604.166 476.718 604.166C477.356 604.166 477.699 604.116 477.704 604.01C477.736 609.447 477.776 612.787 477.776 612.787C477.71 612.815 477.547 612.828 477.293 612.828Z"
    fill="#57666B" />
  <path
    d="M477.776 612.787C478.235 612.509 478.8 612.11 479.46 611.6C479.46 611.605 479.46 611.612 479.46 611.619C479.46 611.659 479.462 611.698 479.469 611.734C478.803 612.241 478.235 612.599 477.776 612.787Z"
    fill="#57666B" />
  <path
    d="M481.068 610.396C481.068 610.363 481.066 610.335 481.066 610.301C481.468 609.966 481.89 609.604 482.334 609.219C481.893 609.645 481.468 610.039 481.068 610.396Z"
    fill="#57666B" />
  <path
    d="M476.718 604.166C469.141 604.166 420.392 597.123 418.621 596.595C416.7 596.025 462.396 552.359 465.688 549.225C466.869 548.099 468.939 547.739 471.108 547.739C473.778 547.739 476.601 548.287 478.098 548.627C477.749 561.732 477.656 576.61 477.656 588.742C477.656 594.661 477.678 599.927 477.704 604.01C477.699 604.116 477.356 604.166 476.718 604.166Z"
    fill="#879295" />
  <path
    d="M477.776 612.787C477.776 612.787 476.703 521.25 480.974 516.578C485.244 511.906 540.316 450.818 541.683 457.51C545.419 475.813 539.611 551.756 539.611 551.756C539.611 551.756 487.065 607.151 477.776 612.787Z"
    fill="#17282F" />
  <path
    d="M477.776 612.787C477.776 612.787 477.736 609.447 477.704 604.01C477.678 599.926 477.656 594.661 477.656 588.742C477.656 561.272 478.132 519.687 480.974 516.578C485.022 512.148 534.739 456.998 541.051 456.998C541.397 456.998 541.611 457.164 541.683 457.51C542.592 461.96 542.936 469.818 542.936 479.167C542.938 508.255 539.611 551.756 539.611 551.756C539.611 551.756 495.704 598.045 481.066 610.301C480.533 580.584 482.323 550.914 483.664 521.243C502.66 501.776 521.074 481.701 540.074 462.239C540.655 461.645 540.094 460.792 539.465 460.792C539.28 460.792 539.089 460.864 538.921 461.038C519.844 480.575 501.363 500.732 482.286 520.269C482.095 520.466 482.027 520.69 482.047 520.903C480.685 551.12 478.846 581.334 479.46 611.6C478.8 612.11 478.235 612.509 477.776 612.787Z"
    fill="#57666B" />
  <path
    d="M480.293 612.439C479.915 612.439 479.532 612.204 479.469 611.735C479.952 611.366 480.487 610.918 481.068 610.397C481.074 610.804 481.083 611.212 481.092 611.62C481.103 612.168 480.7 612.439 480.293 612.439Z"
    fill="#0F191D" />
  <path
    d="M479.468 611.734C479.462 611.698 479.46 611.66 479.46 611.619C479.46 611.612 479.46 611.605 479.46 611.601C479.945 611.225 480.483 610.79 481.066 610.301C481.066 610.335 481.068 610.362 481.068 610.396C480.487 610.917 479.952 611.365 479.468 611.734Z"
    fill="#394247" />
  <path
    d="M479.46 611.602C478.846 581.335 480.685 551.121 482.047 520.904C482.084 521.335 482.476 521.72 482.898 521.72C483.081 521.72 483.272 521.645 483.442 521.473C483.516 521.396 483.59 521.321 483.664 521.244C482.323 550.915 480.533 580.586 481.066 610.302C480.483 610.791 479.945 611.226 479.46 611.602Z"
    fill="#394247" />
  <path
    d="M483.664 521.244C483.668 521.122 483.675 520.995 483.679 520.871C483.705 520.325 483.309 520.053 482.902 520.053C482.493 520.053 482.073 520.327 482.049 520.871C482.047 520.882 482.047 520.893 482.047 520.904C482.027 520.692 482.095 520.467 482.286 520.27C501.363 500.734 519.844 480.576 538.921 461.04C539.089 460.865 539.28 460.793 539.465 460.793C540.094 460.793 540.655 461.647 540.074 462.24C521.074 481.702 502.66 501.778 483.664 521.244Z"
    fill="#394247" />
  <path
    d="M482.898 521.719C482.476 521.719 482.084 521.334 482.047 520.903C482.047 520.892 482.047 520.881 482.049 520.87C482.073 520.326 482.493 520.052 482.902 520.052C483.309 520.052 483.705 520.324 483.679 520.87C483.675 520.994 483.668 521.121 483.664 521.243C483.59 521.32 483.516 521.395 483.442 521.472C483.272 521.644 483.081 521.719 482.898 521.719Z"
    fill="#252A2E" />
  <path
    d="M385.818 607.632C389.763 603.707 395.529 602.554 399.32 600.924C405.413 598.304 408.002 590.862 410.763 590.02C418.158 587.766 432.682 589.567 432.954 584.872C433.224 580.178 417.252 580.305 417.252 580.305C417.252 580.305 434.29 577.936 434.434 573.547C434.554 569.901 433.152 568.839 432.48 568.223C432.097 567.872 432.306 568.723 432.48 568.223C432.737 567.491 433.572 563.981 431.923 562.584C429.316 560.376 419.306 560.372 406.322 566.019C406.322 566.019 410 563.22 416.308 559.266C418.828 557.686 422.686 557.652 425.212 554.984C428.752 551.245 418.438 549.261 410.99 553.297C403.541 557.335 393.214 569.709 386.035 578.613C385.25 579.587 384.34 580.801 383.365 582.139L364.639 592.533L364.208 593.362C363.425 599.425 365.588 603.492 368.364 608.884L372.433 617.822L385.818 607.632Z"
    fill="#F89FAB" />
  <path
    d="M432.608 567.82C427.817 567.783 422.96 567.813 418.295 569.099C412.839 570.607 407.991 573.73 403.489 577.19C402.654 577.831 403.467 579.308 404.314 578.656C408.701 575.284 413.407 572.206 418.728 570.739C423.254 569.489 427.96 569.484 432.608 569.518C433.659 569.525 433.659 567.826 432.608 567.82Z"
    fill="#F03F4E" />
  <path
    d="M417.579 579.523C415.25 580.151 412.842 580.66 410.585 581.541C408.564 582.329 406.721 583.516 405.5 585.409C404.912 586.317 406.324 587.169 406.908 586.265C408.002 584.574 409.8 583.593 411.612 582.959C413.701 582.23 415.879 581.736 418.012 581.161C419.028 580.887 418.597 579.247 417.579 579.523Z"
    fill="#F03F4E" />
  <path
    d="M82.3777 302.744C92.826 311.841 102.922 321.439 113.895 329.863C124.497 338.004 136.011 344.447 148.464 348.947C149.459 349.307 149.886 347.667 148.898 347.309C136.573 342.857 125.21 336.446 114.718 328.398C103.856 320.064 93.8722 310.546 83.5321 301.542C82.7313 300.847 81.571 302.04 82.3777 302.744Z"
    fill="#17282F" />
  <path
    d="M82.0334 302.571C105.671 315.506 126.63 332.735 148.27 348.861C149.125 349.498 149.941 348.026 149.093 347.394C127.454 331.27 106.495 314.041 82.8571 301.103C81.929 300.596 81.1028 302.061 82.0334 302.571Z"
    fill="#17282F" />
  <path
    d="M929.948 412.162C945.722 396.887 959.936 379.687 974.23 362.934C975.692 361.219 977.154 359.503 978.608 357.779C979.298 356.962 978.149 355.757 977.455 356.579C965.513 370.728 953.395 384.746 940.889 398.359C936.949 402.65 932.971 406.917 928.793 410.961C928.023 411.706 929.178 412.907 929.948 412.162Z"
    fill="#17282F" />
  <path
    d="M981.807 751.033C988.178 750.671 994.193 747.444 998.888 742.946C1003.59 738.452 1007.07 732.748 1009.96 726.824C1017.62 711.092 1021.33 693.297 1020.61 675.676C1020.45 671.899 1020.08 668.04 1018.52 664.623C1016.96 661.208 1014.01 658.277 1010.41 657.736C1005.04 656.93 1000.36 661.396 996.945 665.787C981.461 685.72 973.497 711.817 975.092 737.396C975.483 743.657 977.49 749.704 981.807 751.033Z"
    fill="#406FBF" />
  <path
    d="M953.301 716.375C958.543 705.048 958.928 691.625 955.464 679.58C952 667.534 944.884 656.83 936.069 648.231C926.404 638.803 913.992 631.559 900.742 631.486C895.095 631.455 888.979 633.033 885.512 637.673C881.822 642.615 882.126 649.637 883.745 655.663C886.398 665.533 892.027 674.317 898.749 681.804C905.471 689.293 913.295 695.6 921.101 701.848C929.901 708.886 939.403 716.174 950.468 717.055"
    fill="#406FBF" />
  <path
    d="M952.518 754.608C950.958 741.878 941.457 731.349 930.347 725.785C919.238 720.219 906.652 718.852 894.338 718.21C891.596 718.068 888.787 717.966 886.165 718.813C883.545 719.662 881.102 721.652 880.399 724.413C879.476 728.032 881.68 731.663 883.983 734.538C897.476 751.391 918.583 761.34 939.656 760.776C942.093 760.711 944.576 760.502 946.826 759.528C949.078 758.555 951.09 756.702 951.767 754.263"
    fill="#406FBF" />
  <path
    d="M1008.63 667.169C993.955 704.501 982.175 743.047 973.51 782.364C971.057 793.497 968.857 804.689 966.895 815.926C966.71 816.995 968.281 817.452 968.47 816.376C975.401 776.692 985.402 737.603 998.429 699.611C1002.12 688.854 1006.05 678.19 1010.21 667.619C1010.61 666.609 1009.03 666.17 1008.63 667.169Z"
    fill="#17282F" />
  <path
    d="M967.671 801.101C968.403 777.65 966.573 753.94 960.149 731.369C953.882 709.346 943.163 688.939 928.499 671.753C919.094 660.732 908.241 651.173 896.568 642.852C895.7 642.232 894.884 643.704 895.746 644.318C915.532 658.424 932.729 676.33 944.741 698.045C955.577 717.634 961.875 739.569 964.534 761.941C966.076 774.926 966.446 788.03 966.039 801.101C966.007 802.194 967.639 802.192 967.671 801.101Z"
    fill="#17282F" />
  <path
    d="M966.51 768.108C948.927 746.839 924.256 731.987 897.687 727.066C896.66 726.876 896.22 728.512 897.254 728.704C923.579 733.58 947.933 748.234 965.356 769.308C966.042 770.14 967.193 768.932 966.51 768.108Z"
    fill="#17282F" />
  <path
    d="M926.724 817.671V790.116H1000.48V817.671C1000.48 817.671 1001.9 866.386 975.895 870.812H963.602H951.308C925.305 866.386 926.724 817.671 926.724 817.671Z"
    fill="#406FBF" />
  <path
    d="M975.895 870.812H951.308C927.87 866.823 926.71 826.85 926.71 819.004C926.71 818.146 926.724 817.671 926.724 817.671V790.116H963.602H1000.48V817.671C1000.48 817.671 1000.49 818.136 1000.49 818.979C1000.5 826.764 999.358 866.818 975.895 870.812Z"
    fill="#254583" />
</svg>