<svg width="602" height="57" viewBox="0 0 602 57" fill="none" xmlns="http://www.w3.org/2000/svg">
  <rect x="0.5" y="0.5" width="601" height="56" stroke="#2A2B2C" />
  <g clip-path="url(#clip0_56_184)">
    <path d="M69.25 29V23H73.25V29H78.25V21H81.25L71.25 12L61.25 21H64.25V29H69.25Z" fill="#395AB1" />
  </g>
  <path
    d="M58.7388 38V46H57.2896V38H58.7388ZM61.8597 42.4844V46H60.4456V40H61.7972V41.0195H61.8675C62.0055 40.6836 62.2256 40.4167 62.5276 40.2187C62.8323 40.0208 63.2086 39.9219 63.6565 39.9219C64.0706 39.9219 64.4313 40.0104 64.7386 40.1875C65.0485 40.3646 65.2881 40.6211 65.4573 40.957C65.6292 41.293 65.7138 41.7005 65.7112 42.1797V46H64.2972V42.3984C64.2972 41.9974 64.193 41.6836 63.9847 41.457C63.7789 41.2305 63.4938 41.1172 63.1292 41.1172C62.8818 41.1172 62.6618 41.1719 62.469 41.2812C62.2789 41.388 62.1292 41.543 62.0198 41.7461C61.9131 41.9492 61.8597 42.1953 61.8597 42.4844ZM67.3487 46V40H68.7628V46H67.3487ZM67.5167 39.2109L68.3917 37.4258H69.7745L68.5753 39.2109H67.5167ZM73.0341 46.1172C72.4351 46.1172 71.9208 45.9857 71.4911 45.7227C71.064 45.4596 70.7346 45.0964 70.5028 44.6328C70.2737 44.1667 70.1591 43.6302 70.1591 43.0234C70.1591 42.4141 70.2763 41.8763 70.5106 41.4102C70.745 40.9414 71.0757 40.5768 71.5028 40.3164C71.9325 40.0534 72.4403 39.9219 73.0263 39.9219C73.5132 39.9219 73.9442 40.0117 74.3192 40.1914C74.6968 40.3685 74.9976 40.6198 75.2216 40.9453C75.4455 41.2682 75.5731 41.6458 75.6044 42.0781H74.2528C74.1981 41.7891 74.0679 41.5482 73.8622 41.3555C73.6591 41.1602 73.3869 41.0625 73.0458 41.0625C72.7567 41.0625 72.5028 41.1406 72.2841 41.2969C72.0653 41.4505 71.8948 41.6719 71.7724 41.9609C71.6526 42.25 71.5927 42.5964 71.5927 43C71.5927 43.4089 71.6526 43.7604 71.7724 44.0547C71.8922 44.3464 72.0601 44.5716 72.2763 44.7305C72.495 44.8867 72.7515 44.9648 73.0458 44.9648C73.2541 44.9648 73.4403 44.9258 73.6044 44.8477C73.7711 44.7669 73.9104 44.651 74.0224 44.5C74.1343 44.349 74.2112 44.1654 74.2528 43.9492H75.6044C75.5705 44.3737 75.4455 44.75 75.2294 45.0781C75.0132 45.4036 74.719 45.6589 74.3466 45.8437C73.9742 46.026 73.5367 46.1172 73.0341 46.1172ZM76.9655 46V40H78.3796V46H76.9655ZM77.6765 39.1484C77.4525 39.1484 77.2598 39.0742 77.0983 38.9258C76.9369 38.7747 76.8562 38.5937 76.8562 38.3828C76.8562 38.1693 76.9369 37.9883 77.0983 37.8398C77.2598 37.6888 77.4525 37.6133 77.6765 37.6133C77.903 37.6133 78.0957 37.6888 78.2546 37.8398C78.416 37.9883 78.4968 38.1693 78.4968 38.3828C78.4968 38.5937 78.416 38.7747 78.2546 38.9258C78.0957 39.0742 77.903 39.1484 77.6765 39.1484ZM82.6509 46.1172C82.0649 46.1172 81.5571 45.9883 81.1274 45.7305C80.6978 45.4727 80.3644 45.112 80.1274 44.6484C79.8931 44.1849 79.7759 43.6432 79.7759 43.0234C79.7759 42.4036 79.8931 41.8607 80.1274 41.3945C80.3644 40.9284 80.6978 40.5664 81.1274 40.3086C81.5571 40.0508 82.0649 39.9219 82.6509 39.9219C83.2368 39.9219 83.7446 40.0508 84.1743 40.3086C84.604 40.5664 84.936 40.9284 85.1704 41.3945C85.4074 41.8607 85.5259 42.4036 85.5259 43.0234C85.5259 43.6432 85.4074 44.1849 85.1704 44.6484C84.936 45.112 84.604 45.4727 84.1743 45.7305C83.7446 45.9883 83.2368 46.1172 82.6509 46.1172ZM82.6587 44.9844C82.9764 44.9844 83.242 44.8971 83.4556 44.7227C83.6691 44.5456 83.828 44.3086 83.9321 44.0117C84.0389 43.7148 84.0923 43.3841 84.0923 43.0195C84.0923 42.6523 84.0389 42.3203 83.9321 42.0234C83.828 41.724 83.6691 41.4857 83.4556 41.3086C83.242 41.1315 82.9764 41.043 82.6587 41.043C82.3332 41.043 82.0623 41.1315 81.8462 41.3086C81.6326 41.4857 81.4725 41.724 81.3657 42.0234C81.2616 42.3203 81.2095 42.6523 81.2095 43.0195C81.2095 43.3841 81.2616 43.7148 81.3657 44.0117C81.4725 44.3086 81.6326 44.5456 81.8462 44.7227C82.0623 44.8971 82.3332 44.9844 82.6587 44.9844Z"
    fill="#395AB1" />
  <path
    d="M221.25 25C219.433 25 217.896 24.3708 216.638 23.1125C215.379 21.8542 214.75 20.3167 214.75 18.5C214.75 16.6833 215.379 15.1458 216.638 13.8875C217.896 12.6292 219.433 12 221.25 12C223.067 12 224.604 12.6292 225.863 13.8875C227.121 15.1458 227.75 16.6833 227.75 18.5C227.75 19.2333 227.633 19.925 227.4 20.575C227.167 21.225 226.85 21.8 226.45 22.3L232.05 27.9C232.233 28.0833 232.325 28.3167 232.325 28.6C232.325 28.8833 232.233 29.1167 232.05 29.3C231.867 29.4833 231.633 29.575 231.35 29.575C231.067 29.575 230.833 29.4833 230.65 29.3L225.05 23.7C224.55 24.1 223.975 24.4167 223.325 24.65C222.675 24.8833 221.983 25 221.25 25ZM221.25 23C222.5 23 223.562 22.5625 224.438 21.6875C225.312 20.8125 225.75 19.75 225.75 18.5C225.75 17.25 225.312 16.1875 224.438 15.3125C223.562 14.4375 222.5 14 221.25 14C220 14 218.938 14.4375 218.062 15.3125C217.188 16.1875 216.75 17.25 216.75 18.5C216.75 19.75 217.188 20.8125 218.062 21.6875C218.938 22.5625 220 23 221.25 23Z"
    fill="#A09CAB" />
  <path
    d="M200.91 46V38H203.91C204.524 38 205.04 38.1146 205.457 38.3437C205.876 38.5729 206.192 38.888 206.406 39.2891C206.622 39.6875 206.73 40.1406 206.73 40.6484C206.73 41.1615 206.622 41.6172 206.406 42.0156C206.19 42.4141 205.871 42.7279 205.449 42.957C205.027 43.1836 204.508 43.2969 203.89 43.2969H201.902V42.1055H203.695C204.054 42.1055 204.349 42.043 204.578 41.918C204.807 41.793 204.976 41.6211 205.086 41.4023C205.198 41.1836 205.254 40.9323 205.254 40.6484C205.254 40.3646 205.198 40.1146 205.086 39.8984C204.976 39.6823 204.806 39.5143 204.574 39.3945C204.345 39.2721 204.049 39.2109 203.687 39.2109H202.359V46H200.91ZM208.126 46V40H209.498V41H209.56C209.669 40.6536 209.857 40.3867 210.123 40.1992C210.391 40.0091 210.697 39.9141 211.041 39.9141C211.119 39.9141 211.206 39.918 211.302 39.9258C211.401 39.931 211.483 39.9401 211.548 39.9531V41.2539C211.488 41.2331 211.393 41.2148 211.263 41.1992C211.136 41.181 211.012 41.1719 210.892 41.1719C210.634 41.1719 210.403 41.2279 210.197 41.3398C209.994 41.4492 209.833 41.6016 209.716 41.7969C209.599 41.9922 209.541 42.2174 209.541 42.4727V46H208.126ZM215.058 46.1172C214.472 46.1172 213.964 45.9883 213.534 45.7305C213.105 45.4727 212.771 45.112 212.534 44.6484C212.3 44.1849 212.183 43.6432 212.183 43.0234C212.183 42.4036 212.3 41.8607 212.534 41.3945C212.771 40.9284 213.105 40.5664 213.534 40.3086C213.964 40.0508 214.472 39.9219 215.058 39.9219C215.644 39.9219 216.152 40.0508 216.581 40.3086C217.011 40.5664 217.343 40.9284 217.577 41.3945C217.814 41.8607 217.933 42.4036 217.933 43.0234C217.933 43.6432 217.814 44.1849 217.577 44.6484C217.343 45.112 217.011 45.4727 216.581 45.7305C216.152 45.9883 215.644 46.1172 215.058 46.1172ZM215.066 44.9844C215.383 44.9844 215.649 44.8971 215.863 44.7227C216.076 44.5456 216.235 44.3086 216.339 44.0117C216.446 43.7148 216.499 43.3841 216.499 43.0195C216.499 42.6523 216.446 42.3203 216.339 42.0234C216.235 41.724 216.076 41.4857 215.863 41.3086C215.649 41.1315 215.383 41.043 215.066 41.043C214.74 41.043 214.469 41.1315 214.253 41.3086C214.04 41.4857 213.88 41.724 213.773 42.0234C213.669 42.3203 213.617 42.6523 213.617 43.0195C213.617 43.3841 213.669 43.7148 213.773 44.0117C213.88 44.3086 214.04 44.5456 214.253 44.7227C214.469 44.8971 214.74 44.9844 215.066 44.9844ZM221.95 46.1172C221.351 46.1172 220.837 45.9857 220.407 45.7227C219.98 45.4596 219.651 45.0964 219.419 44.6328C219.19 44.1667 219.075 43.6302 219.075 43.0234C219.075 42.4141 219.192 41.8763 219.427 41.4102C219.661 40.9414 219.992 40.5768 220.419 40.3164C220.849 40.0534 221.357 39.9219 221.942 39.9219C222.429 39.9219 222.86 40.0117 223.235 40.1914C223.613 40.3685 223.914 40.6198 224.138 40.9453C224.362 41.2682 224.489 41.6458 224.521 42.0781H223.169C223.114 41.7891 222.984 41.5482 222.778 41.3555C222.575 41.1602 222.303 41.0625 221.962 41.0625C221.673 41.0625 221.419 41.1406 221.2 41.2969C220.982 41.4505 220.811 41.6719 220.689 41.9609C220.569 42.25 220.509 42.5964 220.509 43C220.509 43.4089 220.569 43.7604 220.689 44.0547C220.808 44.3464 220.976 44.5716 221.192 44.7305C221.411 44.8867 221.668 44.9648 221.962 44.9648C222.17 44.9648 222.357 44.9258 222.521 44.8477C222.687 44.7669 222.827 44.651 222.939 44.5C223.051 44.349 223.127 44.1654 223.169 43.9492H224.521C224.487 44.3737 224.362 44.75 224.146 45.0781C223.929 45.4036 223.635 45.6589 223.263 45.8437C222.89 46.026 222.453 46.1172 221.95 46.1172ZM229.706 43.4766V40H231.12V46H229.749V44.9336H229.686C229.551 45.2695 229.328 45.5443 229.018 45.7578C228.711 45.9714 228.332 46.0781 227.882 46.0781C227.489 46.0781 227.141 45.9909 226.839 45.8164C226.539 45.6393 226.305 45.3828 226.136 45.0469C225.966 44.7083 225.882 44.2995 225.882 43.8203V40H227.296V43.6016C227.296 43.9818 227.4 44.2839 227.608 44.5078C227.817 44.7318 228.09 44.8437 228.429 44.8437C228.637 44.8437 228.839 44.793 229.034 44.6914C229.229 44.5898 229.39 44.4388 229.515 44.2383C229.642 44.0352 229.706 43.7812 229.706 43.4766ZM232.774 46V40H234.145V41H234.208C234.317 40.6536 234.505 40.3867 234.77 40.1992C235.038 40.0091 235.344 39.9141 235.688 39.9141C235.766 39.9141 235.854 39.918 235.95 39.9258C236.049 39.931 236.131 39.9401 236.196 39.9531V41.2539C236.136 41.2331 236.041 41.2148 235.911 41.1992C235.783 41.181 235.66 41.1719 235.54 41.1719C235.282 41.1719 235.05 41.2279 234.844 41.3398C234.641 41.4492 234.481 41.6016 234.364 41.7969C234.247 41.9922 234.188 42.2174 234.188 42.4727V46H232.774ZM238.955 46.1211C238.574 46.1211 238.232 46.0534 237.927 45.918C237.625 45.7799 237.386 45.5768 237.208 45.3086C237.034 45.0404 236.947 44.7096 236.947 44.3164C236.947 43.9779 237.009 43.6979 237.134 43.4766C237.259 43.2552 237.43 43.0781 237.646 42.9453C237.862 42.8125 238.106 42.7122 238.376 42.6445C238.65 42.5742 238.932 42.5234 239.224 42.4922C239.576 42.4557 239.861 42.4232 240.08 42.3945C240.298 42.3633 240.457 42.3164 240.556 42.2539C240.658 42.1888 240.708 42.0885 240.708 41.9531V41.9297C240.708 41.6354 240.621 41.4076 240.447 41.2461C240.272 41.0846 240.021 41.0039 239.693 41.0039C239.347 41.0039 239.072 41.0794 238.869 41.2305C238.668 41.3815 238.533 41.5599 238.462 41.7656L237.142 41.5781C237.246 41.2135 237.418 40.9089 237.658 40.6641C237.897 40.4167 238.19 40.2318 238.537 40.1094C238.883 39.9844 239.266 39.9219 239.685 39.9219C239.974 39.9219 240.262 39.9557 240.548 40.0234C240.835 40.0911 241.097 40.2031 241.333 40.3594C241.57 40.513 241.761 40.7227 241.904 40.9883C242.05 41.2539 242.123 41.5859 242.123 41.9844V46H240.763V45.1758H240.716C240.63 45.3424 240.509 45.4987 240.353 45.6445C240.199 45.7878 240.005 45.9036 239.771 45.9922C239.539 46.0781 239.267 46.1211 238.955 46.1211ZM239.322 45.082C239.606 45.082 239.852 45.026 240.06 44.9141C240.268 44.7995 240.429 44.6484 240.541 44.4609C240.655 44.2734 240.712 44.069 240.712 43.8477V43.1406C240.668 43.1771 240.593 43.2109 240.486 43.2422C240.382 43.2734 240.264 43.3008 240.134 43.3242C240.004 43.3477 239.875 43.3685 239.748 43.3867C239.62 43.4049 239.509 43.4206 239.416 43.4336C239.205 43.4622 239.016 43.5091 238.849 43.5742C238.682 43.6393 238.551 43.7305 238.455 43.8477C238.358 43.9622 238.31 44.1107 238.31 44.293C238.31 44.5534 238.405 44.75 238.595 44.8828C238.785 45.0156 239.028 45.082 239.322 45.082ZM243.744 46V40H245.116V41H245.178C245.287 40.6536 245.475 40.3867 245.741 40.1992C246.009 40.0091 246.315 39.9141 246.658 39.9141C246.737 39.9141 246.824 39.918 246.92 39.9258C247.019 39.931 247.101 39.9401 247.166 39.9531V41.2539C247.106 41.2331 247.011 41.2148 246.881 41.1992C246.754 41.181 246.63 41.1719 246.51 41.1719C246.252 41.1719 246.02 41.2279 245.815 41.3398C245.612 41.4492 245.451 41.6016 245.334 41.7969C245.217 41.9922 245.158 42.2174 245.158 42.4727V46H243.744Z"
    fill="#A09CAB" />
  <path
    d="M372.75 10.75V14.25M379.75 10.75V14.25M368.375 17.75H384.125M372.75 21.25H372.759M376.25 21.25H376.259M379.75 21.25H379.759M372.75 24.75H372.759M376.25 24.75H376.259M379.75 24.75H379.759M370.125 12.5H382.375C383.341 12.5 384.125 13.2835 384.125 14.25V26.5C384.125 27.4665 383.341 28.25 382.375 28.25H370.125C369.159 28.25 368.375 27.4665 368.375 26.5V14.25C368.375 13.2835 369.159 12.5 370.125 12.5Z"
    stroke="#A09CAB" stroke-width="2" stroke-linecap="round" stroke-linejoin="round" />
  <path
    d="M358.293 41.1992C358.256 40.8581 358.102 40.5924 357.832 40.4023C357.563 40.2122 357.214 40.1172 356.785 40.1172C356.483 40.1172 356.224 40.1628 356.007 40.2539C355.791 40.3451 355.626 40.4687 355.511 40.625C355.397 40.7812 355.338 40.9596 355.336 41.1602C355.336 41.3268 355.373 41.4714 355.449 41.5937C355.527 41.7161 355.632 41.8203 355.765 41.9062C355.898 41.9896 356.045 42.0599 356.207 42.1172C356.368 42.1745 356.531 42.2227 356.695 42.2617L357.445 42.4492C357.747 42.5195 358.037 42.6146 358.316 42.7344C358.597 42.8542 358.849 43.0052 359.07 43.1875C359.294 43.3698 359.471 43.5898 359.601 43.8477C359.731 44.1055 359.796 44.4076 359.796 44.7539C359.796 45.2227 359.677 45.6354 359.437 45.9922C359.198 46.3464 358.851 46.6237 358.398 46.8242C357.948 47.0221 357.402 47.1211 356.761 47.1211C356.139 47.1211 355.599 47.0247 355.14 46.832C354.685 46.6393 354.328 46.3581 354.07 45.9883C353.815 45.6185 353.677 45.168 353.656 44.6367H355.082C355.102 44.9154 355.188 45.1471 355.339 45.332C355.49 45.5169 355.687 45.6549 355.929 45.7461C356.174 45.8372 356.448 45.8828 356.75 45.8828C357.065 45.8828 357.341 45.8359 357.578 45.7422C357.817 45.6458 358.005 45.513 358.14 45.3437C358.276 45.1719 358.345 44.9714 358.347 44.7422C358.345 44.5339 358.283 44.362 358.164 44.2266C358.044 44.0885 357.876 43.974 357.66 43.8828C357.446 43.7891 357.196 43.7057 356.91 43.6328L356 43.3984C355.341 43.2292 354.82 42.9727 354.437 42.6289C354.057 42.2826 353.867 41.8229 353.867 41.25C353.867 40.7786 353.994 40.3659 354.25 40.0117C354.507 39.6576 354.858 39.3828 355.3 39.1875C355.743 38.9896 356.244 38.8906 356.804 38.8906C357.372 38.8906 357.869 38.9896 358.296 39.1875C358.726 39.3828 359.063 39.6549 359.308 40.0039C359.553 40.3503 359.679 40.7487 359.687 41.1992H358.293ZM363.882 47.1172C363.281 47.1172 362.761 46.9922 362.324 46.7422C361.889 46.4896 361.554 46.1328 361.32 45.6719C361.085 45.2083 360.968 44.6628 360.968 44.0352C360.968 43.418 361.085 42.8763 361.32 42.4102C361.557 41.9414 361.887 41.5768 362.312 41.3164C362.736 41.0534 363.235 40.9219 363.808 40.9219C364.178 40.9219 364.527 40.9818 364.855 41.1016C365.186 41.2187 365.477 41.401 365.73 41.6484C365.985 41.8958 366.186 42.2109 366.331 42.5937C366.477 42.974 366.55 43.4271 366.55 43.9531V44.3867H361.632V43.4336H365.195C365.192 43.1628 365.134 42.9219 365.019 42.7109C364.904 42.4974 364.744 42.3294 364.538 42.207C364.335 42.0846 364.098 42.0234 363.828 42.0234C363.538 42.0234 363.285 42.0937 363.066 42.2344C362.847 42.3724 362.676 42.5547 362.554 42.7812C362.434 43.0052 362.373 43.2513 362.371 43.5195V44.3516C362.371 44.7005 362.434 45 362.562 45.25C362.69 45.4974 362.868 45.6875 363.097 45.8203C363.326 45.9505 363.594 46.0156 363.902 46.0156C364.107 46.0156 364.294 45.987 364.46 45.9297C364.627 45.8698 364.772 45.7826 364.894 45.668C365.016 45.5534 365.109 45.4115 365.171 45.2422L366.492 45.3906C366.408 45.7396 366.249 46.0443 366.015 46.3047C365.783 46.5625 365.486 46.763 365.124 46.9062C364.762 47.0469 364.348 47.1172 363.882 47.1172ZM372.689 42.5859L371.4 42.7266C371.363 42.5964 371.299 42.474 371.208 42.3594C371.12 42.2448 371 42.1523 370.849 42.082C370.698 42.0117 370.513 41.9766 370.294 41.9766C370 41.9766 369.752 42.0404 369.552 42.168C369.354 42.2956 369.256 42.4609 369.259 42.6641C369.256 42.8385 369.32 42.9805 369.45 43.0898C369.583 43.1992 369.802 43.2891 370.107 43.3594L371.13 43.5781C371.698 43.7005 372.12 43.8945 372.396 44.1602C372.674 44.4258 372.815 44.7734 372.818 45.2031C372.815 45.5807 372.704 45.9141 372.486 46.2031C372.269 46.4896 371.969 46.7135 371.583 46.875C371.198 47.0365 370.755 47.1172 370.255 47.1172C369.521 47.1172 368.93 46.9635 368.482 46.6562C368.034 46.3464 367.767 45.9154 367.681 45.3633L369.06 45.2305C369.122 45.5013 369.255 45.7057 369.458 45.8437C369.661 45.9818 369.926 46.0508 370.251 46.0508C370.587 46.0508 370.857 45.9818 371.06 45.8437C371.265 45.7057 371.368 45.5352 371.368 45.332C371.368 45.1602 371.302 45.0182 371.169 44.9062C371.039 44.7943 370.836 44.7083 370.56 44.6484L369.536 44.4336C368.961 44.3138 368.535 44.112 368.259 43.8281C367.983 43.5417 367.846 43.1797 367.849 42.7422C367.846 42.3724 367.946 42.0521 368.15 41.7812C368.355 41.5078 368.64 41.2969 369.005 41.1484C369.372 40.9974 369.795 40.9219 370.275 40.9219C370.978 40.9219 371.531 41.0716 371.935 41.3711C372.341 41.6706 372.592 42.0755 372.689 42.5859ZM378.926 42.5859L377.637 42.7266C377.6 42.5964 377.536 42.474 377.445 42.3594C377.357 42.2448 377.237 42.1523 377.086 42.082C376.935 42.0117 376.75 41.9766 376.531 41.9766C376.237 41.9766 375.99 42.0404 375.789 42.168C375.591 42.2956 375.493 42.4609 375.496 42.6641C375.493 42.8385 375.557 42.9805 375.688 43.0898C375.82 43.1992 376.039 43.2891 376.344 43.3594L377.367 43.5781C377.935 43.7005 378.357 43.8945 378.633 44.1602C378.911 44.4258 379.052 44.7734 379.055 45.2031C379.052 45.5807 378.941 45.9141 378.723 46.2031C378.507 46.4896 378.206 46.7135 377.82 46.875C377.435 47.0365 376.992 47.1172 376.492 47.1172C375.758 47.1172 375.167 46.9635 374.719 46.6562C374.271 46.3464 374.004 45.9154 373.918 45.3633L375.297 45.2305C375.359 45.5013 375.492 45.7057 375.695 45.8437C375.898 45.9818 376.163 46.0508 376.488 46.0508C376.824 46.0508 377.094 45.9818 377.297 45.8437C377.503 45.7057 377.605 45.5352 377.605 45.332C377.605 45.1602 377.539 45.0182 377.406 44.9062C377.276 44.7943 377.073 44.7083 376.797 44.6484L375.773 44.4336C375.198 44.3138 374.772 44.112 374.496 43.8281C374.22 43.5417 374.083 43.1797 374.086 42.7422C374.083 42.3724 374.184 42.0521 374.387 41.7812C374.592 41.5078 374.878 41.2969 375.242 41.1484C375.609 40.9974 376.033 40.9219 376.512 40.9219C377.215 40.9219 377.768 41.0716 378.172 41.3711C378.578 41.6706 378.829 42.0755 378.926 42.5859ZM383.038 47.1172C382.452 47.1172 381.944 46.9883 381.514 46.7305C381.085 46.4727 380.751 46.112 380.514 45.6484C380.28 45.1849 380.163 44.6432 380.163 44.0234C380.163 43.4036 380.28 42.8607 380.514 42.3945C380.751 41.9284 381.085 41.5664 381.514 41.3086C381.944 41.0508 382.452 40.9219 383.038 40.9219C383.624 40.9219 384.132 41.0508 384.561 41.3086C384.991 41.5664 385.323 41.9284 385.557 42.3945C385.794 42.8607 385.913 43.4036 385.913 44.0234C385.913 44.6432 385.794 45.1849 385.557 45.6484C385.323 46.112 384.991 46.4727 384.561 46.7305C384.132 46.9883 383.624 47.1172 383.038 47.1172ZM383.046 45.9844C383.363 45.9844 383.629 45.8971 383.843 45.7227C384.056 45.5456 384.215 45.3086 384.319 45.0117C384.426 44.7148 384.479 44.3841 384.479 44.0195C384.479 43.6523 384.426 43.3203 384.319 43.0234C384.215 42.724 384.056 42.4857 383.843 42.3086C383.629 42.1315 383.363 42.043 383.046 42.043C382.72 42.043 382.449 42.1315 382.233 42.3086C382.02 42.4857 381.86 42.724 381.753 43.0234C381.649 43.3203 381.596 43.6523 381.596 44.0195C381.596 44.3841 381.649 44.7148 381.753 45.0117C381.86 45.3086 382.02 45.5456 382.233 45.7227C382.449 45.8971 382.72 45.9844 383.046 45.9844ZM381.889 40.2695L381.034 40.25C381.034 39.7865 381.154 39.4232 381.393 39.1602C381.633 38.8971 381.929 38.7656 382.28 38.7656C382.449 38.7656 382.596 38.7943 382.721 38.8516C382.846 38.9062 382.961 38.9701 383.065 39.043C383.172 39.1159 383.276 39.181 383.378 39.2383C383.479 39.293 383.591 39.3203 383.714 39.3203C383.862 39.3203 383.979 39.2643 384.065 39.1523C384.154 39.0404 384.199 38.8971 384.202 38.7227L385.042 38.7578C385.039 39.224 384.918 39.5859 384.679 39.8437C384.439 40.099 384.145 40.2279 383.796 40.2305C383.608 40.2331 383.451 40.2057 383.323 40.1484C383.195 40.0911 383.083 40.026 382.987 39.9531C382.893 39.8802 382.798 39.8164 382.702 39.7617C382.606 39.7044 382.492 39.6758 382.362 39.6758C382.224 39.6758 382.111 39.7305 382.022 39.8398C381.934 39.9492 381.889 40.0924 381.889 40.2695ZM389.969 47.1172C389.368 47.1172 388.848 46.9922 388.411 46.7422C387.976 46.4896 387.641 46.1328 387.407 45.6719C387.172 45.2083 387.055 44.6628 387.055 44.0352C387.055 43.418 387.172 42.8763 387.407 42.4102C387.644 41.9414 387.975 41.5768 388.399 41.3164C388.824 41.0534 389.322 40.9219 389.895 40.9219C390.265 40.9219 390.614 40.9818 390.942 41.1016C391.273 41.2187 391.564 41.401 391.817 41.6484C392.072 41.8958 392.273 42.2109 392.419 42.5937C392.564 42.974 392.637 43.4271 392.637 43.9531V44.3867H387.719V43.4336H391.282C391.279 43.1628 391.221 42.9219 391.106 42.7109C390.991 42.4974 390.831 42.3294 390.626 42.207C390.422 42.0846 390.185 42.0234 389.915 42.0234C389.626 42.0234 389.372 42.0937 389.153 42.2344C388.934 42.3724 388.764 42.5547 388.641 42.7812C388.521 43.0052 388.46 43.2513 388.458 43.5195V44.3516C388.458 44.7005 388.521 45 388.649 45.25C388.777 45.4974 388.955 45.6875 389.184 45.8203C389.413 45.9505 389.682 46.0156 389.989 46.0156C390.195 46.0156 390.381 45.987 390.547 45.9297C390.714 45.8698 390.859 45.7826 390.981 45.668C391.103 45.5534 391.196 45.4115 391.258 45.2422L392.579 45.3906C392.495 45.7396 392.337 46.0443 392.102 46.3047C391.87 46.5625 391.574 46.763 391.212 46.9062C390.85 47.0469 390.435 47.1172 389.969 47.1172ZM398.776 42.5859L397.487 42.7266C397.45 42.5964 397.386 42.474 397.295 42.3594C397.207 42.2448 397.087 42.1523 396.936 42.082C396.785 42.0117 396.6 41.9766 396.381 41.9766C396.087 41.9766 395.84 42.0404 395.639 42.168C395.441 42.2956 395.343 42.4609 395.346 42.6641C395.343 42.8385 395.407 42.9805 395.538 43.0898C395.67 43.1992 395.889 43.2891 396.194 43.3594L397.217 43.5781C397.785 43.7005 398.207 43.8945 398.483 44.1602C398.761 44.4258 398.902 44.7734 398.905 45.2031C398.902 45.5807 398.791 45.9141 398.573 46.2031C398.357 46.4896 398.056 46.7135 397.67 46.875C397.285 47.0365 396.842 47.1172 396.342 47.1172C395.608 47.1172 395.017 46.9635 394.569 46.6562C394.121 46.3464 393.854 45.9154 393.768 45.3633L395.147 45.2305C395.209 45.5013 395.342 45.7057 395.545 45.8437C395.748 45.9818 396.013 46.0508 396.338 46.0508C396.674 46.0508 396.944 45.9818 397.147 45.8437C397.353 45.7057 397.455 45.5352 397.455 45.332C397.455 45.1602 397.389 45.0182 397.256 44.9062C397.126 44.7943 396.923 44.7083 396.647 44.6484L395.623 44.4336C395.048 44.3138 394.622 44.112 394.346 43.8281C394.07 43.5417 393.933 43.1797 393.936 42.7422C393.933 42.3724 394.034 42.0521 394.237 41.7812C394.442 41.5078 394.728 41.2969 395.092 41.1484C395.459 40.9974 395.883 40.9219 396.362 40.9219C397.065 40.9219 397.618 41.0716 398.022 41.3711C398.428 41.6706 398.679 42.0755 398.776 42.5859Z"
    fill="#A09CAB" />
  <path
    d="M536.091 12.9943C533.561 11.2693 530.437 12.0743 528.75 14.0485C527.064 12.0743 523.939 11.2597 521.409 12.9943C520.068 13.9143 519.224 15.4668 519.167 17.1055C519.033 20.8239 522.329 23.8043 527.361 28.3756L527.457 28.4618C528.185 29.1231 529.306 29.1231 530.034 28.4522L530.14 28.3564C535.171 23.7947 538.458 20.8143 538.334 17.096C538.276 15.4668 537.433 13.9143 536.091 12.9943ZM528.846 26.9476L528.75 27.0435L528.654 26.9476C524.093 22.8172 521.084 20.086 521.084 17.3164C521.084 15.3997 522.521 13.9622 524.438 13.9622C525.914 13.9622 527.351 14.911 527.859 16.2239H529.651C530.149 14.911 531.587 13.9622 533.063 13.9622C534.979 13.9622 536.417 15.3997 536.417 17.3164C536.417 20.086 533.408 22.8172 528.846 26.9476Z"
    fill="#A09CAB" />
  <path
    d="M515.791 39.1992C515.755 38.8581 515.601 38.5924 515.33 38.4023C515.062 38.2122 514.713 38.1172 514.283 38.1172C513.981 38.1172 513.722 38.1628 513.506 38.2539C513.29 38.3451 513.124 38.4687 513.01 38.625C512.895 38.7812 512.837 38.9596 512.834 39.1602C512.834 39.3268 512.872 39.4714 512.947 39.5937C513.025 39.7161 513.131 39.8203 513.264 39.9062C513.396 39.9896 513.544 40.0599 513.705 40.1172C513.867 40.1745 514.029 40.2227 514.193 40.2617L514.943 40.4492C515.245 40.5195 515.536 40.6146 515.814 40.7344C516.096 40.8542 516.347 41.0052 516.568 41.1875C516.792 41.3698 516.969 41.5898 517.1 41.8477C517.23 42.1055 517.295 42.4076 517.295 42.7539C517.295 43.2227 517.175 43.6354 516.936 43.9922C516.696 44.3464 516.35 44.6237 515.896 44.8242C515.446 45.0221 514.9 45.1211 514.26 45.1211C513.637 45.1211 513.097 45.0247 512.639 44.832C512.183 44.6393 511.826 44.3581 511.568 43.9883C511.313 43.6185 511.175 43.168 511.154 42.6367H512.58C512.601 42.9154 512.687 43.1471 512.838 43.332C512.989 43.5169 513.186 43.6549 513.428 43.7461C513.673 43.8372 513.946 43.8828 514.248 43.8828C514.563 43.8828 514.839 43.8359 515.076 43.7422C515.316 43.6458 515.503 43.513 515.639 43.3437C515.774 43.1719 515.843 42.9714 515.846 42.7422C515.843 42.5339 515.782 42.362 515.662 42.2266C515.542 42.0885 515.374 41.974 515.158 41.8828C514.945 41.7891 514.695 41.7057 514.408 41.6328L513.498 41.3984C512.839 41.2292 512.318 40.9727 511.936 40.6289C511.555 40.2826 511.365 39.8229 511.365 39.25C511.365 38.7786 511.493 38.3659 511.748 38.0117C512.006 37.6576 512.356 37.3828 512.799 37.1875C513.242 36.9896 513.743 36.8906 514.303 36.8906C514.87 36.8906 515.368 36.9896 515.795 37.1875C516.225 37.3828 516.562 37.6549 516.807 38.0039C517.051 38.3503 517.178 38.7487 517.186 39.1992H515.791ZM520.451 45.1211C520.071 45.1211 519.728 45.0534 519.424 44.918C519.122 44.7799 518.882 44.5768 518.705 44.3086C518.53 44.0404 518.443 43.7096 518.443 43.3164C518.443 42.9779 518.506 42.6979 518.631 42.4766C518.756 42.2552 518.926 42.0781 519.142 41.9453C519.359 41.8125 519.602 41.7122 519.873 41.6445C520.146 41.5742 520.429 41.5234 520.721 41.4922C521.072 41.4557 521.357 41.4232 521.576 41.3945C521.795 41.3633 521.954 41.3164 522.053 41.2539C522.154 41.1888 522.205 41.0885 522.205 40.9531V40.9297C522.205 40.6354 522.118 40.4076 521.943 40.2461C521.769 40.0846 521.517 40.0039 521.189 40.0039C520.843 40.0039 520.568 40.0794 520.365 40.2305C520.165 40.3815 520.029 40.5599 519.959 40.7656L518.638 40.5781C518.743 40.2135 518.915 39.9089 519.154 39.6641C519.394 39.4167 519.687 39.2318 520.033 39.1094C520.379 38.9844 520.762 38.9219 521.181 38.9219C521.471 38.9219 521.758 38.9557 522.045 39.0234C522.331 39.0911 522.593 39.2031 522.83 39.3594C523.067 39.513 523.257 39.7227 523.4 39.9883C523.546 40.2539 523.619 40.5859 523.619 40.9844V45H522.26V44.1758H522.213C522.127 44.3424 522.006 44.4987 521.849 44.6445C521.696 44.7878 521.502 44.9036 521.267 44.9922C521.036 45.0781 520.763 45.1211 520.451 45.1211ZM520.818 44.082C521.102 44.082 521.348 44.026 521.556 43.9141C521.765 43.7995 521.925 43.6484 522.037 43.4609C522.151 43.2734 522.209 43.069 522.209 42.8477V42.1406C522.165 42.1771 522.089 42.2109 521.982 42.2422C521.878 42.2734 521.761 42.3008 521.631 42.3242C521.5 42.3477 521.372 42.3685 521.244 42.3867C521.116 42.4049 521.006 42.4206 520.912 42.4336C520.701 42.4622 520.512 42.5091 520.346 42.5742C520.179 42.6393 520.047 42.7305 519.951 42.8477C519.855 42.9622 519.806 43.1107 519.806 43.293C519.806 43.5534 519.901 43.75 520.092 43.8828C520.282 44.0156 520.524 44.082 520.818 44.082ZM526.655 37V45H525.241V37H526.655ZM533.668 39L531.532 45H529.969L527.832 39H529.34L530.719 43.457H530.782L532.164 39H533.668ZM537.26 45.1172C536.674 45.1172 536.166 44.9883 535.737 44.7305C535.307 44.4727 534.974 44.112 534.737 43.6484C534.502 43.1849 534.385 42.6432 534.385 42.0234C534.385 41.4036 534.502 40.8607 534.737 40.3945C534.974 39.9284 535.307 39.5664 535.737 39.3086C536.166 39.0508 536.674 38.9219 537.26 38.9219C537.846 38.9219 538.354 39.0508 538.783 39.3086C539.213 39.5664 539.545 39.9284 539.779 40.3945C540.016 40.8607 540.135 41.4036 540.135 42.0234C540.135 42.6432 540.016 43.1849 539.779 43.6484C539.545 44.112 539.213 44.4727 538.783 44.7305C538.354 44.9883 537.846 45.1172 537.26 45.1172ZM537.268 43.9844C537.585 43.9844 537.851 43.8971 538.065 43.7227C538.278 43.5456 538.437 43.3086 538.541 43.0117C538.648 42.7148 538.701 42.3841 538.701 42.0195C538.701 41.6523 538.648 41.3203 538.541 41.0234C538.437 40.724 538.278 40.4857 538.065 40.3086C537.851 40.1315 537.585 40.043 537.268 40.043C536.942 40.043 536.671 40.1315 536.455 40.3086C536.242 40.4857 536.082 40.724 535.975 41.0234C535.871 41.3203 535.819 41.6523 535.819 42.0195C535.819 42.3841 535.871 42.7148 535.975 43.0117C536.082 43.3086 536.242 43.5456 536.455 43.7227C536.671 43.8971 536.942 43.9844 537.268 43.9844ZM546.277 40.5859L544.988 40.7266C544.952 40.5964 544.888 40.474 544.797 40.3594C544.708 40.2448 544.589 40.1523 544.438 40.082C544.286 40.0117 544.102 39.9766 543.883 39.9766C543.589 39.9766 543.341 40.0404 543.141 40.168C542.943 40.2956 542.845 40.4609 542.848 40.6641C542.845 40.8385 542.909 40.9805 543.039 41.0898C543.172 41.1992 543.391 41.2891 543.695 41.3594L544.719 41.5781C545.286 41.7005 545.708 41.8945 545.984 42.1602C546.263 42.4258 546.404 42.7734 546.406 43.2031C546.404 43.5807 546.293 43.9141 546.074 44.2031C545.858 44.4896 545.557 44.7135 545.172 44.875C544.786 45.0365 544.344 45.1172 543.844 45.1172C543.109 45.1172 542.518 44.9635 542.07 44.6562C541.622 44.3464 541.355 43.9154 541.27 43.3633L542.648 43.2305C542.711 43.5013 542.844 43.7057 543.047 43.8437C543.25 43.9818 543.514 44.0508 543.84 44.0508C544.176 44.0508 544.445 43.9818 544.648 43.8437C544.854 43.7057 544.957 43.5352 544.957 43.332C544.957 43.1602 544.891 43.0182 544.758 42.9062C544.628 42.7943 544.424 42.7083 544.148 42.6484L543.125 42.4336C542.549 42.3138 542.124 42.112 541.848 41.8281C541.572 41.5417 541.435 41.1797 541.438 40.7422C541.435 40.3724 541.535 40.0521 541.738 39.7812C541.944 39.5078 542.229 39.2969 542.594 39.1484C542.961 38.9974 543.384 38.9219 543.863 38.9219C544.566 38.9219 545.12 39.0716 545.523 39.3711C545.93 39.6706 546.181 40.0755 546.277 40.5859Z"
    fill="#A09CAB" />
  <defs>
    <clipPath id="clip0_56_184">
      <rect width="24" height="24" fill="white" transform="translate(59.25 9)" />
    </clipPath>
  </defs>
</svg>