<svg width="421" height="497" viewBox="0 0 421 497" fill="none" xmlns="http://www.w3.org/2000/svg">
  <path
    d="M6.56 77.105C5.86 77.105 5.23 76.985 4.67 76.745C4.11 76.495 3.67 76.145 3.35 75.695C3.03 75.245 2.87 74.72 2.87 74.12H4.7C4.74 74.57 4.915 74.94 5.225 75.23C5.545 75.52 5.99 75.665 6.56 75.665C7.15 75.665 7.61 75.525 7.94 75.245C8.27 74.955 8.435 74.585 8.435 74.135C8.435 73.785 8.33 73.5 8.12 73.28C7.92 73.06 7.665 72.89 7.355 72.77C7.055 72.65 6.635 72.52 6.095 72.38C5.415 72.2 4.86 72.02 4.43 71.84C4.01 71.65 3.65 71.36 3.35 70.97C3.05 70.58 2.9 70.06 2.9 69.41C2.9 68.81 3.05 68.285 3.35 67.835C3.65 67.385 4.07 67.04 4.61 66.8C5.15 66.56 5.775 66.44 6.485 66.44C7.495 66.44 8.32 66.695 8.96 67.205C9.61 67.705 9.97 68.395 10.04 69.275H8.15C8.12 68.895 7.94 68.57 7.61 68.3C7.28 68.03 6.845 67.895 6.305 67.895C5.815 67.895 5.415 68.02 5.105 68.27C4.795 68.52 4.64 68.88 4.64 69.35C4.64 69.67 4.735 69.935 4.925 70.145C5.125 70.345 5.375 70.505 5.675 70.625C5.975 70.745 6.385 70.875 6.905 71.015C7.595 71.205 8.155 71.395 8.585 71.585C9.025 71.775 9.395 72.07 9.695 72.47C10.005 72.86 10.16 73.385 10.16 74.045C10.16 74.575 10.015 75.075 9.725 75.545C9.445 76.015 9.03 76.395 8.48 76.685C7.94 76.965 7.3 77.105 6.56 77.105ZM19.4527 72.665C19.4527 72.975 19.4327 73.255 19.3927 73.505H13.0777C13.1277 74.165 13.3727 74.695 13.8127 75.095C14.2527 75.495 14.7927 75.695 15.4327 75.695C16.3527 75.695 17.0027 75.31 17.3827 74.54H19.2277C18.9777 75.3 18.5227 75.925 17.8627 76.415C17.2127 76.895 16.4027 77.135 15.4327 77.135C14.6427 77.135 13.9327 76.96 13.3027 76.61C12.6827 76.25 12.1927 75.75 11.8327 75.11C11.4827 74.46 11.3077 73.71 11.3077 72.86C11.3077 72.01 11.4777 71.265 11.8177 70.625C12.1677 69.975 12.6527 69.475 13.2727 69.125C13.9027 68.775 14.6227 68.6 15.4327 68.6C16.2127 68.6 16.9077 68.77 17.5177 69.11C18.1277 69.45 18.6027 69.93 18.9427 70.55C19.2827 71.16 19.4527 71.865 19.4527 72.665ZM17.6677 72.125C17.6577 71.495 17.4327 70.99 16.9927 70.61C16.5527 70.23 16.0077 70.04 15.3577 70.04C14.7677 70.04 14.2627 70.23 13.8427 70.61C13.4227 70.98 13.1727 71.485 13.0927 72.125H17.6677ZM22.5455 65.9V77H20.8355V65.9H22.5455ZM32.0656 72.665C32.0656 72.975 32.0456 73.255 32.0056 73.505H25.6906C25.7406 74.165 25.9856 74.695 26.4256 75.095C26.8656 75.495 27.4056 75.695 28.0456 75.695C28.9656 75.695 29.6156 75.31 29.9956 74.54H31.8406C31.5906 75.3 31.1356 75.925 30.4756 76.415C29.8256 76.895 29.0156 77.135 28.0456 77.135C27.2556 77.135 26.5456 76.96 25.9156 76.61C25.2956 76.25 24.8056 75.75 24.4456 75.11C24.0956 74.46 23.9206 73.71 23.9206 72.86C23.9206 72.01 24.0906 71.265 24.4306 70.625C24.7806 69.975 25.2656 69.475 25.8856 69.125C26.5156 68.775 27.2356 68.6 28.0456 68.6C28.8256 68.6 29.5206 68.77 30.1306 69.11C30.7406 69.45 31.2156 69.93 31.5556 70.55C31.8956 71.16 32.0656 71.865 32.0656 72.665ZM30.2806 72.125C30.2706 71.495 30.0456 70.99 29.6056 70.61C29.1656 70.23 28.6206 70.04 27.9706 70.04C27.3806 70.04 26.8756 70.23 26.4556 70.61C26.0356 70.98 25.7856 71.485 25.7056 72.125H30.2806ZM32.8784 72.86C32.8784 72.01 33.0484 71.265 33.3884 70.625C33.7384 69.975 34.2184 69.475 34.8284 69.125C35.4384 68.775 36.1384 68.6 36.9284 68.6C37.9284 68.6 38.7534 68.84 39.4034 69.32C40.0634 69.79 40.5084 70.465 40.7384 71.345H38.8934C38.7434 70.935 38.5034 70.615 38.1734 70.385C37.8434 70.155 37.4284 70.04 36.9284 70.04C36.2284 70.04 35.6684 70.29 35.2484 70.79C34.8384 71.28 34.6334 71.97 34.6334 72.86C34.6334 73.75 34.8384 74.445 35.2484 74.945C35.6684 75.445 36.2284 75.695 36.9284 75.695C37.9184 75.695 38.5734 75.26 38.8934 74.39H40.7384C40.4984 75.23 40.0484 75.9 39.3884 76.4C38.7284 76.89 37.9084 77.135 36.9284 77.135C36.1384 77.135 35.4384 76.96 34.8284 76.61C34.2184 76.25 33.7384 75.75 33.3884 75.11C33.0484 74.46 32.8784 73.71 32.8784 72.86ZM43.0126 67.64C42.7026 67.64 42.4426 67.535 42.2326 67.325C42.0226 67.115 41.9176 66.855 41.9176 66.545C41.9176 66.235 42.0226 65.975 42.2326 65.765C42.4426 65.555 42.7026 65.45 43.0126 65.45C43.3126 65.45 43.5676 65.555 43.7776 65.765C43.9876 65.975 44.0926 66.235 44.0926 66.545C44.0926 66.855 43.9876 67.115 43.7776 67.325C43.5676 67.535 43.3126 67.64 43.0126 67.64ZM43.8526 68.735V77H42.1426V68.735H43.8526ZM49.3827 77.135C48.6027 77.135 47.8977 76.96 47.2677 76.61C46.6377 76.25 46.1427 75.75 45.7827 75.11C45.4227 74.46 45.2427 73.71 45.2427 72.86C45.2427 72.02 45.4277 71.275 45.7977 70.625C46.1677 69.975 46.6727 69.475 47.3127 69.125C47.9527 68.775 48.6677 68.6 49.4577 68.6C50.2477 68.6 50.9627 68.775 51.6027 69.125C52.2427 69.475 52.7477 69.975 53.1177 70.625C53.4877 71.275 53.6727 72.02 53.6727 72.86C53.6727 73.7 53.4827 74.445 53.1027 75.095C52.7227 75.745 52.2027 76.25 51.5427 76.61C50.8927 76.96 50.1727 77.135 49.3827 77.135ZM49.3827 75.65C49.8227 75.65 50.2327 75.545 50.6127 75.335C51.0027 75.125 51.3177 74.81 51.5577 74.39C51.7977 73.97 51.9177 73.46 51.9177 72.86C51.9177 72.26 51.8027 71.755 51.5727 71.345C51.3427 70.925 51.0377 70.61 50.6577 70.4C50.2777 70.19 49.8677 70.085 49.4277 70.085C48.9877 70.085 48.5777 70.19 48.1977 70.4C47.8277 70.61 47.5327 70.925 47.3127 71.345C47.0927 71.755 46.9827 72.26 46.9827 72.86C46.9827 73.75 47.2077 74.44 47.6577 74.93C48.1177 75.41 48.6927 75.65 49.3827 75.65ZM59.2331 68.6C59.8831 68.6 60.4631 68.735 60.9731 69.005C61.4931 69.275 61.8981 69.675 62.1881 70.205C62.4781 70.735 62.6231 71.375 62.6231 72.125V77H60.9281V72.38C60.9281 71.64 60.7431 71.075 60.3731 70.685C60.0031 70.285 59.4981 70.085 58.8581 70.085C58.2181 70.085 57.7081 70.285 57.3281 70.685C56.9581 71.075 56.7731 71.64 56.7731 72.38V77H55.0631V68.735H56.7731V69.68C57.0531 69.34 57.4081 69.075 57.8381 68.885C58.2781 68.695 58.7431 68.6 59.2331 68.6ZM72.0793 72.665C72.0793 72.975 72.0593 73.255 72.0193 73.505H65.7043C65.7543 74.165 65.9993 74.695 66.4393 75.095C66.8793 75.495 67.4193 75.695 68.0593 75.695C68.9793 75.695 69.6293 75.31 70.0093 74.54H71.8543C71.6043 75.3 71.1493 75.925 70.4893 76.415C69.8393 76.895 69.0293 77.135 68.0593 77.135C67.2693 77.135 66.5593 76.96 65.9293 76.61C65.3093 76.25 64.8193 75.75 64.4593 75.11C64.1093 74.46 63.9343 73.71 63.9343 72.86C63.9343 72.01 64.1043 71.265 64.4443 70.625C64.7943 69.975 65.2793 69.475 65.8993 69.125C66.5293 68.775 67.2493 68.6 68.0593 68.6C68.8393 68.6 69.5343 68.77 70.1443 69.11C70.7543 69.45 71.2293 69.93 71.5693 70.55C71.9093 71.16 72.0793 71.865 72.0793 72.665ZM70.2943 72.125C70.2843 71.495 70.0593 70.99 69.6193 70.61C69.1793 70.23 68.6343 70.04 67.9843 70.04C67.3943 70.04 66.8893 70.23 66.4693 70.61C66.0493 70.98 65.7993 71.485 65.7193 72.125H70.2943ZM76.4886 72.83C76.4886 72 76.6586 71.265 76.9986 70.625C77.3486 69.985 77.8186 69.49 78.4086 69.14C79.0086 68.78 79.6686 68.6 80.3886 68.6C81.0386 68.6 81.6036 68.73 82.0836 68.99C82.5736 69.24 82.9636 69.555 83.2536 69.935V68.735H84.9786V77H83.2536V75.77C82.9636 76.16 82.5686 76.485 82.0686 76.745C81.5686 77.005 80.9986 77.135 80.3586 77.135C79.6486 77.135 78.9986 76.955 78.4086 76.595C77.8186 76.225 77.3486 75.715 76.9986 75.065C76.6586 74.405 76.4886 73.66 76.4886 72.83ZM83.2536 72.86C83.2536 72.29 83.1336 71.795 82.8936 71.375C82.6636 70.955 82.3586 70.635 81.9786 70.415C81.5986 70.195 81.1886 70.085 80.7486 70.085C80.3086 70.085 79.8986 70.195 79.5186 70.415C79.1386 70.625 78.8286 70.94 78.5886 71.36C78.3586 71.77 78.2436 72.26 78.2436 72.83C78.2436 73.4 78.3586 73.9 78.5886 74.33C78.8286 74.76 79.1386 75.09 79.5186 75.32C79.9086 75.54 80.3186 75.65 80.7486 75.65C81.1886 75.65 81.5986 75.54 81.9786 75.32C82.3586 75.1 82.6636 74.78 82.8936 74.36C83.1336 73.93 83.2536 73.43 83.2536 72.86ZM89.9511 72.83C89.9511 72 90.1211 71.265 90.4611 70.625C90.8111 69.985 91.2811 69.49 91.8711 69.14C92.4711 68.78 93.1361 68.6 93.8661 68.6C94.4061 68.6 94.9361 68.72 95.4561 68.96C95.9861 69.19 96.4061 69.5 96.7161 69.89V65.9H98.4411V77H96.7161V75.755C96.4361 76.155 96.0461 76.485 95.5461 76.745C95.0561 77.005 94.4911 77.135 93.8511 77.135C93.1311 77.135 92.4711 76.955 91.8711 76.595C91.2811 76.225 90.8111 75.715 90.4611 75.065C90.1211 74.405 89.9511 73.66 89.9511 72.83ZM96.7161 72.86C96.7161 72.29 96.5961 71.795 96.3561 71.375C96.1261 70.955 95.8211 70.635 95.4411 70.415C95.0611 70.195 94.6511 70.085 94.2111 70.085C93.7711 70.085 93.3611 70.195 92.9811 70.415C92.6011 70.625 92.2911 70.94 92.0511 71.36C91.8211 71.77 91.7061 72.26 91.7061 72.83C91.7061 73.4 91.8211 73.9 92.0511 74.33C92.2911 74.76 92.6011 75.09 92.9811 75.32C93.3711 75.54 93.7811 75.65 94.2111 75.65C94.6511 75.65 95.0611 75.54 95.4411 75.32C95.8211 75.1 96.1261 74.78 96.3561 74.36C96.5961 73.93 96.7161 73.43 96.7161 72.86ZM99.8171 72.83C99.8171 72 99.9871 71.265 100.327 70.625C100.677 69.985 101.147 69.49 101.737 69.14C102.337 68.78 102.997 68.6 103.717 68.6C104.367 68.6 104.932 68.73 105.412 68.99C105.902 69.24 106.292 69.555 106.582 69.935V68.735H108.307V77H106.582V75.77C106.292 76.16 105.897 76.485 105.397 76.745C104.897 77.005 104.327 77.135 103.687 77.135C102.977 77.135 102.327 76.955 101.737 76.595C101.147 76.225 100.677 75.715 100.327 75.065C99.9871 74.405 99.8171 73.66 99.8171 72.83ZM106.582 72.86C106.582 72.29 106.462 71.795 106.222 71.375C105.992 70.955 105.687 70.635 105.307 70.415C104.927 70.195 104.517 70.085 104.077 70.085C103.637 70.085 103.227 70.195 102.847 70.415C102.467 70.625 102.157 70.94 101.917 71.36C101.687 71.77 101.572 72.26 101.572 72.83C101.572 73.4 101.687 73.9 101.917 74.33C102.157 74.76 102.467 75.09 102.847 75.32C103.237 75.54 103.647 75.65 104.077 75.65C104.517 75.65 104.927 75.54 105.307 75.32C105.687 75.1 105.992 74.78 106.222 74.36C106.462 73.93 106.582 73.43 106.582 72.86ZM112.248 70.13V74.705C112.248 75.015 112.318 75.24 112.458 75.38C112.608 75.51 112.858 75.575 113.208 75.575H114.258V77H112.908C112.138 77 111.548 76.82 111.138 76.46C110.728 76.1 110.523 75.515 110.523 74.705V70.13H109.548V68.735H110.523V66.68H112.248V68.735H114.258V70.13H112.248ZM114.964 72.83C114.964 72 115.134 71.265 115.474 70.625C115.824 69.985 116.294 69.49 116.884 69.14C117.484 68.78 118.144 68.6 118.864 68.6C119.514 68.6 120.079 68.73 120.559 68.99C121.049 69.24 121.439 69.555 121.729 69.935V68.735H123.454V77H121.729V75.77C121.439 76.16 121.044 76.485 120.544 76.745C120.044 77.005 119.474 77.135 118.834 77.135C118.124 77.135 117.474 76.955 116.884 76.595C116.294 76.225 115.824 75.715 115.474 75.065C115.134 74.405 114.964 73.66 114.964 72.83ZM121.729 72.86C121.729 72.29 121.609 71.795 121.369 71.375C121.139 70.955 120.834 70.635 120.454 70.415C120.074 70.195 119.664 70.085 119.224 70.085C118.784 70.085 118.374 70.195 117.994 70.415C117.614 70.625 117.304 70.94 117.064 71.36C116.834 71.77 116.719 72.26 116.719 72.83C116.719 73.4 116.834 73.9 117.064 74.33C117.304 74.76 117.614 75.09 117.994 75.32C118.384 75.54 118.794 75.65 119.224 75.65C119.664 75.65 120.074 75.54 120.454 75.32C120.834 75.1 121.139 74.78 121.369 74.36C121.609 73.93 121.729 73.43 121.729 72.86Z"
    fill="#395AB1" />
  <rect x="1" y="87" width="419" height="409" rx="7" fill="#F6FFEB" />
  <rect x="1" y="87" width="419" height="409" rx="7" stroke="#395AB1" stroke-width="2" />
  <mask id="path-3-inside-1_56_342" fill="white">
    <path d="M2 96C2 91.5817 5.58172 88 10 88H411C415.418 88 419 91.5817 419 96V136H2V96Z" />
  </mask>
  <path d="M2 96C2 91.5817 5.58172 88 10 88H411C415.418 88 419 91.5817 419 96V136H2V96Z" fill="#F6FFEB" />
  <path d="M2 88H419H2ZM419 137H2V135H419V137ZM2 136V88V136ZM419 88V136V88Z" fill="#395AB1"
    mask="url(#path-3-inside-1_56_342)" />
  <path
    d="M14.992 112.096C14.992 110.261 15.2907 108.832 15.888 107.808C16.4853 106.773 17.5307 106.256 19.024 106.256C20.5067 106.256 21.5467 106.773 22.144 107.808C22.7413 108.832 23.04 110.261 23.04 112.096C23.04 113.963 22.7413 115.413 22.144 116.448C21.5467 117.483 20.5067 118 19.024 118C17.5307 118 16.4853 117.483 15.888 116.448C15.2907 115.413 14.992 113.963 14.992 112.096ZM21.6 112.096C21.6 111.168 21.536 110.384 21.408 109.744C21.2907 109.093 21.04 108.571 20.656 108.176C20.2827 107.781 19.7387 107.584 19.024 107.584C18.2987 107.584 17.744 107.781 17.36 108.176C16.9867 108.571 16.736 109.093 16.608 109.744C16.4907 110.384 16.432 111.168 16.432 112.096C16.432 113.056 16.4907 113.861 16.608 114.512C16.736 115.163 16.9867 115.685 17.36 116.08C17.744 116.475 18.2987 116.672 19.024 116.672C19.7387 116.672 20.2827 116.475 20.656 116.08C21.04 115.685 21.2907 115.163 21.408 114.512C21.536 113.861 21.6 113.056 21.6 112.096ZM26.5909 114.896C26.6975 115.504 26.9429 115.973 27.3269 116.304C27.7215 116.635 28.2495 116.8 28.9109 116.8C29.7962 116.8 30.4469 116.453 30.8629 115.76C31.2895 115.067 31.4922 113.899 31.4709 112.256C31.2469 112.736 30.8735 113.115 30.3509 113.392C29.8282 113.659 29.2469 113.792 28.6069 113.792C27.8922 113.792 27.2522 113.648 26.6869 113.36C26.1322 113.061 25.6949 112.629 25.3749 112.064C25.0549 111.499 24.8949 110.816 24.8949 110.016C24.8949 108.875 25.2255 107.957 25.8869 107.264C26.5482 106.56 27.4869 106.208 28.7029 106.208C30.1962 106.208 31.2415 106.693 31.8389 107.664C32.4469 108.635 32.7509 110.08 32.7509 112C32.7509 113.344 32.6282 114.453 32.3829 115.328C32.1482 116.203 31.7429 116.869 31.1669 117.328C30.6015 117.787 29.8229 118.016 28.8309 118.016C27.7429 118.016 26.8949 117.723 26.2869 117.136C25.6789 116.549 25.3322 115.803 25.2469 114.896H26.5909ZM28.8469 112.56C29.5615 112.56 30.1482 112.341 30.6069 111.904C31.0655 111.456 31.2949 110.853 31.2949 110.096C31.2949 109.296 31.0709 108.651 30.6229 108.16C30.1749 107.669 29.5455 107.424 28.7349 107.424C27.9882 107.424 27.3909 107.659 26.9429 108.128C26.5055 108.597 26.2869 109.216 26.2869 109.984C26.2869 110.763 26.5055 111.387 26.9429 111.856C27.3802 112.325 28.0149 112.56 28.8469 112.56ZM44.1026 102.928L39.7186 120.72H38.2786L42.6466 102.928H44.1026ZM49.6576 112.096C49.6576 110.261 49.9563 108.832 50.5536 107.808C51.151 106.773 52.1963 106.256 53.6896 106.256C55.1723 106.256 56.2123 106.773 56.8096 107.808C57.407 108.832 57.7056 110.261 57.7056 112.096C57.7056 113.963 57.407 115.413 56.8096 116.448C56.2123 117.483 55.1723 118 53.6896 118C52.1963 118 51.151 117.483 50.5536 116.448C49.9563 115.413 49.6576 113.963 49.6576 112.096ZM56.2656 112.096C56.2656 111.168 56.2016 110.384 56.0736 109.744C55.9563 109.093 55.7056 108.571 55.3216 108.176C54.9483 107.781 54.4043 107.584 53.6896 107.584C52.9643 107.584 52.4096 107.781 52.0256 108.176C51.6523 108.571 51.4016 109.093 51.2736 109.744C51.1563 110.384 51.0976 111.168 51.0976 112.096C51.0976 113.056 51.1563 113.861 51.2736 114.512C51.4016 115.163 51.6523 115.685 52.0256 116.08C52.4096 116.475 52.9643 116.672 53.6896 116.672C54.4043 116.672 54.9483 116.475 55.3216 116.08C55.7056 115.685 55.9563 115.163 56.0736 114.512C56.2016 113.861 56.2656 113.056 56.2656 112.096ZM66.7605 107.696H61.1445V111.344C61.3898 111.003 61.7525 110.725 62.2325 110.512C62.7125 110.288 63.2298 110.176 63.7845 110.176C64.6698 110.176 65.3898 110.363 65.9445 110.736C66.4992 111.099 66.8938 111.573 67.1285 112.16C67.3738 112.736 67.4965 113.349 67.4965 114C67.4965 114.768 67.3525 115.456 67.0645 116.064C66.7765 116.672 66.3338 117.152 65.7365 117.504C65.1498 117.856 64.4192 118.032 63.5445 118.032C62.4245 118.032 61.5178 117.744 60.8245 117.168C60.1312 116.592 59.7098 115.824 59.5605 114.864H60.9845C61.1232 115.472 61.4165 115.947 61.8645 116.288C62.3125 116.629 62.8778 116.8 63.5605 116.8C64.4032 116.8 65.0378 116.549 65.4645 116.048C65.8912 115.536 66.1045 114.864 66.1045 114.032C66.1045 113.2 65.8912 112.56 65.4645 112.112C65.0378 111.653 64.4085 111.424 63.5765 111.424C63.0112 111.424 62.5152 111.563 62.0885 111.84C61.6725 112.107 61.3685 112.475 61.1765 112.944H59.8005V106.416H66.7605V107.696ZM78.737 102.928L74.353 120.72H72.913L77.281 102.928H78.737ZM84.116 116.832C85.4707 115.744 86.532 114.853 87.3 114.16C88.068 113.456 88.7133 112.725 89.236 111.968C89.7693 111.2 90.036 110.448 90.036 109.712C90.036 109.019 89.8653 108.475 89.524 108.08C89.1933 107.675 88.6547 107.472 87.908 107.472C87.1827 107.472 86.6173 107.701 86.212 108.16C85.8173 108.608 85.604 109.211 85.572 109.968H84.164C84.2067 108.773 84.5693 107.851 85.252 107.2C85.9347 106.549 86.8147 106.224 87.892 106.224C88.9907 106.224 89.86 106.528 90.5 107.136C91.1507 107.744 91.476 108.581 91.476 109.648C91.476 110.533 91.2093 111.397 90.676 112.24C90.1533 113.072 89.556 113.808 88.884 114.448C88.212 115.077 87.3533 115.813 86.308 116.656H91.812V117.872H84.116V116.832ZM93.1751 112.096C93.1751 110.261 93.4738 108.832 94.0711 107.808C94.6685 106.773 95.7138 106.256 97.2071 106.256C98.6898 106.256 99.7298 106.773 100.327 107.808C100.924 108.832 101.223 110.261 101.223 112.096C101.223 113.963 100.924 115.413 100.327 116.448C99.7298 117.483 98.6898 118 97.2071 118C95.7138 118 94.6685 117.483 94.0711 116.448C93.4738 115.413 93.1751 113.963 93.1751 112.096ZM99.7831 112.096C99.7831 111.168 99.7191 110.384 99.5911 109.744C99.4738 109.093 99.2231 108.571 98.8391 108.176C98.4658 107.781 97.9218 107.584 97.2071 107.584C96.4818 107.584 95.9271 107.781 95.5431 108.176C95.1698 108.571 94.9191 109.093 94.7911 109.744C94.6738 110.384 94.6151 111.168 94.6151 112.096C94.6151 113.056 94.6738 113.861 94.7911 114.512C94.9191 115.163 95.1698 115.685 95.5431 116.08C95.9271 116.475 96.4818 116.672 97.2071 116.672C97.9218 116.672 98.4658 116.475 98.8391 116.08C99.2231 115.685 99.4738 115.163 99.5911 114.512C99.7191 113.861 99.7831 113.056 99.7831 112.096ZM102.726 116.832C104.081 115.744 105.142 114.853 105.91 114.16C106.678 113.456 107.323 112.725 107.846 111.968C108.379 111.2 108.646 110.448 108.646 109.712C108.646 109.019 108.475 108.475 108.134 108.08C107.803 107.675 107.265 107.472 106.518 107.472C105.793 107.472 105.227 107.701 104.822 108.16C104.427 108.608 104.214 109.211 104.182 109.968H102.774C102.817 108.773 103.179 107.851 103.862 107.2C104.545 106.549 105.425 106.224 106.502 106.224C107.601 106.224 108.47 106.528 109.11 107.136C109.761 107.744 110.086 108.581 110.086 109.648C110.086 110.533 109.819 111.397 109.286 112.24C108.763 113.072 108.166 113.808 107.494 114.448C106.822 115.077 105.963 115.813 104.918 116.656H110.422V117.872H102.726V116.832ZM119.161 107.696H113.545V111.344C113.79 111.003 114.153 110.725 114.633 110.512C115.113 110.288 115.63 110.176 116.185 110.176C117.07 110.176 117.79 110.363 118.345 110.736C118.9 111.099 119.294 111.573 119.529 112.16C119.774 112.736 119.897 113.349 119.897 114C119.897 114.768 119.753 115.456 119.465 116.064C119.177 116.672 118.734 117.152 118.137 117.504C117.55 117.856 116.82 118.032 115.945 118.032C114.825 118.032 113.918 117.744 113.225 117.168C112.532 116.592 112.11 115.824 111.961 114.864H113.385C113.524 115.472 113.817 115.947 114.265 116.288C114.713 116.629 115.278 116.8 115.961 116.8C116.804 116.8 117.438 116.549 117.865 116.048C118.292 115.536 118.505 114.864 118.505 114.032C118.505 113.2 118.292 112.56 117.865 112.112C117.438 111.653 116.809 111.424 115.977 111.424C115.412 111.424 114.916 111.563 114.489 111.84C114.073 112.107 113.769 112.475 113.577 112.944H112.201V106.416H119.161V107.696Z"
    fill="#2A2B2C" />
  <path
    d="M391 107V103M399 107V103M390 111H400M388 121H402C403.105 121 404 120.105 404 119V107C404 105.895 403.105 105 402 105H388C386.895 105 386 105.895 386 107V119C386 120.105 386.895 121 388 121Z"
    stroke="#395AB1" stroke-width="2" stroke-linecap="round" stroke-linejoin="round" />
  <path
    d="M175.403 154.88V166H173.579V158.384L170.187 166H168.923L165.515 158.384V166H163.691V154.88H165.659L169.563 163.6L173.451 154.88H175.403ZM176.872 161.552C176.872 160.667 177.053 159.883 177.416 159.2C177.789 158.517 178.291 157.989 178.92 157.616C179.56 157.232 180.264 157.04 181.032 157.04C181.725 157.04 182.328 157.179 182.84 157.456C183.363 157.723 183.779 158.059 184.088 158.464V157.184H185.928V166H184.088V164.688C183.779 165.104 183.357 165.451 182.824 165.728C182.291 166.005 181.683 166.144 181 166.144C180.243 166.144 179.549 165.952 178.92 165.568C178.291 165.173 177.789 164.629 177.416 163.936C177.053 163.232 176.872 162.437 176.872 161.552ZM184.088 161.584C184.088 160.976 183.96 160.448 183.704 160C183.459 159.552 183.133 159.211 182.728 158.976C182.323 158.741 181.885 158.624 181.416 158.624C180.947 158.624 180.509 158.741 180.104 158.976C179.699 159.2 179.368 159.536 179.112 159.984C178.867 160.421 178.744 160.944 178.744 161.552C178.744 162.16 178.867 162.693 179.112 163.152C179.368 163.611 179.699 163.963 180.104 164.208C180.52 164.443 180.957 164.56 181.416 164.56C181.885 164.56 182.323 164.443 182.728 164.208C183.133 163.973 183.459 163.632 183.704 163.184C183.96 162.725 184.088 162.192 184.088 161.584ZM188.932 156.016C188.601 156.016 188.324 155.904 188.1 155.68C187.876 155.456 187.764 155.179 187.764 154.848C187.764 154.517 187.876 154.24 188.1 154.016C188.324 153.792 188.601 153.68 188.932 153.68C189.252 153.68 189.524 153.792 189.748 154.016C189.972 154.24 190.084 154.517 190.084 154.848C190.084 155.179 189.972 155.456 189.748 155.68C189.524 155.904 189.252 156.016 188.932 156.016ZM189.828 157.184V166H188.004V157.184H189.828ZM195.726 166.144C194.894 166.144 194.142 165.957 193.47 165.584C192.798 165.2 192.27 164.667 191.886 163.984C191.502 163.291 191.31 162.491 191.31 161.584C191.31 160.688 191.508 159.893 191.902 159.2C192.297 158.507 192.836 157.973 193.518 157.6C194.201 157.227 194.964 157.04 195.806 157.04C196.649 157.04 197.412 157.227 198.094 157.6C198.777 157.973 199.316 158.507 199.71 159.2C200.105 159.893 200.302 160.688 200.302 161.584C200.302 162.48 200.1 163.275 199.694 163.968C199.289 164.661 198.735 165.2 198.03 165.584C197.337 165.957 196.569 166.144 195.726 166.144ZM195.726 164.56C196.196 164.56 196.633 164.448 197.038 164.224C197.454 164 197.79 163.664 198.046 163.216C198.302 162.768 198.43 162.224 198.43 161.584C198.43 160.944 198.308 160.405 198.062 159.968C197.817 159.52 197.492 159.184 197.086 158.96C196.681 158.736 196.244 158.624 195.774 158.624C195.305 158.624 194.868 158.736 194.462 158.96C194.068 159.184 193.753 159.52 193.518 159.968C193.284 160.405 193.166 160.944 193.166 161.584C193.166 162.533 193.406 163.269 193.886 163.792C194.377 164.304 194.99 164.56 195.726 164.56ZM209.654 168.976C208.609 167.973 207.803 166.699 207.238 165.152C206.683 163.605 206.406 161.947 206.406 160.176C206.406 158.363 206.705 156.651 207.302 155.04C207.91 153.429 208.801 152.101 209.974 151.056H211.862V151.232C210.635 152.363 209.713 153.717 209.094 155.296C208.475 156.875 208.166 158.501 208.166 160.176C208.166 161.787 208.454 163.344 209.03 164.848C209.606 166.352 210.443 167.669 211.542 168.8V168.976H209.654ZM213.945 163.52C214.969 162.635 215.774 161.909 216.361 161.344C216.958 160.768 217.454 160.171 217.849 159.552C218.244 158.933 218.441 158.315 218.441 157.696C218.441 157.056 218.286 156.555 217.977 156.192C217.678 155.829 217.204 155.648 216.553 155.648C215.924 155.648 215.433 155.851 215.081 156.256C214.74 156.651 214.558 157.184 214.537 157.856H212.777C212.809 156.64 213.172 155.712 213.865 155.072C214.569 154.421 215.46 154.096 216.537 154.096C217.7 154.096 218.606 154.416 219.257 155.056C219.918 155.696 220.249 156.549 220.249 157.616C220.249 158.384 220.052 159.125 219.657 159.84C219.273 160.544 218.809 161.179 218.265 161.744C217.732 162.299 217.049 162.944 216.217 163.68L215.497 164.32H220.569V165.84H212.793V164.512L213.945 163.52ZM221.851 160.016C221.851 158.171 222.161 156.731 222.779 155.696C223.409 154.651 224.486 154.128 226.011 154.128C227.537 154.128 228.609 154.651 229.227 155.696C229.857 156.731 230.171 158.171 230.171 160.016C230.171 161.883 229.857 163.344 229.227 164.4C228.609 165.445 227.537 165.968 226.011 165.968C224.486 165.968 223.409 165.445 222.779 164.4C222.161 163.344 221.851 161.883 221.851 160.016ZM228.379 160.016C228.379 159.152 228.321 158.421 228.203 157.824C228.097 157.227 227.873 156.741 227.531 156.368C227.19 155.984 226.683 155.792 226.011 155.792C225.339 155.792 224.833 155.984 224.491 156.368C224.15 156.741 223.921 157.227 223.803 157.824C223.697 158.421 223.643 159.152 223.643 160.016C223.643 160.912 223.697 161.664 223.803 162.272C223.91 162.88 224.134 163.371 224.475 163.744C224.827 164.117 225.339 164.304 226.011 164.304C226.683 164.304 227.19 164.117 227.531 163.744C227.883 163.371 228.113 162.88 228.219 162.272C228.326 161.664 228.379 160.912 228.379 160.016ZM232.789 163.52C233.813 162.635 234.619 161.909 235.205 161.344C235.803 160.768 236.299 160.171 236.693 159.552C237.088 158.933 237.285 158.315 237.285 157.696C237.285 157.056 237.131 156.555 236.821 156.192C236.523 155.829 236.048 155.648 235.397 155.648C234.768 155.648 234.277 155.851 233.925 156.256C233.584 156.651 233.403 157.184 233.381 157.856H231.621C231.653 156.64 232.016 155.712 232.709 155.072C233.413 154.421 234.304 154.096 235.381 154.096C236.544 154.096 237.451 154.416 238.101 155.056C238.763 155.696 239.093 156.549 239.093 157.616C239.093 158.384 238.896 159.125 238.501 159.84C238.117 160.544 237.653 161.179 237.109 161.744C236.576 162.299 235.893 162.944 235.061 163.68L234.341 164.32H239.413V165.84H231.637V164.512L232.789 163.52ZM248.216 155.904H242.856V159.088C243.08 158.789 243.41 158.539 243.848 158.336C244.296 158.133 244.77 158.032 245.272 158.032C246.168 158.032 246.893 158.224 247.448 158.608C248.013 158.992 248.413 159.477 248.648 160.064C248.893 160.651 249.016 161.269 249.016 161.92C249.016 162.709 248.861 163.413 248.552 164.032C248.253 164.64 247.8 165.12 247.192 165.472C246.594 165.824 245.858 166 244.984 166C243.821 166 242.888 165.712 242.184 165.136C241.48 164.56 241.058 163.797 240.92 162.848H242.696C242.813 163.349 243.074 163.749 243.48 164.048C243.885 164.336 244.392 164.48 245 164.48C245.757 164.48 246.322 164.251 246.696 163.792C247.08 163.333 247.272 162.725 247.272 161.968C247.272 161.2 247.08 160.613 246.696 160.208C246.312 159.792 245.746 159.584 245 159.584C244.477 159.584 244.034 159.717 243.672 159.984C243.32 160.24 243.064 160.592 242.904 161.04H241.176V154.304H248.216V155.904ZM250.386 168.976V168.8C251.485 167.669 252.322 166.352 252.898 164.848C253.474 163.344 253.762 161.787 253.762 160.176C253.762 158.501 253.453 156.875 252.834 155.296C252.216 153.717 251.293 152.363 250.066 151.232V151.056H251.954C253.128 152.101 254.013 153.429 254.61 155.04C255.218 156.651 255.522 158.363 255.522 160.176C255.522 161.947 255.24 163.605 254.674 165.152C254.12 166.699 253.32 167.973 252.274 168.976H250.386Z"
    fill="#2A2B2C" />
  <path d="M24 164.667L19.3333 160.001L24 155.334" stroke="#2A2B2C" stroke-width="2" stroke-linecap="round"
    stroke-linejoin="round" />
  <path d="M397 155.333L401.667 159.999L397 164.666" stroke="#2A2B2C" stroke-width="2" stroke-linecap="round"
    stroke-linejoin="round" />
  <path
    d="M27.8312 191.242C28.8952 191.242 29.8146 191.443 30.5892 191.844C31.3732 192.236 31.9706 192.801 32.3812 193.538C32.8012 194.275 33.0112 195.143 33.0112 196.142C33.0112 197.141 32.8012 198.009 32.3812 198.746C31.9706 199.474 31.3732 200.034 30.5892 200.426C29.8146 200.809 28.8952 201 27.8312 201H24.7932V191.242H27.8312ZM27.8312 199.95C29.0912 199.95 30.0526 199.619 30.7152 198.956C31.3779 198.284 31.7092 197.346 31.7092 196.142C31.7092 194.929 31.3732 193.981 30.7012 193.3C30.0386 192.619 29.0819 192.278 27.8312 192.278H26.0672V199.95H27.8312ZM37.7577 201.126C37.039 201.126 36.3857 200.963 35.7977 200.636C35.219 200.309 34.7617 199.847 34.4257 199.25C34.099 198.643 33.9357 197.943 33.9357 197.15C33.9357 196.366 34.1037 195.675 34.4397 195.078C34.785 194.471 35.2517 194.009 35.8397 193.692C36.4277 193.365 37.0857 193.202 37.8137 193.202C38.5417 193.202 39.1997 193.365 39.7877 193.692C40.3757 194.009 40.8377 194.467 41.1737 195.064C41.519 195.661 41.6917 196.357 41.6917 197.15C41.6917 197.943 41.5143 198.643 41.1597 199.25C40.8143 199.847 40.343 200.309 39.7457 200.636C39.1483 200.963 38.4857 201.126 37.7577 201.126ZM37.7577 200.006C38.215 200.006 38.6443 199.899 39.0457 199.684C39.447 199.469 39.769 199.147 40.0117 198.718C40.2637 198.289 40.3897 197.766 40.3897 197.15C40.3897 196.534 40.2683 196.011 40.0257 195.582C39.783 195.153 39.4657 194.835 39.0737 194.63C38.6817 194.415 38.257 194.308 37.7997 194.308C37.333 194.308 36.9037 194.415 36.5117 194.63C36.129 194.835 35.821 195.153 35.5877 195.582C35.3543 196.011 35.2377 196.534 35.2377 197.15C35.2377 197.775 35.3497 198.303 35.5737 198.732C35.807 199.161 36.115 199.483 36.4977 199.698C36.8803 199.903 37.3003 200.006 37.7577 200.006ZM52.3127 193.188C52.9101 193.188 53.4421 193.314 53.9087 193.566C54.3754 193.809 54.7441 194.177 55.0147 194.672C55.2854 195.167 55.4207 195.769 55.4207 196.478V201H54.1607V196.66C54.1607 195.895 53.9694 195.311 53.5867 194.91C53.2134 194.499 52.7047 194.294 52.0607 194.294C51.3981 194.294 50.8707 194.509 50.4787 194.938C50.0867 195.358 49.8907 195.969 49.8907 196.772V201H48.6307V196.66C48.6307 195.895 48.4394 195.311 48.0567 194.91C47.6834 194.499 47.1747 194.294 46.5307 194.294C45.8681 194.294 45.3407 194.509 44.9487 194.938C44.5567 195.358 44.3607 195.969 44.3607 196.772V201H43.0867V193.328H44.3607V194.434C44.6127 194.033 44.9487 193.725 45.3687 193.51C45.7981 193.295 46.2694 193.188 46.7827 193.188C47.4267 193.188 47.9961 193.333 48.4907 193.622C48.9854 193.911 49.3541 194.336 49.5967 194.896C49.8114 194.355 50.1661 193.935 50.6607 193.636C51.1554 193.337 51.7061 193.188 52.3127 193.188Z"
    fill="#395AB1" />
  <path
    d="M88.1549 201.098C87.5109 201.098 86.9323 200.986 86.4189 200.762C85.9149 200.529 85.5183 200.211 85.2289 199.81C84.9396 199.399 84.7903 198.928 84.7809 198.396H86.1389C86.1856 198.853 86.3723 199.241 86.6989 199.558C87.0349 199.866 87.5203 200.02 88.1549 200.02C88.7616 200.02 89.2376 199.871 89.5829 199.572C89.9376 199.264 90.1149 198.872 90.1149 198.396C90.1149 198.023 90.0123 197.719 89.8069 197.486C89.6016 197.253 89.3449 197.075 89.0369 196.954C88.7289 196.833 88.3136 196.702 87.7909 196.562C87.1469 196.394 86.6289 196.226 86.2369 196.058C85.8543 195.89 85.5229 195.629 85.2429 195.274C84.9723 194.91 84.8369 194.425 84.8369 193.818C84.8369 193.286 84.9723 192.815 85.2429 192.404C85.5136 191.993 85.8916 191.676 86.3769 191.452C86.8716 191.228 87.4363 191.116 88.0709 191.116C88.9856 191.116 89.7323 191.345 90.3109 191.802C90.8989 192.259 91.2303 192.866 91.3049 193.622H89.9049C89.8583 193.249 89.6623 192.922 89.3169 192.642C88.9716 192.353 88.5143 192.208 87.9449 192.208C87.4129 192.208 86.9789 192.348 86.6429 192.628C86.3069 192.899 86.1389 193.281 86.1389 193.776C86.1389 194.131 86.2369 194.42 86.4329 194.644C86.6383 194.868 86.8856 195.041 87.1749 195.162C87.4736 195.274 87.8889 195.405 88.4209 195.554C89.0649 195.731 89.5829 195.909 89.9749 196.086C90.3669 196.254 90.7029 196.52 90.9829 196.884C91.2629 197.239 91.4029 197.724 91.4029 198.34C91.4029 198.816 91.2769 199.264 91.0249 199.684C90.7729 200.104 90.3996 200.445 89.9049 200.706C89.4103 200.967 88.8269 201.098 88.1549 201.098ZM99.9977 196.87C99.9977 197.113 99.9837 197.369 99.9557 197.64H93.8237C93.8704 198.396 94.1271 198.989 94.5937 199.418C95.0697 199.838 95.6437 200.048 96.3157 200.048C96.8664 200.048 97.3237 199.922 97.6877 199.67C98.0611 199.409 98.3224 199.063 98.4717 198.634H99.8437C99.6384 199.371 99.2277 199.973 98.6117 200.44C97.9957 200.897 97.2304 201.126 96.3157 201.126C95.5877 201.126 94.9344 200.963 94.3557 200.636C93.7864 200.309 93.3384 199.847 93.0117 199.25C92.6851 198.643 92.5217 197.943 92.5217 197.15C92.5217 196.357 92.6804 195.661 92.9977 195.064C93.3151 194.467 93.7584 194.009 94.3277 193.692C94.9064 193.365 95.5691 193.202 96.3157 193.202C97.0437 193.202 97.6877 193.361 98.2477 193.678C98.8077 193.995 99.2371 194.434 99.5357 194.994C99.8437 195.545 99.9977 196.17 99.9977 196.87ZM98.6817 196.604C98.6817 196.119 98.5744 195.703 98.3597 195.358C98.1451 195.003 97.8511 194.737 97.4777 194.56C97.1137 194.373 96.7077 194.28 96.2597 194.28C95.6157 194.28 95.0651 194.485 94.6077 194.896C94.1597 195.307 93.9031 195.876 93.8377 196.604H98.6817ZM104.563 193.202C105.226 193.202 105.805 193.347 106.299 193.636C106.803 193.925 107.177 194.289 107.419 194.728V193.328H108.707V201.168C108.707 201.868 108.558 202.489 108.259 203.03C107.961 203.581 107.531 204.01 106.971 204.318C106.421 204.626 105.777 204.78 105.039 204.78C104.031 204.78 103.191 204.542 102.519 204.066C101.847 203.59 101.451 202.941 101.329 202.12H102.589C102.729 202.587 103.019 202.96 103.457 203.24C103.896 203.529 104.423 203.674 105.039 203.674C105.739 203.674 106.309 203.455 106.747 203.016C107.195 202.577 107.419 201.961 107.419 201.168V199.558C107.167 200.006 106.794 200.379 106.299 200.678C105.805 200.977 105.226 201.126 104.563 201.126C103.882 201.126 103.261 200.958 102.701 200.622C102.151 200.286 101.717 199.815 101.399 199.208C101.082 198.601 100.923 197.911 100.923 197.136C100.923 196.352 101.082 195.666 101.399 195.078C101.717 194.481 102.151 194.019 102.701 193.692C103.261 193.365 103.882 193.202 104.563 193.202ZM107.419 197.15C107.419 196.571 107.303 196.067 107.069 195.638C106.836 195.209 106.519 194.882 106.117 194.658C105.725 194.425 105.291 194.308 104.815 194.308C104.339 194.308 103.905 194.42 103.513 194.644C103.121 194.868 102.809 195.195 102.575 195.624C102.342 196.053 102.225 196.557 102.225 197.136C102.225 197.724 102.342 198.237 102.575 198.676C102.809 199.105 103.121 199.437 103.513 199.67C103.905 199.894 104.339 200.006 104.815 200.006C105.291 200.006 105.725 199.894 106.117 199.67C106.519 199.437 106.836 199.105 107.069 198.676C107.303 198.237 107.419 197.729 107.419 197.15Z"
    fill="#395AB1" />
  <path
    d="M150.316 191.242V192.278H147.656V201H146.382V192.278H143.708V191.242H150.316ZM158.604 196.87C158.604 197.113 158.59 197.369 158.562 197.64H152.43C152.477 198.396 152.734 198.989 153.2 199.418C153.676 199.838 154.25 200.048 154.922 200.048C155.473 200.048 155.93 199.922 156.294 199.67C156.668 199.409 156.929 199.063 157.078 198.634H158.45C158.245 199.371 157.834 199.973 157.218 200.44C156.602 200.897 155.837 201.126 154.922 201.126C154.194 201.126 153.541 200.963 152.962 200.636C152.393 200.309 151.945 199.847 151.618 199.25C151.292 198.643 151.128 197.943 151.128 197.15C151.128 196.357 151.287 195.661 151.604 195.064C151.922 194.467 152.365 194.009 152.934 193.692C153.513 193.365 154.176 193.202 154.922 193.202C155.65 193.202 156.294 193.361 156.854 193.678C157.414 193.995 157.844 194.434 158.142 194.994C158.45 195.545 158.604 196.17 158.604 196.87ZM157.288 196.604C157.288 196.119 157.181 195.703 156.966 195.358C156.752 195.003 156.458 194.737 156.084 194.56C155.72 194.373 155.314 194.28 154.866 194.28C154.222 194.28 153.672 194.485 153.214 194.896C152.766 195.307 152.51 195.876 152.444 196.604H157.288ZM161.28 194.574C161.504 194.135 161.821 193.795 162.232 193.552C162.652 193.309 163.161 193.188 163.758 193.188V194.504H163.422C161.994 194.504 161.28 195.279 161.28 196.828V201H160.006V193.328H161.28V194.574Z"
    fill="#395AB1" />
  <path
    d="M198.762 192.912V191.818H206.398V192.912H203.196V202H201.963V192.912H198.762ZM209.035 197.406V202H207.862V191.818H209.035V195.557H209.135C209.314 195.162 209.582 194.849 209.94 194.617C210.301 194.382 210.782 194.264 211.382 194.264C211.902 194.264 212.358 194.369 212.749 194.577C213.14 194.783 213.443 195.099 213.659 195.527C213.878 195.951 213.987 196.491 213.987 197.148V202H212.814V197.227C212.814 196.621 212.656 196.152 212.341 195.82C212.03 195.486 211.597 195.318 211.044 195.318C210.659 195.318 210.315 195.399 210.01 195.562C209.708 195.724 209.469 195.961 209.294 196.273C209.121 196.584 209.035 196.962 209.035 197.406ZM220.666 198.878V194.364H221.839V202H220.666V200.707H220.586C220.407 201.095 220.129 201.425 219.751 201.697C219.373 201.965 218.896 202.099 218.319 202.099C217.842 202.099 217.418 201.995 217.047 201.786C216.675 201.574 216.384 201.256 216.172 200.832C215.959 200.404 215.853 199.866 215.853 199.216V194.364H217.027V199.136C217.027 199.693 217.182 200.137 217.494 200.469C217.809 200.8 218.21 200.966 218.697 200.966C218.989 200.966 219.285 200.891 219.587 200.742C219.892 200.593 220.147 200.364 220.353 200.056C220.562 199.748 220.666 199.355 220.666 198.878Z"
    fill="#395AB1" />
  <path
    d="M260.489 202V191.818H266.594V192.912H261.722V196.352H266.136V197.446H261.722V202H260.489ZM268.184 202V194.364H269.318V195.517H269.397C269.537 195.139 269.788 194.833 270.153 194.597C270.518 194.362 270.929 194.244 271.386 194.244C271.472 194.244 271.58 194.246 271.709 194.249C271.838 194.253 271.936 194.258 272.003 194.264V195.457C271.963 195.447 271.872 195.433 271.729 195.413C271.59 195.389 271.442 195.378 271.287 195.378C270.915 195.378 270.584 195.456 270.292 195.612C270.004 195.764 269.775 195.976 269.606 196.248C269.44 196.516 269.358 196.823 269.358 197.168V202H268.184ZM273.113 202V194.364H274.287V202H273.113ZM273.71 193.091C273.481 193.091 273.284 193.013 273.118 192.857C272.956 192.701 272.875 192.514 272.875 192.295C272.875 192.077 272.956 191.889 273.118 191.734C273.284 191.578 273.481 191.5 273.71 191.5C273.939 191.5 274.134 191.578 274.297 191.734C274.462 191.889 274.545 192.077 274.545 192.295C274.545 192.514 274.462 192.701 274.297 192.857C274.134 193.013 273.939 193.091 273.71 193.091Z"
    fill="#395AB1" />
  <path
    d="M320.247 194.364C320.188 193.86 319.946 193.469 319.521 193.19C319.097 192.912 318.577 192.773 317.96 192.773C317.51 192.773 317.115 192.846 316.777 192.991C316.442 193.137 316.181 193.338 315.992 193.593C315.806 193.848 315.713 194.138 315.713 194.463C315.713 194.735 315.778 194.969 315.907 195.164C316.04 195.356 316.209 195.517 316.414 195.646C316.62 195.772 316.835 195.877 317.061 195.96C317.286 196.039 317.493 196.104 317.682 196.153L318.716 196.432C318.981 196.501 319.276 196.598 319.601 196.72C319.929 196.843 320.242 197.01 320.541 197.222C320.842 197.431 321.091 197.7 321.286 198.028C321.482 198.356 321.58 198.759 321.58 199.236C321.58 199.786 321.436 200.283 321.147 200.727C320.862 201.171 320.445 201.524 319.894 201.786C319.347 202.048 318.683 202.179 317.901 202.179C317.172 202.179 316.54 202.061 316.007 201.826C315.476 201.591 315.059 201.263 314.754 200.842C314.452 200.421 314.281 199.932 314.242 199.375H315.514C315.548 199.759 315.677 200.078 315.902 200.33C316.131 200.578 316.419 200.764 316.767 200.886C317.119 201.006 317.496 201.065 317.901 201.065C318.371 201.065 318.794 200.989 319.169 200.837C319.543 200.681 319.84 200.465 320.058 200.19C320.277 199.912 320.387 199.587 320.387 199.216C320.387 198.878 320.292 198.603 320.103 198.391C319.914 198.179 319.666 198.006 319.357 197.874C319.049 197.741 318.716 197.625 318.358 197.526L317.105 197.168C316.31 196.939 315.68 196.612 315.216 196.188C314.752 195.764 314.52 195.209 314.52 194.523C314.52 193.953 314.674 193.455 314.982 193.031C315.294 192.604 315.712 192.272 316.235 192.037C316.762 191.798 317.351 191.679 318 191.679C318.656 191.679 319.24 191.797 319.75 192.032C320.261 192.264 320.665 192.582 320.963 192.987C321.265 193.391 321.424 193.85 321.441 194.364H320.247ZM325.415 202.179C324.931 202.179 324.492 202.088 324.097 201.906C323.703 201.72 323.39 201.453 323.158 201.105C322.926 200.754 322.81 200.33 322.81 199.832C322.81 199.395 322.896 199.04 323.068 198.768C323.241 198.493 323.471 198.278 323.759 198.122C324.048 197.966 324.366 197.85 324.714 197.774C325.065 197.695 325.418 197.632 325.773 197.585C326.237 197.526 326.613 197.481 326.901 197.451C327.193 197.418 327.405 197.363 327.538 197.287C327.674 197.211 327.742 197.078 327.742 196.889V196.849C327.742 196.359 327.607 195.978 327.339 195.706C327.074 195.434 326.671 195.298 326.131 195.298C325.571 195.298 325.132 195.421 324.813 195.666C324.495 195.911 324.272 196.173 324.142 196.452L323.029 196.054C323.227 195.59 323.493 195.229 323.824 194.97C324.159 194.708 324.523 194.526 324.918 194.423C325.316 194.317 325.707 194.264 326.091 194.264C326.336 194.264 326.618 194.294 326.936 194.354C327.258 194.41 327.568 194.528 327.866 194.707C328.168 194.886 328.418 195.156 328.617 195.517C328.816 195.878 328.915 196.362 328.915 196.969V202H327.742V200.966H327.682C327.602 201.132 327.47 201.309 327.284 201.498C327.099 201.687 326.852 201.848 326.544 201.98C326.235 202.113 325.859 202.179 325.415 202.179ZM325.594 201.125C326.058 201.125 326.449 201.034 326.767 200.852C327.089 200.669 327.331 200.434 327.493 200.146C327.659 199.857 327.742 199.554 327.742 199.236V198.162C327.692 198.222 327.583 198.276 327.414 198.326C327.248 198.372 327.056 198.414 326.837 198.45C326.621 198.483 326.411 198.513 326.205 198.54C326.003 198.563 325.839 198.583 325.713 198.599C325.408 198.639 325.123 198.704 324.858 198.793C324.596 198.879 324.384 199.01 324.222 199.186C324.063 199.358 323.983 199.594 323.983 199.892C323.983 200.3 324.134 200.608 324.436 200.817C324.74 201.022 325.127 201.125 325.594 201.125ZM334.098 194.364V195.358H330.14V194.364H334.098ZM331.294 192.534H332.467V199.812C332.467 200.144 332.515 200.393 332.611 200.558C332.71 200.721 332.836 200.83 332.989 200.886C333.145 200.939 333.309 200.966 333.481 200.966C333.61 200.966 333.716 200.959 333.799 200.946C333.882 200.929 333.948 200.916 333.998 200.906L334.237 201.96C334.157 201.99 334.046 202.02 333.904 202.05C333.761 202.083 333.58 202.099 333.362 202.099C333.03 202.099 332.705 202.028 332.387 201.886C332.072 201.743 331.811 201.526 331.602 201.234C331.396 200.943 331.294 200.575 331.294 200.131V192.534Z"
    fill="#395AB1" />
  <path
    d="M375.381 194.364C375.322 193.86 375.08 193.469 374.655 193.19C374.231 192.912 373.711 192.773 373.094 192.773C372.644 192.773 372.249 192.846 371.911 192.991C371.576 193.137 371.314 193.338 371.126 193.593C370.94 193.848 370.847 194.138 370.847 194.463C370.847 194.735 370.912 194.969 371.041 195.164C371.174 195.356 371.343 195.517 371.548 195.646C371.754 195.772 371.969 195.877 372.194 195.96C372.42 196.039 372.627 196.104 372.816 196.153L373.85 196.432C374.115 196.501 374.41 196.598 374.735 196.72C375.063 196.843 375.376 197.01 375.675 197.222C375.976 197.431 376.225 197.7 376.42 198.028C376.616 198.356 376.714 198.759 376.714 199.236C376.714 199.786 376.569 200.283 376.281 200.727C375.996 201.171 375.578 201.524 375.028 201.786C374.481 202.048 373.817 202.179 373.035 202.179C372.306 202.179 371.674 202.061 371.14 201.826C370.61 201.591 370.193 201.263 369.888 200.842C369.586 200.421 369.415 199.932 369.376 199.375H370.648C370.681 199.759 370.811 200.078 371.036 200.33C371.265 200.578 371.553 200.764 371.901 200.886C372.252 201.006 372.63 201.065 373.035 201.065C373.505 201.065 373.928 200.989 374.302 200.837C374.677 200.681 374.974 200.465 375.192 200.19C375.411 199.912 375.52 199.587 375.52 199.216C375.52 198.878 375.426 198.603 375.237 198.391C375.048 198.179 374.8 198.006 374.491 197.874C374.183 197.741 373.85 197.625 373.492 197.526L372.239 197.168C371.444 196.939 370.814 196.612 370.35 196.188C369.886 195.764 369.654 195.209 369.654 194.523C369.654 193.953 369.808 193.455 370.116 193.031C370.428 192.604 370.846 192.272 371.369 192.037C371.896 191.798 372.484 191.679 373.134 191.679C373.79 191.679 374.374 191.797 374.884 192.032C375.395 192.264 375.799 192.582 376.097 192.987C376.399 193.391 376.558 193.85 376.574 194.364H375.381ZM383.114 198.878V194.364H384.288V202H383.114V200.707H383.035C382.856 201.095 382.577 201.425 382.199 201.697C381.822 201.965 381.344 202.099 380.768 202.099C380.29 202.099 379.866 201.995 379.495 201.786C379.124 201.574 378.832 201.256 378.62 200.832C378.408 200.404 378.302 199.866 378.302 199.216V194.364H379.475V199.136C379.475 199.693 379.631 200.137 379.942 200.469C380.257 200.8 380.658 200.966 381.145 200.966C381.437 200.966 381.734 200.891 382.035 200.742C382.34 200.593 382.596 200.364 382.801 200.056C383.01 199.748 383.114 199.355 383.114 198.878ZM387.33 197.406V202H386.156V194.364H387.29V195.557H387.389C387.568 195.169 387.84 194.857 388.205 194.622C388.569 194.384 389.04 194.264 389.617 194.264C390.134 194.264 390.586 194.37 390.974 194.582C391.362 194.791 391.663 195.109 391.879 195.537C392.094 195.961 392.202 196.498 392.202 197.148V202H391.029V197.227C391.029 196.627 390.873 196.16 390.561 195.825C390.25 195.487 389.822 195.318 389.279 195.318C388.904 195.318 388.569 195.399 388.274 195.562C387.983 195.724 387.752 195.961 387.583 196.273C387.414 196.584 387.33 196.962 387.33 197.406Z"
    fill="#395AB1" />
  <g clip-path="url(#clip0_56_342)">
    <path d="M32.4062 234.76V233.432H35.4142V245H33.9422V234.76H32.4062Z" fill="#2A2B2C" />
    <path
      d="M89.9062 243.832C91.2609 242.744 92.3222 241.853 93.0902 241.16C93.8582 240.456 94.5036 239.725 95.0262 238.968C95.5596 238.2 95.8262 237.448 95.8262 236.712C95.8262 236.019 95.6556 235.475 95.3142 235.08C94.9836 234.675 94.4449 234.472 93.6982 234.472C92.9729 234.472 92.4076 234.701 92.0022 235.16C91.6076 235.608 91.3942 236.211 91.3622 236.968H89.9542C89.9969 235.773 90.3596 234.851 91.0422 234.2C91.7249 233.549 92.6049 233.224 93.6822 233.224C94.7809 233.224 95.6502 233.528 96.2902 234.136C96.9409 234.744 97.2662 235.581 97.2662 236.648C97.2662 237.533 96.9996 238.397 96.4662 239.24C95.9436 240.072 95.3462 240.808 94.6742 241.448C94.0022 242.077 93.1436 242.813 92.0982 243.656H97.6022V244.872H89.9062V243.832Z"
      fill="#2A2B2C" />
    <path
      d="M148.036 236.344C148.111 235.363 148.489 234.595 149.172 234.04C149.855 233.485 150.74 233.208 151.828 233.208C152.553 233.208 153.177 233.341 153.7 233.608C154.233 233.864 154.633 234.216 154.9 234.664C155.177 235.112 155.316 235.619 155.316 236.184C155.316 236.845 155.124 237.416 154.74 237.896C154.367 238.376 153.876 238.685 153.268 238.824V238.904C153.961 239.075 154.511 239.411 154.916 239.912C155.321 240.413 155.524 241.069 155.524 241.88C155.524 242.488 155.385 243.037 155.108 243.528C154.831 244.008 154.415 244.387 153.86 244.664C153.305 244.941 152.639 245.08 151.86 245.08C150.729 245.08 149.801 244.787 149.076 244.2C148.351 243.603 147.945 242.76 147.86 241.672H149.268C149.343 242.312 149.604 242.835 150.052 243.24C150.5 243.645 151.097 243.848 151.844 243.848C152.591 243.848 153.156 243.656 153.54 243.272C153.935 242.877 154.132 242.371 154.132 241.752C154.132 240.952 153.865 240.376 153.332 240.024C152.799 239.672 151.993 239.496 150.916 239.496H150.548V238.28H150.932C151.913 238.269 152.655 238.109 153.156 237.8C153.657 237.48 153.908 236.989 153.908 236.328C153.908 235.763 153.721 235.309 153.348 234.968C152.985 234.627 152.463 234.456 151.78 234.456C151.119 234.456 150.585 234.627 150.18 234.968C149.775 235.309 149.535 235.768 149.46 236.344H148.036Z"
      fill="#2A2B2C" />
    <path
      d="M206.727 242.424V241.32L212.343 233.544H214.087V241.16H215.687V242.424H214.087V245H212.647V242.424H206.727ZM212.711 235.064L208.407 241.16H212.711V235.064Z"
      fill="#2A2B2C" />
    <path
      d="M272.558 234.696H266.942V238.344C267.187 238.003 267.55 237.725 268.03 237.512C268.51 237.288 269.027 237.176 269.582 237.176C270.467 237.176 271.187 237.363 271.742 237.736C272.296 238.099 272.691 238.573 272.926 239.16C273.171 239.736 273.294 240.349 273.294 241C273.294 241.768 273.15 242.456 272.862 243.064C272.574 243.672 272.131 244.152 271.534 244.504C270.947 244.856 270.216 245.032 269.342 245.032C268.222 245.032 267.315 244.744 266.622 244.168C265.928 243.592 265.507 242.824 265.358 241.864H266.782C266.92 242.472 267.214 242.947 267.662 243.288C268.11 243.629 268.675 243.8 269.358 243.8C270.2 243.8 270.835 243.549 271.262 243.048C271.688 242.536 271.902 241.864 271.902 241.032C271.902 240.2 271.688 239.56 271.262 239.112C270.835 238.653 270.206 238.424 269.374 238.424C268.808 238.424 268.312 238.563 267.886 238.84C267.47 239.107 267.166 239.475 266.974 239.944H265.598V233.416H272.558V234.696Z"
      fill="#2A2B2C" />
    <path
      d="M330.906 236.184C330.671 235 329.941 234.408 328.714 234.408C327.765 234.408 327.055 234.776 326.586 235.512C326.117 236.237 325.887 237.437 325.898 239.112C326.143 238.557 326.549 238.125 327.114 237.816C327.69 237.496 328.33 237.336 329.034 237.336C330.133 237.336 331.007 237.677 331.658 238.36C332.319 239.043 332.65 239.987 332.65 241.192C332.65 241.917 332.506 242.568 332.218 243.144C331.941 243.72 331.514 244.179 330.938 244.52C330.373 244.861 329.685 245.032 328.874 245.032C327.775 245.032 326.917 244.787 326.298 244.296C325.679 243.805 325.247 243.128 325.002 242.264C324.757 241.4 324.634 240.333 324.634 239.064C324.634 235.149 325.999 233.192 328.73 233.192C329.775 233.192 330.597 233.475 331.194 234.04C331.791 234.605 332.143 235.32 332.25 236.184H330.906ZM328.73 238.568C328.271 238.568 327.839 238.664 327.434 238.856C327.029 239.037 326.698 239.32 326.442 239.704C326.197 240.077 326.074 240.536 326.074 241.08C326.074 241.891 326.309 242.552 326.778 243.064C327.247 243.565 327.919 243.816 328.794 243.816C329.541 243.816 330.133 243.587 330.57 243.128C331.018 242.659 331.242 242.029 331.242 241.24C331.242 240.408 331.029 239.757 330.602 239.288C330.175 238.808 329.551 238.568 328.73 238.568Z"
      fill="#2A2B2C" />
    <path d="M390.384 234.568L385.936 245H384.464L388.976 234.712H382.8V233.464H390.384V234.568Z" fill="#2A2B2C" />
    <path
      d="M32.4178 278.984C31.8205 278.749 31.3618 278.408 31.0418 277.96C30.7218 277.512 30.5618 276.968 30.5618 276.328C30.5618 275.752 30.7058 275.235 30.9938 274.776C31.2818 274.307 31.7085 273.939 32.2738 273.672C32.8498 273.395 33.5431 273.256 34.3538 273.256C35.1645 273.256 35.8525 273.395 36.4178 273.672C36.9938 273.939 37.4258 274.307 37.7138 274.776C38.0125 275.235 38.1618 275.752 38.1618 276.328C38.1618 276.947 37.9965 277.491 37.6658 277.96C37.3351 278.419 36.8818 278.76 36.3058 278.984C36.9671 279.187 37.4898 279.544 37.8738 280.056C38.2685 280.557 38.4658 281.165 38.4658 281.88C38.4658 282.573 38.2951 283.181 37.9538 283.704C37.6125 284.216 37.1271 284.616 36.4978 284.904C35.8791 285.181 35.1645 285.32 34.3538 285.32C33.5431 285.32 32.8285 285.181 32.2098 284.904C31.6018 284.616 31.1271 284.216 30.7858 283.704C30.4445 283.181 30.2738 282.573 30.2738 281.88C30.2738 281.165 30.4658 280.552 30.8498 280.04C31.2338 279.528 31.7565 279.176 32.4178 278.984ZM36.7538 276.504C36.7538 275.853 36.5405 275.352 36.1138 275C35.6871 274.648 35.1005 274.472 34.3538 274.472C33.6178 274.472 33.0365 274.648 32.6098 275C32.1831 275.352 31.9698 275.859 31.9698 276.52C31.9698 277.117 32.1885 277.597 32.6258 277.96C33.0738 278.323 33.6498 278.504 34.3538 278.504C35.0685 278.504 35.6445 278.323 36.0818 277.96C36.5298 277.587 36.7538 277.101 36.7538 276.504ZM34.3538 279.624C33.5645 279.624 32.9191 279.811 32.4178 280.184C31.9165 280.547 31.6658 281.096 31.6658 281.832C31.6658 282.515 31.9058 283.064 32.3858 283.48C32.8765 283.896 33.5325 284.104 34.3538 284.104C35.1751 284.104 35.8258 283.896 36.3058 283.48C36.7858 283.064 37.0258 282.515 37.0258 281.832C37.0258 281.117 36.7805 280.573 36.2898 280.2C35.7991 279.816 35.1538 279.624 34.3538 279.624Z"
      fill="#2A2B2C" />
    <rect x="68.9705" y="258" width="49.4426" height="40" rx="20" fill="#395AB1" />
    <path
      d="M93.8874 273.205C94.3647 273.208 94.842 273.299 95.3192 273.477C95.7965 273.655 96.2321 273.951 96.6261 274.364C97.02 274.773 97.3363 275.331 97.5749 276.04C97.8136 276.748 97.9329 277.636 97.9329 278.705C97.9329 279.739 97.8344 280.657 97.6374 281.46C97.4442 282.259 97.1639 282.934 96.7965 283.483C96.4329 284.032 95.9897 284.449 95.467 284.733C94.948 285.017 94.3609 285.159 93.7056 285.159C93.0541 285.159 92.4727 285.03 91.9613 284.773C91.4537 284.511 91.037 284.15 90.7113 283.688C90.3893 283.222 90.1829 282.682 90.092 282.068H91.4783C91.6033 282.602 91.8514 283.044 92.2227 283.392C92.5977 283.737 93.092 283.909 93.7056 283.909C94.6033 283.909 95.3117 283.517 95.8306 282.733C96.3533 281.949 96.6147 280.841 96.6147 279.409H96.5238C96.3117 279.727 96.0598 280.002 95.7681 280.233C95.4764 280.464 95.1526 280.642 94.7965 280.767C94.4405 280.892 94.0617 280.955 93.6602 280.955C92.9935 280.955 92.3817 280.79 91.8249 280.46C91.2719 280.127 90.8287 279.67 90.4954 279.091C90.1658 278.508 90.0011 277.841 90.0011 277.091C90.0011 276.379 90.1602 275.727 90.4783 275.136C90.8003 274.542 91.2511 274.068 91.8306 273.716C92.4139 273.364 93.0995 273.193 93.8874 273.205ZM93.8874 274.455C93.4102 274.455 92.9802 274.574 92.5977 274.812C92.2189 275.047 91.9177 275.366 91.6942 275.767C91.4745 276.165 91.3647 276.606 91.3647 277.091C91.3647 277.576 91.4708 278.017 91.6829 278.415C91.8988 278.809 92.1923 279.123 92.5636 279.358C92.9386 279.589 93.3647 279.705 93.842 279.705C94.2018 279.705 94.537 279.634 94.8477 279.494C95.1583 279.35 95.4291 279.155 95.6602 278.909C95.895 278.659 96.0787 278.377 96.2113 278.062C96.3439 277.744 96.4102 277.413 96.4102 277.068C96.4102 276.614 96.3003 276.187 96.0806 275.79C95.8647 275.392 95.5655 275.07 95.1829 274.824C94.8041 274.578 94.3723 274.455 93.8874 274.455Z"
      fill="#F6FFEB" />
    <path
      d="M144.969 274.76V273.432H147.977V285H146.505V274.76H144.969ZM150.158 279.096C150.158 277.261 150.457 275.832 151.054 274.808C151.651 273.773 152.697 273.256 154.19 273.256C155.673 273.256 156.713 273.773 157.31 274.808C157.907 275.832 158.206 277.261 158.206 279.096C158.206 280.963 157.907 282.413 157.31 283.448C156.713 284.483 155.673 285 154.19 285C152.697 285 151.651 284.483 151.054 283.448C150.457 282.413 150.158 280.963 150.158 279.096ZM156.766 279.096C156.766 278.168 156.702 277.384 156.574 276.744C156.457 276.093 156.206 275.571 155.822 275.176C155.449 274.781 154.905 274.584 154.19 274.584C153.465 274.584 152.91 274.781 152.526 275.176C152.153 275.571 151.902 276.093 151.774 276.744C151.657 277.384 151.598 278.168 151.598 279.096C151.598 280.056 151.657 280.861 151.774 281.512C151.902 282.163 152.153 282.685 152.526 283.08C152.91 283.475 153.465 283.672 154.19 283.672C154.905 283.672 155.449 283.475 155.822 283.08C156.206 282.685 156.457 282.163 156.574 281.512C156.702 280.861 156.766 280.056 156.766 279.096Z"
      fill="#2A2B2C" />
    <path
      d="M206.761 274.76V273.432H209.769V285H208.297V274.76H206.761ZM211.566 274.76V273.432H214.574V285H213.102V274.76H211.566Z"
      fill="#2A2B2C" />
    <path
      d="M262.817 274.76V273.432H265.825V285H264.353V274.76H262.817ZM267.83 283.832C269.185 282.744 270.246 281.853 271.014 281.16C271.782 280.456 272.427 279.725 272.95 278.968C273.483 278.2 273.75 277.448 273.75 276.712C273.75 276.019 273.579 275.475 273.238 275.08C272.907 274.675 272.369 274.472 271.622 274.472C270.897 274.472 270.331 274.701 269.926 275.16C269.531 275.608 269.318 276.211 269.286 276.968H267.878C267.921 275.773 268.283 274.851 268.966 274.2C269.649 273.549 270.529 273.224 271.606 273.224C272.705 273.224 273.574 273.528 274.214 274.136C274.865 274.744 275.19 275.581 275.19 276.648C275.19 277.533 274.923 278.397 274.39 279.24C273.867 280.072 273.27 280.808 272.598 281.448C271.926 282.077 271.067 282.813 270.022 283.656H275.526V284.872H267.83V283.832Z"
      fill="#2A2B2C" />
    <path
      d="M322.039 274.76V273.432H325.047V285H323.575V274.76H322.039ZM327.196 276.344C327.27 275.363 327.649 274.595 328.332 274.04C329.014 273.485 329.9 273.208 330.988 273.208C331.713 273.208 332.337 273.341 332.86 273.608C333.393 273.864 333.793 274.216 334.06 274.664C334.337 275.112 334.476 275.619 334.476 276.184C334.476 276.845 334.284 277.416 333.9 277.896C333.526 278.376 333.036 278.685 332.428 278.824V278.904C333.121 279.075 333.67 279.411 334.076 279.912C334.481 280.413 334.684 281.069 334.684 281.88C334.684 282.488 334.545 283.037 334.268 283.528C333.99 284.008 333.574 284.387 333.02 284.664C332.465 284.941 331.798 285.08 331.02 285.08C329.889 285.08 328.961 284.787 328.236 284.2C327.51 283.603 327.105 282.76 327.02 281.672H328.428C328.502 282.312 328.764 282.835 329.212 283.24C329.66 283.645 330.257 283.848 331.004 283.848C331.75 283.848 332.316 283.656 332.7 283.272C333.094 282.877 333.292 282.371 333.292 281.752C333.292 280.952 333.025 280.376 332.492 280.024C331.958 279.672 331.153 279.496 330.076 279.496H329.708V278.28H330.092C331.073 278.269 331.814 278.109 332.316 277.8C332.817 277.48 333.068 276.989 333.068 276.328C333.068 275.763 332.881 275.309 332.508 274.968C332.145 274.627 331.622 274.456 330.94 274.456C330.278 274.456 329.745 274.627 329.34 274.968C328.934 275.309 328.694 275.768 328.62 276.344H327.196Z"
      fill="#2A2B2C" />
    <path
      d="M379.814 274.76V273.432H382.822V285H381.35V274.76H379.814ZM384.651 282.424V281.32L390.267 273.544H392.011V281.16H393.611V282.424H392.011V285H390.571V282.424H384.651ZM390.635 275.064L386.331 281.16H390.635V275.064Z"
      fill="#2A2B2C" />
    <path
      d="M27.5427 314.76V313.432H30.5507V325H29.0787V314.76H27.5427ZM40.1077 314.696H34.4917V318.344C34.7371 318.003 35.0997 317.725 35.5797 317.512C36.0597 317.288 36.5771 317.176 37.1317 317.176C38.0171 317.176 38.7371 317.363 39.2917 317.736C39.8464 318.099 40.2411 318.573 40.4757 319.16C40.7211 319.736 40.8437 320.349 40.8437 321C40.8437 321.768 40.6997 322.456 40.4117 323.064C40.1237 323.672 39.6811 324.152 39.0837 324.504C38.4971 324.856 37.7664 325.032 36.8917 325.032C35.7717 325.032 34.8651 324.744 34.1717 324.168C33.4784 323.592 33.0571 322.824 32.9077 321.864H34.3317C34.4704 322.472 34.7637 322.947 35.2117 323.288C35.6597 323.629 36.2251 323.8 36.9077 323.8C37.7504 323.8 38.3851 323.549 38.8117 323.048C39.2384 322.536 39.4517 321.864 39.4517 321.032C39.4517 320.2 39.2384 319.56 38.8117 319.112C38.3851 318.653 37.7557 318.424 36.9237 318.424C36.3584 318.424 35.8624 318.563 35.4357 318.84C35.0197 319.107 34.7157 319.475 34.5237 319.944H33.1477V313.416H40.1077V314.696Z"
      fill="#2A2B2C" />
    <path
      d="M86.8192 314.76V313.432H89.8272V325H88.3552V314.76H86.8192ZM98.4562 316.184C98.2215 315 97.4908 314.408 96.2642 314.408C95.3148 314.408 94.6055 314.776 94.1362 315.512C93.6668 316.237 93.4375 317.437 93.4482 319.112C93.6935 318.557 94.0988 318.125 94.6642 317.816C95.2402 317.496 95.8802 317.336 96.5842 317.336C97.6828 317.336 98.5575 317.677 99.2082 318.36C99.8695 319.043 100.2 319.987 100.2 321.192C100.2 321.917 100.056 322.568 99.7682 323.144C99.4908 323.72 99.0642 324.179 98.4882 324.52C97.9228 324.861 97.2348 325.032 96.4242 325.032C95.3255 325.032 94.4668 324.787 93.8482 324.296C93.2295 323.805 92.7975 323.128 92.5522 322.264C92.3068 321.4 92.1842 320.333 92.1842 319.064C92.1842 315.149 93.5495 313.192 96.2802 313.192C97.3255 313.192 98.1468 313.475 98.7442 314.04C99.3415 314.605 99.6935 315.32 99.8002 316.184H98.4562ZM96.2802 318.568C95.8215 318.568 95.3895 318.664 94.9842 318.856C94.5788 319.037 94.2482 319.32 93.9922 319.704C93.7468 320.077 93.6242 320.536 93.6242 321.08C93.6242 321.891 93.8588 322.552 94.3282 323.064C94.7975 323.565 95.4695 323.816 96.3442 323.816C97.0908 323.816 97.6828 323.587 98.1202 323.128C98.5682 322.659 98.7922 322.029 98.7922 321.24C98.7922 320.408 98.5788 319.757 98.1522 319.288C97.7255 318.808 97.1015 318.568 96.2802 318.568Z"
      fill="#2A2B2C" />
    <path
      d="M145.625 314.76V313.432H148.633V325H147.161V314.76H145.625ZM157.934 314.568L153.486 325H152.014L156.526 314.712H150.35V313.464H157.934V314.568Z"
      fill="#2A2B2C" />
    <path
      d="M204.277 314.76V313.432H207.285V325H205.813V314.76H204.277ZM211.578 318.984C210.98 318.749 210.522 318.408 210.202 317.96C209.882 317.512 209.722 316.968 209.722 316.328C209.722 315.752 209.866 315.235 210.154 314.776C210.442 314.307 210.868 313.939 211.434 313.672C212.01 313.395 212.703 313.256 213.514 313.256C214.324 313.256 215.012 313.395 215.578 313.672C216.154 313.939 216.586 314.307 216.874 314.776C217.172 315.235 217.322 315.752 217.322 316.328C217.322 316.947 217.156 317.491 216.826 317.96C216.495 318.419 216.042 318.76 215.466 318.984C216.127 319.187 216.65 319.544 217.034 320.056C217.428 320.557 217.626 321.165 217.626 321.88C217.626 322.573 217.455 323.181 217.114 323.704C216.772 324.216 216.287 324.616 215.658 324.904C215.039 325.181 214.324 325.32 213.514 325.32C212.703 325.32 211.988 325.181 211.37 324.904C210.762 324.616 210.287 324.216 209.946 323.704C209.604 323.181 209.434 322.573 209.434 321.88C209.434 321.165 209.626 320.552 210.01 320.04C210.394 319.528 210.916 319.176 211.578 318.984ZM215.914 316.504C215.914 315.853 215.7 315.352 215.274 315C214.847 314.648 214.26 314.472 213.514 314.472C212.778 314.472 212.196 314.648 211.77 315C211.343 315.352 211.13 315.859 211.13 316.52C211.13 317.117 211.348 317.597 211.786 317.96C212.234 318.323 212.81 318.504 213.514 318.504C214.228 318.504 214.804 318.323 215.242 317.96C215.69 317.587 215.914 317.101 215.914 316.504ZM213.514 319.624C212.724 319.624 212.079 319.811 211.578 320.184C211.076 320.547 210.826 321.096 210.826 321.832C210.826 322.515 211.066 323.064 211.546 323.48C212.036 323.896 212.692 324.104 213.514 324.104C214.335 324.104 214.986 323.896 215.466 323.48C215.946 323.064 216.186 322.515 216.186 321.832C216.186 321.117 215.94 320.573 215.45 320.2C214.959 319.816 214.314 319.624 213.514 319.624Z"
      fill="#2A2B2C" />
    <path
      d="M262.38 314.76V313.432H265.388V325H263.916V314.76H262.38ZM269.441 321.896C269.547 322.504 269.793 322.973 270.177 323.304C270.571 323.635 271.099 323.8 271.761 323.8C272.646 323.8 273.297 323.453 273.713 322.76C274.139 322.067 274.342 320.899 274.321 319.256C274.097 319.736 273.723 320.115 273.201 320.392C272.678 320.659 272.097 320.792 271.457 320.792C270.742 320.792 270.102 320.648 269.537 320.36C268.982 320.061 268.545 319.629 268.225 319.064C267.905 318.499 267.745 317.816 267.745 317.016C267.745 315.875 268.075 314.957 268.737 314.264C269.398 313.56 270.337 313.208 271.553 313.208C273.046 313.208 274.091 313.693 274.689 314.664C275.297 315.635 275.601 317.08 275.601 319C275.601 320.344 275.478 321.453 275.233 322.328C274.998 323.203 274.593 323.869 274.017 324.328C273.451 324.787 272.673 325.016 271.681 325.016C270.593 325.016 269.745 324.723 269.137 324.136C268.529 323.549 268.182 322.803 268.097 321.896H269.441ZM271.697 319.56C272.411 319.56 272.998 319.341 273.457 318.904C273.915 318.456 274.145 317.853 274.145 317.096C274.145 316.296 273.921 315.651 273.473 315.16C273.025 314.669 272.395 314.424 271.585 314.424C270.838 314.424 270.241 314.659 269.793 315.128C269.355 315.597 269.137 316.216 269.137 316.984C269.137 317.763 269.355 318.387 269.793 318.856C270.23 319.325 270.865 319.56 271.697 319.56Z"
      fill="#2A2B2C" />
    <path
      d="M319.895 323.832C321.25 322.744 322.311 321.853 323.079 321.16C323.847 320.456 324.493 319.725 325.015 318.968C325.549 318.2 325.815 317.448 325.815 316.712C325.815 316.019 325.645 315.475 325.303 315.08C324.973 314.675 324.434 314.472 323.687 314.472C322.962 314.472 322.397 314.701 321.991 315.16C321.597 315.608 321.383 316.211 321.351 316.968H319.943C319.986 315.773 320.349 314.851 321.031 314.2C321.714 313.549 322.594 313.224 323.671 313.224C324.77 313.224 325.639 313.528 326.279 314.136C326.93 314.744 327.255 315.581 327.255 316.648C327.255 317.533 326.989 318.397 326.455 319.24C325.933 320.072 325.335 320.808 324.663 321.448C323.991 322.077 323.133 322.813 322.087 323.656H327.591V324.872H319.895V323.832ZM328.954 319.096C328.954 317.261 329.253 315.832 329.85 314.808C330.448 313.773 331.493 313.256 332.986 313.256C334.469 313.256 335.509 313.773 336.106 314.808C336.704 315.832 337.002 317.261 337.002 319.096C337.002 320.963 336.704 322.413 336.106 323.448C335.509 324.483 334.469 325 332.986 325C331.493 325 330.448 324.483 329.85 323.448C329.253 322.413 328.954 320.963 328.954 319.096ZM335.562 319.096C335.562 318.168 335.498 317.384 335.37 316.744C335.253 316.093 335.002 315.571 334.618 315.176C334.245 314.781 333.701 314.584 332.986 314.584C332.261 314.584 331.706 314.781 331.322 315.176C330.949 315.571 330.698 316.093 330.57 316.744C330.453 317.384 330.394 318.168 330.394 319.096C330.394 320.056 330.453 320.861 330.57 321.512C330.698 322.163 330.949 322.685 331.322 323.08C331.706 323.475 332.261 323.672 332.986 323.672C333.701 323.672 334.245 323.475 334.618 323.08C335.002 322.685 335.253 322.163 335.37 321.512C335.498 320.861 335.562 320.056 335.562 319.096Z"
      fill="#2A2B2C" />
    <path
      d="M380.451 323.832C381.806 322.744 382.867 321.853 383.635 321.16C384.403 320.456 385.049 319.725 385.571 318.968C386.105 318.2 386.371 317.448 386.371 316.712C386.371 316.019 386.201 315.475 385.859 315.08C385.529 314.675 384.99 314.472 384.243 314.472C383.518 314.472 382.953 314.701 382.547 315.16C382.153 315.608 381.939 316.211 381.907 316.968H380.499C380.542 315.773 380.905 314.851 381.587 314.2C382.27 313.549 383.15 313.224 384.227 313.224C385.326 313.224 386.195 313.528 386.835 314.136C387.486 314.744 387.811 315.581 387.811 316.648C387.811 317.533 387.545 318.397 387.011 319.24C386.489 320.072 385.891 320.808 385.219 321.448C384.547 322.077 383.689 322.813 382.643 323.656H388.147V324.872H380.451V323.832ZM389.126 314.76V313.432H392.134V325H390.662V314.76H389.126Z"
      fill="#2A2B2C" />
    <path
      d="M26.1335 363.832C27.4882 362.744 28.5495 361.853 29.3175 361.16C30.0855 360.456 30.7309 359.725 31.2535 358.968C31.7869 358.2 32.0535 357.448 32.0535 356.712C32.0535 356.019 31.8829 355.475 31.5415 355.08C31.2109 354.675 30.6722 354.472 29.9255 354.472C29.2002 354.472 28.6349 354.701 28.2295 355.16C27.8349 355.608 27.6215 356.211 27.5895 356.968H26.1815C26.2242 355.773 26.5869 354.851 27.2695 354.2C27.9522 353.549 28.8322 353.224 29.9095 353.224C31.0082 353.224 31.8775 353.528 32.5175 354.136C33.1682 354.744 33.4935 355.581 33.4935 356.648C33.4935 357.533 33.2269 358.397 32.6935 359.24C32.1709 360.072 31.5735 360.808 30.9015 361.448C30.2295 362.077 29.3709 362.813 28.3255 363.656H33.8295V364.872H26.1335V363.832ZM35.0167 363.832C36.3713 362.744 37.4327 361.853 38.2007 361.16C38.9687 360.456 39.614 359.725 40.1367 358.968C40.67 358.2 40.9367 357.448 40.9367 356.712C40.9367 356.019 40.766 355.475 40.4247 355.08C40.094 354.675 39.5553 354.472 38.8087 354.472C38.0833 354.472 37.518 354.701 37.1127 355.16C36.718 355.608 36.5047 356.211 36.4727 356.968H35.0647C35.1073 355.773 35.47 354.851 36.1527 354.2C36.8353 353.549 37.7153 353.224 38.7927 353.224C39.8913 353.224 40.7607 353.528 41.4007 354.136C42.0513 354.744 42.3767 355.581 42.3767 356.648C42.3767 357.533 42.11 358.397 41.5767 359.24C41.054 360.072 40.4567 360.808 39.7847 361.448C39.1127 362.077 38.254 362.813 37.2087 363.656H42.7127V364.872H35.0167V363.832Z"
      fill="#2A2B2C" />
    <path
      d="M85.3553 363.832C86.71 362.744 87.7713 361.853 88.5393 361.16C89.3073 360.456 89.9526 359.725 90.4753 358.968C91.0086 358.2 91.2753 357.448 91.2753 356.712C91.2753 356.019 91.1046 355.475 90.7633 355.08C90.4326 354.675 89.894 354.472 89.1473 354.472C88.422 354.472 87.8566 354.701 87.4513 355.16C87.0566 355.608 86.8433 356.211 86.8113 356.968H85.4033C85.446 355.773 85.8086 354.851 86.4913 354.2C87.174 353.549 88.054 353.224 89.1313 353.224C90.23 353.224 91.0993 353.528 91.7393 354.136C92.39 354.744 92.7153 355.581 92.7153 356.648C92.7153 357.533 92.4486 358.397 91.9153 359.24C91.3926 360.072 90.7953 360.808 90.1233 361.448C89.4513 362.077 88.5926 362.813 87.5473 363.656H93.0513V364.872H85.3553V363.832ZM94.3824 356.344C94.4571 355.363 94.8357 354.595 95.5184 354.04C96.2011 353.485 97.0864 353.208 98.1744 353.208C98.8997 353.208 99.5237 353.341 100.046 353.608C100.58 353.864 100.98 354.216 101.246 354.664C101.524 355.112 101.662 355.619 101.662 356.184C101.662 356.845 101.47 357.416 101.086 357.896C100.713 358.376 100.222 358.685 99.6144 358.824V358.904C100.308 359.075 100.857 359.411 101.262 359.912C101.668 360.413 101.87 361.069 101.87 361.88C101.87 362.488 101.732 363.037 101.454 363.528C101.177 364.008 100.761 364.387 100.206 364.664C99.6517 364.941 98.9851 365.08 98.2064 365.08C97.0757 365.08 96.1477 364.787 95.4224 364.2C94.6971 363.603 94.2917 362.76 94.2064 361.672H95.6144C95.6891 362.312 95.9504 362.835 96.3984 363.24C96.8464 363.645 97.4437 363.848 98.1904 363.848C98.9371 363.848 99.5024 363.656 99.8864 363.272C100.281 362.877 100.478 362.371 100.478 361.752C100.478 360.952 100.212 360.376 99.6784 360.024C99.1451 359.672 98.3397 359.496 97.2624 359.496H96.8944V358.28H97.2784C98.2597 358.269 99.0011 358.109 99.5024 357.8C100.004 357.48 100.254 356.989 100.254 356.328C100.254 355.763 100.068 355.309 99.6944 354.968C99.3317 354.627 98.8091 354.456 98.1264 354.456C97.4651 354.456 96.9317 354.627 96.5264 354.968C96.1211 355.309 95.8811 355.768 95.8064 356.344H94.3824Z"
      fill="#2A2B2C" />
    <path
      d="M143.13 363.832C144.485 362.744 145.546 361.853 146.314 361.16C147.082 360.456 147.727 359.725 148.25 358.968C148.783 358.2 149.05 357.448 149.05 356.712C149.05 356.019 148.879 355.475 148.538 355.08C148.207 354.675 147.669 354.472 146.922 354.472C146.197 354.472 145.631 354.701 145.226 355.16C144.831 355.608 144.618 356.211 144.586 356.968H143.178C143.221 355.773 143.583 354.851 144.266 354.2C144.949 353.549 145.829 353.224 146.906 353.224C148.005 353.224 148.874 353.528 149.514 354.136C150.165 354.744 150.49 355.581 150.49 356.648C150.49 357.533 150.223 358.397 149.69 359.24C149.167 360.072 148.57 360.808 147.898 361.448C147.226 362.077 146.367 362.813 145.322 363.656H150.826V364.872H143.13V363.832ZM151.837 362.424V361.32L157.453 353.544H159.197V361.16H160.797V362.424H159.197V365H157.757V362.424H151.837ZM157.821 355.064L153.517 361.16H157.821V355.064Z"
      fill="#2A2B2C" />
    <path
      d="M25.696 403.832C27.0507 402.744 28.112 401.853 28.88 401.16C29.648 400.456 30.2934 399.725 30.816 398.968C31.3494 398.2 31.616 397.448 31.616 396.712C31.616 396.019 31.4454 395.475 31.104 395.08C30.7734 394.675 30.2347 394.472 29.488 394.472C28.7627 394.472 28.1974 394.701 27.792 395.16C27.3974 395.608 27.184 396.211 27.152 396.968H25.744C25.7867 395.773 26.1494 394.851 26.832 394.2C27.5147 393.549 28.3947 393.224 29.472 393.224C30.5707 393.224 31.44 393.528 32.08 394.136C32.7307 394.744 33.056 395.581 33.056 396.648C33.056 397.533 32.7894 398.397 32.256 399.24C31.7334 400.072 31.136 400.808 30.464 401.448C29.792 402.077 28.9334 402.813 27.888 403.656H33.392V404.872H25.696V403.832ZM36.6272 401.896C36.7338 402.504 36.9792 402.973 37.3632 403.304C37.7578 403.635 38.2858 403.8 38.9472 403.8C39.8325 403.8 40.4832 403.453 40.8992 402.76C41.3258 402.067 41.5285 400.899 41.5072 399.256C41.2832 399.736 40.9098 400.115 40.3872 400.392C39.8645 400.659 39.2832 400.792 38.6432 400.792C37.9285 400.792 37.2885 400.648 36.7232 400.36C36.1685 400.061 35.7312 399.629 35.4112 399.064C35.0912 398.499 34.9312 397.816 34.9312 397.016C34.9312 395.875 35.2618 394.957 35.9232 394.264C36.5845 393.56 37.5232 393.208 38.7392 393.208C40.2325 393.208 41.2778 393.693 41.8752 394.664C42.4832 395.635 42.7872 397.08 42.7872 399C42.7872 400.344 42.6645 401.453 42.4192 402.328C42.1845 403.203 41.7792 403.869 41.2032 404.328C40.6378 404.787 39.8592 405.016 38.8672 405.016C37.7792 405.016 36.9312 404.723 36.3232 404.136C35.7152 403.549 35.3685 402.803 35.2832 401.896H36.6272ZM38.8832 399.56C39.5978 399.56 40.1845 399.341 40.6432 398.904C41.1018 398.456 41.3312 397.853 41.3312 397.096C41.3312 396.296 41.1072 395.651 40.6592 395.16C40.2112 394.669 39.5818 394.424 38.7712 394.424C38.0245 394.424 37.4272 394.659 36.9792 395.128C36.5418 395.597 36.3232 396.216 36.3232 396.984C36.3232 397.763 36.5418 398.387 36.9792 398.856C37.4165 399.325 38.0512 399.56 38.8832 399.56Z"
      fill="#2A2B2C" />
    <path
      d="M85.0774 396.344C85.1521 395.363 85.5307 394.595 86.2134 394.04C86.8961 393.485 87.7814 393.208 88.8694 393.208C89.5947 393.208 90.2187 393.341 90.7414 393.608C91.2747 393.864 91.6747 394.216 91.9414 394.664C92.2187 395.112 92.3574 395.619 92.3574 396.184C92.3574 396.845 92.1654 397.416 91.7814 397.896C91.4081 398.376 90.9174 398.685 90.3094 398.824V398.904C91.0027 399.075 91.5521 399.411 91.9574 399.912C92.3627 400.413 92.5654 401.069 92.5654 401.88C92.5654 402.488 92.4267 403.037 92.1494 403.528C91.8721 404.008 91.4561 404.387 90.9014 404.664C90.3467 404.941 89.6801 405.08 88.9014 405.08C87.7707 405.08 86.8427 404.787 86.1174 404.2C85.3921 403.603 84.9867 402.76 84.9014 401.672H86.3094C86.3841 402.312 86.6454 402.835 87.0934 403.24C87.5414 403.645 88.1387 403.848 88.8854 403.848C89.6321 403.848 90.1974 403.656 90.5814 403.272C90.9761 402.877 91.1734 402.371 91.1734 401.752C91.1734 400.952 90.9067 400.376 90.3734 400.024C89.8401 399.672 89.0347 399.496 87.9574 399.496H87.5894V398.28H87.9734C88.9547 398.269 89.6961 398.109 90.1974 397.8C90.6987 397.48 90.9494 396.989 90.9494 396.328C90.9494 395.763 90.7627 395.309 90.3894 394.968C90.0267 394.627 89.5041 394.456 88.8214 394.456C88.1601 394.456 87.6267 394.627 87.2214 394.968C86.8161 395.309 86.5761 395.768 86.5014 396.344H85.0774ZM94.2113 399.096C94.2113 397.261 94.51 395.832 95.1073 394.808C95.7046 393.773 96.75 393.256 98.2433 393.256C99.726 393.256 100.766 393.773 101.363 394.808C101.961 395.832 102.259 397.261 102.259 399.096C102.259 400.963 101.961 402.413 101.363 403.448C100.766 404.483 99.726 405 98.2433 405C96.75 405 95.7046 404.483 95.1073 403.448C94.51 402.413 94.2113 400.963 94.2113 399.096ZM100.819 399.096C100.819 398.168 100.755 397.384 100.627 396.744C100.51 396.093 100.259 395.571 99.8753 395.176C99.502 394.781 98.958 394.584 98.2433 394.584C97.518 394.584 96.9633 394.781 96.5793 395.176C96.206 395.571 95.9553 396.093 95.8273 396.744C95.71 397.384 95.6513 398.168 95.6513 399.096C95.6513 400.056 95.71 400.861 95.8273 401.512C95.9553 402.163 96.206 402.685 96.5793 403.08C96.9633 403.475 97.518 403.672 98.2433 403.672C98.958 403.672 99.502 403.475 99.8753 403.08C100.259 402.685 100.51 402.163 100.627 401.512C100.755 400.861 100.819 400.056 100.819 399.096Z"
      fill="#2A2B2C" />
    <path
      d="M145.633 396.344C145.708 395.363 146.087 394.595 146.769 394.04C147.452 393.485 148.337 393.208 149.425 393.208C150.151 393.208 150.775 393.341 151.297 393.608C151.831 393.864 152.231 394.216 152.497 394.664C152.775 395.112 152.913 395.619 152.913 396.184C152.913 396.845 152.721 397.416 152.337 397.896C151.964 398.376 151.473 398.685 150.865 398.824V398.904C151.559 399.075 152.108 399.411 152.513 399.912C152.919 400.413 153.121 401.069 153.121 401.88C153.121 402.488 152.983 403.037 152.705 403.528C152.428 404.008 152.012 404.387 151.457 404.664C150.903 404.941 150.236 405.08 149.457 405.08C148.327 405.08 147.399 404.787 146.673 404.2C145.948 403.603 145.543 402.76 145.457 401.672H146.865C146.94 402.312 147.201 402.835 147.649 403.24C148.097 403.645 148.695 403.848 149.441 403.848C150.188 403.848 150.753 403.656 151.137 403.272C151.532 402.877 151.729 402.371 151.729 401.752C151.729 400.952 151.463 400.376 150.929 400.024C150.396 399.672 149.591 399.496 148.513 399.496H148.145V398.28H148.529C149.511 398.269 150.252 398.109 150.753 397.8C151.255 397.48 151.505 396.989 151.505 396.328C151.505 395.763 151.319 395.309 150.945 394.968C150.583 394.627 150.06 394.456 149.377 394.456C148.716 394.456 148.183 394.627 147.777 394.968C147.372 395.309 147.132 395.768 147.057 396.344H145.633ZM154.383 394.76V393.432H157.391V405H155.919V394.76H154.383Z"
      fill="#2A2B2C" />
    <path
      d="M202.469 363.832C203.824 362.744 204.885 361.853 205.653 361.16C206.421 360.456 207.066 359.725 207.589 358.968C208.122 358.2 208.389 357.448 208.389 356.712C208.389 356.019 208.218 355.475 207.877 355.08C207.546 354.675 207.008 354.472 206.261 354.472C205.536 354.472 204.97 354.701 204.565 355.16C204.17 355.608 203.957 356.211 203.925 356.968H202.517C202.56 355.773 202.922 354.851 203.605 354.2C204.288 353.549 205.168 353.224 206.245 353.224C207.344 353.224 208.213 353.528 208.853 354.136C209.504 354.744 209.829 355.581 209.829 356.648C209.829 357.533 209.562 358.397 209.029 359.24C208.506 360.072 207.909 360.808 207.237 361.448C206.565 362.077 205.706 362.813 204.661 363.656H210.165V364.872H202.469V363.832ZM218.904 354.696H213.288V358.344C213.534 358.003 213.896 357.725 214.376 357.512C214.856 357.288 215.374 357.176 215.928 357.176C216.814 357.176 217.534 357.363 218.088 357.736C218.643 358.099 219.038 358.573 219.272 359.16C219.518 359.736 219.64 360.349 219.64 361C219.64 361.768 219.496 362.456 219.208 363.064C218.92 363.672 218.478 364.152 217.88 364.504C217.294 364.856 216.563 365.032 215.688 365.032C214.568 365.032 213.662 364.744 212.968 364.168C212.275 363.592 211.854 362.824 211.704 361.864H213.128C213.267 362.472 213.56 362.947 214.008 363.288C214.456 363.629 215.022 363.8 215.704 363.8C216.547 363.8 217.182 363.549 217.608 363.048C218.035 362.536 218.248 361.864 218.248 361.032C218.248 360.2 218.035 359.56 217.608 359.112C217.182 358.653 216.552 358.424 215.72 358.424C215.155 358.424 214.659 358.563 214.232 358.84C213.816 359.107 213.512 359.475 213.32 359.944H211.944V353.416H218.904V354.696Z"
      fill="#2A2B2C" />
    <path
      d="M260.509 363.832C261.864 362.744 262.925 361.853 263.693 361.16C264.461 360.456 265.107 359.725 265.629 358.968C266.163 358.2 266.429 357.448 266.429 356.712C266.429 356.019 266.259 355.475 265.917 355.08C265.587 354.675 265.048 354.472 264.301 354.472C263.576 354.472 263.011 354.701 262.605 355.16C262.211 355.608 261.997 356.211 261.965 356.968H260.557C260.6 355.773 260.963 354.851 261.645 354.2C262.328 353.549 263.208 353.224 264.285 353.224C265.384 353.224 266.253 353.528 266.893 354.136C267.544 354.744 267.869 355.581 267.869 356.648C267.869 357.533 267.603 358.397 267.069 359.24C266.547 360.072 265.949 360.808 265.277 361.448C264.605 362.077 263.747 362.813 262.701 363.656H268.205V364.872H260.509V363.832ZM276.017 356.184C275.782 355 275.051 354.408 273.825 354.408C272.875 354.408 272.166 354.776 271.697 355.512C271.227 356.237 270.998 357.437 271.009 359.112C271.254 358.557 271.659 358.125 272.225 357.816C272.801 357.496 273.441 357.336 274.145 357.336C275.243 357.336 276.118 357.677 276.769 358.36C277.43 359.043 277.761 359.987 277.761 361.192C277.761 361.917 277.617 362.568 277.329 363.144C277.051 363.72 276.625 364.179 276.049 364.52C275.483 364.861 274.795 365.032 273.985 365.032C272.886 365.032 272.027 364.787 271.409 364.296C270.79 363.805 270.358 363.128 270.113 362.264C269.867 361.4 269.745 360.333 269.745 359.064C269.745 355.149 271.11 353.192 273.841 353.192C274.886 353.192 275.707 353.475 276.305 354.04C276.902 354.605 277.254 355.32 277.361 356.184H276.017ZM273.841 358.568C273.382 358.568 272.95 358.664 272.545 358.856C272.139 359.037 271.809 359.32 271.553 359.704C271.307 360.077 271.185 360.536 271.185 361.08C271.185 361.891 271.419 362.552 271.889 363.064C272.358 363.565 273.03 363.816 273.905 363.816C274.651 363.816 275.243 363.587 275.681 363.128C276.129 362.659 276.353 362.029 276.353 361.24C276.353 360.408 276.139 359.757 275.713 359.288C275.286 358.808 274.662 358.568 273.841 358.568Z"
      fill="#2A2B2C" />
    <path
      d="M320.552 363.832C321.906 362.744 322.968 361.853 323.736 361.16C324.504 360.456 325.149 359.725 325.672 358.968C326.205 358.2 326.472 357.448 326.472 356.712C326.472 356.019 326.301 355.475 325.96 355.08C325.629 354.675 325.09 354.472 324.344 354.472C323.618 354.472 323.053 354.701 322.648 355.16C322.253 355.608 322.04 356.211 322.008 356.968H320.6C320.642 355.773 321.005 354.851 321.688 354.2C322.37 353.549 323.25 353.224 324.328 353.224C325.426 353.224 326.296 353.528 326.936 354.136C327.586 354.744 327.912 355.581 327.912 356.648C327.912 357.533 327.645 358.397 327.112 359.24C326.589 360.072 325.992 360.808 325.32 361.448C324.648 362.077 323.789 362.813 322.744 363.656H328.248V364.872H320.552V363.832ZM336.731 354.568L332.283 365H330.811L335.323 354.712H329.147V353.464H336.731V354.568Z"
      fill="#2A2B2C" />
    <path
      d="M377.967 363.832C379.322 362.744 380.383 361.853 381.151 361.16C381.919 360.456 382.564 359.725 383.087 358.968C383.62 358.2 383.887 357.448 383.887 356.712C383.887 356.019 383.716 355.475 383.375 355.08C383.044 354.675 382.506 354.472 381.759 354.472C381.034 354.472 380.468 354.701 380.063 355.16C379.668 355.608 379.455 356.211 379.423 356.968H378.015C378.058 355.773 378.42 354.851 379.103 354.2C379.786 353.549 380.666 353.224 381.743 353.224C382.842 353.224 383.711 353.528 384.351 354.136C385.002 354.744 385.327 355.581 385.327 356.648C385.327 357.533 385.06 358.397 384.527 359.24C384.004 360.072 383.407 360.808 382.735 361.448C382.063 362.077 381.204 362.813 380.159 363.656H385.663V364.872H377.967V363.832ZM389.138 358.984C388.541 358.749 388.082 358.408 387.762 357.96C387.442 357.512 387.282 356.968 387.282 356.328C387.282 355.752 387.426 355.235 387.714 354.776C388.002 354.307 388.429 353.939 388.994 353.672C389.57 353.395 390.263 353.256 391.074 353.256C391.885 353.256 392.573 353.395 393.138 353.672C393.714 353.939 394.146 354.307 394.434 354.776C394.733 355.235 394.882 355.752 394.882 356.328C394.882 356.947 394.717 357.491 394.386 357.96C394.055 358.419 393.602 358.76 393.026 358.984C393.687 359.187 394.21 359.544 394.594 360.056C394.989 360.557 395.186 361.165 395.186 361.88C395.186 362.573 395.015 363.181 394.674 363.704C394.333 364.216 393.847 364.616 393.218 364.904C392.599 365.181 391.885 365.32 391.074 365.32C390.263 365.32 389.549 365.181 388.93 364.904C388.322 364.616 387.847 364.216 387.506 363.704C387.165 363.181 386.994 362.573 386.994 361.88C386.994 361.165 387.186 360.552 387.57 360.04C387.954 359.528 388.477 359.176 389.138 358.984ZM393.474 356.504C393.474 355.853 393.261 355.352 392.834 355C392.407 354.648 391.821 354.472 391.074 354.472C390.338 354.472 389.757 354.648 389.33 355C388.903 355.352 388.69 355.859 388.69 356.52C388.69 357.117 388.909 357.597 389.346 357.96C389.794 358.323 390.37 358.504 391.074 358.504C391.789 358.504 392.365 358.323 392.802 357.96C393.25 357.587 393.474 357.101 393.474 356.504ZM391.074 359.624C390.285 359.624 389.639 359.811 389.138 360.184C388.637 360.547 388.386 361.096 388.386 361.832C388.386 362.515 388.626 363.064 389.106 363.48C389.597 363.896 390.253 364.104 391.074 364.104C391.895 364.104 392.546 363.896 393.026 363.48C393.506 363.064 393.746 362.515 393.746 361.832C393.746 361.117 393.501 360.573 393.01 360.2C392.519 359.816 391.874 359.624 391.074 359.624Z"
      fill="#2A2B2C" />
  </g>
  <rect x="10" y="439" width="196.5" height="48" rx="15" fill="#DEF7ED" />
  <path
    d="M95.386 457.832L91.29 469H88.57L84.474 457.832H86.874L89.946 466.712L93.002 457.832H95.386ZM100.345 469.144C99.4917 469.144 98.7237 468.957 98.041 468.584C97.3583 468.2 96.8197 467.661 96.425 466.968C96.041 466.275 95.849 465.475 95.849 464.568C95.849 463.661 96.0463 462.861 96.441 462.168C96.8463 461.475 97.3957 460.941 98.089 460.568C98.7823 460.184 99.5557 459.992 100.409 459.992C101.262 459.992 102.036 460.184 102.729 460.568C103.422 460.941 103.966 461.475 104.361 462.168C104.766 462.861 104.969 463.661 104.969 464.568C104.969 465.475 104.761 466.275 104.345 466.968C103.94 467.661 103.385 468.2 102.681 468.584C101.988 468.957 101.209 469.144 100.345 469.144ZM100.345 467.192C100.75 467.192 101.129 467.096 101.481 466.904C101.844 466.701 102.132 466.403 102.345 466.008C102.558 465.613 102.665 465.133 102.665 464.568C102.665 463.725 102.441 463.08 101.993 462.632C101.556 462.173 101.017 461.944 100.377 461.944C99.737 461.944 99.1983 462.173 98.761 462.632C98.3343 463.08 98.121 463.725 98.121 464.568C98.121 465.411 98.329 466.061 98.745 466.52C99.1717 466.968 99.705 467.192 100.345 467.192ZM108.532 457.16V469H106.292V457.16H108.532ZM113.033 461.976V466.264C113.033 466.563 113.103 466.781 113.241 466.92C113.391 467.048 113.636 467.112 113.977 467.112H115.017V469H113.609C111.721 469 110.777 468.083 110.777 466.248V461.976H109.721V460.136H110.777V457.944H113.033V460.136H115.017V461.976H113.033ZM115.732 464.536C115.732 463.64 115.908 462.845 116.26 462.152C116.623 461.459 117.108 460.925 117.716 460.552C118.335 460.179 119.023 459.992 119.78 459.992C120.442 459.992 121.018 460.125 121.508 460.392C122.01 460.659 122.41 460.995 122.708 461.4V460.136H124.964V469H122.708V467.704C122.42 468.12 122.02 468.467 121.508 468.744C121.007 469.011 120.426 469.144 119.764 469.144C119.018 469.144 118.335 468.952 117.716 468.568C117.108 468.184 116.623 467.645 116.26 466.952C115.908 466.248 115.732 465.443 115.732 464.536ZM122.708 464.568C122.708 464.024 122.602 463.56 122.388 463.176C122.175 462.781 121.887 462.483 121.524 462.28C121.162 462.067 120.772 461.96 120.356 461.96C119.94 461.96 119.556 462.061 119.204 462.264C118.852 462.467 118.564 462.765 118.34 463.16C118.127 463.544 118.02 464.003 118.02 464.536C118.02 465.069 118.127 465.539 118.34 465.944C118.564 466.339 118.852 466.643 119.204 466.856C119.567 467.069 119.951 467.176 120.356 467.176C120.772 467.176 121.162 467.075 121.524 466.872C121.887 466.659 122.175 466.36 122.388 465.976C122.602 465.581 122.708 465.112 122.708 464.568ZM129.072 461.512C129.36 461.043 129.733 460.675 130.192 460.408C130.661 460.141 131.195 460.008 131.792 460.008V462.36H131.2C130.496 462.36 129.963 462.525 129.6 462.856C129.248 463.187 129.072 463.763 129.072 464.584V469H126.832V460.136H129.072V461.512Z"
    fill="#395AB1" />
  <g filter="url(#filter0_d_56_342)">
    <rect x="214.5" y="439" width="196.5" height="48" rx="15" fill="#395AB1" />
    <path
      d="M292.202 466.872H287.754L287.018 469H284.666L288.682 457.816H291.29L295.306 469H292.938L292.202 466.872ZM291.594 465.08L289.978 460.408L288.362 465.08H291.594ZM298.727 461.416C299.015 461.011 299.41 460.675 299.911 460.408C300.423 460.131 301.004 459.992 301.655 459.992C302.412 459.992 303.095 460.179 303.703 460.552C304.322 460.925 304.807 461.459 305.159 462.152C305.522 462.835 305.703 463.629 305.703 464.536C305.703 465.443 305.522 466.248 305.159 466.952C304.807 467.645 304.322 468.184 303.703 468.568C303.095 468.952 302.412 469.144 301.655 469.144C301.004 469.144 300.428 469.011 299.927 468.744C299.436 468.477 299.036 468.141 298.727 467.736V473.224H296.487V460.136H298.727V461.416ZM303.415 464.536C303.415 464.003 303.303 463.544 303.079 463.16C302.866 462.765 302.578 462.467 302.215 462.264C301.863 462.061 301.479 461.96 301.063 461.96C300.658 461.96 300.274 462.067 299.911 462.28C299.559 462.483 299.271 462.781 299.047 463.176C298.834 463.571 298.727 464.035 298.727 464.568C298.727 465.101 298.834 465.565 299.047 465.96C299.271 466.355 299.559 466.659 299.911 466.872C300.274 467.075 300.658 467.176 301.063 467.176C301.479 467.176 301.863 467.069 302.215 466.856C302.578 466.643 302.866 466.339 303.079 465.944C303.303 465.549 303.415 465.08 303.415 464.536ZM309.251 457.16V469H307.011V457.16H309.251ZM312.28 459.08C311.885 459.08 311.555 458.957 311.288 458.712C311.032 458.456 310.904 458.141 310.904 457.768C310.904 457.395 311.032 457.085 311.288 456.84C311.555 456.584 311.885 456.456 312.28 456.456C312.675 456.456 313 456.584 313.256 456.84C313.523 457.085 313.656 457.395 313.656 457.768C313.656 458.141 313.523 458.456 313.256 458.712C313 458.957 312.675 459.08 312.28 459.08ZM313.384 460.136V469H311.144V460.136H313.384ZM314.701 464.568C314.701 463.651 314.888 462.851 315.261 462.168C315.634 461.475 316.152 460.941 316.813 460.568C317.474 460.184 318.232 459.992 319.085 459.992C320.184 459.992 321.09 460.269 321.805 460.824C322.53 461.368 323.016 462.136 323.261 463.128H320.845C320.717 462.744 320.498 462.445 320.189 462.232C319.89 462.008 319.517 461.896 319.069 461.896C318.429 461.896 317.922 462.131 317.549 462.6C317.176 463.059 316.989 463.715 316.989 464.568C316.989 465.411 317.176 466.067 317.549 466.536C317.922 466.995 318.429 467.224 319.069 467.224C319.976 467.224 320.568 466.819 320.845 466.008H323.261C323.016 466.968 322.53 467.731 321.805 468.296C321.08 468.861 320.173 469.144 319.085 469.144C318.232 469.144 317.474 468.957 316.813 468.584C316.152 468.2 315.634 467.667 315.261 466.984C314.888 466.291 314.701 465.485 314.701 464.568ZM324.006 464.536C324.006 463.64 324.182 462.845 324.534 462.152C324.897 461.459 325.382 460.925 325.99 460.552C326.609 460.179 327.297 459.992 328.054 459.992C328.715 459.992 329.291 460.125 329.782 460.392C330.283 460.659 330.683 460.995 330.982 461.4V460.136H333.238V469H330.982V467.704C330.694 468.12 330.294 468.467 329.782 468.744C329.281 469.011 328.699 469.144 328.038 469.144C327.291 469.144 326.609 468.952 325.99 468.568C325.382 468.184 324.897 467.645 324.534 466.952C324.182 466.248 324.006 465.443 324.006 464.536ZM330.982 464.568C330.982 464.024 330.875 463.56 330.662 463.176C330.449 462.781 330.161 462.483 329.798 462.28C329.435 462.067 329.046 461.96 328.63 461.96C328.214 461.96 327.83 462.061 327.478 462.264C327.126 462.467 326.838 462.765 326.614 463.16C326.401 463.544 326.294 464.003 326.294 464.536C326.294 465.069 326.401 465.539 326.614 465.944C326.838 466.339 327.126 466.643 327.478 466.856C327.841 467.069 328.225 467.176 328.63 467.176C329.046 467.176 329.435 467.075 329.798 466.872C330.161 466.659 330.449 466.36 330.662 465.976C330.875 465.581 330.982 465.112 330.982 464.568ZM337.346 461.512C337.634 461.043 338.007 460.675 338.466 460.408C338.935 460.141 339.469 460.008 340.066 460.008V462.36H339.474C338.77 462.36 338.237 462.525 337.874 462.856C337.522 463.187 337.346 463.763 337.346 464.584V469H335.106V460.136H337.346V461.512Z"
      fill="#F6FFEB" />
  </g>
  <defs>
    <filter id="filter0_d_56_342" x="210.5" y="439" width="204.5" height="56" filterUnits="userSpaceOnUse"
      color-interpolation-filters="sRGB">
      <feFlood flood-opacity="0" result="BackgroundImageFix" />
      <feColorMatrix in="SourceAlpha" type="matrix" values="0 0 0 0 0 0 0 0 0 0 0 0 0 0 0 0 0 0 127 0"
        result="hardAlpha" />
      <feOffset dy="4" />
      <feGaussianBlur stdDeviation="2" />
      <feComposite in2="hardAlpha" operator="out" />
      <feColorMatrix type="matrix" values="0 0 0 0 0 0 0 0 0 0 0 0 0 0 0 0 0 0 0.25 0" />
      <feBlend mode="normal" in2="BackgroundImageFix" result="effect1_dropShadow_56_342" />
      <feBlend mode="normal" in="SourceGraphic" in2="effect1_dropShadow_56_342" result="shape" />
    </filter>
    <clipPath id="clip0_56_342">
      <rect width="377" height="180" fill="white" transform="translate(22 230)" />
    </clipPath>
  </defs>
</svg>