<svg width="565" height="67" viewBox="0 0 565 67" fill="none" xmlns="http://www.w3.org/2000/svg">
  <path
    d="M23.0588 60C21.4735 60 20.1164 59.4321 18.9875 58.2962C17.8586 57.1604 17.2941 55.795 17.2941 54.2H28.8235C28.8235 55.795 28.2591 57.1604 27.1301 58.2962C26.0012 59.4321 24.6441 60 23.0588 60ZM2.88235 51.3C2.06569 51.3 1.38113 51.0221 0.828677 50.4662C0.276226 49.9104 0 49.2217 0 48.4C0 47.5783 0.276226 46.8896 0.828677 46.3337C1.38113 45.7779 2.06569 45.5 2.88235 45.5H5.76471V25.2C5.76471 21.1883 6.96569 17.6237 9.36765 14.5062C11.7696 11.3888 14.8922 9.34667 18.7353 8.38V6.35C18.7353 5.14167 19.1556 4.11458 19.9963 3.26875C20.837 2.42292 21.8578 2 23.0588 2C24.2598 2 25.2806 2.42292 26.1213 3.26875C26.962 4.11458 27.3824 5.14167 27.3824 6.35V7.2925C26.902 8.25917 26.5417 9.27417 26.3015 10.3375C26.0613 11.4008 25.9412 12.4883 25.9412 13.6C25.9412 17.6117 27.3463 21.0312 30.1566 23.8587C32.9669 26.6862 36.3657 28.1 40.3529 28.1V45.5H43.2353C44.052 45.5 44.7365 45.7779 45.289 46.3337C45.8414 46.8896 46.1176 47.5783 46.1176 48.4C46.1176 49.2217 45.8414 49.9104 45.289 50.4662C44.7365 51.0221 44.052 51.3 43.2353 51.3H2.88235ZM40.3529 22.3C37.951 22.3 35.9093 21.4542 34.2279 19.7625C32.5466 18.0708 31.7059 16.0167 31.7059 13.6C31.7059 11.1833 32.5466 9.12917 34.2279 7.4375C35.9093 5.74583 37.951 4.9 40.3529 4.9C42.7549 4.9 44.7966 5.74583 46.4779 7.4375C48.1593 9.12917 49 11.1833 49 13.6C49 16.0167 48.1593 18.0708 46.4779 19.7625C44.7966 21.4542 42.7549 22.3 40.3529 22.3Z"
    fill="#395AB1" />
  <path fill-rule="evenodd" clip-rule="evenodd"
    d="M197.667 54.8353L194.88 57.6673L174.437 36.894C173.945 36.3865 173.67 35.7075 173.67 35.0007C173.67 34.2938 173.945 33.6148 174.437 33.1073L194.88 12.334L197.667 15.1687L178.152 35.0007L197.667 54.8353Z"
    fill="#395AB1" />
  <path fill-rule="evenodd" clip-rule="evenodd"
    d="M372.034 34.7735C373.978 32.7984 375.058 30.1318 375.037 27.3603C375.015 24.5888 373.893 21.9394 371.918 19.995C370.94 19.0322 369.782 18.2714 368.51 17.7562C367.238 17.2409 365.877 16.9813 364.505 16.992C361.734 17.0137 359.084 18.1354 357.14 20.1105C356.612 20.6385 355.941 21.2866 355.127 22.0547L352.864 24.186L350.6 22.0547C349.784 21.2847 349.113 20.6366 348.585 20.1105C346.625 18.1507 343.967 17.0498 341.195 17.0498C338.424 17.0498 335.766 18.1507 333.806 20.1105C329.769 24.1502 329.722 30.6815 333.657 34.7405L352.864 53.9465L372.034 34.7735ZM331.471 17.7785C332.748 16.5013 334.264 15.4881 335.933 14.7969C337.601 14.1057 339.389 13.7499 341.195 13.7499C343.001 13.7499 344.79 14.1057 346.458 14.7969C348.126 15.4881 349.642 16.5013 350.919 17.7785C351.42 18.2808 352.068 18.906 352.864 19.654C353.656 18.906 354.304 18.2799 354.808 17.7757C357.367 15.1774 360.853 13.7021 364.5 13.6742C368.146 13.6464 371.655 15.0683 374.253 17.6272C376.851 20.1861 378.327 23.6724 378.354 27.3191C378.382 30.9658 376.96 34.4742 374.402 37.0725L354.808 56.669C354.292 57.1845 353.593 57.4741 352.864 57.4741C352.134 57.4741 351.435 57.1845 350.919 56.669L331.32 37.0697C328.807 34.4776 327.414 31.0008 327.442 27.3904C327.47 23.7799 328.918 20.3254 331.471 17.773V17.7785Z"
    fill="#395AB1" />
  <path d="M549.25 18.75L517.75 50.25M517.75 18.75L549.25 50.25" stroke="#395AB1" stroke-width="2"
    stroke-linecap="round" stroke-linejoin="round" />
</svg>