<?xml version="1.0" encoding="UTF-8"?>
<svg preserveAspectRatio="none" width="1880.7" height="577.5" fill="none" version="1.1" viewBox="0 0 1880.7 577.5"
   xmlns="http://www.w3.org/2000/svg" xmlns:xlink="http://www.w3.org/1999/xlink">
   <path
      d="m-4.4908-7.3725c-0.7794 0-1.4072 0.63782-1.4072 1.4321v449.58l42.295 0.56484c151.57 2.0202 211.02 6.1104 336.18 23.135 81.879 11.137 105.61 13.708 148.34 16.066 102.42 5.651 193.25-12.897 310.04-63.307 42.712-18.435 78.214-35.972 145.51-71.873 90.915-48.502 132.83-67.414 177.41-80.06 28.027-7.9495 51.29-11.295 78.682-11.311 43.716-0.0253 81.552 10.102 132.31 35.413 34.977 17.442 68.669 38.461 137.82 85.974 84.421 58.007 120.28 80.232 183.8 113.92 47.969 25.44 81.323 41.155 157.49 74.207l42.639 18.504v-590.82c0-0.79432-0.6278-1.4321-1.4072-1.4321z"
      fill="#000" />
</svg>