<svg  width="2019" height="1519" viewBox="0 0 2019 1519" fill="none" xmlns="http://www.w3.org/2000/svg">
<ellipse cx="1132" cy="432.5" rx="450" ry="432.5" fill="#AD426C" fill-opacity="0.4"/>
<ellipse cx="495" cy="432.5" rx="71" ry="68.5" fill="#D4B2C6" fill-opacity="0.58"/>
<ellipse cx="193.5" cy="633" rx="193.5" ry="186" fill="#AD426C" fill-opacity="0.4"/>
<path fill-rule="evenodd" clip-rule="evenodd" d="M1670.62 819.489C1726.14 827.508 1725.02 919.962 1771.27 951.705C1807.96 976.885 1861.19 956.606 1900.57 977.324C1947.43 1001.98 2012.55 1028.77 2017.88 1081.44C2023.52 1137.12 1948.59 1168.01 1925.02 1218.77C1907.15 1257.27 1917.42 1304.07 1897.19 1341.39C1875.49 1381.43 1841.02 1411.98 1805.12 1439.99C1763.72 1472.3 1723.07 1515.48 1670.62 1518.19C1618.32 1520.9 1558.18 1497.93 1529.25 1454.27C1497.45 1406.29 1555.36 1325.96 1515.64 1284.3C1469.94 1236.38 1348.5 1301.43 1324.63 1239.68C1302.81 1183.26 1423.38 1165.09 1448.22 1109.94C1466.45 1069.47 1420.45 1017.25 1442.23 978.57C1463.24 941.276 1519.8 944.92 1554.93 920.457C1597.46 890.83 1619.32 812.079 1670.62 819.489Z" fill="#D4B2C6" fill-opacity="0.58"/>
<ellipse cx="1203" cy="1449.5" rx="71" ry="68.5" fill="#AD426C" fill-opacity="0.4"/>
</svg>
