<svg width="506" height="323" viewBox="0 0 506 323" fill="none" xmlns="http://www.w3.org/2000/svg">
  <path
    d="M67.645 38.765C67.645 37.745 67.875 36.83 68.335 36.02C68.795 35.2 69.42 34.56 70.21 34.1C71.01 33.64 71.895 33.41 72.865 33.41C74.005 33.41 75 33.685 75.85 34.235C76.7 34.785 77.32 35.565 77.71 36.575H76.075C75.785 35.945 75.365 35.46 74.815 35.12C74.275 34.78 73.625 34.61 72.865 34.61C72.135 34.61 71.48 34.78 70.9 35.12C70.32 35.46 69.865 35.945 69.535 36.575C69.205 37.195 69.04 37.925 69.04 38.765C69.04 39.595 69.205 40.325 69.535 40.955C69.865 41.575 70.32 42.055 70.9 42.395C71.48 42.735 72.135 42.905 72.865 42.905C73.625 42.905 74.275 42.74 74.815 42.41C75.365 42.07 75.785 41.585 76.075 40.955H77.71C77.32 41.955 76.7 42.73 75.85 43.28C75 43.82 74.005 44.09 72.865 44.09C71.895 44.09 71.01 43.865 70.21 43.415C69.42 42.955 68.795 42.32 68.335 41.51C67.875 40.7 67.645 39.785 67.645 38.765ZM85.2469 44L82.7569 39.725H81.1069V44H79.7419V33.545H83.1169C83.9069 33.545 84.5719 33.68 85.1119 33.95C85.6619 34.22 86.0719 34.585 86.3419 35.045C86.6119 35.505 86.7469 36.03 86.7469 36.62C86.7469 37.34 86.5369 37.975 86.1169 38.525C85.7069 39.075 85.0869 39.44 84.2569 39.62L86.8819 44H85.2469ZM81.1069 38.63H83.1169C83.8569 38.63 84.4119 38.45 84.7819 38.09C85.1519 37.72 85.3369 37.23 85.3369 36.62C85.3369 36 85.1519 35.52 84.7819 35.18C84.4219 34.84 83.8669 34.67 83.1169 34.67H81.1069V38.63ZM90.2329 34.655V38.15H94.0429V39.275H90.2329V42.875H94.4929V44H88.8679V33.53H94.4929V34.655H90.2329ZM92.9929 31.28L89.7979 32.99V31.97L92.9929 30.095V31.28ZM99.8133 33.545C100.953 33.545 101.938 33.76 102.768 34.19C103.608 34.61 104.248 35.215 104.688 36.005C105.138 36.795 105.363 37.725 105.363 38.795C105.363 39.865 105.138 40.795 104.688 41.585C104.248 42.365 103.608 42.965 102.768 43.385C101.938 43.795 100.953 44 99.8133 44H96.5583V33.545H99.8133ZM99.8133 42.875C101.163 42.875 102.193 42.52 102.903 41.81C103.613 41.09 103.968 40.085 103.968 38.795C103.968 37.495 103.608 36.48 102.888 35.75C102.178 35.02 101.153 34.655 99.8133 34.655H97.9233V42.875H99.8133ZM108.529 33.545V44H107.164V33.545H108.529ZM117.29 33.545V34.655H114.44V44H113.075V34.655H110.21V33.545H117.29ZM123.71 44.105C122.74 44.105 121.855 43.88 121.055 43.43C120.255 42.97 119.62 42.335 119.15 41.525C118.69 40.705 118.46 39.785 118.46 38.765C118.46 37.745 118.69 36.83 119.15 36.02C119.62 35.2 120.255 34.565 121.055 34.115C121.855 33.655 122.74 33.425 123.71 33.425C124.69 33.425 125.58 33.655 126.38 34.115C127.18 34.565 127.81 35.195 128.27 36.005C128.73 36.815 128.96 37.735 128.96 38.765C128.96 39.795 128.73 40.715 128.27 41.525C127.81 42.335 127.18 42.97 126.38 43.43C125.58 43.88 124.69 44.105 123.71 44.105ZM123.71 42.92C124.44 42.92 125.095 42.75 125.675 42.41C126.265 42.07 126.725 41.585 127.055 40.955C127.395 40.325 127.565 39.595 127.565 38.765C127.565 37.925 127.395 37.195 127.055 36.575C126.725 35.945 126.27 35.46 125.69 35.12C125.11 34.78 124.45 34.61 123.71 34.61C122.97 34.61 122.31 34.78 121.73 35.12C121.15 35.46 120.69 35.945 120.35 36.575C120.02 37.195 119.855 37.925 119.855 38.765C119.855 39.595 120.02 40.325 120.35 40.955C120.69 41.585 121.15 42.07 121.73 42.41C122.32 42.75 122.98 42.92 123.71 42.92Z"
    fill="#2A2B2C" />
  <path
    d="M50.4281 38.7886C50.4281 43.3168 46.3449 47.1514 41.0959 47.1514C35.8468 47.1514 31.7636 43.3168 31.7636 38.7886C31.7636 34.2604 35.8468 30.4258 41.0959 30.4258C46.3449 30.4258 50.4281 34.2604 50.4281 38.7886Z"
    fill="#395AB1" stroke="#395AB1" stroke-width="2" />
  <path
    d="M195.41 33.545C196.55 33.545 197.535 33.76 198.365 34.19C199.205 34.61 199.845 35.215 200.285 36.005C200.735 36.795 200.96 37.725 200.96 38.795C200.96 39.865 200.735 40.795 200.285 41.585C199.845 42.365 199.205 42.965 198.365 43.385C197.535 43.795 196.55 44 195.41 44H192.155V33.545H195.41ZM195.41 42.875C196.76 42.875 197.79 42.52 198.5 41.81C199.21 41.09 199.565 40.085 199.565 38.795C199.565 37.495 199.205 36.48 198.485 35.75C197.775 35.02 196.75 34.655 195.41 34.655H193.52V42.875H195.41ZM204.125 34.655V38.15H207.935V39.275H204.125V42.875H208.385V44H202.76V33.53H208.385V34.655H204.125ZM206.885 31.28L203.69 32.99V31.97L206.885 30.095V31.28ZM215.686 38.615C216.066 38.675 216.411 38.83 216.721 39.08C217.041 39.33 217.291 39.64 217.471 40.01C217.661 40.38 217.756 40.775 217.756 41.195C217.756 41.725 217.621 42.205 217.351 42.635C217.081 43.055 216.686 43.39 216.166 43.64C215.656 43.88 215.051 44 214.351 44H210.451V33.545H214.201C214.911 33.545 215.516 33.665 216.016 33.905C216.516 34.135 216.891 34.45 217.141 34.85C217.391 35.25 217.516 35.7 217.516 36.2C217.516 36.82 217.346 37.335 217.006 37.745C216.676 38.145 216.236 38.435 215.686 38.615ZM211.816 38.06H214.111C214.751 38.06 215.246 37.91 215.596 37.61C215.946 37.31 216.121 36.895 216.121 36.365C216.121 35.835 215.946 35.42 215.596 35.12C215.246 34.82 214.741 34.67 214.081 34.67H211.816V38.06ZM214.231 42.875C214.911 42.875 215.441 42.715 215.821 42.395C216.201 42.075 216.391 41.63 216.391 41.06C216.391 40.48 216.191 40.025 215.791 39.695C215.391 39.355 214.856 39.185 214.186 39.185H211.816V42.875H214.231ZM221.015 33.545V44H219.65V33.545H221.015ZM229.777 33.545V34.655H226.927V44H225.562V34.655H222.697V33.545H229.777ZM236.197 44.105C235.227 44.105 234.342 43.88 233.542 43.43C232.742 42.97 232.107 42.335 231.637 41.525C231.177 40.705 230.947 39.785 230.947 38.765C230.947 37.745 231.177 36.83 231.637 36.02C232.107 35.2 232.742 34.565 233.542 34.115C234.342 33.655 235.227 33.425 236.197 33.425C237.177 33.425 238.067 33.655 238.867 34.115C239.667 34.565 240.297 35.195 240.757 36.005C241.217 36.815 241.447 37.735 241.447 38.765C241.447 39.795 241.217 40.715 240.757 41.525C240.297 42.335 239.667 42.97 238.867 43.43C238.067 43.88 237.177 44.105 236.197 44.105ZM236.197 42.92C236.927 42.92 237.582 42.75 238.162 42.41C238.752 42.07 239.212 41.585 239.542 40.955C239.882 40.325 240.052 39.595 240.052 38.765C240.052 37.925 239.882 37.195 239.542 36.575C239.212 35.945 238.757 35.46 238.177 35.12C237.597 34.78 236.937 34.61 236.197 34.61C235.457 34.61 234.797 34.78 234.217 35.12C233.637 35.46 233.177 35.945 232.837 36.575C232.507 37.195 232.342 37.925 232.342 38.765C232.342 39.595 232.507 40.325 232.837 40.955C233.177 41.585 233.637 42.07 234.217 42.41C234.807 42.75 235.467 42.92 236.197 42.92Z"
    fill="#2A2B2C" />
  <path
    d="M180.17 38.7886C180.17 43.3168 176.087 47.1514 170.838 47.1514C165.589 47.1514 161.506 43.3168 161.506 38.7886C161.506 34.2604 165.589 30.4258 170.838 30.4258C176.087 30.4258 180.17 34.2604 180.17 38.7886Z"
    stroke="#395AB1" stroke-width="2" />
  <rect x="1" y="1" width="503.593" height="320.349" rx="5" stroke="#395AB1" stroke-width="2" />
  <path
    d="M41.1451 97.9277H39.5491L34.7471 90.6617V97.9277H33.1511V88.1837H34.7471L39.5491 95.4357V88.1837H41.1451V97.9277ZM46.5869 98.0537C45.8589 98.0537 45.2009 97.8904 44.6129 97.5637C44.0249 97.2277 43.5629 96.7611 43.2269 96.1637C42.8909 95.5571 42.7229 94.8571 42.7229 94.0637C42.7229 93.2797 42.8956 92.5844 43.2409 91.9777C43.5863 91.3711 44.0576 90.9044 44.6549 90.5777C45.2523 90.2511 45.9196 90.0877 46.6569 90.0877C47.3943 90.0877 48.0616 90.2511 48.6589 90.5777C49.2563 90.9044 49.7276 91.3711 50.0729 91.9777C50.4183 92.5844 50.5909 93.2797 50.5909 94.0637C50.5909 94.8477 50.4136 95.5431 50.0589 96.1497C49.7043 96.7564 49.2189 97.2277 48.6029 97.5637C47.9963 97.8904 47.3243 98.0537 46.5869 98.0537ZM46.5869 96.6677C46.9976 96.6677 47.3803 96.5697 47.7349 96.3737C48.0989 96.1777 48.3929 95.8837 48.6169 95.4917C48.8409 95.0997 48.9529 94.6237 48.9529 94.0637C48.9529 93.5037 48.8456 93.0324 48.6309 92.6497C48.4163 92.2577 48.1316 91.9637 47.7769 91.7677C47.4223 91.5717 47.0396 91.4737 46.6289 91.4737C46.2183 91.4737 45.8356 91.5717 45.4809 91.7677C45.1356 91.9637 44.8603 92.2577 44.6549 92.6497C44.4496 93.0324 44.3469 93.5037 44.3469 94.0637C44.3469 94.8944 44.5569 95.5384 44.9769 95.9957C45.4063 96.4437 45.9429 96.6677 46.5869 96.6677ZM61.5067 90.0877C62.1134 90.0877 62.6547 90.2137 63.1307 90.4657C63.616 90.7177 63.994 91.0911 64.2647 91.5857C64.5447 92.0804 64.6847 92.6777 64.6847 93.3777V97.9277H63.1027V93.6157C63.1027 92.9251 62.93 92.3977 62.5847 92.0337C62.2394 91.6604 61.768 91.4737 61.1707 91.4737C60.5734 91.4737 60.0974 91.6604 59.7427 92.0337C59.3974 92.3977 59.2247 92.9251 59.2247 93.6157V97.9277H57.6427V93.6157C57.6427 92.9251 57.47 92.3977 57.1247 92.0337C56.7793 91.6604 56.308 91.4737 55.7107 91.4737C55.1133 91.4737 54.6373 91.6604 54.2827 92.0337C53.9373 92.3977 53.7647 92.9251 53.7647 93.6157V97.9277H52.1687V90.2137H53.7647V91.0957C54.026 90.7784 54.3573 90.5311 54.7587 90.3537C55.16 90.1764 55.5893 90.0877 56.0467 90.0877C56.6627 90.0877 57.2133 90.2184 57.6987 90.4797C58.184 90.7411 58.5573 91.1191 58.8187 91.6137C59.052 91.1471 59.416 90.7784 59.9107 90.5077C60.4054 90.2277 60.9374 90.0877 61.5067 90.0877ZM73.7856 93.8817C73.7856 94.1711 73.7669 94.4324 73.7296 94.6657H67.8356C67.8822 95.2817 68.1109 95.7764 68.5216 96.1497C68.9322 96.5231 69.4362 96.7097 70.0336 96.7097C70.8922 96.7097 71.4989 96.3504 71.8536 95.6317H73.5756C73.3422 96.3411 72.9176 96.9244 72.3016 97.3817C71.6949 97.8297 70.9389 98.0537 70.0336 98.0537C69.2962 98.0537 68.6336 97.8904 68.0456 97.5637C67.4669 97.2277 67.0096 96.7611 66.6736 96.1637C66.3469 95.5571 66.1836 94.8571 66.1836 94.0637C66.1836 93.2704 66.3422 92.5751 66.6596 91.9777C66.9862 91.3711 67.4389 90.9044 68.0176 90.5777C68.6056 90.2511 69.2776 90.0877 70.0336 90.0877C70.7616 90.0877 71.4102 90.2464 71.9796 90.5637C72.5489 90.8811 72.9922 91.3291 73.3096 91.9077C73.6269 92.4771 73.7856 93.1351 73.7856 93.8817ZM72.1196 93.3777C72.1102 92.7897 71.9002 92.3184 71.4896 91.9637C71.0789 91.6091 70.5702 91.4317 69.9636 91.4317C69.4129 91.4317 68.9416 91.6091 68.5496 91.9637C68.1576 92.3091 67.9242 92.7804 67.8496 93.3777H72.1196ZM78.4609 94.0357C78.4609 93.2611 78.6196 92.5751 78.9369 91.9777C79.2636 91.3804 79.7022 90.9184 80.2529 90.5917C80.8129 90.2557 81.4336 90.0877 82.1149 90.0877C82.6189 90.0877 83.1136 90.1997 83.5989 90.4237C84.0936 90.6384 84.4856 90.9277 84.7749 91.2917V87.5677H86.3849V97.9277H84.7749V96.7657C84.5136 97.1391 84.1496 97.4471 83.6829 97.6897C83.2256 97.9324 82.6982 98.0537 82.1009 98.0537C81.4289 98.0537 80.8129 97.8857 80.2529 97.5497C79.7022 97.2044 79.2636 96.7284 78.9369 96.1217C78.6196 95.5057 78.4609 94.8104 78.4609 94.0357ZM84.7749 94.0637C84.7749 93.5317 84.6629 93.0697 84.4389 92.6777C84.2242 92.2857 83.9396 91.9871 83.5849 91.7817C83.2302 91.5764 82.8476 91.4737 82.4369 91.4737C82.0262 91.4737 81.6436 91.5764 81.2889 91.7817C80.9342 91.9777 80.6449 92.2717 80.4209 92.6637C80.2062 93.0464 80.0989 93.5037 80.0989 94.0357C80.0989 94.5677 80.2062 95.0344 80.4209 95.4357C80.6449 95.8371 80.9342 96.1451 81.2889 96.3597C81.6529 96.5651 82.0356 96.6677 82.4369 96.6677C82.8476 96.6677 83.2302 96.5651 83.5849 96.3597C83.9396 96.1544 84.2242 95.8557 84.4389 95.4637C84.6629 95.0624 84.7749 94.5957 84.7749 94.0637ZM91.8272 98.0537C91.0992 98.0537 90.4412 97.8904 89.8532 97.5637C89.2652 97.2277 88.8032 96.7611 88.4672 96.1637C88.1312 95.5571 87.9632 94.8571 87.9632 94.0637C87.9632 93.2797 88.1358 92.5844 88.4812 91.9777C88.8265 91.3711 89.2978 90.9044 89.8952 90.5777C90.4925 90.2511 91.1598 90.0877 91.8972 90.0877C92.6345 90.0877 93.3018 90.2511 93.8992 90.5777C94.4965 90.9044 94.9678 91.3711 95.3132 91.9777C95.6585 92.5844 95.8312 93.2797 95.8312 94.0637C95.8312 94.8477 95.6538 95.5431 95.2992 96.1497C94.9445 96.7564 94.4592 97.2277 93.8432 97.5637C93.2365 97.8904 92.5645 98.0537 91.8272 98.0537ZM91.8272 96.6677C92.2378 96.6677 92.6205 96.5697 92.9752 96.3737C93.3392 96.1777 93.6332 95.8837 93.8572 95.4917C94.0812 95.0997 94.1932 94.6237 94.1932 94.0637C94.1932 93.5037 94.0858 93.0324 93.8712 92.6497C93.6565 92.2577 93.3718 91.9637 93.0172 91.7677C92.6625 91.5717 92.2798 91.4737 91.8692 91.4737C91.4585 91.4737 91.0758 91.5717 90.7212 91.7677C90.3758 91.9637 90.1005 92.2577 89.8952 92.6497C89.6898 93.0324 89.5872 93.5037 89.5872 94.0637C89.5872 94.8944 89.7972 95.5384 90.2172 95.9957C90.6465 96.4437 91.1832 96.6677 91.8272 96.6677ZM100.514 94.0637C100.514 93.2704 100.672 92.5751 100.99 91.9777C101.316 91.3711 101.764 90.9044 102.334 90.5777C102.903 90.2511 103.556 90.0877 104.294 90.0877C105.227 90.0877 105.997 90.3117 106.604 90.7597C107.22 91.1984 107.635 91.8284 107.85 92.6497H106.128C105.988 92.2671 105.764 91.9684 105.456 91.7537C105.148 91.5391 104.76 91.4317 104.294 91.4317C103.64 91.4317 103.118 91.6651 102.726 92.1317C102.343 92.5891 102.152 93.2331 102.152 94.0637C102.152 94.8944 102.343 95.5431 102.726 96.0097C103.118 96.4764 103.64 96.7097 104.294 96.7097C105.218 96.7097 105.829 96.3037 106.128 95.4917H107.85C107.626 96.2757 107.206 96.9011 106.59 97.3677C105.974 97.8251 105.208 98.0537 104.294 98.0537C103.556 98.0537 102.903 97.8904 102.334 97.5637C101.764 97.2277 101.316 96.7611 100.99 96.1637C100.672 95.5571 100.514 94.8571 100.514 94.0637ZM108.908 94.0357C108.908 93.2611 109.067 92.5751 109.384 91.9777C109.711 91.3804 110.15 90.9184 110.7 90.5917C111.26 90.2557 111.876 90.0877 112.548 90.0877C113.155 90.0877 113.682 90.2091 114.13 90.4517C114.588 90.6851 114.952 90.9791 115.222 91.3337V90.2137H116.832V97.9277H115.222V96.7797C114.952 97.1437 114.583 97.4471 114.116 97.6897C113.65 97.9324 113.118 98.0537 112.52 98.0537C111.858 98.0537 111.251 97.8857 110.7 97.5497C110.15 97.2044 109.711 96.7284 109.384 96.1217C109.067 95.5057 108.908 94.8104 108.908 94.0357ZM115.222 94.0637C115.222 93.5317 115.11 93.0697 114.886 92.6777C114.672 92.2857 114.387 91.9871 114.032 91.7817C113.678 91.5764 113.295 91.4737 112.884 91.4737C112.474 91.4737 112.091 91.5764 111.736 91.7817C111.382 91.9777 111.092 92.2717 110.868 92.6637C110.654 93.0464 110.546 93.5037 110.546 94.0357C110.546 94.5677 110.654 95.0344 110.868 95.4357C111.092 95.8371 111.382 96.1451 111.736 96.3597C112.1 96.5651 112.483 96.6677 112.884 96.6677C113.295 96.6677 113.678 96.5651 114.032 96.3597C114.387 96.1544 114.672 95.8557 114.886 95.4637C115.11 95.0624 115.222 94.5957 115.222 94.0637ZM120.524 91.3337C120.758 90.9417 121.066 90.6384 121.448 90.4237C121.84 90.1997 122.302 90.0877 122.834 90.0877V91.7397H122.428C121.803 91.7397 121.327 91.8984 121 92.2157C120.683 92.5331 120.524 93.0837 120.524 93.8677V97.9277H118.928V90.2137H120.524V91.3337ZM126.163 91.5157V95.7857C126.163 96.0751 126.229 96.2851 126.359 96.4157C126.499 96.5371 126.733 96.5977 127.059 96.5977H128.039V97.9277H126.779C126.061 97.9277 125.51 97.7597 125.127 97.4237C124.745 97.0877 124.553 96.5417 124.553 95.7857V91.5157H123.643V90.2137H124.553V88.2957H126.163V90.2137H128.039V91.5157H126.163ZM128.978 94.0357C128.978 93.2611 129.137 92.5751 129.454 91.9777C129.781 91.3804 130.22 90.9184 130.77 90.5917C131.33 90.2557 131.946 90.0877 132.618 90.0877C133.225 90.0877 133.752 90.2091 134.2 90.4517C134.658 90.6851 135.022 90.9791 135.292 91.3337V90.2137H136.902V97.9277H135.292V96.7797C135.022 97.1437 134.653 97.4471 134.186 97.6897C133.72 97.9324 133.188 98.0537 132.59 98.0537C131.928 98.0537 131.321 97.8857 130.77 97.5497C130.22 97.2044 129.781 96.7284 129.454 96.1217C129.137 95.5057 128.978 94.8104 128.978 94.0357ZM135.292 94.0637C135.292 93.5317 135.18 93.0697 134.956 92.6777C134.742 92.2857 134.457 91.9871 134.102 91.7817C133.748 91.5764 133.365 91.4737 132.954 91.4737C132.544 91.4737 132.161 91.5764 131.806 91.7817C131.452 91.9777 131.162 92.2717 130.938 92.6637C130.724 93.0464 130.616 93.5037 130.616 94.0357C130.616 94.5677 130.724 95.0344 130.938 95.4357C131.162 95.8371 131.452 96.1451 131.806 96.3597C132.17 96.5651 132.553 96.6677 132.954 96.6677C133.365 96.6677 133.748 96.5651 134.102 96.3597C134.457 96.1544 134.742 95.8557 134.956 95.4637C135.18 95.0624 135.292 94.5957 135.292 94.0637ZM130.924 89.4157C130.999 88.8744 131.176 88.4684 131.456 88.1977C131.736 87.9177 132.086 87.7777 132.506 87.7777C132.684 87.7777 132.838 87.8057 132.968 87.8617C133.099 87.9177 133.258 88.0017 133.444 88.1137C133.584 88.2071 133.701 88.2771 133.794 88.3237C133.897 88.3704 134.009 88.3937 134.13 88.3937C134.289 88.3937 134.42 88.3471 134.522 88.2537C134.634 88.1511 134.704 88.0017 134.732 87.8057H135.628C135.554 88.3471 135.376 88.7577 135.096 89.0377C134.816 89.3084 134.466 89.4437 134.046 89.4437C133.869 89.4437 133.71 89.4157 133.57 89.3597C133.43 89.2944 133.276 89.2057 133.108 89.0937C132.94 88.9911 132.81 88.9211 132.716 88.8837C132.632 88.8371 132.534 88.8137 132.422 88.8137C132.264 88.8137 132.128 88.8651 132.016 88.9677C131.914 89.0704 131.848 89.2197 131.82 89.4157H130.924ZM142.345 98.0537C141.617 98.0537 140.959 97.8904 140.371 97.5637C139.783 97.2277 139.321 96.7611 138.985 96.1637C138.649 95.5571 138.481 94.8571 138.481 94.0637C138.481 93.2797 138.653 92.5844 138.999 91.9777C139.344 91.3711 139.815 90.9044 140.413 90.5777C141.01 90.2511 141.677 90.0877 142.415 90.0877C143.152 90.0877 143.819 90.2511 144.417 90.5777C145.014 90.9044 145.485 91.3711 145.831 91.9777C146.176 92.5844 146.349 93.2797 146.349 94.0637C146.349 94.8477 146.171 95.5431 145.817 96.1497C145.462 96.7564 144.977 97.2277 144.361 97.5637C143.754 97.8904 143.082 98.0537 142.345 98.0537ZM142.345 96.6677C142.755 96.6677 143.138 96.5697 143.493 96.3737C143.857 96.1777 144.151 95.8837 144.375 95.4917C144.599 95.0997 144.711 94.6237 144.711 94.0637C144.711 93.5037 144.603 93.0324 144.389 92.6497C144.174 92.2577 143.889 91.9637 143.535 91.7677C143.18 91.5717 142.797 91.4737 142.387 91.4737C141.976 91.4737 141.593 91.5717 141.239 91.7677C140.893 91.9637 140.618 92.2577 140.413 92.6497C140.207 93.0324 140.105 93.5037 140.105 94.0637C140.105 94.8944 140.315 95.5384 140.735 95.9957C141.164 96.4437 141.701 96.6677 142.345 96.6677Z"
    fill="#6D6D6D" />
  <path
    d="M41.1451 179.518H39.5491L34.7471 172.252V179.518H33.1511V169.774H34.7471L39.5491 177.026V169.774H41.1451V179.518ZM50.2269 171.804V179.518H48.6309V178.608C48.3789 178.925 48.0476 179.177 47.6369 179.364C47.2356 179.541 46.8063 179.63 46.3489 179.63C45.7423 179.63 45.1963 179.504 44.7109 179.252C44.2349 179 43.8569 178.626 43.5769 178.132C43.3063 177.637 43.1709 177.04 43.1709 176.34V171.804H44.7529V176.102C44.7529 176.792 44.9256 177.324 45.2709 177.698C45.6163 178.062 46.0876 178.244 46.6849 178.244C47.2823 178.244 47.7536 178.062 48.0989 177.698C48.4536 177.324 48.6309 176.792 48.6309 176.102V171.804H50.2269ZM48.1829 169.732L45.0889 171.258V170.082L48.1829 168.374V169.732ZM61.6707 171.678C62.2774 171.678 62.8187 171.804 63.2947 172.056C63.7801 172.308 64.1581 172.681 64.4287 173.176C64.7087 173.67 64.8487 174.268 64.8487 174.968V179.518H63.2667V175.206C63.2667 174.515 63.0941 173.988 62.7487 173.624C62.4034 173.25 61.9321 173.064 61.3347 173.064C60.7374 173.064 60.2614 173.25 59.9067 173.624C59.5614 173.988 59.3887 174.515 59.3887 175.206V179.518H57.8067V175.206C57.8067 174.515 57.6341 173.988 57.2887 173.624C56.9434 173.25 56.4721 173.064 55.8747 173.064C55.2774 173.064 54.8014 173.25 54.4467 173.624C54.1014 173.988 53.9287 174.515 53.9287 175.206V179.518H52.3327V171.804H53.9287V172.686C54.1901 172.368 54.5214 172.121 54.9227 171.944C55.3241 171.766 55.7534 171.678 56.2107 171.678C56.8267 171.678 57.3774 171.808 57.8627 172.07C58.3481 172.331 58.7214 172.709 58.9827 173.204C59.2161 172.737 59.5801 172.368 60.0747 172.098C60.5694 171.818 61.1014 171.678 61.6707 171.678ZM73.9496 175.472C73.9496 175.761 73.931 176.022 73.8936 176.256H67.9996C68.0463 176.872 68.275 177.366 68.6856 177.74C69.0963 178.113 69.6003 178.3 70.1976 178.3C71.0563 178.3 71.663 177.94 72.0176 177.222H73.7396C73.5063 177.931 73.0816 178.514 72.4656 178.972C71.859 179.42 71.103 179.644 70.1976 179.644C69.4603 179.644 68.7976 179.48 68.2096 179.154C67.631 178.818 67.1736 178.351 66.8376 177.754C66.511 177.147 66.3476 176.447 66.3476 175.654C66.3476 174.86 66.5063 174.165 66.8236 173.568C67.1503 172.961 67.603 172.494 68.1816 172.168C68.7696 171.841 69.4416 171.678 70.1976 171.678C70.9256 171.678 71.5743 171.836 72.1436 172.154C72.713 172.471 73.1563 172.919 73.4736 173.498C73.791 174.067 73.9496 174.725 73.9496 175.472ZM72.2836 174.968C72.2743 174.38 72.0643 173.908 71.6536 173.554C71.243 173.199 70.7343 173.022 70.1276 173.022C69.577 173.022 69.1056 173.199 68.7136 173.554C68.3216 173.899 68.0883 174.37 68.0136 174.968H72.2836ZM77.1162 172.924C77.3496 172.532 77.6576 172.228 78.0402 172.014C78.4322 171.79 78.8942 171.678 79.4262 171.678V173.33H79.0202C78.3949 173.33 77.9189 173.488 77.5922 173.806C77.2749 174.123 77.1162 174.674 77.1162 175.458V179.518H75.5202V171.804H77.1162V172.924ZM84.2393 179.644C83.5113 179.644 82.8533 179.48 82.2653 179.154C81.6773 178.818 81.2153 178.351 80.8793 177.754C80.5433 177.147 80.3753 176.447 80.3753 175.654C80.3753 174.87 80.548 174.174 80.8933 173.568C81.2386 172.961 81.71 172.494 82.3073 172.168C82.9046 171.841 83.572 171.678 84.3093 171.678C85.0466 171.678 85.714 171.841 86.3113 172.168C86.9086 172.494 87.38 172.961 87.7253 173.568C88.0706 174.174 88.2433 174.87 88.2433 175.654C88.2433 176.438 88.066 177.133 87.7113 177.74C87.3566 178.346 86.8713 178.818 86.2553 179.154C85.6486 179.48 84.9766 179.644 84.2393 179.644ZM84.2393 178.258C84.65 178.258 85.0326 178.16 85.3873 177.964C85.7513 177.768 86.0453 177.474 86.2693 177.082C86.4933 176.69 86.6053 176.214 86.6053 175.654C86.6053 175.094 86.498 174.622 86.2833 174.24C86.0686 173.848 85.784 173.554 85.4293 173.358C85.0746 173.162 84.692 173.064 84.2813 173.064C83.8706 173.064 83.488 173.162 83.1333 173.358C82.788 173.554 82.5126 173.848 82.3073 174.24C82.102 174.622 81.9993 175.094 81.9993 175.654C81.9993 176.484 82.2093 177.128 82.6293 177.586C83.0586 178.034 83.5953 178.258 84.2393 178.258ZM92.9257 175.626C92.9257 174.851 93.0844 174.165 93.4017 173.568C93.7284 172.97 94.1671 172.508 94.7177 172.182C95.2777 171.846 95.8984 171.678 96.5797 171.678C97.0837 171.678 97.5784 171.79 98.0637 172.014C98.5584 172.228 98.9504 172.518 99.2397 172.882V169.158H100.85V179.518H99.2397V178.356C98.9784 178.729 98.6144 179.037 98.1477 179.28C97.6904 179.522 97.1631 179.644 96.5657 179.644C95.8937 179.644 95.2777 179.476 94.7177 179.14C94.1671 178.794 93.7284 178.318 93.4017 177.712C93.0844 177.096 92.9257 176.4 92.9257 175.626ZM99.2397 175.654C99.2397 175.122 99.1277 174.66 98.9037 174.268C98.6891 173.876 98.4044 173.577 98.0497 173.372C97.6951 173.166 97.3124 173.064 96.9017 173.064C96.4911 173.064 96.1084 173.166 95.7537 173.372C95.3991 173.568 95.1097 173.862 94.8857 174.254C94.6711 174.636 94.5637 175.094 94.5637 175.626C94.5637 176.158 94.6711 176.624 94.8857 177.026C95.1097 177.427 95.3991 177.735 95.7537 177.95C96.1177 178.155 96.5004 178.258 96.9017 178.258C97.3124 178.258 97.6951 178.155 98.0497 177.95C98.4044 177.744 98.6891 177.446 98.9037 177.054C99.1277 176.652 99.2397 176.186 99.2397 175.654ZM106.292 179.644C105.564 179.644 104.906 179.48 104.318 179.154C103.73 178.818 103.268 178.351 102.932 177.754C102.596 177.147 102.428 176.447 102.428 175.654C102.428 174.87 102.601 174.174 102.946 173.568C103.291 172.961 103.763 172.494 104.36 172.168C104.957 171.841 105.625 171.678 106.362 171.678C107.099 171.678 107.767 171.841 108.364 172.168C108.961 172.494 109.433 172.961 109.778 173.568C110.123 174.174 110.296 174.87 110.296 175.654C110.296 176.438 110.119 177.133 109.764 177.74C109.409 178.346 108.924 178.818 108.308 179.154C107.701 179.48 107.029 179.644 106.292 179.644ZM106.292 178.258C106.703 178.258 107.085 178.16 107.44 177.964C107.804 177.768 108.098 177.474 108.322 177.082C108.546 176.69 108.658 176.214 108.658 175.654C108.658 175.094 108.551 174.622 108.336 174.24C108.121 173.848 107.837 173.554 107.482 173.358C107.127 173.162 106.745 173.064 106.334 173.064C105.923 173.064 105.541 173.162 105.186 173.358C104.841 173.554 104.565 173.848 104.36 174.24C104.155 174.622 104.052 175.094 104.052 175.654C104.052 176.484 104.262 177.128 104.682 177.586C105.111 178.034 105.648 178.258 106.292 178.258ZM114.978 175.654C114.978 174.86 115.137 174.165 115.454 173.568C115.781 172.961 116.229 172.494 116.798 172.168C117.368 171.841 118.021 171.678 118.758 171.678C119.692 171.678 120.462 171.902 121.068 172.35C121.684 172.788 122.1 173.418 122.314 174.24H120.592C120.452 173.857 120.228 173.558 119.92 173.344C119.612 173.129 119.225 173.022 118.758 173.022C118.105 173.022 117.582 173.255 117.19 173.722C116.808 174.179 116.616 174.823 116.616 175.654C116.616 176.484 116.808 177.133 117.19 177.6C117.582 178.066 118.105 178.3 118.758 178.3C119.682 178.3 120.294 177.894 120.592 177.082H122.314C122.09 177.866 121.67 178.491 121.054 178.958C120.438 179.415 119.673 179.644 118.758 179.644C118.021 179.644 117.368 179.48 116.798 179.154C116.229 178.818 115.781 178.351 115.454 177.754C115.137 177.147 114.978 176.447 114.978 175.654ZM123.373 175.626C123.373 174.851 123.532 174.165 123.849 173.568C124.176 172.97 124.614 172.508 125.165 172.182C125.725 171.846 126.341 171.678 127.013 171.678C127.62 171.678 128.147 171.799 128.595 172.042C129.052 172.275 129.416 172.569 129.687 172.924V171.804H131.297V179.518H129.687V178.37C129.416 178.734 129.048 179.037 128.581 179.28C128.114 179.522 127.582 179.644 126.985 179.644C126.322 179.644 125.716 179.476 125.165 179.14C124.614 178.794 124.176 178.318 123.849 177.712C123.532 177.096 123.373 176.4 123.373 175.626ZM129.687 175.654C129.687 175.122 129.575 174.66 129.351 174.268C129.136 173.876 128.852 173.577 128.497 173.372C128.142 173.166 127.76 173.064 127.349 173.064C126.938 173.064 126.556 173.166 126.201 173.372C125.846 173.568 125.557 173.862 125.333 174.254C125.118 174.636 125.011 175.094 125.011 175.626C125.011 176.158 125.118 176.624 125.333 177.026C125.557 177.427 125.846 177.735 126.201 177.95C126.565 178.155 126.948 178.258 127.349 178.258C127.76 178.258 128.142 178.155 128.497 177.95C128.852 177.744 129.136 177.446 129.351 177.054C129.575 176.652 129.687 176.186 129.687 175.654ZM134.989 172.924C135.223 172.532 135.531 172.228 135.913 172.014C136.305 171.79 136.767 171.678 137.299 171.678V173.33H136.893C136.268 173.33 135.792 173.488 135.465 173.806C135.148 174.123 134.989 174.674 134.989 175.458V179.518H133.393V171.804H134.989V172.924ZM140.628 173.106V177.376C140.628 177.665 140.694 177.875 140.824 178.006C140.964 178.127 141.198 178.188 141.524 178.188H142.504V179.518H141.244C140.526 179.518 139.975 179.35 139.592 179.014C139.21 178.678 139.018 178.132 139.018 177.376V173.106H138.108V171.804H139.018V169.886H140.628V171.804H142.504V173.106H140.628ZM143.443 175.626C143.443 174.851 143.602 174.165 143.919 173.568C144.246 172.97 144.685 172.508 145.235 172.182C145.795 171.846 146.411 171.678 147.083 171.678C147.69 171.678 148.217 171.799 148.665 172.042C149.123 172.275 149.487 172.569 149.757 172.924V171.804H151.367V179.518H149.757V178.37C149.487 178.734 149.118 179.037 148.651 179.28C148.185 179.522 147.653 179.644 147.055 179.644C146.393 179.644 145.786 179.476 145.235 179.14C144.685 178.794 144.246 178.318 143.919 177.712C143.602 177.096 143.443 176.4 143.443 175.626ZM149.757 175.654C149.757 175.122 149.645 174.66 149.421 174.268C149.207 173.876 148.922 173.577 148.567 173.372C148.213 173.166 147.83 173.064 147.419 173.064C147.009 173.064 146.626 173.166 146.271 173.372C145.917 173.568 145.627 173.862 145.403 174.254C145.189 174.636 145.081 175.094 145.081 175.626C145.081 176.158 145.189 176.624 145.403 177.026C145.627 177.427 145.917 177.735 146.271 177.95C146.635 178.155 147.018 178.258 147.419 178.258C147.83 178.258 148.213 178.155 148.567 177.95C148.922 177.744 149.207 177.446 149.421 177.054C149.645 176.652 149.757 176.186 149.757 175.654ZM145.389 171.006C145.464 170.464 145.641 170.058 145.921 169.788C146.201 169.508 146.551 169.368 146.971 169.368C147.149 169.368 147.303 169.396 147.433 169.452C147.564 169.508 147.723 169.592 147.909 169.704C148.049 169.797 148.166 169.867 148.259 169.914C148.362 169.96 148.474 169.984 148.595 169.984C148.754 169.984 148.885 169.937 148.987 169.844C149.099 169.741 149.169 169.592 149.197 169.396H150.093C150.019 169.937 149.841 170.348 149.561 170.628C149.281 170.898 148.931 171.034 148.511 171.034C148.334 171.034 148.175 171.006 148.035 170.95C147.895 170.884 147.741 170.796 147.573 170.684C147.405 170.581 147.275 170.511 147.181 170.474C147.097 170.427 146.999 170.404 146.887 170.404C146.729 170.404 146.593 170.455 146.481 170.558C146.379 170.66 146.313 170.81 146.285 171.006H145.389ZM156.81 179.644C156.082 179.644 155.424 179.48 154.836 179.154C154.248 178.818 153.786 178.351 153.45 177.754C153.114 177.147 152.946 176.447 152.946 175.654C152.946 174.87 153.118 174.174 153.464 173.568C153.809 172.961 154.28 172.494 154.878 172.168C155.475 171.841 156.142 171.678 156.88 171.678C157.617 171.678 158.284 171.841 158.882 172.168C159.479 172.494 159.95 172.961 160.296 173.568C160.641 174.174 160.814 174.87 160.814 175.654C160.814 176.438 160.636 177.133 160.282 177.74C159.927 178.346 159.442 178.818 158.826 179.154C158.219 179.48 157.547 179.644 156.81 179.644ZM156.81 178.258C157.22 178.258 157.603 178.16 157.958 177.964C158.322 177.768 158.616 177.474 158.84 177.082C159.064 176.69 159.176 176.214 159.176 175.654C159.176 175.094 159.068 174.622 158.854 174.24C158.639 173.848 158.354 173.554 158 173.358C157.645 173.162 157.262 173.064 156.852 173.064C156.441 173.064 156.058 173.162 155.704 173.358C155.358 173.554 155.083 173.848 154.878 174.24C154.672 174.622 154.57 175.094 154.57 175.654C154.57 176.484 154.78 177.128 155.2 177.586C155.629 178.034 156.166 178.258 156.81 178.258Z"
    fill="#6D6D6D" />
  <path
    d="M37.5245 248.704L33.8705 258.434H32.0225L28.3545 248.704H30.0625L32.9465 256.796L35.8445 248.704H37.5245ZM38.3272 254.542C38.3272 253.767 38.4858 253.081 38.8032 252.484C39.1298 251.886 39.5685 251.424 40.1192 251.098C40.6792 250.762 41.2952 250.594 41.9672 250.594C42.5738 250.594 43.1012 250.715 43.5492 250.958C44.0065 251.191 44.3705 251.485 44.6412 251.84V250.72H46.2512V258.434H44.6412V257.286C44.3705 257.65 44.0018 257.953 43.5352 258.196C43.0685 258.438 42.5365 258.56 41.9392 258.56C41.2765 258.56 40.6698 258.392 40.1192 258.056C39.5685 257.71 39.1298 257.234 38.8032 256.628C38.4858 256.012 38.3272 255.316 38.3272 254.542ZM44.6412 254.57C44.6412 254.038 44.5292 253.576 44.3052 253.184C44.0905 252.792 43.8058 252.493 43.4512 252.288C43.0965 252.082 42.7138 251.98 42.3032 251.98C41.8925 251.98 41.5098 252.082 41.1552 252.288C40.8005 252.484 40.5112 252.778 40.2872 253.17C40.0725 253.552 39.9652 254.01 39.9652 254.542C39.9652 255.074 40.0725 255.54 40.2872 255.942C40.5112 256.343 40.8005 256.651 41.1552 256.866C41.5192 257.071 41.9018 257.174 42.3032 257.174C42.7138 257.174 43.0965 257.071 43.4512 256.866C43.8058 256.66 44.0905 256.362 44.3052 255.97C44.5292 255.568 44.6412 255.102 44.6412 254.57ZM49.9435 248.074V258.434H48.3475V248.074H49.9435ZM52.8509 249.698C52.5615 249.698 52.3189 249.6 52.1229 249.404C51.9269 249.208 51.8289 248.965 51.8289 248.676C51.8289 248.386 51.9269 248.144 52.1229 247.948C52.3189 247.752 52.5615 247.654 52.8509 247.654C53.1309 247.654 53.3689 247.752 53.5649 247.948C53.7609 248.144 53.8589 248.386 53.8589 248.676C53.8589 248.965 53.7609 249.208 53.5649 249.404C53.3689 249.6 53.1309 249.698 52.8509 249.698ZM53.6349 250.72V258.434H52.0389V250.72H53.6349ZM55.1983 254.542C55.1983 253.767 55.3569 253.081 55.6743 252.484C56.0009 251.886 56.4396 251.424 56.9903 251.098C57.5503 250.762 58.1709 250.594 58.8523 250.594C59.3563 250.594 59.8509 250.706 60.3363 250.93C60.8309 251.144 61.2229 251.434 61.5123 251.798V248.074H63.1223V258.434H61.5123V257.272C61.2509 257.645 60.8869 257.953 60.4203 258.196C59.9629 258.438 59.4356 258.56 58.8383 258.56C58.1663 258.56 57.5503 258.392 56.9903 258.056C56.4396 257.71 56.0009 257.234 55.6743 256.628C55.3569 256.012 55.1983 255.316 55.1983 254.542ZM61.5123 254.57C61.5123 254.038 61.4003 253.576 61.1763 253.184C60.9616 252.792 60.6769 252.493 60.3223 252.288C59.9676 252.082 59.5849 251.98 59.1743 251.98C58.7636 251.98 58.3809 252.082 58.0263 252.288C57.6716 252.484 57.3823 252.778 57.1583 253.17C56.9436 253.552 56.8363 254.01 56.8363 254.542C56.8363 255.074 56.9436 255.54 57.1583 255.942C57.3823 256.343 57.6716 256.651 58.0263 256.866C58.3903 257.071 58.7729 257.174 59.1743 257.174C59.5849 257.174 59.9676 257.071 60.3223 256.866C60.6769 256.66 60.9616 256.362 61.1763 255.97C61.4003 255.568 61.5123 255.102 61.5123 254.57ZM64.6865 254.542C64.6865 253.767 64.8452 253.081 65.1625 252.484C65.4892 251.886 65.9279 251.424 66.4785 251.098C67.0385 250.762 67.6545 250.594 68.3265 250.594C68.9332 250.594 69.4605 250.715 69.9085 250.958C70.3659 251.191 70.7299 251.485 71.0005 251.84V250.72H72.6105V258.434H71.0005V257.286C70.7299 257.65 70.3612 257.953 69.8945 258.196C69.4279 258.438 68.8959 258.56 68.2985 258.56C67.6359 258.56 67.0292 258.392 66.4785 258.056C65.9279 257.71 65.4892 257.234 65.1625 256.628C64.8452 256.012 64.6865 255.316 64.6865 254.542ZM71.0005 254.57C71.0005 254.038 70.8885 253.576 70.6645 253.184C70.4499 252.792 70.1652 252.493 69.8105 252.288C69.4559 252.082 69.0732 251.98 68.6625 251.98C68.2519 251.98 67.8692 252.082 67.5145 252.288C67.1599 252.484 66.8705 252.778 66.6465 253.17C66.4319 253.552 66.3245 254.01 66.3245 254.542C66.3245 255.074 66.4319 255.54 66.6465 255.942C66.8705 256.343 67.1599 256.651 67.5145 256.866C67.8785 257.071 68.2612 257.174 68.6625 257.174C69.0732 257.174 69.4559 257.071 69.8105 256.866C70.1652 256.66 70.4499 256.362 70.6645 255.97C70.8885 255.568 71.0005 255.102 71.0005 254.57ZM74.1748 254.542C74.1748 253.767 74.3335 253.081 74.6508 252.484C74.9775 251.886 75.4162 251.424 75.9668 251.098C76.5268 250.762 77.1475 250.594 77.8288 250.594C78.3328 250.594 78.8275 250.706 79.3128 250.93C79.8075 251.144 80.1995 251.434 80.4888 251.798V248.074H82.0988V258.434H80.4888V257.272C80.2275 257.645 79.8635 257.953 79.3968 258.196C78.9395 258.438 78.4122 258.56 77.8148 258.56C77.1428 258.56 76.5268 258.392 75.9668 258.056C75.4162 257.71 74.9775 257.234 74.6508 256.628C74.3335 256.012 74.1748 255.316 74.1748 254.542ZM80.4888 254.57C80.4888 254.038 80.3768 253.576 80.1528 253.184C79.9382 252.792 79.6535 252.493 79.2988 252.288C78.9442 252.082 78.5615 251.98 78.1508 251.98C77.7402 251.98 77.3575 252.082 77.0028 252.288C76.6482 252.484 76.3588 252.778 76.1348 253.17C75.9202 253.552 75.8128 254.01 75.8128 254.542C75.8128 255.074 75.9202 255.54 76.1348 255.942C76.3588 256.343 76.6482 256.651 77.0028 256.866C77.3668 257.071 77.7495 257.174 78.1508 257.174C78.5615 257.174 78.9442 257.071 79.2988 256.866C79.6535 256.66 79.9382 256.362 80.1528 255.97C80.3768 255.568 80.4888 255.102 80.4888 254.57ZM91.2651 254.388C91.2651 254.677 91.2464 254.938 91.2091 255.172H85.3151C85.3618 255.788 85.5904 256.282 86.0011 256.656C86.4118 257.029 86.9158 257.216 87.5131 257.216C88.3718 257.216 88.9784 256.856 89.3331 256.138H91.0551C90.8218 256.847 90.3971 257.43 89.7811 257.888C89.1744 258.336 88.4184 258.56 87.5131 258.56C86.7758 258.56 86.1131 258.396 85.5251 258.07C84.9464 257.734 84.4891 257.267 84.1531 256.67C83.8264 256.063 83.6631 255.363 83.6631 254.57C83.6631 253.776 83.8218 253.081 84.1391 252.484C84.4658 251.877 84.9184 251.41 85.4971 251.084C86.0851 250.757 86.7571 250.594 87.5131 250.594C88.2411 250.594 88.8898 250.752 89.4591 251.07C90.0284 251.387 90.4718 251.835 90.7891 252.414C91.1064 252.983 91.2651 253.641 91.2651 254.388ZM89.5991 253.884C89.5898 253.296 89.3798 252.824 88.9691 252.47C88.5584 252.115 88.0498 251.938 87.4431 251.938C86.8924 251.938 86.4211 252.115 86.0291 252.47C85.6371 252.815 85.4038 253.286 85.3291 253.884H89.5991Z"
    fill="#6D6D6D" />
  <path
    d="M260.891 253.548C260.891 252.596 261.11 251.742 261.549 250.986C261.997 250.23 262.599 249.642 263.355 249.222C264.12 248.792 264.956 248.578 265.861 248.578C266.897 248.578 267.816 248.834 268.619 249.348C269.431 249.852 270.019 250.57 270.383 251.504H268.465C268.213 250.99 267.863 250.608 267.415 250.356C266.967 250.104 266.449 249.978 265.861 249.978C265.217 249.978 264.643 250.122 264.139 250.412C263.635 250.701 263.238 251.116 262.949 251.658C262.669 252.199 262.529 252.829 262.529 253.548C262.529 254.266 262.669 254.896 262.949 255.438C263.238 255.979 263.635 256.399 264.139 256.698C264.643 256.987 265.217 257.132 265.861 257.132C266.449 257.132 266.967 257.006 267.415 256.754C267.863 256.502 268.213 256.119 268.465 255.606H270.383C270.019 256.539 269.431 257.258 268.619 257.762C267.816 258.266 266.897 258.518 265.861 258.518C264.946 258.518 264.111 258.308 263.355 257.888C262.599 257.458 261.997 256.866 261.549 256.11C261.11 255.354 260.891 254.5 260.891 253.548ZM280.637 248.704L276.983 258.434H275.135L271.467 248.704H273.175L276.059 256.796L278.957 248.704H280.637ZM290.358 248.704L286.704 258.434H284.856L281.188 248.704H282.896L285.78 256.796L288.678 248.704H290.358Z"
    fill="#6D6D6D" />
  <rect x="31.6855" y="116.367" width="440.053" height="1.33755" fill="#395AB1" />
  <rect x="31.6855" y="195.281" width="440.053" height="1.33755" fill="#395AB1" />
  <rect x="31.6855" y="274.197" width="195.624" height="1.33755" fill="#395AB1" />
  <rect x="254.134" y="274.197" width="218.02" height="1.33755" fill="#395AB1" />
</svg>