<svg width="496" height="326" viewBox="0 0 496 326" fill="none" xmlns="http://www.w3.org/2000/svg">
  <g clip-path="url(#clip0_56_498)">
    <path
      d="M158.899 163.828C159.9 163.828 160.853 164.259 161.508 165.011C162.169 165.759 162.46 166.757 162.318 167.735L158.499 193.438L186.013 168.447C186.691 167.832 187.528 167.496 188.513 167.551C189.095 167.577 248.424 169.849 258.733 129.091C264.653 105.694 262.372 87.3043 251.966 74.428C239.905 59.5154 217.05 52.3287 183.811 53.0672C113.541 54.6293 113.541 92.8078 113.541 115.616C113.541 128.607 119.156 141.899 128.553 151.178C134.406 156.952 144.402 163.828 158.829 163.828H158.899ZM153.671 205.87C153.118 205.87 152.566 205.736 152.057 205.472C150.764 204.795 150.047 203.393 150.255 201.962L154.927 170.506C143.162 169.61 132.425 164.643 123.676 156.007C113.009 145.478 106.64 130.379 106.64 115.616C106.64 91.9717 106.64 47.959 183.656 46.2464C219.077 45.4557 243.883 53.5052 257.357 70.1694C269.013 84.5887 271.808 105.535 265.429 130.745C260.559 149.998 245.537 163.649 221.977 170.228C207.437 174.286 194.029 174.489 189.654 174.408L156.005 204.969C155.354 205.564 154.517 205.87 153.671 205.87Z"
      fill="#FA8B8B" />
    <path
      d="M211.957 79.3955C212.873 79.6995 213.74 79.8465 214.606 79.8465C215.062 79.8465 215.522 79.8041 215.975 79.7191C217.188 79.4869 218.319 78.9477 219.248 78.1601C220.627 76.9966 221.689 75.3298 222.486 73.0684C223.13 71.2284 223.431 69.2447 223.696 67.4928C223.931 65.9307 224.152 64.3978 224.231 62.8357C224.271 62.0089 224.066 61.329 223.616 60.7638C223.14 60.1721 222.429 59.7833 221.669 59.7014C220.908 59.6034 220.055 59.8747 219.424 60.3976C218.835 60.8912 218.491 61.5513 218.455 62.2638C218.405 63.1691 218.293 64.0973 218.18 64.9959L218.154 65.1954C218.012 66.3261 217.84 67.4504 217.648 68.5647C217.463 69.542 217.274 70.3295 217.059 71.0257C216.917 71.4244 216.758 71.8166 216.597 72.1762C216.431 72.5029 216.256 72.8199 216.084 73.0944L215.766 73.516L215.416 73.856L215.148 74.003L214.728 74.1109L214.49 74.1175L214.338 74.1043L213.994 74.0258L213.663 73.9018L213.369 73.7415L213.128 73.565L212.807 73.2547L212.235 72.5488L211.716 71.7056C211.445 71.1695 211.197 70.5943 210.949 69.9538C210.674 69.1956 210.32 68.1988 210.072 67.1725C209.986 66.7935 209.924 66.4077 209.881 66.1006C209.904 65.2934 209.583 64.5123 209.011 63.96C208.171 63.1526 206.878 62.9306 205.81 63.3946C204.99 63.7573 204.372 64.486 204.167 65.339C203.978 66.1136 204.117 66.9112 204.229 67.5517C204.54 69.2937 205.135 70.9668 205.615 72.2316C207.07 76.0294 209.262 78.5099 211.957 79.3955Z"
      fill="#395AB1" />
    <path
      d="M234.952 152.798C229.863 152.912 225.048 152.818 220.445 152.56C220.436 152.049 220.412 151.527 220.436 151.05C220.538 148.886 220.71 147.151 220.981 145.601C221.067 145.17 221.163 144.742 221.279 144.36L221.312 144.268C221.963 144.137 222.618 144.03 223.269 143.919C224.109 143.781 224.953 143.644 225.782 143.458C227.482 143.072 229.899 142.31 231.268 140.164C232.336 138.49 232.429 136.555 232.373 134.885C232.336 133.728 232.267 132.581 232.194 131.428L232.118 130.107C232.049 128.902 231.996 127.692 231.943 126.486C231.84 124.192 231.738 121.819 231.523 119.485C231.453 118.695 231.354 117.763 231.196 116.845C231.01 115.787 230.802 114.587 230.2 113.577C229.701 112.741 229.006 112.142 228.14 111.799C227.803 111.664 227.459 111.568 227.115 111.486C226.407 111.299 225.706 111.109 225.015 110.893C223.689 110.455 222.42 109.959 221.252 109.414C220.237 108.916 219.315 108.407 218.438 107.86C217.661 107.348 216.907 106.791 216.22 106.226C215.677 105.753 215.151 105.25 214.659 104.743C215.294 104.851 215.929 104.958 216.567 105.063C219.09 105.475 221.203 105.753 223.21 105.936C224.185 106.031 225.227 106.119 226.259 106.135C226.745 106.146 227.237 106.138 227.727 106.1C228.064 106.07 228.385 106.037 228.716 105.972C229.212 105.874 229.694 105.698 230.237 105.413C231.166 104.929 231.85 103.894 232.029 102.72C232.082 102.371 232.095 101.988 232.068 101.514C232.035 100.925 231.989 100.334 231.94 99.7495L231.89 99.1086C231.761 97.3511 231.642 95.5892 231.533 93.8298L231.477 92.9834C231.407 91.8831 231.334 90.7458 231.328 89.6247C231.642 89.6999 231.956 89.7715 232.273 89.8431C233.837 90.2134 235.461 90.5911 237.101 90.788C237.997 90.8963 238.95 90.9448 239.829 90.687C241.301 90.249 242.316 89.0616 242.418 87.6637C242.478 86.8328 242.293 86.0293 242.111 85.2548L241.969 84.5979L241.823 83.8888C241.532 82.4279 241.238 80.9702 240.973 79.503C240.709 78.0551 240.487 76.6008 240.262 75.1463L239.528 70.388C239.148 67.8976 238.768 65.4041 238.371 62.9137C237.154 55.3152 235.382 47.7133 233.666 40.3599L233.58 39.994C233.341 38.9449 233.163 38.0527 233.051 37.144L260.261 12.4303L256.444 38.1311C256.301 39.1116 256.593 40.1084 257.253 40.8568C257.91 41.6085 258.862 42.0365 259.864 42.0365H259.934C274.357 42.0365 284.357 48.9161 290.207 54.6909C299.606 63.9628 305.219 77.2609 305.219 90.2517C305.219 113.06 305.219 151.239 234.952 152.798ZM166.798 131.441C156.389 118.567 154.11 100.173 160.026 76.7773C169.023 41.1999 215.34 38.4088 227.376 38.2912C227.535 39.5135 227.783 40.7227 228.067 41.8992L228.405 43.2981C228.762 44.8146 229.122 46.3277 229.466 47.8442L229.493 47.9454C230.151 50.864 230.915 54.3019 231.569 57.7173C232.207 61.0509 232.733 64.4236 233.176 67.3289L233.487 69.3715C233.947 72.4011 234.406 75.4307 234.906 78.4539C235.193 80.2187 235.531 81.9769 235.878 83.7385L236.093 84.7974C235.259 84.6307 234.429 84.441 233.599 84.2581L231.966 83.8856C231.384 83.7547 230.799 83.6209 230.22 83.5456C229.321 83.428 228.487 83.5848 227.651 84.0229C226.817 84.4606 226.136 85.3955 225.829 86.5262C225.544 87.5527 225.515 88.5981 225.521 89.5685C225.524 90.3958 225.568 91.2194 225.614 92.0424L225.624 92.2059C225.723 94.0011 225.839 95.7907 225.961 97.582C226.02 98.422 226.083 99.2593 226.146 100.102L226.173 100.393L225.812 100.383C222.195 100.177 218.623 99.6155 215.304 99.0399L212.205 98.487C211.517 98.3531 210.813 98.21 210.083 98.2649C208.978 98.3316 208.132 98.6875 207.497 99.3537C206.769 100.121 206.435 101.243 206.604 102.354C206.756 103.334 207.169 104.364 207.834 105.406C208.852 107.001 210.148 108.515 211.689 109.913C213.157 111.249 214.718 112.393 216.325 113.315C218.025 114.285 219.771 115.106 221.504 115.753C222.34 116.067 223.243 116.367 224.192 116.646C224.486 116.73 224.787 116.805 225.091 116.885L225.303 116.94L225.309 116.975C225.557 118.159 225.687 119.359 225.782 120.368C225.955 122.411 226.044 124.502 226.133 126.526L226.216 128.332C226.265 129.476 226.338 130.626 226.404 131.77L226.48 132.987C226.54 134.022 226.606 135.098 226.576 136.114L226.53 136.568L226.47 136.85L226.341 137.147L225.988 137.382L225.597 137.552C225.191 137.686 224.78 137.797 224.374 137.895C223.696 138.036 223.012 138.147 222.33 138.258C221.593 138.379 220.862 138.499 220.131 138.656C219.344 138.823 218.336 139.104 217.519 139.808C216.673 140.539 216.084 141.51 215.674 142.863C215.128 144.65 214.96 146.556 214.814 148.232C214.689 149.634 214.622 150.798 214.603 151.892L214.613 152.118C192.26 149.988 176.209 143.079 166.798 131.441ZM295.088 49.8607C286.333 41.2262 275.6 36.2584 263.835 35.3631L268.505 3.90687C268.713 2.47541 267.991 1.07009 266.702 0.393582C265.41 -0.276392 263.832 -0.0803259 262.754 0.900125L229.109 31.4609C224.748 31.3856 211.329 31.5785 196.78 35.6376C173.223 42.2164 158.197 55.8707 153.33 75.1235C146.955 100.334 149.749 121.28 161.405 135.702C174.278 151.618 197.477 159.675 230.419 159.675C231.959 159.675 233.527 159.658 235.107 159.622C312.123 157.909 312.123 113.897 312.123 90.2517C312.123 75.4895 305.754 60.3908 295.088 49.8607Z"
      fill="#395AB1" />
    <path
      d="M53.2579 237.997C53.2579 243.645 51.2523 248.351 47.241 252.117C43.2966 255.817 37.2461 257.667 29.0899 257.667H15.652V286.004H6.52631V218.133H29.0899C36.9788 218.133 42.9622 219.983 47.0404 223.683C51.1853 227.383 53.2579 232.155 53.2579 237.997ZM29.0899 250.364C34.1709 250.364 37.9147 249.293 40.3215 247.151C42.7283 245.008 43.9317 241.957 43.9317 237.997C43.9317 229.623 38.9845 225.436 29.0899 225.436H15.652V250.364H29.0899ZM84.0549 286.88C79.8431 286.88 76.0657 286.199 72.723 284.835C69.3801 283.406 66.7394 281.459 64.8007 278.993C62.8617 276.461 61.7922 273.571 61.5917 270.326H71.0182C71.2855 272.987 72.5558 275.164 74.8289 276.851C77.1688 278.538 80.2106 279.382 83.9547 279.382C87.4309 279.382 90.1722 278.635 92.1778 277.143C94.1835 275.65 95.1863 273.766 95.1863 271.495C95.1863 269.158 94.1165 267.437 91.9772 266.334C89.8377 265.165 86.5284 264.029 82.0493 262.926C77.9711 261.886 74.6284 260.849 72.021 259.81C69.4804 258.707 67.2742 257.115 65.4024 255.038C63.5973 252.896 62.6948 250.104 62.6948 246.664C62.6948 243.937 63.5304 241.438 65.2018 239.166C66.873 236.894 69.2465 235.108 72.3219 233.81C75.397 232.447 78.9069 231.765 82.8515 231.765C88.9352 231.765 93.849 233.258 97.5931 236.245C101.337 239.231 103.343 243.321 103.61 248.514H94.4843C94.2837 245.722 93.1137 243.483 90.9744 241.795C88.9018 240.107 86.0939 239.263 82.5507 239.263C79.2747 239.263 76.6674 239.945 74.7287 241.308C72.7897 242.671 71.8205 244.457 71.8205 246.664C71.8205 248.417 72.3886 249.877 73.5253 251.046C74.7287 252.149 76.1993 253.059 77.9377 253.772C79.7428 254.422 82.2163 255.167 85.3586 256.012C89.303 257.052 92.512 258.089 94.9857 259.128C97.4592 260.102 99.5651 261.594 101.304 263.607C103.109 265.621 104.044 268.25 104.111 271.495C104.111 274.416 103.276 277.045 101.604 279.382C99.9329 281.719 97.5595 283.57 94.4843 284.933C91.4758 286.23 87.9993 286.88 84.0549 286.88ZM121.707 223.975C119.969 223.975 118.498 223.391 117.295 222.222C116.091 221.054 115.489 219.626 115.489 217.938C115.489 216.25 116.091 214.822 117.295 213.653C118.498 212.485 119.969 211.9 121.707 211.9C123.378 211.9 124.782 212.485 125.919 213.653C127.122 214.822 127.724 216.25 127.724 217.938C127.724 219.626 127.122 221.054 125.919 222.222C124.782 223.391 123.378 223.975 121.707 223.975ZM126.119 232.642V286.004H116.994V232.642H126.119ZM138.263 252.02C138.263 245.398 139.801 239.458 142.876 234.2C145.951 228.876 150.13 224.722 155.411 221.735C160.76 218.749 166.676 217.256 173.161 217.256C180.783 217.256 187.435 219.041 193.118 222.612C198.8 226.182 202.945 231.246 205.553 237.803H194.622C192.683 233.713 189.875 230.564 186.198 228.357C182.588 226.15 178.242 225.046 173.161 225.046C168.281 225.046 163.902 226.15 160.024 228.357C156.147 230.564 153.105 233.713 150.899 237.803C148.693 241.827 147.589 246.566 147.589 252.02C147.589 257.407 148.693 262.147 150.899 266.237C153.105 270.261 156.147 273.377 160.024 275.585C163.902 277.793 168.281 278.896 173.161 278.896C178.242 278.896 182.588 277.824 186.198 275.682C189.875 273.474 192.683 270.326 194.622 266.237H205.553C202.945 272.729 198.8 277.759 193.118 281.33C187.435 284.835 180.783 286.588 173.161 286.588C166.676 286.588 160.76 285.128 155.411 282.206C150.13 279.219 145.951 275.098 142.876 269.839C139.801 264.581 138.263 258.641 138.263 252.02ZM243.104 286.88C237.957 286.88 233.277 285.744 229.065 283.472C224.92 281.201 221.644 277.987 219.237 273.832C216.897 269.613 215.727 264.744 215.727 259.225C215.727 253.772 216.931 248.969 219.337 244.814C221.811 240.594 225.154 237.381 229.366 235.173C233.578 232.901 238.291 231.765 243.506 231.765C248.72 231.765 253.434 232.901 257.646 235.173C261.858 237.381 265.167 240.562 267.574 244.716C270.046 248.872 271.285 253.707 271.285 259.225C271.285 264.744 270.013 269.613 267.474 273.832C264.999 277.987 261.622 281.201 257.345 283.472C253.066 285.744 248.319 286.88 243.104 286.88ZM243.104 279.09C246.38 279.09 249.456 278.343 252.331 276.851C255.204 275.358 257.511 273.119 259.251 270.132C261.056 267.145 261.958 263.51 261.958 259.225C261.958 254.941 261.088 251.306 259.351 248.319C257.611 245.332 255.34 243.126 252.532 241.698C249.724 240.205 246.681 239.458 243.405 239.458C240.063 239.458 236.987 240.205 234.179 241.698C231.438 243.126 229.232 245.332 227.561 248.319C225.889 251.306 225.054 254.941 225.054 259.225C225.054 263.576 225.856 267.242 227.46 270.229C229.132 273.216 231.338 275.456 234.079 276.948C236.82 278.377 239.828 279.09 243.104 279.09ZM310.059 231.668C316.743 231.668 322.158 233.648 326.305 237.608C330.449 241.503 332.522 247.151 332.522 254.551V286.004H323.497V255.817C323.497 250.493 322.125 246.437 319.385 243.645C316.642 240.789 312.899 239.361 308.153 239.361C303.34 239.361 299.494 240.821 296.621 243.743C293.813 246.664 292.409 250.917 292.409 256.499V286.004H283.283V232.642H292.409V240.237C294.214 237.51 296.654 235.401 299.73 233.908C302.871 232.414 306.313 231.668 310.059 231.668ZM397.57 257.278C397.57 258.965 397.47 260.752 397.269 262.634H353.346C353.679 267.892 355.517 272.013 358.861 275C362.271 277.922 366.382 279.382 371.196 279.382C375.14 279.382 378.416 278.506 381.024 276.753C383.696 274.935 385.569 272.534 386.639 269.547H396.467C394.996 274.677 392.055 278.864 387.642 282.109C383.23 285.291 377.747 286.88 371.196 286.88C365.981 286.88 361.301 285.744 357.156 283.472C353.077 281.201 349.868 277.987 347.529 273.832C345.188 269.613 344.019 264.744 344.019 259.225C344.019 253.707 345.155 248.872 347.429 244.716C349.7 240.562 352.877 237.381 356.956 235.173C361.1 232.901 365.846 231.765 371.196 231.765C376.411 231.765 381.024 232.869 385.035 235.076C389.046 237.283 392.12 240.334 394.261 244.229C396.467 248.059 397.57 252.409 397.57 257.278ZM388.144 255.428C388.144 252.051 387.374 249.164 385.837 246.761C384.298 244.294 382.192 242.444 379.519 241.211C376.912 239.912 374.004 239.263 370.795 239.263C366.182 239.263 362.236 240.691 358.962 243.548C355.752 246.403 353.912 250.364 353.446 255.428H388.144ZM406.205 259.225C406.205 253.707 407.343 248.904 409.614 244.814C411.888 240.659 415.029 237.445 419.041 235.173C423.12 232.901 427.765 231.765 432.98 231.765C439.734 231.765 445.282 233.356 449.627 236.537C454.039 239.718 456.947 244.132 458.351 249.78H448.524C447.589 246.535 445.751 243.97 443.008 242.087C440.336 240.205 436.991 239.263 432.98 239.263C427.765 239.263 423.553 241.016 420.344 244.522C417.135 247.961 415.531 252.864 415.531 259.225C415.531 265.652 417.135 270.619 420.344 274.124C423.553 277.63 427.765 279.382 432.98 279.382C436.991 279.382 440.336 278.474 443.008 276.656C445.683 274.837 447.521 272.242 448.524 268.866H458.351C456.882 274.319 453.939 278.701 449.527 282.012C445.114 285.257 439.599 286.88 432.98 286.88C427.765 286.88 423.12 285.744 419.041 283.472C415.029 281.201 411.888 277.987 409.614 273.832C407.343 269.676 406.205 264.808 406.205 259.225ZM481.66 239.945V271.398C481.66 273.995 482.229 275.845 483.364 276.948C484.5 277.987 486.473 278.506 489.281 278.506H496V286.004H487.777C482.695 286.004 478.884 284.867 476.345 282.596C473.805 280.325 472.534 276.59 472.534 271.398V239.945H465.414V232.642H472.534V219.204H481.66V232.642H496V239.945H481.66Z"
      fill="#395AB1" />
  </g>
  <defs>
    <clipPath id="clip0_56_498">
      <rect width="496" height="326" fill="white" />
    </clipPath>
  </defs>
</svg>