<svg width="109" height="109" viewBox="0 0 109 109" fill="none" xmlns="http://www.w3.org/2000/svg">
  <g clip-path="url(#clip0_39_180)">
    <path
      d="M0 0V109H109V0H0ZM16.9382 45.0401H44.6673C47.5039 45.06 50.4857 46.151 52.7704 48.2534C54.8736 50.3298 56.1089 53.3078 56.1701 56.4962C56.1595 58.9447 55.6931 61.7661 54.0676 64.0141C52.9319 65.5432 51.1533 66.6993 49.1912 67.3605V67.6199C51.2574 68.1366 53.2945 69.2406 54.7463 71.066C56.4732 73.2991 57.0638 76.3114 57.1146 79.2756C57.0939 82.4204 56.0053 85.7883 53.5687 88.2835C51.4028 90.4113 48.2932 91.6293 45.0197 91.6963H16.9377V45.0404L16.9382 45.0401ZM65.5304 45.1333H86.154V52.784H65.5304V45.1333ZM75.4032 55.0725C78.2807 55.0726 80.8335 55.4463 83.0605 56.1969C85.3073 56.9254 87.1982 58.0646 88.7355 59.6097C90.2726 61.1331 91.433 63.0755 92.2215 65.4376C93.2612 68.5298 93.4584 72.4883 93.4389 76.1022H69.4617C69.4617 78.5747 69.9532 80.4948 70.9387 81.8635C71.9437 83.2102 73.5888 83.8793 75.875 83.8793C78.0471 83.8691 80.5913 83.1726 81.4302 80.7324C81.647 80.0922 81.7561 79.4119 81.7562 78.6834H93.4385C93.4143 82.3957 92.219 86.0828 89.0877 88.8157C85.6284 91.6295 80.7934 92.4322 76.1412 92.5213C73.2636 92.5213 70.663 92.1588 68.3375 91.4302C66.0316 90.6796 64.0724 89.5294 62.4563 87.9841C60.8402 86.4387 59.5978 84.4963 58.7307 82.1562C57.8635 79.794 57.4267 77.0033 57.4267 73.7803C57.4267 70.6455 57.8499 67.9109 58.6974 65.5707C59.5449 63.2306 60.7463 61.2882 62.3032 59.7428C63.8799 58.1755 65.7707 57.0028 67.978 56.2302C70.2052 55.4575 72.6827 55.0726 75.4027 55.0726L75.4032 55.0725ZM30.3035 55.2721V63.2156H39.4979C40.3266 63.2093 41.1153 62.8297 41.7133 62.1578C42.2941 61.4507 42.5788 60.5191 42.5981 59.5432V58.878C42.5921 57.9974 42.2537 57.0878 41.6801 56.3299C41.1588 55.7142 40.3768 55.3166 39.498 55.2721H30.3035ZM75.8752 63.6813C73.8451 63.6813 72.3298 64.2228 71.3247 65.3044C70.3392 66.3862 69.7386 67.8542 69.5217 69.7087H81.2838C81.2838 67.8322 80.8128 66.3641 79.8668 65.3044C78.9209 64.2228 77.5897 63.6813 75.8752 63.6813ZM30.3035 72.8555V80.8322H40.4691C41.2885 80.8259 42.073 80.4497 42.6845 79.8077C43.2625 79.1038 43.5613 78.1677 43.5759 77.1931V76.4946C43.5707 75.6061 43.2826 74.6794 42.6845 73.9134C42.1595 73.2941 41.3466 72.9057 40.4691 72.8555H30.3035Z"
      fill="#3E5F1B" />
  </g>
  <defs>
    <clipPath id="clip0_39_180">
      <rect width="109" height="109" fill="white" />
    </clipPath>
  </defs>
</svg>