<svg width="402" height="74" viewBox="0 0 402 74" fill="none" xmlns="http://www.w3.org/2000/svg">
  <path fill-rule="evenodd" clip-rule="evenodd"
    d="M6.18285 14.0972L9.36983 10.8315L32.9461 34.5921C33.5136 35.1726 33.8328 35.9512 33.8361 36.7629C33.8395 37.5747 33.5267 38.3559 32.9641 38.941L9.58477 62.8955L6.37093 59.6532L28.6889 36.7842L6.18285 14.0972Z"
    fill="black" />
  <path
    d="M114.671 44.477L114.66 44.4929L114.678 44.5004L121.821 47.4529L131.11 56.7456C131.704 57.3403 132.176 58.0463 132.497 58.8233C132.819 59.6003 132.984 60.433 132.984 61.274C132.984 62.115 132.819 62.9477 132.497 63.7247C132.175 64.5016 131.704 65.2076 131.109 65.8022C130.515 66.3969 129.809 66.8685 129.033 67.1903C128.256 67.5121 127.424 67.6778 126.583 67.6777C125.742 67.6777 124.91 67.512 124.133 67.1902C123.357 66.8683 122.651 66.3966 122.057 65.8019L112.768 56.5088L109.825 49.3815L109.817 49.3633L109.801 49.3747C106.403 51.7917 102.336 53.0881 98.1666 53.0833C87.0553 53.0833 78.0156 44.0396 78.0156 32.9235C78.0156 21.8073 87.0553 12.7637 98.1666 12.7637C109.278 12.7637 118.318 21.8073 118.318 32.9235C118.322 37.0588 117.048 41.0943 114.671 44.477ZM128.539 63.2302L128.539 63.2302C129.057 62.7109 129.348 62.0073 129.348 61.2738C129.348 60.5403 129.057 59.8367 128.539 59.3174L128.528 59.3284L128.539 59.3174L119.765 50.5397L119.766 50.5388L119.76 50.5363L113.133 47.7972L113.098 47.7829L113.112 47.8176L115.85 54.4474L115.849 54.4479L115.854 54.4525L124.628 63.2302L124.639 63.2192L124.628 63.2302C125.147 63.7483 125.85 64.0392 126.583 64.0392C127.316 64.0392 128.02 63.7483 128.539 63.2302ZM98.1666 16.4007C89.0601 16.4007 81.651 23.813 81.651 32.9235C81.651 42.034 89.0601 49.4463 98.1666 49.4463C107.273 49.4463 114.682 42.034 114.682 32.9235C114.682 23.813 107.273 16.4007 98.1666 16.4007Z"
    fill="black" stroke="black" stroke-width="0.03125" />
  <path
    d="M181.119 20.7436L180.501 21.3362L180.5 21.3354L179.881 20.7415C180.086 20.5375 180.292 20.3397 180.499 20.1479C180.707 20.3403 180.914 20.5389 181.119 20.7436ZM178.823 21.1123L179.778 22.0283L179.178 22.6031C174.078 17.5514 168.671 17.0661 164.575 18.9312L164.575 18.9313C160.431 20.8196 157.389 25.211 157.206 30.4584H154.507C154.691 24.2006 158.315 18.8329 163.452 16.4921C168.299 14.2849 174.294 14.852 179.748 19.4811C179.433 19.7755 179.12 20.083 178.809 20.4039L178.46 20.7648L178.823 21.1123ZM180.5 22.7215L181.052 23.2509C181.044 23.2545 181.036 23.258 181.028 23.2614C180.861 23.3321 180.682 23.3686 180.5 23.3686C180.318 23.3686 180.139 23.3321 179.972 23.2614C179.964 23.258 179.956 23.2546 179.948 23.2511L180.5 22.7215ZM154.505 31.4584H157.204C157.337 36.7696 159.585 40.892 162.718 44.41L162.718 44.4103C165.373 47.3866 168.592 49.8577 171.688 52.2348C172.281 52.6907 172.871 53.1431 173.451 53.595L171.781 55.7035C171.246 55.2871 170.693 54.8628 170.128 54.4291C167.02 52.0447 163.543 49.3774 160.701 46.1903L160.701 46.1901C157.258 42.3324 154.641 37.6033 154.505 31.4584ZM172.569 56.3197L174.238 54.2116C175.379 55.1035 176.438 55.9035 177.473 56.5041C178.412 57.0523 179.242 57.3808 180 57.4829V60.1804C178.612 60.0703 177.305 59.5165 176.11 58.8197C174.91 58.1201 173.717 57.2165 172.569 56.3197ZM186.762 54.2116L188.431 56.3197C187.283 57.2166 186.093 58.1199 184.891 58.8194C183.695 59.5144 182.388 60.0698 181 60.1803V57.4826C181.758 57.3799 182.587 57.0499 183.527 56.5044C184.561 55.9038 185.621 55.1037 186.762 54.2116ZM190.901 54.4062C190.326 54.8476 189.763 55.2795 189.219 55.7034L187.549 53.595C188.129 53.1431 188.719 52.6907 189.312 52.2348C192.408 49.8577 195.627 47.3866 198.282 44.4103L198.282 44.41C201.415 40.892 203.663 36.7696 203.796 31.4584H206.495C206.359 37.6032 203.742 42.33 200.299 46.1902L200.299 46.1904C197.465 49.3697 194.002 52.0271 190.901 54.4062ZM203.794 30.4584C203.611 25.2088 200.569 20.8196 196.425 18.9313L196.425 18.9312C192.329 17.0661 186.922 17.5538 181.822 22.6032L181.223 22.029L182.177 21.1149L182.539 20.7677L182.191 20.4066C181.88 20.0848 181.567 19.7765 181.251 19.4814C186.709 14.8521 192.7 14.2846 197.549 16.4922C202.687 18.8329 206.309 24.2005 206.493 30.4584H203.794Z"
    fill="#040404" stroke="black" />
  <path
    d="M289.148 33.6752H252.855C252.121 33.676 251.396 33.8427 250.735 34.1627C250.074 34.4827 249.494 34.9478 249.039 35.5233C248.585 36.0971 248.268 36.7666 248.111 37.481C247.955 38.1955 247.963 38.9361 248.136 39.6468L252.027 55.5643C252.591 57.6151 253.814 59.4238 255.508 60.7112C257.204 62.0004 259.28 62.6984 261.416 62.6984H280.582C282.718 62.6984 284.794 62.0004 286.49 60.7112C288.185 59.4238 289.408 57.6151 289.971 55.5643L293.863 39.6492C294.125 38.5763 294.01 37.446 293.537 36.4476C293.065 35.4491 292.263 34.6432 291.267 34.1645C290.604 33.8466 289.879 33.6795 289.143 33.6752M261.272 43.3479V53.0232M271.002 43.3479V53.0232M280.731 43.3479V53.0232M288.029 33.6752C288.028 31.4496 287.587 29.2462 286.731 27.1914C285.875 25.1367 284.621 23.2713 283.041 21.7022C279.842 18.5239 275.513 16.7412 271.002 16.7441C266.49 16.7412 262.161 18.5239 258.962 21.7022C257.383 23.2715 256.129 25.137 255.274 27.1917C254.418 29.2464 253.977 31.4498 253.977 33.6752"
    stroke="black" stroke-width="1.5" stroke-linecap="round" stroke-linejoin="round" />
  <path
    d="M374.083 37.4681V54.2181M362.917 37.4681V54.2181M351.75 26.3014V59.8014C351.75 61.2822 352.338 62.7024 353.385 63.7494C354.432 64.7965 355.853 65.3848 357.333 65.3848H379.667C381.147 65.3848 382.568 64.7965 383.615 63.7494C384.662 62.7024 385.25 61.2822 385.25 59.8014V26.3014M346.167 26.3014H390.833M354.542 26.3014L360.125 15.1348H376.875L382.458 26.3014"
    stroke="black" stroke-width="1.5" stroke-linecap="round" stroke-linejoin="round" />
</svg>