<svg width="109" height="109" viewBox="0 0 109 109" fill="none" xmlns="http://www.w3.org/2000/svg">
  <g clip-path="url(#clip0_39_182)">
    <path
      d="M0 0V109H109V0H0ZM26.7311 21.4288C31.0484 21.4774 35.3012 24.4558 35.4862 29.6118C35.5785 34.1966 31.583 37.6887 26.618 37.7948H26.4983C22.2239 37.7454 18.0497 34.6922 17.8562 29.6118C17.9171 25.078 21.7282 21.5363 26.7311 21.4288ZM73.0481 43.0904C77.7946 43.1199 82.2742 44.528 85.9546 48.2797C89.7792 52.5453 91.0071 58.4267 91.1438 64.4061V91.6029H75.4697V66.2556C75.4348 61.5048 73.8074 55.7301 67.5196 55.5379C63.8344 55.5771 61.2357 57.7185 59.4563 61.2992C58.9705 62.4517 58.9006 63.7765 58.8775 65.098V91.6029H43.2101C43.2701 78.3524 43.3525 65.1029 43.3232 51.8522C43.3232 48.0883 43.287 45.5538 43.2101 44.248H58.8775V50.9274C60.2074 49.036 61.6824 47.2422 63.6608 45.7981C66.3445 43.8829 69.5683 43.1487 73.0481 43.0904ZM18.781 44.248H34.4484V91.6029H18.781V44.248Z"
      fill="#3E5F1B" />
  </g>
  <defs>
    <clipPath id="clip0_39_182">
      <rect width="109" height="109" fill="white" />
    </clipPath>
  </defs>
</svg>