<svg width="517" height="264" viewBox="0 0 517 264" fill="none" xmlns="http://www.w3.org/2000/svg">
  <mask id="mask0_31_387" style="mask-type:luminance" maskUnits="userSpaceOnUse" x="0" y="0" width="517" height="264">
    <path d="M517 0H0V263.936H517V0Z" fill="white" />
  </mask>
  <g mask="url(#mask0_31_387)">
    <path
      d="M80.0285 210.773C65.3488 220.691 46.6793 224.57 29.2384 221.326C19.41 219.498 9.99851 215.484 1.89005 209.662"
      stroke="#040404" stroke-width="4" />
    <path
      d="M2.527 212.098C8.67229 198.428 18.7589 186.539 31.2708 178.218C41.9436 171.12 54.294 166.628 66.9912 164.749C67.7788 164.631 68.5685 164.525 69.3632 164.47C72.5356 164.246 75.8765 164.906 78.3661 166.875C79.6109 167.86 80.616 169.16 81.1735 170.642C81.7311 172.123 81.8273 173.787 81.3629 175.301C81.0041 176.469 80.3173 177.533 79.4095 178.355C77.9824 179.647 76.0637 180.304 74.145 180.501C72.2267 180.699 70.2907 180.461 68.3862 180.162C56.8941 178.34 45.8789 173.998 35.8751 168.082C29.3327 164.212 23.1623 159.636 18.0149 154.058C10.2589 145.652 4.97293 135.019 2.94529 123.787C1.20635 114.155 1.85138 104.104 4.80767 94.7695"
      stroke="#040404" stroke-width="4" />
    <path
      d="M3.36879 96.0788C18.7909 92.6038 34.6891 91.2281 50.4824 92.0024C59.4434 92.4417 68.4334 93.5842 76.9479 96.3974C85.4628 99.2107 93.5168 103.767 99.5978 110.331C103.67 114.726 106.803 119.969 108.807 125.605C111.42 132.953 112.1 140.974 110.761 148.654"
      stroke="#040404" stroke-width="4" />
    <path
      d="M103.532 98.3953C107.516 88.8667 114.387 80.556 123.016 74.831C131.677 69.0838 142.076 65.9661 152.486 65.9943"
      stroke="#040404" stroke-width="4" />
    <path
      d="M150.635 64.7246C160.738 91.0739 160.522 121.192 150.042 147.395C148.497 151.26 146.682 155.123 143.759 158.095C142.297 159.58 140.565 160.823 138.626 161.6C136.688 162.376 134.539 162.677 132.48 162.319C130.489 161.972 128.573 160.974 127.35 159.373C126.235 157.914 125.753 156.02 125.904 154.192C126.055 152.366 126.815 150.613 127.942 149.162C129.552 147.091 131.879 145.64 134.37 144.793C136.861 143.948 139.517 143.673 142.149 143.665C149.286 143.645 156.337 145.514 162.869 148.377C175.168 153.767 185.854 162.744 193.257 173.905"
      stroke="#040404" stroke-width="4" />
    <path
      d="M140.144 192.825C151.653 196.723 164.785 195.587 175.445 189.771C182.923 185.691 189.161 179.396 193.155 171.898"
      stroke="#040404" stroke-width="4" />
    <path
      d="M297.773 195.972C287.504 195.972 278.662 193.86 271.245 189.637C263.829 185.263 258.124 179.306 254.131 171.765C250.138 164.073 248.141 155.401 248.141 145.748C248.141 136.397 250.351 127.952 254.773 120.41C259.337 112.719 265.398 106.61 272.957 102.086C280.516 97.5612 288.93 95.2989 298.201 95.2989C310.181 95.2989 320.093 98.994 327.937 106.384C335.924 113.624 341.272 123.879 343.982 137.152L271.031 163.847L265.897 150.725L324.514 128.102L320.022 131.27C318.31 126.443 315.6 122.296 311.892 118.827C308.184 115.207 303.121 113.397 296.703 113.397C288.716 113.397 282.156 116.338 277.022 122.22C272.03 127.952 269.534 135.342 269.534 144.391C269.534 154.043 272.244 161.811 277.663 167.693C283.083 173.575 289.929 176.516 298.201 176.516C302.051 176.516 305.76 175.837 309.325 174.48C312.891 172.971 316.242 171.011 319.38 168.598L329.221 185.565C324.657 188.732 319.594 191.296 314.032 193.257C308.612 195.067 303.192 195.972 297.773 195.972ZM368.24 17.9277H389.847V193.709H368.24V17.9277ZM423.603 99.1448H445.21V193.709H423.603V99.1448ZM422.533 65.2102C422.533 61.7413 423.817 58.8003 426.384 56.3872C429.094 53.9741 432.018 52.7675 435.155 52.7675C438.293 52.7675 441.145 53.9741 443.713 56.3872C446.278 58.8003 447.562 61.7413 447.562 65.2102C447.562 68.9807 446.278 71.9971 443.713 74.2594C441.145 76.5217 438.293 77.6529 435.155 77.6529C432.018 77.6529 429.094 76.5217 426.384 74.2594C423.817 71.9971 422.533 68.9807 422.533 65.2102Z"
      fill="#040404" />
    <path
      d="M214.828 253.819C213.37 253.819 211.976 253.551 210.645 253.015C209.314 252.446 208.188 251.641 207.269 250.602L209.314 247.686C210.138 248.524 210.994 249.161 211.881 249.596C212.8 250.032 213.656 250.25 214.448 250.25C215.367 250.25 216.175 250.066 216.873 249.697C217.57 249.295 217.918 248.641 217.918 247.736C217.918 246.999 217.681 246.429 217.205 246.027C216.762 245.625 216.191 245.29 215.494 245.021C214.797 244.754 214.052 244.502 213.259 244.267C211.611 243.698 210.344 242.893 209.456 241.854C208.601 240.782 208.173 239.525 208.173 238.084C208.173 236.978 208.426 235.939 208.933 234.967C209.472 233.962 210.28 233.157 211.358 232.554C212.435 231.917 213.767 231.598 215.351 231.598C216.746 231.598 217.998 231.783 219.107 232.152C220.216 232.487 221.246 233.073 222.197 233.911L220.343 236.978C219.772 236.375 219.091 235.922 218.299 235.621C217.538 235.285 216.841 235.101 216.207 235.067C215.351 235.067 214.606 235.285 213.973 235.721C213.339 236.123 213.022 236.676 213.022 237.38C213.022 238.084 213.244 238.653 213.687 239.089C214.131 239.491 214.702 239.827 215.399 240.095C216.128 240.329 216.857 240.581 217.586 240.849C219.044 241.352 220.248 242.039 221.198 242.91C222.181 243.781 222.672 245.055 222.672 246.731C222.672 248.004 222.387 249.177 221.817 250.25C221.246 251.322 220.375 252.194 219.202 252.864C218.061 253.501 216.603 253.819 214.828 253.819ZM240.646 253.87C239.188 253.87 237.777 253.535 236.414 252.864C235.084 252.16 234.037 251.205 233.277 249.998L233.562 248.44V263.472H228.761V232.001H232.897L233.562 237.179L233.087 235.721C234.037 234.481 235.226 233.476 236.652 232.705C238.11 231.9 239.742 231.498 241.549 231.498C243.419 231.498 245.099 231.967 246.588 232.906C248.078 233.844 249.25 235.168 250.106 236.877C250.962 238.553 251.389 240.531 251.389 242.809C251.389 245.089 250.914 247.066 249.963 248.742C249.044 250.384 247.777 251.657 246.16 252.562C244.544 253.434 242.706 253.87 240.646 253.87ZM239.695 249.848C240.931 249.848 242.056 249.546 243.07 248.943C244.116 248.339 244.94 247.518 245.542 246.48C246.176 245.407 246.493 244.2 246.493 242.86C246.493 241.486 246.208 240.263 245.637 239.19C245.067 238.118 244.291 237.28 243.308 236.676C242.326 236.073 241.232 235.771 240.028 235.771C238.379 235.771 236.985 236.24 235.844 237.179C234.735 238.118 233.974 239.358 233.562 240.899V244.67C233.816 246.178 234.513 247.418 235.654 248.39C236.795 249.362 238.142 249.848 239.695 249.848ZM265.493 253.87C263.623 253.87 261.927 253.451 260.406 252.613C258.885 251.775 257.68 250.552 256.793 248.943C255.906 247.301 255.462 245.273 255.462 242.86C255.462 240.514 255.921 238.503 256.84 236.827C257.791 235.118 259.027 233.811 260.548 232.906C262.102 231.967 263.781 231.498 265.588 231.498C267.49 231.498 269.058 231.917 270.294 232.755C271.53 233.593 272.481 234.598 273.147 235.771L272.862 236.575L273.337 232.352H277.758V253.367H272.956V248.038L273.432 249.295C273.305 249.563 273.036 249.948 272.624 250.451C272.212 250.954 271.673 251.473 271.007 252.01C270.342 252.512 269.534 252.948 268.583 253.316C267.664 253.686 266.634 253.87 265.493 253.87ZM266.776 249.697C268.361 249.697 269.692 249.261 270.77 248.39C271.879 247.485 272.608 246.262 272.956 244.72V240.396C272.576 239.022 271.8 237.883 270.627 236.978C269.486 236.073 268.155 235.621 266.634 235.621C265.493 235.621 264.447 235.922 263.496 236.525C262.545 237.095 261.785 237.916 261.214 238.989C260.644 240.028 260.359 241.234 260.359 242.608C260.359 243.949 260.644 245.156 261.214 246.228C261.816 247.301 262.609 248.155 263.591 248.792C264.573 249.395 265.636 249.697 266.776 249.697ZM319.96 253.367C319.675 253.367 319.215 253.367 318.581 253.367C317.947 253.367 317.298 253.367 316.632 253.367C315.966 253.367 315.396 253.367 314.92 253.367C314.445 253.367 314.207 253.367 314.207 253.367L297.901 230.493C297.616 230.023 297.267 229.437 296.855 228.733C296.475 227.996 296.142 227.191 295.857 226.32C295.572 225.415 295.429 224.493 295.429 223.555C295.429 222.147 295.762 220.823 296.427 219.583C297.093 218.31 298.059 217.271 299.327 216.466C300.595 215.662 302.148 215.26 303.986 215.26C305.92 215.26 307.631 215.662 309.121 216.466C310.642 217.271 311.878 218.226 312.829 219.332L310.356 222.851C309.374 221.879 308.424 221.108 307.504 220.538C306.585 219.969 305.666 219.684 304.747 219.684C303.416 219.684 302.386 220.103 301.657 220.941C300.928 221.779 300.563 222.784 300.563 223.957C300.563 224.56 300.674 225.18 300.896 225.817C301.118 226.42 301.356 226.957 301.609 227.426C301.863 227.862 302.021 228.129 302.084 228.23L319.96 253.367ZM302.275 235.972C301.102 235.972 299.993 236.291 298.947 236.927C297.933 237.531 297.093 238.352 296.427 239.391C295.794 240.396 295.477 241.536 295.477 242.809C295.477 244.05 295.778 245.156 296.38 246.128C297.014 247.066 297.854 247.804 298.9 248.339C299.945 248.876 301.102 249.144 302.37 249.144C304.113 249.144 305.539 248.742 306.648 247.937C307.789 247.099 308.613 246.111 309.121 244.971L312.306 247.937C311.482 249.58 310.167 250.987 308.36 252.16C306.553 253.3 304.335 253.87 301.704 253.87C299.549 253.87 297.6 253.4 295.857 252.462C294.145 251.524 292.782 250.25 291.769 248.641C290.786 246.999 290.295 245.139 290.295 243.061C290.295 241.486 290.628 240.028 291.293 238.687C291.958 237.346 292.862 236.173 294.003 235.168C295.144 234.162 296.411 233.375 297.806 232.805C299.232 232.202 300.69 231.883 302.18 231.85L302.275 235.972ZM313.922 231.85H318.534L312.876 247.032L309.311 244.67L313.922 231.85ZM341.516 253.87C339.234 253.87 337.269 253.4 335.62 252.462C333.972 251.49 332.705 250.166 331.817 248.49C330.93 246.781 330.486 244.854 330.486 242.709C330.486 240.631 330.977 238.754 331.96 237.078C332.974 235.369 334.321 234.011 336.001 233.006C337.68 232.001 339.55 231.498 341.61 231.498C344.273 231.498 346.476 232.319 348.219 233.961C349.993 235.57 351.182 237.849 351.784 240.798L335.573 246.731L334.432 243.815L347.458 238.788L346.46 239.491C346.079 238.419 345.477 237.497 344.653 236.726C343.829 235.922 342.704 235.52 341.278 235.52C339.503 235.52 338.045 236.173 336.904 237.48C335.795 238.754 335.24 240.396 335.24 242.407C335.24 244.552 335.842 246.278 337.047 247.585C338.251 248.893 339.772 249.546 341.61 249.546C342.466 249.546 343.29 249.395 344.083 249.094C344.875 248.758 345.62 248.323 346.317 247.787L348.504 251.557C347.49 252.261 346.365 252.831 345.129 253.267C343.924 253.669 342.72 253.87 341.516 253.87ZM362.927 253.819C361.469 253.819 360.075 253.551 358.744 253.015C357.412 252.446 356.287 251.641 355.368 250.602L357.412 247.686C358.236 248.524 359.092 249.161 359.98 249.596C360.899 250.032 361.754 250.25 362.547 250.25C363.466 250.25 364.274 250.066 364.971 249.697C365.669 249.295 366.017 248.641 366.017 247.736C366.017 246.999 365.78 246.429 365.304 246.027C364.86 245.625 364.29 245.29 363.593 245.021C362.895 244.754 362.151 244.502 361.359 244.267C359.71 243.698 358.442 242.893 357.555 241.854C356.699 240.782 356.271 239.525 356.271 238.084C356.271 236.978 356.525 235.939 357.032 234.967C357.571 233.962 358.379 233.157 359.457 232.554C360.534 231.917 361.865 231.598 363.45 231.598C364.845 231.598 366.097 231.783 367.206 232.152C368.315 232.487 369.345 233.073 370.296 233.911L368.442 236.978C367.871 236.375 367.19 235.922 366.397 235.621C365.637 235.285 364.94 235.101 364.306 235.067C363.45 235.067 362.705 235.285 362.072 235.721C361.437 236.123 361.121 236.676 361.121 237.38C361.121 238.084 361.342 238.653 361.786 239.089C362.23 239.491 362.8 239.827 363.498 240.095C364.227 240.329 364.956 240.581 365.684 240.849C367.142 241.352 368.347 242.039 369.298 242.91C370.28 243.781 370.771 245.055 370.771 246.731C370.771 248.004 370.486 249.177 369.916 250.25C369.345 251.322 368.473 252.194 367.301 252.864C366.16 253.501 364.702 253.819 362.927 253.819ZM378.761 223.153H383.61V232.403H388.935V236.375H383.61V253.367H378.761V236.375H375.243V232.403H378.761V223.153ZM403.54 253.87C401.258 253.87 399.294 253.4 397.646 252.462C395.998 251.49 394.73 250.166 393.842 248.49C392.955 246.781 392.511 244.854 392.511 242.709C392.511 240.631 393.003 238.754 393.985 237.078C394.999 235.369 396.346 234.011 398.026 233.006C399.706 232.001 401.576 231.498 403.636 231.498C406.298 231.498 408.5 232.319 410.244 233.961C412.019 235.57 413.207 237.849 413.809 240.798L397.598 246.731L396.457 243.815L409.483 238.788L408.485 239.491C408.104 238.419 407.502 237.497 406.678 236.726C405.854 235.922 404.729 235.52 403.303 235.52C401.528 235.52 400.07 236.173 398.929 237.48C397.82 238.754 397.265 240.396 397.265 242.407C397.265 244.552 397.868 246.278 399.072 247.585C400.276 248.893 401.797 249.546 403.636 249.546C404.491 249.546 405.316 249.395 406.108 249.094C406.9 248.758 407.645 248.323 408.342 247.787L410.529 251.557C409.515 252.261 408.389 252.831 407.154 253.267C405.949 253.669 404.745 253.87 403.54 253.87ZM409.055 221.795L402.875 228.532H399.88L403.731 221.795H409.055ZM421.101 223.153H425.951V232.403H431.275V236.375H425.951V253.367H421.101V236.375H417.584V232.403H421.101V223.153ZM436.563 232.352H441.365V253.367H436.563V232.352ZM436.325 224.811C436.325 224.041 436.611 223.387 437.181 222.851C437.784 222.315 438.433 222.047 439.13 222.047C439.828 222.047 440.461 222.315 441.032 222.851C441.602 223.387 441.887 224.041 441.887 224.811C441.887 225.649 441.602 226.32 441.032 226.823C440.461 227.325 439.828 227.577 439.13 227.577C438.433 227.577 437.784 227.325 437.181 226.823C436.611 226.32 436.325 225.649 436.325 224.811ZM465.126 251.406C464.239 252.177 463.161 252.781 461.891 253.216C460.656 253.652 459.404 253.87 458.138 253.87C455.981 253.87 454.064 253.417 452.384 252.512C450.735 251.607 449.451 250.334 448.533 248.691C447.615 247.049 447.156 245.105 447.156 242.86C447.156 240.581 447.646 238.62 448.627 236.978C449.612 235.335 450.895 234.079 452.478 233.207C454.095 232.302 455.825 231.85 457.661 231.85C459.31 231.85 460.75 232.085 461.989 232.554C463.254 233.023 464.346 233.676 465.269 234.514L462.889 237.782C462.35 237.313 461.672 236.894 460.848 236.525C460.023 236.157 459.105 235.972 458.089 235.972C456.948 235.972 455.9 236.274 454.951 236.877C454.033 237.48 453.302 238.302 452.763 239.341C452.223 240.38 451.956 241.552 451.956 242.86C451.956 244.133 452.223 245.29 452.763 246.329C453.333 247.368 454.113 248.189 455.094 248.792C456.11 249.395 457.251 249.697 458.517 249.697C459.341 249.697 460.103 249.563 460.799 249.295C461.529 249.027 462.162 248.675 462.702 248.239L465.126 251.406ZM479.054 253.87C477.182 253.87 475.488 253.451 473.964 252.613C472.444 251.775 471.241 250.552 470.354 248.943C469.463 247.301 469.022 245.273 469.022 242.86C469.022 240.514 469.481 238.503 470.399 236.827C471.352 235.118 472.587 233.811 474.107 232.906C475.662 231.967 477.343 231.498 479.148 231.498C481.051 231.498 482.62 231.917 483.854 232.755C485.089 233.593 486.042 234.598 486.707 235.771L486.421 236.575L486.898 232.352H491.319V253.367H486.515V248.038L486.992 249.295C486.862 249.563 486.595 249.948 486.185 250.451C485.771 250.954 485.231 251.473 484.567 252.01C483.903 252.512 483.092 252.948 482.143 253.316C481.225 253.686 480.195 253.87 479.054 253.87ZM480.338 249.697C481.92 249.697 483.252 249.261 484.331 248.39C485.436 247.485 486.167 246.262 486.515 244.72V240.396C486.136 239.022 485.361 237.883 484.188 236.978C483.047 236.073 481.715 235.621 480.195 235.621C479.054 235.621 478.007 235.922 477.057 236.525C476.104 237.095 475.346 237.916 474.775 238.989C474.205 240.028 473.92 241.234 473.92 242.608C473.92 243.949 474.205 245.156 474.775 246.228C475.377 247.301 476.166 248.155 477.151 248.792C478.131 249.395 479.197 249.697 480.338 249.697Z"
      fill="#040404" />
  </g>
</svg>