<svg width="417" height="317" viewBox="0 0 417 317" fill="none" xmlns="http://www.w3.org/2000/svg">
  <g clip-path="url(#clip0_31_388)">
    <path
      d="M22.197 236.738V234.76H0V280.925H6.65258V257.974H22.197V255.996H6.65258V236.738H22.197ZM35.2383 278.946V234.76H28.6517V280.925H51.771V278.946H35.2383ZM95.1109 257.842C95.1109 254.853 94.606 251.951 93.5959 249.137C92.6303 246.279 91.1592 243.751 89.1829 241.553C87.2507 239.31 84.8358 237.508 81.9377 236.145C79.0835 234.782 75.7682 234.1 71.9919 234.1C68.2155 234.1 64.8781 234.782 61.9799 236.145C59.0818 237.508 56.6668 239.31 54.7348 241.553C52.8027 243.751 51.3316 246.279 50.3217 249.137C49.3561 251.951 48.8734 254.853 48.8734 257.842C48.8734 260.832 49.3561 263.778 50.3217 266.68C51.3316 269.537 52.8027 272.109 54.7348 274.396C56.6668 276.638 59.0818 278.463 61.9799 279.87C64.8781 281.233 68.2155 281.914 71.9919 281.914C75.7682 281.914 79.0835 281.233 81.9377 279.87C84.8358 278.463 87.2507 276.638 89.1829 274.396C91.1588 272.109 92.6299 269.537 93.5959 266.68C94.606 263.778 95.1109 260.832 95.1109 257.842ZM55.7229 257.842C55.7229 255.072 56.0523 252.39 56.7111 249.796C57.3699 247.202 58.3798 244.894 59.7409 242.872C61.1022 240.805 62.7926 239.156 64.8125 237.925C66.8763 236.694 69.2694 236.079 71.9919 236.079C74.7144 236.079 77.0855 236.694 79.1054 237.925C81.1693 239.156 82.86 240.805 84.1772 242.872C85.5385 244.894 86.5483 247.202 87.207 249.796C87.9099 252.39 88.2613 255.072 88.2613 257.842C88.2613 260.612 87.9099 263.294 87.207 265.888C86.5482 268.482 85.5384 270.812 84.1772 272.879C82.86 274.901 81.1693 276.528 79.1054 277.759C77.0855 278.99 74.7144 279.606 71.9919 279.606C69.2694 279.606 66.8763 278.99 64.8125 277.759C62.7926 276.528 61.1022 274.901 59.7409 272.879C58.3796 270.812 57.3697 268.482 56.7111 265.888C56.0523 263.294 55.7229 260.612 55.7229 257.842ZM107.889 280.925V236.738H114.541C116.386 236.738 117.988 237.024 119.35 237.595C120.711 238.166 121.831 238.936 122.709 239.903C123.631 240.827 124.312 241.882 124.751 243.069C125.19 244.212 125.41 245.377 125.41 246.564C125.41 249.466 124.597 251.84 122.972 253.687C121.392 255.49 119.064 256.391 115.991 256.391H109.206L123.368 280.924H131.008L117.045 257.974C119.591 257.974 121.765 257.688 123.565 257.117C125.366 256.501 126.837 255.688 127.978 254.677C129.12 253.622 129.954 252.412 130.481 251.049C131.009 249.642 131.272 248.148 131.272 246.565C131.272 245.114 130.965 243.685 130.35 242.278C129.736 240.871 128.835 239.618 127.65 238.519C126.464 237.376 124.993 236.474 123.237 235.815C121.524 235.111 119.57 234.759 117.375 234.759H101.303V280.924L107.889 280.925ZM160.714 234.76V280.925H162.756V241.487L181.528 281.848L199.246 241.487V280.925H205.832V234.76H200.036L184.162 270.307L167.696 234.76H160.714ZM231.915 232.781L210.838 280.925H213.077L219.137 267.207H240.873L247.065 280.925H253.651L231.915 232.781ZM230.005 242.872L239.754 265.229H220.059L230.005 242.872ZM294.225 257.842C294.225 254.589 293.742 251.555 292.777 248.741C291.854 245.927 290.537 243.487 288.825 241.421C287.112 239.354 285.048 237.727 282.633 236.54C280.218 235.353 277.518 234.76 274.532 234.76H257.077V280.925H274.532C277.474 280.925 280.152 280.353 282.567 279.21C284.982 278.023 287.046 276.418 288.759 274.396C290.515 272.329 291.854 269.889 292.777 267.075C293.742 264.218 294.225 261.14 294.225 257.842ZM263.663 278.946V236.738H273.872C276.244 236.738 278.285 237.31 279.998 238.453C281.71 239.596 283.115 241.135 284.213 243.069C285.311 245.004 286.123 247.246 286.65 249.796C287.178 252.346 287.442 255.028 287.442 257.842C287.442 260.656 287.178 263.338 286.65 265.888C286.123 268.438 285.311 270.681 284.213 272.615C283.115 274.55 281.71 276.088 279.998 277.232C278.285 278.375 276.244 278.946 273.872 278.946H263.663ZM315.434 232.781L294.357 280.925H296.596L302.656 267.207H324.392L330.583 280.925H337.17L315.434 232.781ZM313.524 242.872L323.272 265.229H303.578L313.524 242.872ZM341.781 234.76V280.925H343.822V241.487L362.594 281.848L380.312 241.487V280.925H386.899V234.76H381.103L365.229 270.307L348.762 234.76H341.781ZM417 236.738V234.76H394.869V280.925H417V278.946H401.456V257.974H417V255.996H401.456V236.738H417Z"
      fill="#040404" />
    <path
      d="M105.594 302.743C105.594 302.092 105.462 301.485 105.199 300.921C104.953 300.34 104.592 299.847 104.118 299.442C103.661 299.038 103.107 298.721 102.457 298.491C101.807 298.245 101.077 298.122 100.268 298.122H94.3877V316.603H97.0246V307.362H100.268C101.077 307.362 101.806 307.248 102.457 307.019C103.107 306.773 103.66 306.448 104.118 306.043C104.592 305.639 104.953 305.155 105.199 304.592C105.462 304.028 105.594 303.411 105.594 302.743ZM103.195 302.743C103.195 303.852 102.904 304.767 102.324 305.489C101.744 306.21 100.9 306.571 99.7925 306.571H97.0237V298.914H99.7925C100.882 298.914 101.717 299.275 102.297 299.996C102.895 300.718 103.195 301.634 103.195 302.743ZM110.472 316.604V298.914H113.136C113.874 298.914 114.515 299.029 115.061 299.257C115.606 299.486 116.054 299.794 116.406 300.182C116.776 300.552 117.048 300.975 117.224 301.45C117.399 301.907 117.487 302.373 117.487 302.848C117.487 304.01 117.162 304.961 116.512 305.7C115.879 306.421 114.947 306.782 113.717 306.782H111.001L116.67 316.604H119.729L114.139 307.415C115.158 307.415 116.028 307.301 116.749 307.072C117.47 306.826 118.059 306.501 118.516 306.096C118.973 305.674 119.307 305.19 119.517 304.645C119.728 304.081 119.834 303.483 119.834 302.849C119.834 302.268 119.71 301.696 119.464 301.133C119.218 300.57 118.858 300.068 118.384 299.628C117.909 299.171 117.32 298.81 116.617 298.546C115.932 298.264 115.15 298.123 114.27 298.123H107.836V316.605L110.472 316.604ZM139.505 307.363C139.505 306.166 139.303 305.004 138.899 303.878C138.512 302.734 137.923 301.722 137.132 300.842C136.359 299.943 135.392 299.222 134.232 298.677C133.089 298.131 131.762 297.858 130.25 297.858C128.738 297.858 127.402 298.131 126.242 298.677C125.082 299.222 124.115 299.944 123.341 300.842C122.568 301.722 121.979 302.734 121.574 303.878C121.188 305.004 120.995 306.166 120.995 307.363C120.995 308.56 121.188 309.739 121.574 310.901C121.978 312.045 122.567 313.075 123.341 313.99C124.115 314.888 125.081 315.619 126.242 316.182C127.402 316.727 128.738 317 130.25 317C131.762 317 133.089 316.727 134.232 316.182C135.392 315.618 136.359 314.888 137.132 313.99C137.923 313.075 138.512 312.046 138.899 310.901C139.303 309.739 139.505 308.56 139.505 307.363ZM123.736 307.363C123.736 306.254 123.868 305.18 124.131 304.142C124.395 303.103 124.8 302.179 125.345 301.37C125.89 300.542 126.567 299.882 127.375 299.389C128.201 298.897 129.16 298.65 130.249 298.65C131.339 298.65 132.289 298.897 133.097 299.389C133.924 299.882 134.6 300.542 135.128 301.37C135.673 302.179 136.077 303.103 136.341 304.142C136.622 305.18 136.763 306.254 136.763 307.363C136.763 308.472 136.622 309.546 136.341 310.584C136.077 311.623 135.673 312.556 135.128 313.383C134.6 314.193 133.923 314.844 133.097 315.337C132.288 315.829 131.339 316.076 130.249 316.076C129.159 316.076 128.201 315.829 127.375 315.337C126.566 314.844 125.89 314.193 125.345 313.383C124.8 312.556 124.395 311.622 124.131 310.584C123.868 309.546 123.736 308.472 123.736 307.363ZM156.275 307.363C156.275 306.061 156.082 304.846 155.696 303.72C155.326 302.593 154.799 301.616 154.114 300.789C153.429 299.961 152.602 299.31 151.635 298.835C150.668 298.36 149.587 298.122 148.392 298.122H141.404V316.604H148.392C149.57 316.604 150.642 316.375 151.609 315.918C152.575 315.443 153.402 314.801 154.088 313.991C154.79 313.163 155.327 312.186 155.696 311.06C156.082 309.916 156.275 308.683 156.275 307.363ZM144.04 315.812V298.914H148.127C149.076 298.914 149.894 299.143 150.58 299.601C151.265 300.058 151.827 300.674 152.267 301.449C152.707 302.223 153.032 303.121 153.242 304.142C153.453 305.163 153.558 306.236 153.558 307.363C153.558 308.489 153.453 309.563 153.242 310.584C153.032 311.605 152.707 312.502 152.267 313.277C151.828 314.051 151.266 314.667 150.58 315.125C149.894 315.582 149.077 315.811 148.127 315.811L144.04 315.812ZM161.47 312.01V298.122H158.833V311.772C158.833 312.617 158.983 313.357 159.282 313.99C159.598 314.624 160.02 315.152 160.548 315.574C161.075 315.996 161.69 316.313 162.394 316.524C163.096 316.717 163.844 316.814 164.635 316.814C165.32 316.814 165.953 316.717 166.534 316.524C167.132 316.313 167.65 316.005 168.089 315.599C168.529 315.177 168.871 314.667 169.117 314.068C169.381 313.452 169.513 312.73 169.513 311.903V298.121H168.722V311.929C168.722 312.563 168.616 313.118 168.406 313.593C168.195 314.068 167.913 314.473 167.561 314.808C167.227 315.125 166.84 315.362 166.401 315.52C165.962 315.678 165.514 315.757 165.056 315.757C164.001 315.757 163.139 315.44 162.471 314.806C161.804 314.155 161.47 313.225 161.47 312.01ZM180.957 298.122H171.991V298.914H175.155V316.604H177.793V298.914H180.957V298.122ZM199.6 307.363C199.6 306.166 199.398 305.004 198.994 303.878C198.607 302.734 198.018 301.722 197.227 300.842C196.454 299.943 195.487 299.222 194.327 298.677C193.184 298.131 191.857 297.858 190.345 297.858C188.833 297.858 187.497 298.131 186.337 298.677C185.176 299.222 184.21 299.944 183.436 300.842C182.663 301.722 182.074 302.734 181.669 303.878C181.283 305.004 181.09 306.166 181.09 307.363C181.09 308.56 181.283 309.739 181.669 310.901C182.074 312.045 182.663 313.075 183.436 313.99C184.21 314.888 185.176 315.619 186.337 316.182C187.497 316.727 188.833 317 190.345 317C191.857 317 193.184 316.727 194.327 316.182C195.487 315.618 196.454 314.888 197.227 313.99C198.018 313.075 198.607 312.046 198.994 310.901C199.398 309.739 199.6 308.56 199.6 307.363ZM183.831 307.363C183.831 306.254 183.963 305.18 184.227 304.142C184.49 303.103 184.895 302.179 185.44 301.37C185.985 300.542 186.662 299.882 187.47 299.389C188.297 298.897 189.255 298.65 190.345 298.65C191.434 298.65 192.384 298.897 193.192 299.389C194.019 299.882 194.696 300.542 195.223 301.37C195.768 302.179 196.172 303.103 196.436 304.142C196.717 305.18 196.858 306.254 196.858 307.363C196.858 308.472 196.717 309.546 196.436 310.584C196.172 311.623 195.768 312.556 195.223 313.383C194.695 314.193 194.019 314.844 193.192 315.337C192.384 315.829 191.434 316.076 190.345 316.076C189.255 316.076 188.296 315.829 187.47 315.337C186.661 314.844 185.985 314.193 185.44 313.383C184.895 312.556 184.49 311.622 184.227 310.584C183.963 309.546 183.831 308.472 183.831 307.363ZM210.517 301.106L211.387 300.736C211.229 300.419 211.027 300.102 210.781 299.785C210.535 299.45 210.236 299.16 209.884 298.913C209.532 298.649 209.101 298.438 208.592 298.28C208.1 298.104 207.519 298.017 206.851 298.017C206.113 298.017 205.419 298.131 204.768 298.36C204.136 298.588 203.582 298.905 203.107 299.309C202.632 299.714 202.255 300.207 201.973 300.788C201.709 301.351 201.578 301.976 201.578 302.662C201.578 303.226 201.657 303.771 201.815 304.299C201.99 304.827 202.262 305.329 202.632 305.804C203.002 306.262 203.485 306.693 204.082 307.099C204.698 307.485 205.453 307.82 206.35 308.103C207.633 308.525 208.556 309.106 209.118 309.845C209.699 310.567 209.989 311.394 209.989 312.327C209.989 313.401 209.699 314.281 209.118 314.967C208.556 315.637 207.641 315.972 206.376 315.972C205.884 315.972 205.418 315.884 204.979 315.708C204.54 315.532 204.144 315.295 203.792 314.995C203.44 314.696 203.133 314.344 202.869 313.94C202.623 313.535 202.447 313.095 202.341 312.619L201.444 312.856C201.584 313.349 201.786 313.833 202.05 314.308C202.314 314.765 202.656 315.179 203.078 315.549C203.499 315.919 204.018 316.218 204.633 316.447C205.249 316.658 205.987 316.764 206.848 316.764C207.728 316.764 208.51 316.623 209.195 316.341C209.88 316.042 210.461 315.646 210.936 315.153C211.41 314.66 211.77 314.088 212.017 313.437C212.263 312.786 212.386 312.1 212.386 311.377C212.386 310.674 212.263 310.005 212.017 309.371C211.77 308.737 211.428 308.165 210.989 307.654C210.549 307.126 210.013 306.669 209.38 306.282C208.764 305.878 208.088 305.552 207.35 305.306C206.049 304.884 205.117 304.435 204.555 303.959C204.01 303.466 203.737 302.815 203.737 302.005C203.737 301.583 203.816 301.178 203.974 300.79C204.132 300.404 204.351 300.069 204.632 299.788C204.931 299.488 205.283 299.251 205.687 299.075C206.091 298.899 206.548 298.812 207.057 298.812C207.901 298.812 208.622 299.049 209.22 299.524C209.818 299.982 210.253 300.507 210.517 301.106ZM223.701 298.122V316.604H224.492V301.185L236.78 316.974V298.122H235.989V311.614L225.415 298.122H223.701ZM247.196 297.33L238.758 316.604H239.655L242.081 311.112H250.782L253.261 316.604H255.898L247.196 297.33ZM246.431 301.37L250.334 310.32H242.449L246.431 301.37ZM263.624 298.122H254.658V298.914H257.822V316.604H260.459V298.914H263.624V298.122ZM268.687 312.01V298.122H266.05V311.772C266.05 312.617 266.199 313.357 266.498 313.99C266.815 314.624 267.237 315.152 267.764 315.574C268.292 315.996 268.907 316.313 269.61 316.524C270.313 316.717 271.06 316.814 271.851 316.814C272.537 316.814 273.17 316.717 273.75 316.524C274.348 316.313 274.867 316.005 275.306 315.599C275.745 315.177 276.088 314.667 276.334 314.068C276.597 313.452 276.729 312.73 276.729 311.903V298.121H275.938V311.929C275.938 312.563 275.833 313.118 275.622 313.593C275.411 314.068 275.13 314.473 274.778 314.808C274.444 315.125 274.057 315.362 273.618 315.52C273.179 315.678 272.731 315.757 272.274 315.757C271.219 315.757 270.358 315.44 269.69 314.806C269.022 314.155 268.687 313.225 268.687 312.01ZM282.53 316.604V298.914H285.194C285.932 298.914 286.574 299.029 287.119 299.257C287.664 299.486 288.112 299.794 288.464 300.182C288.834 300.552 289.106 300.975 289.282 301.45C289.457 301.907 289.545 302.373 289.545 302.848C289.545 304.01 289.22 304.961 288.57 305.7C287.937 306.421 287.005 306.782 285.775 306.782H283.059L288.728 316.604H291.787L286.197 307.415C287.216 307.415 288.087 307.301 288.807 307.072C289.528 306.826 290.117 306.501 290.574 306.096C291.031 305.674 291.365 305.19 291.575 304.645C291.786 304.081 291.892 303.483 291.892 302.849C291.892 302.268 291.768 301.696 291.522 301.133C291.276 300.57 290.916 300.068 290.442 299.628C289.967 299.171 289.378 298.81 288.675 298.546C287.99 298.264 287.207 298.123 286.328 298.123H279.894V316.605L282.53 316.604ZM300.804 297.33L292.366 316.604H293.263L295.689 311.112H304.391L306.869 316.604H309.506L300.804 297.33ZM300.04 301.37L303.942 310.32H296.058L300.04 301.37ZM311.273 316.604H313.91V298.122H311.273V316.604ZM325.433 301.106L326.303 300.736C326.146 300.419 325.944 300.102 325.698 299.785C325.452 299.45 325.153 299.16 324.801 298.913C324.449 298.649 324.018 298.438 323.508 298.28C323.016 298.104 322.436 298.017 321.768 298.017C321.03 298.017 320.335 298.131 319.685 298.36C319.052 298.588 318.498 298.905 318.023 299.309C317.549 299.714 317.171 300.207 316.89 300.788C316.626 301.351 316.494 301.976 316.494 302.662C316.494 303.226 316.573 303.771 316.731 304.299C316.906 304.827 317.179 305.329 317.548 305.804C317.918 306.262 318.401 306.693 318.998 307.099C319.614 307.485 320.37 307.82 321.266 308.103C322.549 308.525 323.472 309.106 324.035 309.845C324.615 310.567 324.905 311.394 324.905 312.327C324.905 313.401 324.615 314.281 324.035 314.967C323.472 315.637 322.558 315.972 321.292 315.972C320.8 315.972 320.335 315.884 319.895 315.708C319.456 315.532 319.061 315.295 318.709 314.995C318.357 314.696 318.049 314.344 317.785 313.94C317.539 313.535 317.363 313.095 317.257 312.619L316.36 312.856C316.501 313.349 316.703 313.833 316.966 314.308C317.23 314.765 317.573 315.179 317.994 315.549C318.416 315.919 318.934 316.218 319.55 316.447C320.166 316.658 320.904 316.764 321.765 316.764C322.644 316.764 323.426 316.623 324.112 316.341C324.797 316.042 325.377 315.646 325.852 315.153C326.327 314.66 326.687 314.088 326.933 313.437C327.179 312.786 327.302 312.1 327.302 311.377C327.302 310.674 327.179 310.005 326.933 309.371C326.687 308.737 326.344 308.165 325.905 307.654C325.466 307.126 324.93 306.669 324.297 306.282C323.681 305.878 323.004 305.552 322.266 305.306C320.965 304.884 320.033 304.435 319.471 303.959C318.926 303.466 318.654 302.815 318.654 302.005C318.654 301.583 318.732 301.178 318.89 300.79C319.048 300.404 319.268 300.069 319.549 299.788C319.848 299.488 320.2 299.251 320.603 299.075C321.007 298.899 321.464 298.812 321.974 298.812C322.818 298.812 323.539 299.049 324.136 299.524C324.734 299.982 325.169 300.507 325.433 301.106Z"
      fill="#040404" />
    <path d="M209.113 101.047C209.113 101.047 130.433 115.717 130.433 22.2676" stroke="#040404"
      stroke-width="0.695006" />
    <path d="M130.433 22.2672C130.433 22.2672 209.113 7.59802 209.113 101.047" stroke="#040404"
      stroke-width="0.695006" />
    <path d="M209.113 101.047C209.113 101.047 287.792 115.717 287.792 22.2676" stroke="#040404"
      stroke-width="0.695006" />
    <path d="M287.792 22.2672C287.792 22.2672 209.113 7.59802 209.113 101.047" stroke="#040404"
      stroke-width="0.695006" />
    <path d="M209.113 101.047C209.113 101.047 130.433 86.3769 130.433 179.826" stroke="#040404"
      stroke-width="0.695006" />
    <path d="M130.433 179.826C130.433 179.826 209.113 194.496 209.113 101.047" stroke="#040404"
      stroke-width="0.695006" />
    <path d="M209.113 101.047C209.113 101.047 287.792 86.3769 287.792 179.826" stroke="#040404"
      stroke-width="0.695006" />
    <path d="M287.792 179.826C287.792 179.826 209.113 194.496 209.113 101.047" stroke="#040404"
      stroke-width="0.695006" />
    <path d="M209.113 201.015C209.113 201.015 134.474 144.195 209.113 101.047" stroke="#040404"
      stroke-width="0.695006" />
    <path d="M209.113 201.015C209.113 201.015 283.752 144.195 209.113 101.047" stroke="#040404"
      stroke-width="0.695006" />
    <path d="M209.113 1.07812C209.113 1.07812 134.474 57.899 209.113 101.047" stroke="#040404"
      stroke-width="0.695006" />
    <path d="M209.113 1.07812C209.113 1.07812 283.752 57.899 209.113 101.047" stroke="#040404"
      stroke-width="0.695006" />
    <path d="M109.271 101.047C109.271 101.047 166.02 26.3132 209.113 101.047" stroke="#040404"
      stroke-width="0.695006" />
    <path d="M109.271 101.047C109.271 101.047 166.02 175.781 209.113 101.047" stroke="#040404"
      stroke-width="0.695006" />
    <path d="M308.954 101.047C308.954 101.047 252.206 26.3132 209.113 101.047" stroke="#040404"
      stroke-width="0.695006" />
    <path d="M308.954 101.047C308.954 101.047 252.206 175.781 209.113 101.047" stroke="#040404"
      stroke-width="0.695006" />
    <path d="M130.433 22.2676L287.76 179.794" stroke="#040404" stroke-width="0.695006" />
    <path d="M287.792 22.2676L130.465 179.794" stroke="#040404" stroke-width="0.695006" />
  </g>
  <defs>
    <clipPath id="clip0_31_388">
      <rect width="417" height="317" fill="white" />
    </clipPath>
  </defs>
</svg>