<svg width="347" height="226" viewBox="0 0 347 226" fill="none" xmlns="http://www.w3.org/2000/svg">
  <g clip-path="url(#clip0_31_386)">
    <path
      d="M37.2563 172.88H11.0105L7.04159 182.81C6.84242 183.324 6.55786 183.762 6.18803 184.124C5.84663 184.487 5.44832 184.759 4.99309 184.94C4.53789 185.122 4.05426 185.197 3.54214 185.167C3.0585 185.167 2.57481 185.046 2.09111 184.804C1.12379 184.381 0.483691 183.686 0.170732 182.719C-0.113799 181.721 -0.0426982 180.708 0.384067 179.68L20.7406 129.532C21.0536 128.746 21.4945 128.156 22.0635 127.764C22.661 127.34 23.3438 127.128 24.112 127.128C24.8517 127.128 25.5061 127.34 26.0751 127.764C26.6726 128.156 27.1278 128.731 27.4408 129.487L47.8399 179.68C48.2667 180.678 48.3378 181.676 48.0533 182.673C47.7688 183.671 47.1571 184.381 46.2182 184.804C45.2509 185.257 44.2836 185.303 43.3162 184.94C42.3774 184.547 41.6804 183.837 41.2251 182.809L37.2563 172.88ZM13.9551 165.081H34.2262L24.1547 139.644L13.9551 165.081ZM58.2956 127.129H73.4456C75.9493 127.129 78.3676 127.477 80.7006 128.172C83.062 128.867 85.2669 129.85 87.3154 131.119C89.3923 132.389 91.27 133.915 92.9486 135.699C94.6557 137.482 96.1066 139.462 97.3016 141.639C98.525 143.785 99.4638 146.097 100.118 148.576C100.801 151.055 101.142 153.624 101.142 156.284C101.142 158.944 100.801 161.514 100.118 163.992C99.4638 166.441 98.525 168.738 97.3016 170.884C96.1066 173 94.6557 174.95 92.9486 176.734C91.27 178.487 89.3923 179.998 87.3154 181.268C85.2669 182.507 83.062 183.475 80.7006 184.17C78.3676 184.835 75.9493 185.167 73.4456 185.167H58.2956H58.1675C57.1433 185.167 56.2614 184.805 55.5216 184.079C54.8104 183.324 54.4548 182.402 54.4548 181.313V130.983C54.4548 129.895 54.8104 128.988 55.5216 128.263C56.2614 127.507 57.1433 127.129 58.1675 127.129L58.2956 127.129ZM61.8377 134.973V177.323H73.5737C76.4472 177.323 79.1074 176.749 81.5541 175.6C84.0293 174.421 86.1631 172.864 87.9555 170.93C89.7763 168.995 91.1989 166.758 92.2231 164.219C93.2474 161.68 93.7594 159.05 93.7594 156.33C93.7594 153.579 93.2474 150.919 92.2231 148.349C91.1989 145.78 89.7763 143.513 87.9555 141.548C86.1631 139.553 84.0293 137.966 81.5541 136.787C79.1074 135.578 76.4614 134.973 73.6163 134.973H61.8377ZM116.549 181.313C116.549 182.401 116.179 183.323 115.439 184.079C114.728 184.805 113.874 185.167 112.878 185.167C111.854 185.167 110.972 184.805 110.233 184.079C109.521 183.323 109.166 182.401 109.166 181.313V130.983C109.166 129.895 109.521 128.988 110.233 128.263C110.972 127.507 111.854 127.129 112.878 127.129C113.874 127.129 114.728 127.507 115.439 128.263C116.179 128.988 116.549 129.895 116.549 130.983V181.313ZM152.866 126.676C155.427 126.676 157.888 127.039 160.249 127.764C162.61 128.459 164.815 129.442 166.864 130.711C168.941 131.981 170.818 133.522 172.497 135.336C174.204 137.15 175.655 139.145 176.85 141.321C178.073 143.498 179.012 145.856 179.667 148.395C180.349 150.904 180.691 153.518 180.691 156.239C180.691 159.957 180.065 163.479 178.813 166.804C177.59 170.129 175.897 173.091 173.735 175.691C171.572 178.29 169.026 180.452 166.096 182.175C163.165 183.867 160.007 184.956 156.622 185.439V192.694C156.622 193.238 156.522 193.737 156.323 194.19C156.124 194.674 155.853 195.082 155.512 195.415C155.199 195.778 154.815 196.05 154.36 196.231C153.933 196.442 153.464 196.548 152.951 196.548C152.439 196.548 151.956 196.442 151.5 196.231C151.045 196.049 150.647 195.777 150.305 195.415C149.992 195.082 149.736 194.674 149.537 194.19C149.338 193.737 149.239 193.239 149.239 192.694V185.439C145.824 184.986 142.652 183.913 139.722 182.22C136.791 180.527 134.245 178.381 132.083 175.781C129.92 173.182 128.228 170.22 127.004 166.894C125.781 163.539 125.169 159.987 125.169 156.239C125.169 153.518 125.496 150.904 126.151 148.395C126.805 145.856 127.73 143.498 128.925 141.321C130.12 139.145 131.556 137.15 133.235 135.336C134.914 133.522 136.777 131.981 138.826 130.711C140.874 129.442 143.079 128.459 145.44 127.764C147.83 127.039 150.305 126.676 152.866 126.676ZM152.909 134.52C150.064 134.52 147.404 135.094 144.929 136.243C142.453 137.361 140.291 138.918 138.442 140.913C136.621 142.878 135.184 145.175 134.132 147.805C133.079 150.435 132.553 153.246 132.553 156.239C132.553 158.929 132.965 161.468 133.79 163.856C134.644 166.244 135.81 168.391 137.29 170.295C138.798 172.169 140.561 173.741 142.581 175.011C144.63 176.28 146.849 177.142 149.239 177.595V171.973C149.239 170.884 149.595 169.963 150.306 169.207C151.046 168.451 151.928 168.073 152.952 168.073C153.464 168.073 153.933 168.179 154.36 168.39C154.815 168.572 155.199 168.844 155.512 169.206C155.854 169.569 156.124 169.992 156.323 170.476C156.522 170.929 156.622 171.428 156.622 171.972V177.595C159.012 177.141 161.217 176.28 163.237 175.01C165.285 173.71 167.049 172.123 168.529 170.249C170.036 168.345 171.203 166.214 172.028 163.856C172.882 161.468 173.308 158.929 173.308 156.238C173.308 153.246 172.768 150.435 171.687 147.805C170.634 145.175 169.183 142.877 167.334 140.913C165.513 138.918 163.35 137.361 160.847 136.242C158.372 135.094 155.726 134.52 152.909 134.52ZM229.001 130.983C229.001 129.895 229.356 128.988 230.068 128.263C230.807 127.507 231.675 127.129 232.671 127.129C233.724 127.129 234.606 127.507 235.317 128.263C236.028 128.988 236.384 129.895 236.384 130.983V160.138C236.384 163.645 235.758 166.955 234.506 170.068C233.254 173.182 231.533 175.902 229.342 178.23C227.18 180.527 224.634 182.356 221.703 183.716C218.801 185.046 215.686 185.711 212.357 185.711C209.028 185.711 205.87 185.046 202.883 183.716C199.896 182.356 197.278 180.527 195.031 178.23C192.783 175.902 191.005 173.182 189.696 170.068C188.387 166.955 187.733 163.645 187.733 160.138V131.119C187.733 130.001 188.088 129.064 188.8 128.308C189.539 127.552 190.421 127.175 191.446 127.175C191.958 127.175 192.427 127.28 192.854 127.491C193.309 127.673 193.693 127.945 194.006 128.307C194.348 128.67 194.618 129.094 194.817 129.577C195.016 130.061 195.116 130.574 195.116 131.118V160.138C195.116 162.647 195.585 164.989 196.524 167.166C197.463 169.312 198.715 171.186 200.28 172.788C201.873 174.36 203.708 175.615 205.785 176.552C207.89 177.459 210.095 177.912 212.4 177.912C214.704 177.912 216.866 177.459 218.886 176.552C220.906 175.615 222.656 174.345 224.136 172.743C225.644 171.111 226.824 169.221 227.678 167.075C228.56 164.899 229.001 162.571 229.001 160.092V160.001V159.819V130.983ZM271.122 126.676C273.683 126.676 276.144 127.039 278.505 127.764C280.867 128.459 283.071 129.442 285.12 130.711C287.197 131.981 289.075 133.522 290.753 135.336C292.46 137.15 293.911 139.145 295.106 141.321C296.33 143.498 297.268 145.856 297.923 148.395C298.606 150.904 298.947 153.518 298.947 156.239C298.947 160.32 298.207 164.144 296.728 167.711C295.277 171.277 293.285 174.406 290.753 177.096C288.25 179.757 285.305 181.857 281.919 183.399C278.562 184.941 274.963 185.711 271.122 185.711C268.562 185.711 266.086 185.364 263.697 184.669C261.335 183.973 259.13 182.991 257.082 181.721C255.033 180.422 253.17 178.88 251.491 177.096C249.813 175.283 248.376 173.288 247.181 171.111C245.986 168.935 245.061 166.592 244.407 164.083C243.753 161.574 243.425 158.96 243.425 156.239C243.425 153.518 243.753 150.904 244.407 148.395C245.061 145.856 245.986 143.498 247.181 141.321C248.376 139.145 249.813 137.15 251.491 135.336C253.17 133.522 255.033 131.981 257.082 130.711C259.13 129.442 261.335 128.459 263.697 127.764C266.086 127.039 268.562 126.676 271.122 126.676ZM271.165 134.52C268.32 134.52 265.66 135.094 263.185 136.243C260.71 137.361 258.547 138.918 256.698 140.913C254.877 142.878 253.44 145.175 252.388 147.805C251.335 150.435 250.809 153.246 250.809 156.239C250.809 159.262 251.335 162.088 252.388 164.718C253.44 167.348 254.877 169.645 256.698 171.61C258.547 173.544 260.71 175.086 263.185 176.235C265.66 177.353 268.32 177.913 271.165 177.913C273.982 177.913 276.628 177.353 279.103 176.235C281.607 175.086 283.769 173.544 285.59 171.61C287.439 169.645 288.89 167.348 289.943 164.718C291.024 162.088 291.564 159.262 291.564 156.239C291.564 153.246 291.024 150.435 289.943 147.805C288.89 145.175 287.439 142.878 285.59 140.913C283.769 138.918 281.607 137.361 279.103 136.243C276.628 135.094 273.982 134.52 271.165 134.52ZM311.366 127.129H326.9C329.66 127.129 332.263 127.658 334.71 128.716C337.157 129.774 339.291 131.225 341.112 133.069C342.932 134.913 344.369 137.104 345.422 139.644C346.474 142.183 347.001 144.919 347.001 147.851C347.001 149.967 346.716 151.962 346.148 153.836C345.607 155.71 344.839 157.433 343.843 159.005C342.848 160.547 341.653 161.922 340.258 163.131C338.864 164.34 337.328 165.338 335.649 166.123L344.953 178.457C345.323 178.85 345.593 179.303 345.764 179.817C345.963 180.301 346.048 180.799 346.02 181.313C346.02 181.797 345.921 182.281 345.722 182.764C345.523 183.248 345.238 183.671 344.868 184.034C344.128 184.789 343.317 185.167 342.435 185.167C341.553 185.14 340.742 184.747 340.003 183.988L327.627 168.028H326.859H314.909V181.313C314.909 182.401 314.539 183.323 313.8 184.079C313.089 184.805 312.235 185.167 311.239 185.167C310.215 185.167 309.333 184.805 308.593 184.079C307.882 183.323 307.526 182.401 307.526 181.313V131.029C307.526 129.94 307.882 129.018 308.593 128.263C309.333 127.507 310.215 127.129 311.239 127.129H311.366ZM314.908 134.973V160.229H326.943C328.735 160.229 330.4 159.912 331.936 159.277C333.501 158.612 334.852 157.735 335.99 156.647C337.128 155.529 338.01 154.214 338.636 152.702C339.291 151.191 339.618 149.574 339.618 147.851C339.618 146.097 339.291 144.45 338.636 142.908C338.01 141.336 337.128 139.961 335.99 138.782C334.852 137.603 333.515 136.681 331.979 136.016C330.471 135.321 328.835 134.973 327.071 134.973H314.908Z"
      fill="#040404" />
    <path
      d="M293.738 9.6984C292.888 9.17717 292.628 9.15275 291.698 9.41794C289.559 10.0276 283.862 13.6182 279.95 16.8487C275.787 20.2738 271.148 25.2128 268.228 29.3424C267.633 30.201 267.085 30.8738 267.03 30.8402C266.975 30.8097 267.109 30.0549 267.345 29.1506C267.898 27.0241 268.688 22.0732 268.956 19.0925C269.344 14.8465 269.272 9.96885 268.77 5.31212C268.47 2.46841 268.283 1.63533 267.724 0.982117C267.16 0.305431 265.719 -0.170059 264.92 0.0576366C264.012 0.315712 263.1 1.38779 262.937 2.39418C262.868 2.85648 262.922 5.54917 263.026 8.3502C263.306 15.0641 263.155 21.261 262.505 28.2395C262.03 33.5192 262.026 33.9634 262.45 34.3595C262.88 34.7791 262.811 34.8725 258.493 40.532C256.073 43.7068 252.931 47.875 251.49 49.7867L248.891 53.259L249.659 49.3236C250.562 44.6359 250.932 39.2139 250.409 38.0582C249.999 37.1661 248.638 36.2731 247.727 36.3355C246.881 36.3761 245.834 37.0954 245.418 37.9281C245.25 38.2716 244.928 40.2092 244.721 42.2372C243.814 51.135 241.89 57.4673 238.014 64.3305C237.354 65.4784 236.94 66.0396 236.956 65.7394C236.987 63.1955 235.843 57.0967 234.574 53.0766C233.129 48.5404 230.483 42.9185 228.94 41.1178C227.829 39.8343 225.482 40.0839 224.61 41.5873C223.855 42.91 223.997 43.6572 225.865 47.4821C228.15 52.2224 229.006 54.514 230.123 58.9464C231.241 63.3787 231.42 64.7308 231.941 72.9514L232.31 79.0986L230.028 83.4647C225.723 91.6563 221.614 100.531 218.529 108.326C217.773 110.288 217.097 111.835 217.042 111.801C216.988 111.77 216.919 111.221 216.914 110.557C216.681 104.027 214.917 96.8497 212.026 90.8054C209.391 85.2293 208.198 83.8954 206.382 84.4123C204.458 84.9599 203.734 86.4954 204.449 88.5069C204.676 89.1318 205.526 91.0311 206.351 92.7407C208.328 96.904 209.59 100.532 210.47 104.663C211.27 108.571 211.344 109.14 211.871 117.015C212.175 121.531 212.317 122.918 212.568 122.994C212.791 123.055 212.149 125.009 210.498 129.393L208.122 135.681C207.459 138.112 210.494 139.361 211.494 137.109L213.864 130.798C216.224 124.538 216.261 124.503 217.134 124.107C217.614 123.896 220.281 122.62 223.06 121.238C227.961 118.809 228.236 118.706 232.862 117.389C238.136 115.888 239.652 115.653 245.545 115.502C249.414 115.41 250.208 115.159 250.925 113.871C251.78 112.299 251.025 110.225 249.398 109.654C248.001 109.165 243.202 109.153 239.399 109.593C233.288 110.348 228.445 111.998 221.928 115.551C220.954 116.099 226.717 110.2 229.134 108.208C233.292 104.76 236.927 102.641 242.877 100.234C244.727 99.4861 246.371 98.747 246.558 98.5706C247.295 97.8188 247.638 96.5154 247.372 95.4589C247.134 94.517 246.968 94.3186 246.015 93.7531L244.908 93.1323L242.79 93.7357C236.976 95.3909 229.956 99.4324 225.292 103.812C224.602 104.477 223.991 104.995 223.937 104.961C223.635 104.776 230.989 89.2923 233.913 83.9804L235.732 80.6317L240.741 78.1718C247.232 74.9703 250.031 73.8533 253.86 72.9602C257.619 72.0631 260.539 71.6988 264.755 71.6061C269.042 71.5147 269.388 71.4193 270.173 69.9408C270.79 68.8051 270.794 68.73 270.418 67.6064C269.861 66.0419 269.035 65.6124 266.194 65.4613C258.463 65.0285 250.457 66.8154 243.405 70.546C242.119 71.2318 241.031 71.788 241.004 71.7713C240.779 71.6138 247.847 61.0602 251.8 55.6029C254.743 51.5651 265.329 37.5977 265.502 37.5485C265.567 37.5281 265.799 37.8087 266.043 38.1328C266.359 38.5595 266.6 38.6875 266.821 38.5514C266.998 38.4274 268.058 37.8543 269.183 37.2633C277 33.1673 283.986 32.1138 292.713 33.74C296.137 34.3649 297.196 34.0632 297.694 32.2726C298.32 29.9775 297.137 28.9607 292.856 28.0626C287.797 27.0168 284.046 27.0262 278.619 28.1032L275.221 28.7748L276.082 27.964C278.975 25.1959 288.137 18.3535 293.061 15.2781C293.861 14.7793 294.434 14.1983 294.766 13.5867C295.225 12.7424 295.248 12.4649 294.993 11.4545C294.737 10.4445 294.588 10.2196 293.738 9.6984ZM266.494 33.3064C266.262 33.3978 269.595 33.4466 269.958 32.4072C269.968 32.3563 267.046 31.8199 267.428 31.9571L268.116 32.2041L267.456 32.7121C267.086 32.9895 266.645 33.2637 266.494 33.3064Z"
      fill="#040404" />
    <path
      d="M183.344 198.32C183.477 198.462 183.544 198.632 183.544 198.83C183.544 199.023 183.477 199.193 183.344 199.34C183.21 199.482 183.047 199.556 182.855 199.562C182.663 199.562 182.501 199.491 182.367 199.349C181.983 198.942 181.556 198.638 181.087 198.44C180.623 198.242 180.143 198.142 179.647 198.142C179.124 198.142 178.63 198.25 178.166 198.465C177.702 198.675 177.297 198.964 176.95 199.332C176.609 199.695 176.337 200.123 176.134 200.616C175.937 201.109 175.838 201.639 175.838 202.206C175.838 202.75 175.934 203.268 176.126 203.761C176.318 204.249 176.582 204.68 176.918 205.054C177.254 205.428 177.652 205.725 178.11 205.947C178.574 206.168 179.079 206.278 179.623 206.278C180.124 206.284 180.604 206.193 181.063 206.006C181.522 205.813 181.951 205.51 182.351 205.096C182.415 205.029 182.49 204.978 182.575 204.943C182.661 204.909 182.746 204.892 182.831 204.892C182.922 204.892 183.01 204.909 183.095 204.943C183.181 204.97 183.256 205.018 183.32 205.087C183.389 205.156 183.44 205.238 183.472 205.334C183.503 205.425 183.519 205.518 183.519 205.615C183.519 205.705 183.503 205.796 183.472 205.887C183.44 205.972 183.392 206.048 183.328 206.117C182.805 206.672 182.226 207.083 181.591 207.349C180.956 207.616 180.298 207.749 179.615 207.749C179.14 207.749 178.681 207.684 178.238 207.554C177.801 207.418 177.39 207.23 177.006 206.993C176.627 206.754 176.281 206.468 175.966 206.134C175.651 205.794 175.382 205.42 175.158 205.012C174.934 204.598 174.76 204.159 174.638 203.694C174.515 203.224 174.454 202.734 174.454 202.223C174.454 201.736 174.512 201.262 174.63 200.804C174.747 200.339 174.912 199.903 175.126 199.494C175.345 199.081 175.609 198.701 175.918 198.355C176.227 198.01 176.574 197.712 176.958 197.462C177.348 197.213 177.766 197.02 178.215 196.884C178.668 196.742 179.148 196.672 179.655 196.672C180.327 196.672 180.98 196.81 181.615 197.088C182.25 197.36 182.826 197.771 183.344 198.32ZM193.434 196.671C193.914 196.671 194.375 196.739 194.818 196.875C195.261 197.005 195.674 197.189 196.058 197.428C196.448 197.666 196.8 197.954 197.115 198.294C197.435 198.634 197.707 199.009 197.931 199.417C198.16 199.825 198.336 200.267 198.459 200.743C198.587 201.213 198.651 201.703 198.651 202.214C198.651 202.979 198.512 203.696 198.235 204.365C197.963 205.033 197.589 205.62 197.115 206.125C196.645 206.623 196.093 207.017 195.458 207.306C194.829 207.595 194.154 207.74 193.434 207.74C192.954 207.74 192.49 207.675 192.041 207.545C191.599 207.415 191.185 207.231 190.801 206.992C190.417 206.748 190.068 206.459 189.753 206.125C189.438 205.785 189.169 205.41 188.945 205.002C188.721 204.595 188.547 204.155 188.425 203.685C188.302 203.214 188.241 202.724 188.241 202.214C188.241 201.704 188.302 201.214 188.425 200.743C188.547 200.267 188.721 199.825 188.945 199.417C189.169 199.009 189.438 198.635 189.753 198.294C190.068 197.954 190.417 197.666 190.801 197.428C191.185 197.189 191.599 197.005 192.041 196.875C192.49 196.739 192.954 196.671 193.434 196.671ZM193.442 198.142C192.908 198.142 192.41 198.249 191.945 198.465C191.481 198.675 191.076 198.967 190.729 199.34C190.388 199.709 190.118 200.14 189.921 200.633C189.724 201.126 189.625 201.653 189.625 202.214C189.625 202.781 189.724 203.311 189.921 203.804C190.118 204.297 190.388 204.728 190.729 205.096C191.076 205.459 191.481 205.748 191.945 205.963C192.41 206.173 192.908 206.278 193.442 206.278C193.97 206.278 194.466 206.173 194.93 205.963C195.4 205.747 195.805 205.459 196.146 205.096C196.493 204.728 196.765 204.297 196.963 203.804C197.165 203.311 197.267 202.781 197.267 202.214C197.267 201.653 197.165 201.126 196.963 200.633C196.765 200.14 196.493 199.709 196.146 199.34C195.805 198.967 195.4 198.675 194.93 198.465C194.466 198.249 193.97 198.142 193.442 198.142ZM206.821 202.775C206.373 202.679 205.949 202.551 205.549 202.392C205.148 202.227 204.796 202.023 204.492 201.78C204.188 201.531 203.948 201.239 203.772 200.904C203.596 200.564 203.508 200.168 203.508 199.714C203.508 199.255 203.599 198.838 203.78 198.465C203.967 198.091 204.212 197.77 204.516 197.503C204.82 197.237 205.17 197.033 205.565 196.892C205.959 196.745 206.365 196.671 206.781 196.671C207.09 196.671 207.394 196.705 207.693 196.773C207.997 196.84 208.28 196.942 208.541 197.079C208.803 197.209 209.04 197.373 209.253 197.571C209.472 197.77 209.654 197.999 209.798 198.26C209.872 198.402 209.891 198.546 209.854 198.694C209.816 198.836 209.755 198.949 209.67 199.034C209.574 199.131 209.443 199.19 209.278 199.213C209.118 199.234 208.961 199.186 208.806 199.069C208.656 198.904 208.51 198.763 208.366 198.644C208.222 198.525 208.07 198.429 207.91 198.356C207.75 198.282 207.579 198.228 207.398 198.194C207.222 198.16 207.021 198.143 206.797 198.143C206.557 198.143 206.323 198.18 206.093 198.254C205.864 198.322 205.658 198.424 205.477 198.56C205.301 198.69 205.157 198.852 205.045 199.045C204.938 199.237 204.885 199.458 204.885 199.708C204.885 199.98 204.952 200.207 205.085 200.388C205.224 200.563 205.402 200.713 205.621 200.838C205.845 200.957 206.099 201.056 206.381 201.136C206.664 201.215 206.949 201.291 207.237 201.365C207.622 201.478 207.995 201.615 208.358 201.774C208.726 201.932 209.051 202.131 209.334 202.369C209.617 202.607 209.843 202.893 210.014 203.228C210.19 203.562 210.278 203.962 210.278 204.426C210.278 204.914 210.185 205.362 209.998 205.77C209.817 206.172 209.566 206.521 209.246 206.815C208.931 207.105 208.56 207.331 208.134 207.495C207.707 207.66 207.251 207.742 206.765 207.742C206.376 207.742 206 207.688 205.637 207.58C205.28 207.473 204.949 207.325 204.645 207.138C204.346 206.952 204.082 206.73 203.853 206.475C203.629 206.22 203.455 205.948 203.333 205.659C203.226 205.415 203.207 205.208 203.276 205.038C203.345 204.863 203.455 204.735 203.604 204.656C203.775 204.56 203.938 204.54 204.092 204.595C204.247 204.649 204.402 204.786 204.556 205.004C204.775 205.401 205.082 205.712 205.477 205.938C205.877 206.165 206.327 206.279 206.829 206.279C207.08 206.279 207.328 206.242 207.573 206.168C207.824 206.089 208.045 205.975 208.237 205.828C208.435 205.675 208.595 205.488 208.717 205.267C208.84 205.046 208.901 204.791 208.901 204.502C208.901 204.219 208.84 203.983 208.717 203.796C208.595 203.609 208.435 203.453 208.237 203.328C208.04 203.204 207.816 203.102 207.565 203.022C207.32 202.937 207.072 202.854 206.821 202.775ZM216.871 199.451V206.915C216.871 207.119 216.802 207.292 216.663 207.434C216.53 207.571 216.37 207.639 216.183 207.639C215.991 207.639 215.826 207.571 215.687 207.434C215.553 207.293 215.487 207.12 215.487 206.915V197.478C215.487 197.275 215.553 197.105 215.687 196.968C215.826 196.827 215.991 196.756 216.183 196.756H216.207C216.388 196.77 216.546 196.84 216.679 196.968L220.352 201.695L224.025 196.968C224.137 196.861 224.265 196.793 224.409 196.764C224.42 196.764 224.433 196.764 224.449 196.764C224.465 196.759 224.478 196.756 224.489 196.756C224.537 196.756 224.574 196.759 224.601 196.764C224.772 196.785 224.916 196.864 225.033 197.002C225.151 197.132 225.209 197.291 225.209 197.478V206.915C225.209 207.119 225.14 207.292 225.001 207.434C224.868 207.571 224.705 207.639 224.513 207.639C224.326 207.639 224.164 207.571 224.025 207.434C223.892 207.293 223.825 207.12 223.825 206.915V199.459L220.88 203.243L220.816 203.324C220.736 203.409 220.662 203.466 220.592 203.494C220.373 203.596 220.168 203.565 219.976 203.402L219.904 203.331L216.871 199.451ZM231.554 207.638C231.368 207.618 231.213 207.541 231.09 207.408C230.973 207.267 230.914 207.097 230.914 206.898V197.487C230.914 197.277 230.984 197.104 231.122 196.969C231.261 196.827 231.426 196.756 231.618 196.756H237.444C237.636 196.756 237.796 196.827 237.924 196.969C238.057 197.11 238.124 197.283 238.124 197.487C238.124 197.691 238.057 197.867 237.924 198.014C237.796 198.156 237.636 198.227 237.444 198.227H232.299V201.33H236.268C236.364 201.33 236.452 201.35 236.532 201.391C236.617 201.431 236.692 201.485 236.756 201.552C236.82 201.62 236.868 201.699 236.9 201.79C236.937 201.875 236.956 201.969 236.956 202.07C236.956 202.274 236.889 202.447 236.756 202.589C236.623 202.725 236.46 202.793 236.268 202.793H232.299V206.168H237.444C237.54 206.168 237.628 206.188 237.708 206.229C237.794 206.27 237.866 206.324 237.924 206.391C237.988 206.458 238.036 206.537 238.068 206.628C238.106 206.714 238.125 206.807 238.125 206.909C238.125 207.119 238.058 207.294 237.925 207.436C237.797 207.578 237.637 207.646 237.445 207.64L231.554 207.638ZM234.947 195.566C234.878 195.645 234.798 195.704 234.707 195.744C234.622 195.778 234.534 195.795 234.443 195.795C234.358 195.795 234.272 195.778 234.187 195.744C234.107 195.704 234.035 195.647 233.971 195.575C233.902 195.501 233.848 195.419 233.811 195.328C233.773 195.237 233.754 195.146 233.754 195.056C233.754 194.959 233.77 194.866 233.802 194.775C233.84 194.684 233.896 194.602 233.97 194.528L235.123 193.287C235.192 193.213 235.269 193.159 235.355 193.125C235.445 193.085 235.533 193.064 235.619 193.064C235.709 193.064 235.797 193.085 235.883 193.125C235.968 193.159 236.045 193.21 236.115 193.279C236.184 193.353 236.235 193.435 236.267 193.526C236.304 193.616 236.323 193.71 236.323 193.806C236.323 193.897 236.304 193.988 236.267 194.078C236.235 194.164 236.184 194.243 236.115 194.316L234.947 195.566ZM247.166 198.227V206.915C247.166 207.018 247.147 207.114 247.11 207.204C247.078 207.289 247.03 207.366 246.965 207.434C246.901 207.494 246.827 207.546 246.741 207.587C246.656 207.621 246.565 207.638 246.469 207.638C246.283 207.638 246.123 207.567 245.989 207.425C245.856 207.284 245.789 207.114 245.789 206.915V198.227H243.093C242.997 198.227 242.906 198.206 242.821 198.166C242.741 198.125 242.669 198.071 242.605 198.004C242.546 197.936 242.498 197.859 242.461 197.774C242.429 197.684 242.413 197.588 242.413 197.486C242.413 197.282 242.479 197.109 242.613 196.968C242.746 196.826 242.906 196.755 243.093 196.755H249.862C250.054 196.755 250.217 196.829 250.35 196.977C250.484 197.119 250.55 197.291 250.55 197.495C250.55 197.699 250.484 197.872 250.35 198.013C250.217 198.155 250.054 198.226 249.862 198.226L247.166 198.227ZM256.768 206.915C256.768 207.119 256.699 207.292 256.56 207.434C256.427 207.571 256.267 207.639 256.08 207.639C255.888 207.639 255.723 207.571 255.584 207.434C255.45 207.293 255.384 207.12 255.384 206.915V197.478C255.384 197.275 255.45 197.105 255.584 196.968C255.722 196.827 255.888 196.756 256.08 196.756C256.267 196.756 256.427 196.827 256.56 196.968C256.699 197.105 256.768 197.275 256.768 197.478V206.915ZM270.779 198.32C270.913 198.462 270.979 198.632 270.979 198.83C270.979 199.023 270.913 199.193 270.779 199.34C270.646 199.482 270.483 199.556 270.291 199.562C270.099 199.562 269.936 199.491 269.803 199.349C269.419 198.942 268.992 198.638 268.523 198.44C268.059 198.242 267.579 198.142 267.082 198.142C266.56 198.142 266.066 198.25 265.602 198.465C265.138 198.675 264.733 198.964 264.386 199.332C264.044 199.695 263.772 200.123 263.57 200.616C263.372 201.109 263.274 201.639 263.274 202.206C263.274 202.75 263.37 203.268 263.562 203.761C263.754 204.249 264.018 204.68 264.354 205.054C264.69 205.428 265.087 205.725 265.546 205.947C266.01 206.168 266.514 206.278 267.058 206.278C267.56 206.284 268.04 206.193 268.499 206.006C268.958 205.813 269.387 205.51 269.787 205.096C269.851 205.029 269.926 204.978 270.011 204.943C270.096 204.909 270.182 204.892 270.267 204.892C270.358 204.892 270.446 204.909 270.531 204.943C270.617 204.97 270.691 205.018 270.755 205.087C270.825 205.156 270.875 205.238 270.907 205.334C270.939 205.425 270.955 205.518 270.955 205.615C270.955 205.705 270.939 205.796 270.907 205.887C270.875 205.972 270.827 206.048 270.763 206.117C270.241 206.672 269.662 207.083 269.027 207.349C268.392 207.616 267.733 207.749 267.05 207.749C266.576 207.749 266.117 207.684 265.674 207.554C265.237 207.418 264.826 207.23 264.442 206.993C264.063 206.754 263.716 206.468 263.402 206.134C263.087 205.794 262.818 205.42 262.594 205.012C262.369 204.598 262.196 204.159 262.073 203.694C261.951 203.224 261.889 202.734 261.889 202.223C261.889 201.736 261.948 201.262 262.065 200.804C262.183 200.339 262.348 199.903 262.562 199.494C262.78 199.081 263.044 198.701 263.354 198.355C263.663 198.01 264.01 197.712 264.394 197.462C264.783 197.213 265.202 197.02 265.65 196.884C266.104 196.742 266.584 196.672 267.091 196.672C267.763 196.672 268.416 196.81 269.051 197.088C269.686 197.36 270.262 197.771 270.779 198.32ZM280.87 196.671C281.35 196.671 281.811 196.739 282.254 196.875C282.697 197.005 283.11 197.189 283.494 197.428C283.884 197.666 284.236 197.954 284.55 198.294C284.87 198.634 285.142 199.009 285.367 199.417C285.596 199.825 285.772 200.267 285.895 200.743C286.023 201.213 286.087 201.703 286.087 202.214C286.087 202.979 285.948 203.696 285.671 204.365C285.399 205.033 285.025 205.62 284.55 206.125C284.081 206.623 283.529 207.017 282.894 207.306C282.265 207.595 281.59 207.74 280.87 207.74C280.39 207.74 279.925 207.675 279.477 207.545C279.034 207.415 278.621 207.231 278.237 206.992C277.853 206.748 277.504 206.459 277.189 206.125C276.874 205.785 276.605 205.41 276.381 205.002C276.157 204.595 275.983 204.155 275.86 203.685C275.738 203.214 275.676 202.724 275.676 202.214C275.676 201.704 275.738 201.214 275.86 200.743C275.983 200.267 276.157 199.825 276.381 199.417C276.605 199.009 276.874 198.635 277.189 198.294C277.504 197.954 277.853 197.666 278.237 197.428C278.621 197.189 279.035 197.005 279.477 196.875C279.925 196.739 280.389 196.671 280.87 196.671ZM280.878 198.142C280.344 198.142 279.845 198.249 279.381 198.465C278.917 198.675 278.512 198.967 278.165 199.34C277.824 199.709 277.554 200.14 277.357 200.633C277.159 201.126 277.061 201.653 277.061 202.214C277.061 202.781 277.159 203.311 277.357 203.804C277.554 204.297 277.824 204.728 278.165 205.096C278.512 205.459 278.917 205.748 279.381 205.963C279.845 206.173 280.344 206.278 280.878 206.278C281.406 206.278 281.902 206.173 282.366 205.963C282.835 205.747 283.241 205.459 283.582 205.096C283.929 204.728 284.201 204.297 284.398 203.804C284.601 203.311 284.702 202.781 284.702 202.214C284.702 201.653 284.601 201.126 284.398 200.633C284.201 200.14 283.929 199.709 283.582 199.34C283.241 198.967 282.835 198.675 282.366 198.465C281.902 198.249 281.406 198.142 280.878 198.142ZM294.257 202.775C293.808 202.679 293.384 202.551 292.984 202.392C292.584 202.227 292.232 202.023 291.928 201.78C291.624 201.531 291.384 201.239 291.208 200.904C291.032 200.564 290.944 200.168 290.944 199.714C290.944 199.255 291.035 198.838 291.216 198.465C291.402 198.091 291.648 197.77 291.952 197.503C292.256 197.237 292.605 197.033 293 196.892C293.395 196.745 293.8 196.671 294.216 196.671C294.526 196.671 294.83 196.705 295.129 196.773C295.433 196.84 295.716 196.942 295.977 197.079C296.238 197.209 296.476 197.373 296.689 197.571C296.908 197.77 297.09 197.999 297.234 198.26C297.308 198.402 297.327 198.546 297.291 198.694C297.253 198.836 297.191 198.949 297.107 199.034C297.011 199.131 296.88 199.19 296.715 199.213C296.555 199.234 296.398 199.186 296.243 199.069C296.094 198.904 295.947 198.763 295.803 198.644C295.659 198.525 295.507 198.429 295.347 198.356C295.187 198.282 295.016 198.228 294.834 198.194C294.658 198.16 294.458 198.143 294.235 198.143C293.994 198.143 293.76 198.18 293.531 198.254C293.301 198.322 293.096 198.424 292.915 198.56C292.739 198.69 292.595 198.852 292.483 199.045C292.376 199.237 292.323 199.458 292.323 199.708C292.323 199.98 292.39 200.207 292.523 200.388C292.662 200.563 292.841 200.713 293.059 200.838C293.283 200.957 293.537 201.056 293.82 201.136C294.102 201.215 294.387 201.291 294.675 201.365C295.059 201.478 295.433 201.615 295.796 201.774C296.164 201.932 296.489 202.131 296.772 202.369C297.054 202.607 297.281 202.893 297.452 203.228C297.628 203.562 297.716 203.962 297.716 204.426C297.716 204.914 297.622 205.362 297.436 205.77C297.254 206.172 297.003 206.521 296.683 206.815C296.368 207.105 295.997 207.331 295.571 207.495C295.144 207.66 294.688 207.742 294.202 207.742C293.813 207.742 293.437 207.688 293.074 207.58C292.717 207.473 292.386 207.325 292.082 207.138C291.784 206.952 291.52 206.73 291.29 206.475C291.066 206.22 290.892 205.948 290.77 205.659C290.663 205.415 290.645 205.208 290.714 205.038C290.783 204.863 290.892 204.735 291.042 204.656C291.213 204.56 291.375 204.54 291.529 204.595C291.684 204.649 291.839 204.786 291.993 205.004C292.212 205.401 292.519 205.712 292.913 205.938C293.314 206.165 293.764 206.279 294.266 206.279C294.516 206.279 294.764 206.242 295.009 206.168C295.26 206.089 295.482 205.975 295.674 205.828C295.872 205.675 296.032 205.488 296.154 205.267C296.277 205.046 296.338 204.791 296.338 204.502C296.338 204.219 296.277 203.983 296.154 203.796C296.032 203.609 295.872 203.453 295.674 203.328C295.477 203.204 295.252 203.102 295.002 203.022C294.756 202.937 294.507 202.854 294.257 202.775Z"
      fill="#040404" />
    <path
      d="M183.624 224.731C183.624 224.861 183.594 224.98 183.536 225.088C183.482 225.195 183.407 225.28 183.311 225.343C183.231 225.404 183.138 225.438 183.031 225.444C183.026 225.444 183.021 225.447 183.015 225.453C183.01 225.453 183.004 225.453 182.999 225.453H182.959H182.935C182.732 225.447 182.564 225.356 182.447 225.18L182.415 225.14L176.422 217.301V224.732C176.422 224.936 176.352 225.109 176.214 225.25C176.08 225.386 175.92 225.454 175.734 225.454C175.542 225.454 175.376 225.386 175.238 225.25C175.104 225.109 175.037 224.936 175.037 224.732V215.321C175.037 215.111 175.104 214.94 175.238 214.81C175.296 214.737 175.365 214.68 175.445 214.641C175.525 214.593 175.621 214.57 175.734 214.57C175.947 214.57 176.131 214.663 176.286 214.85L182.247 222.654V215.292C182.247 215.19 182.266 215.096 182.303 215.012C182.341 214.921 182.389 214.844 182.448 214.782C182.512 214.714 182.586 214.663 182.672 214.629C182.757 214.588 182.848 214.568 182.944 214.568C183.141 214.568 183.304 214.638 183.432 214.78C183.56 214.922 183.624 215.092 183.624 215.29L183.624 224.731ZM195.418 223.15H190.497L189.753 225.012C189.715 225.108 189.662 225.19 189.593 225.258C189.529 225.326 189.454 225.377 189.369 225.412C189.283 225.446 189.193 225.459 189.097 225.453C189.006 225.453 188.915 225.429 188.825 225.381C188.643 225.302 188.523 225.172 188.465 224.99C188.411 224.803 188.425 224.613 188.505 224.42L192.322 215.017C192.38 214.87 192.463 214.76 192.57 214.686C192.682 214.607 192.81 214.567 192.954 214.567C193.092 214.567 193.215 214.607 193.322 214.686C193.434 214.76 193.519 214.868 193.578 215.009L197.403 224.421C197.483 224.607 197.496 224.794 197.443 224.981C197.389 225.168 197.275 225.301 197.099 225.381C196.918 225.465 196.736 225.476 196.555 225.411C196.379 225.337 196.248 225.204 196.163 225.012L195.418 223.15ZM191.049 221.687H194.85L192.962 216.918L191.049 221.687ZM206.101 216.042V224.731C206.101 224.833 206.082 224.929 206.044 225.02C206.012 225.105 205.964 225.181 205.9 225.249C205.836 225.31 205.761 225.361 205.676 225.403C205.591 225.437 205.5 225.454 205.404 225.454C205.217 225.454 205.057 225.383 204.924 225.241C204.791 225.1 204.724 224.93 204.724 224.731V216.042H202.027C201.931 216.042 201.841 216.022 201.755 215.981C201.675 215.941 201.603 215.887 201.539 215.82C201.48 215.752 201.432 215.675 201.395 215.59C201.363 215.499 201.347 215.403 201.347 215.301C201.347 215.097 201.414 214.924 201.547 214.782C201.681 214.641 201.841 214.57 202.027 214.57H208.797C208.989 214.57 209.152 214.643 209.285 214.79C209.418 214.932 209.485 215.105 209.485 215.309C209.485 215.513 209.418 215.686 209.285 215.828C209.152 215.969 208.989 216.04 208.797 216.04L206.101 216.042ZM221.768 215.294C221.768 215.091 221.835 214.921 221.968 214.784C222.107 214.643 222.27 214.572 222.456 214.572C222.654 214.572 222.819 214.643 222.952 214.784C223.086 214.921 223.153 215.091 223.153 215.294V220.761C223.153 221.419 223.035 222.039 222.8 222.623C222.566 223.207 222.243 223.717 221.832 224.153C221.427 224.584 220.949 224.927 220.4 225.182C219.856 225.431 219.272 225.556 218.647 225.556C218.023 225.556 217.431 225.431 216.871 225.182C216.311 224.927 215.82 224.584 215.399 224.153C214.977 223.717 214.644 223.207 214.398 222.623C214.153 222.039 214.03 221.418 214.03 220.761V215.32C214.03 215.11 214.097 214.934 214.231 214.793C214.369 214.651 214.535 214.58 214.727 214.58C214.823 214.58 214.911 214.601 214.991 214.641C215.076 214.675 215.148 214.726 215.207 214.795C215.271 214.862 215.321 214.942 215.359 215.032C215.396 215.123 215.415 215.219 215.415 215.321V220.762C215.415 221.232 215.503 221.671 215.679 222.08C215.855 222.482 216.09 222.834 216.383 223.134C216.682 223.429 217.026 223.664 217.416 223.839C217.81 224.009 218.224 224.094 218.656 224.094C219.088 224.094 219.493 224.009 219.872 223.839C220.251 223.664 220.579 223.426 220.856 223.125C221.139 222.819 221.36 222.465 221.52 222.062C221.686 221.654 221.769 221.218 221.769 220.753V220.733V220.702L221.768 215.294ZM229.282 214.572H232.195C232.712 214.572 233.2 214.671 233.659 214.87C234.118 215.068 234.518 215.34 234.859 215.686C235.201 216.031 235.47 216.442 235.667 216.918C235.865 217.395 235.963 217.908 235.963 218.457C235.963 218.854 235.91 219.228 235.803 219.579C235.702 219.931 235.558 220.254 235.371 220.549C235.185 220.838 234.961 221.096 234.699 221.322C234.438 221.549 234.15 221.736 233.835 221.883L235.579 224.195C235.649 224.269 235.699 224.354 235.731 224.45C235.769 224.541 235.785 224.634 235.779 224.731C235.779 224.821 235.76 224.912 235.723 225.003C235.685 225.094 235.632 225.173 235.563 225.241C235.424 225.382 235.272 225.453 235.107 225.453C234.941 225.447 234.789 225.374 234.651 225.233L232.331 222.24H232.187H229.946V224.731C229.946 224.935 229.877 225.108 229.738 225.249C229.605 225.385 229.445 225.454 229.258 225.454C229.066 225.454 228.9 225.385 228.762 225.249C228.628 225.108 228.562 224.935 228.562 224.731V215.303C228.562 215.099 228.628 214.926 228.762 214.785C228.9 214.643 229.066 214.572 229.258 214.572L229.282 214.572ZM229.946 216.043V220.778H232.203C232.539 220.778 232.851 220.719 233.139 220.599C233.432 220.475 233.686 220.311 233.899 220.107C234.112 219.897 234.278 219.65 234.395 219.367C234.518 219.084 234.579 218.781 234.579 218.458C234.579 218.129 234.518 217.82 234.395 217.531C234.278 217.236 234.112 216.979 233.899 216.758C233.686 216.537 233.435 216.364 233.147 216.24C232.864 216.11 232.557 216.045 232.227 216.045L229.946 216.043ZM247.278 223.15H242.357L241.613 225.012C241.575 225.108 241.522 225.191 241.453 225.259C241.389 225.327 241.314 225.378 241.229 225.412C241.143 225.446 241.052 225.46 240.956 225.453C240.866 225.453 240.775 225.429 240.684 225.382C240.503 225.303 240.383 225.172 240.324 224.991C240.271 224.804 240.284 224.614 240.365 224.421L244.181 215.018C244.24 214.871 244.323 214.76 244.43 214.687C244.542 214.607 244.669 214.568 244.814 214.568C244.952 214.568 245.075 214.607 245.182 214.687C245.294 214.76 245.379 214.868 245.438 215.01L249.263 224.421C249.343 224.608 249.356 224.795 249.303 224.982C249.249 225.169 249.134 225.302 248.959 225.381C248.777 225.466 248.596 225.476 248.415 225.412C248.238 225.338 248.108 225.205 248.022 225.012L247.278 223.15ZM242.909 221.688H246.71L244.821 216.918L242.909 221.688ZM255.488 224.732C255.488 224.935 255.418 225.108 255.28 225.25C255.146 225.386 254.986 225.454 254.8 225.454C254.608 225.454 254.442 225.386 254.303 225.25C254.17 225.108 254.103 224.935 254.103 224.732V215.295C254.103 215.091 254.17 214.921 254.303 214.785C254.442 214.643 254.608 214.572 254.8 214.572C254.986 214.572 255.146 214.643 255.28 214.785C255.418 214.921 255.488 215.091 255.488 215.295V224.732ZM264.154 220.591C263.706 220.495 263.282 220.368 262.881 220.209C262.481 220.045 262.129 219.84 261.825 219.596C261.521 219.347 261.281 219.055 261.105 218.721C260.929 218.381 260.841 217.984 260.841 217.53C260.841 217.071 260.932 216.655 261.113 216.281C261.3 215.907 261.545 215.587 261.849 215.321C262.153 215.054 262.503 214.85 262.897 214.709C263.292 214.562 263.698 214.488 264.114 214.488C264.423 214.488 264.727 214.522 265.026 214.59C265.33 214.658 265.613 214.76 265.874 214.896C266.135 215.026 266.373 215.19 266.586 215.389C266.805 215.587 266.986 215.817 267.13 216.077C267.205 216.219 267.224 216.364 267.187 216.511C267.149 216.653 267.088 216.766 267.003 216.852C266.907 216.948 266.776 217.007 266.611 217.03C266.451 217.051 266.293 217.003 266.138 216.886C265.989 216.722 265.842 216.58 265.698 216.461C265.554 216.342 265.402 216.246 265.242 216.173C265.082 216.099 264.911 216.045 264.73 216.011C264.554 215.977 264.354 215.961 264.13 215.961C263.89 215.961 263.655 215.998 263.426 216.071C263.197 216.14 262.991 216.242 262.81 216.377C262.634 216.507 262.49 216.669 262.378 216.862C262.271 217.055 262.218 217.276 262.218 217.525C262.218 217.798 262.284 218.024 262.418 218.205C262.556 218.38 262.735 218.53 262.954 218.655C263.178 218.774 263.431 218.874 263.714 218.953C263.997 219.032 264.282 219.109 264.57 219.182C264.954 219.296 265.328 219.432 265.69 219.591C266.059 219.749 266.384 219.948 266.667 220.186C266.949 220.424 267.176 220.71 267.347 221.045C267.523 221.38 267.611 221.779 267.611 222.243C267.611 222.731 267.517 223.179 267.331 223.587C267.149 223.989 266.899 224.338 266.579 224.633C266.264 224.922 265.893 225.148 265.466 225.312C265.04 225.477 264.583 225.559 264.098 225.559C263.709 225.559 263.332 225.505 262.97 225.398C262.612 225.29 262.282 225.143 261.977 224.956C261.679 224.769 261.415 224.548 261.185 224.292C260.961 224.037 260.788 223.765 260.665 223.476C260.558 223.232 260.54 223.026 260.609 222.856C260.678 222.68 260.787 222.552 260.937 222.472C261.108 222.376 261.27 222.356 261.425 222.412C261.58 222.466 261.734 222.602 261.889 222.82C262.108 223.217 262.415 223.529 262.809 223.755C263.209 223.982 263.66 224.095 264.162 224.095C264.412 224.095 264.66 224.058 264.906 223.984C265.157 223.905 265.378 223.792 265.57 223.644C265.767 223.491 265.927 223.304 266.05 223.083C266.173 222.862 266.234 222.607 266.234 222.318C266.234 222.035 266.173 221.8 266.05 221.613C265.927 221.426 265.767 221.27 265.57 221.146C265.373 221.021 265.149 220.919 264.898 220.84C264.652 220.754 264.404 220.67 264.154 220.591Z"
      fill="#040404" />
  </g>
  <defs>
    <clipPath id="clip0_31_386">
      <rect width="347" height="225.557" fill="white" />
    </clipPath>
  </defs>
</svg>