<svg width="1920" height="357" viewBox="0 0 1920 357" fill="none" xmlns="http://www.w3.org/2000/svg">
  <path fill-rule="evenodd" clip-rule="evenodd"
    d="M0 68.6132L80 49.6132C160 30.6132 320 -8.38681 480 1.61319C640 10.6132 800 68.6132 960 116.613C1120 164.613 1280 202.613 1440 193.613C1600 183.613 1760 126.613 1840 97.6132L1920 68.6132V356.613H1840C1760 356.613 1600 356.613 1440 356.613C1280 356.613 1120 356.613 960 356.613C800 356.613 640 356.613 480 356.613C320 356.613 160 356.613 80 356.613H0V68.6132Z"
    fill="#AD426C" />
</svg>