<?xml version="1.0" encoding="UTF-8"?>
<svg width="918.03" height="784.37" version="1.1" viewBox="0 0 918.03 784.37" xmlns="http://www.w3.org/2000/svg">
 <path d="m73.789 658.81c-43.673-65.718-26.108-150.68-31.99-230.04-8.4908-114.55-83.063-241.16-10.021-336.74 71.637-93.741 218.99-85.839 337.09-91.239 104.99-4.8007 208.46 11.804 296.22 62.28 83.2 47.856 136.5 126.68 178.56 210.8 42.048 84.117 100.7 179.64 61.444 269.32-39.106 89.325-159.52 109.99-248.18 157.22-61.098 32.545-120.29 63.079-188.04 75.142-68.216 12.145-135.93 13.143-200.56-5.954-74.503-22.015-153-48.32-194.51-110.79z" clip-rule="evenodd" fill="#c3c780" fill-opacity=".58" fill-rule="evenodd"/>
 <path d="m170.7 517.54 127.6-302h2.4l127.6 302h-48.4l-92.8-236.4 30-19.6-104.8 256zm77.2-108.8h104l14.4 36h-130.8zm345.23 112.8c-15.734 0-30-3.333-42.8-10s-22.934-16.4-30.4-29.2c-7.467-13.067-11.2-29.2-11.2-48.4 0-18.667 3.866-34.667 11.6-48 8-13.6 18.4-24 31.2-31.2 13.066-7.467 27.2-11.2 42.4-11.2 16 0 29.2 3.333 39.6 10s18.4 14.667 24 24l-2.4 6.4 4-33.6h37.2v167.2h-40.4v-42.4l4 10c-1.067 2.133-3.334 5.2-6.8 9.2-3.467 4-8 8.133-13.6 12.4-5.6 4-12.4 7.467-20.4 10.4-7.734 2.933-16.4 4.4-26 4.4zm10.8-33.2c13.333 0 24.533-3.467 33.6-10.4 9.333-7.2 15.466-16.933 18.4-29.2v-34.4c-3.2-10.933-9.734-20-19.6-27.2-9.6-7.2-20.8-10.8-33.6-10.8-9.6 0-18.4 2.4-26.4 7.2-8 4.533-14.4 11.067-19.2 19.6-4.8 8.267-7.2 17.867-7.2 28.8 0 10.667 2.4 20.267 7.2 28.8 5.066 8.533 11.733 15.333 20 20.4 8.266 4.8 17.2 7.2 26.8 7.2z" fill="#3e5f1b" fill-opacity=".8"/>
</svg>
