<svg width="796" height="384" viewBox="0 0 796 384" fill="none" xmlns="http://www.w3.org/2000/svg">
  <mask id="mask0_244_25" style="mask-type:alpha" maskUnits="userSpaceOnUse" x="242" y="5" width="70" height="70">
    <rect x="242" y="5" width="70" height="70" fill="#D9D9D9" />
  </mask>
  <g mask="url(#mask0_244_25)">
    <path
      d="M260.667 59.4073L257.593 56.3339L273.927 40.0005L257.593 23.6672L260.667 20.5938L277 36.9271L293.333 20.5938L296.407 23.6672L280.073 40.0005L296.407 56.3339L293.333 59.4073L277 43.074L260.667 59.4073Z"
      fill="#302E2E" />
  </g>
  <mask id="mask1_244_25" style="mask-type:alpha" maskUnits="userSpaceOnUse" x="0" y="5" width="70" height="70">
    <rect y="5" width="70" height="70" fill="#D9D9D9" />
  </mask>
  <g mask="url(#mask1_244_25)">
    <path
      d="M29.1664 67.1448L2.0188 39.9972L29.1664 12.8496L32.2683 15.9515L8.22255 39.9972L32.2683 64.0429L29.1664 67.1448Z"
      fill="#302E2E" />
  </g>
  <mask id="mask2_244_25" style="mask-type:alpha" maskUnits="userSpaceOnUse" x="363" y="5" width="70" height="70">
    <rect x="363" y="5" width="70" height="70" fill="#D9D9D9" />
  </mask>
  <g mask="url(#mask2_244_25)">
    <path
      d="M390.854 56.4888L375.296 40.9298L378.413 37.8112L390.854 50.2522L417.587 23.5195L420.705 26.6382L390.854 56.4888Z"
      fill="#302E2E" />
  </g>
  <mask id="mask3_244_25" style="mask-type:alpha" maskUnits="userSpaceOnUse" x="484" y="5" width="70" height="70">
    <rect x="484" y="5" width="70" height="70" fill="#D9D9D9" />
  </mask>
  <g mask="url(#mask3_244_25)">
    <path
      d="M518.968 56.3772C519.801 56.3772 520.504 56.0899 521.078 55.5153C521.652 54.9402 521.939 54.2361 521.939 53.4029C521.939 52.5702 521.652 51.8668 521.077 51.2927C520.502 50.7191 519.798 50.4323 518.965 50.4323C518.132 50.4323 517.429 50.7198 516.855 51.2949C516.281 51.8699 515.994 52.5738 515.994 53.4065C515.994 54.2392 516.281 54.9426 516.856 55.5167C517.431 56.0904 518.135 56.3772 518.968 56.3772ZM516.902 45.9333H521.008C521.046 44.4978 521.256 43.3508 521.639 42.4924C522.022 41.6344 522.953 40.4969 524.429 39.0799C525.712 37.797 526.695 36.6124 527.377 35.5259C528.059 34.4399 528.4 33.1573 528.4 31.6781C528.4 29.1673 527.498 27.2061 525.694 25.7945C523.89 24.3833 521.756 23.6777 519.292 23.6777C516.857 23.6777 514.843 24.3274 513.248 25.6267C511.653 26.9261 510.516 28.4564 509.835 30.2176L513.582 31.7204C513.937 30.7521 514.545 29.8088 515.404 28.8905C516.264 27.9727 517.541 27.5138 519.235 27.5138C520.959 27.5138 522.233 27.9858 523.058 28.9299C523.883 29.8744 524.295 30.913 524.295 32.0456C524.295 33.0368 524.013 33.9436 523.448 34.7661C522.884 35.5886 522.164 36.3832 521.289 37.1498C519.374 38.8774 518.164 40.2555 517.66 41.2841C517.155 42.3123 516.902 43.862 516.902 45.9333ZM519.005 67.7077C515.173 67.7077 511.57 66.9805 508.198 65.526C504.826 64.0716 501.893 62.0977 499.398 59.6045C496.904 57.1112 494.929 54.1792 493.474 50.8085C492.019 47.4378 491.292 43.8365 491.292 40.0045C491.292 36.172 492.019 32.5696 493.473 29.1975C494.928 25.8253 496.902 22.8921 499.395 20.3979C501.888 17.9037 504.82 15.9288 508.191 14.4734C511.561 13.0185 515.163 12.291 518.995 12.291C522.827 12.291 526.43 13.0182 529.802 14.4727C533.174 15.9271 536.107 17.901 538.601 20.3942C541.096 22.8875 543.07 25.8195 544.526 29.1902C545.981 32.5609 546.708 36.1622 546.708 39.9942C546.708 43.8267 545.981 47.4291 544.527 50.8012C543.072 54.1734 541.098 57.1066 538.605 59.6008C536.112 62.095 533.18 64.0699 529.809 65.5253C526.438 66.9802 522.837 67.7077 519.005 67.7077ZM519 63.3327C525.514 63.3327 531.031 61.0723 535.552 56.5514C540.073 52.0306 542.333 46.5132 542.333 39.9993C542.333 33.4855 540.073 27.9681 535.552 23.4473C531.031 18.9264 525.514 16.666 519 16.666C512.486 16.666 506.969 18.9264 502.448 23.4473C497.927 27.9681 495.667 33.4855 495.667 39.9993C495.667 46.5132 497.927 52.0306 502.448 56.5514C506.969 61.0723 512.486 63.3327 519 63.3327Z"
      fill="#302E2E" />
  </g>
  <mask id="mask4_244_25" style="mask-type:alpha" maskUnits="userSpaceOnUse" x="484" y="115" width="70" height="70">
    <rect x="484" y="115" width="70" height="70" fill="#D9D9D9" />
  </mask>
  <g mask="url(#mask4_244_25)">
    <path
      d="M519 177.708C514.072 177.708 510.045 177 506.918 175.586C503.792 174.171 502.229 172.345 502.229 170.108C502.229 169.072 502.619 168.098 503.399 167.185C504.178 166.273 505.256 165.489 506.633 164.835L510.076 167.959C509.452 168.21 508.795 168.522 508.107 168.896C507.419 169.27 506.948 169.664 506.694 170.079C507.176 170.951 508.611 171.711 510.999 172.359C513.386 173.008 516.049 173.333 518.986 173.333C521.923 173.333 524.598 173.008 527.01 172.359C529.421 171.711 530.869 170.951 531.351 170.079C531.104 169.634 530.606 169.225 529.857 168.851C529.106 168.477 528.395 168.165 527.722 167.914L531.121 164.745C532.613 165.43 533.761 166.228 534.565 167.141C535.369 168.053 535.771 169.038 535.771 170.095C535.771 172.337 534.208 174.166 531.082 175.582C527.955 176.999 523.928 177.708 519 177.708ZM519.073 163.489C523.904 159.828 527.53 156.202 529.951 152.61C532.373 149.019 533.583 145.452 533.583 141.911C533.583 136.879 532.008 133.08 528.858 130.515C525.707 127.949 522.426 126.666 519.014 126.666C515.602 126.666 512.316 127.95 509.156 130.517C505.996 133.083 504.417 136.884 504.417 141.919C504.417 145.227 505.612 148.657 508.003 152.209C510.395 155.762 514.084 159.522 519.073 163.489ZM519 168.958C512.635 164.199 507.885 159.578 504.748 155.093C501.61 150.609 500.042 146.217 500.042 141.916C500.042 138.667 500.615 135.822 501.761 133.38C502.907 130.938 504.387 128.894 506.2 127.246C508.014 125.599 510.049 124.362 512.305 123.534C514.56 122.705 516.794 122.291 519.004 122.291C521.215 122.291 523.447 122.705 525.7 123.534C527.953 124.362 529.986 125.599 531.8 127.246C533.613 128.894 535.093 130.939 536.239 133.382C537.385 135.826 537.958 138.669 537.958 141.911C537.958 146.213 536.39 150.606 533.252 155.091C530.115 159.576 525.365 164.198 519 168.958ZM519.014 146.774C520.459 146.774 521.697 146.264 522.727 145.243C523.757 144.222 524.273 142.98 524.273 141.515C524.273 140.052 523.756 138.805 522.724 137.775C521.691 136.744 520.45 136.229 519 136.229C517.564 136.229 516.326 136.745 515.287 137.778C514.247 138.811 513.727 140.052 513.727 141.502C513.727 142.975 514.247 144.222 515.287 145.243C516.326 146.264 517.569 146.774 519.014 146.774Z"
      fill="#302E2E" />
  </g>
  <mask id="mask5_244_25" style="mask-type:alpha" maskUnits="userSpaceOnUse" x="605" y="115" width="70" height="70">
    <rect x="605" y="115" width="70" height="70" fill="#D9D9D9" />
  </mask>
  <g mask="url(#mask5_244_25)">
    <path
      d="M623.566 171.905L627.716 161.556C628.061 160.719 628.602 160.047 629.34 159.54C630.079 159.033 630.906 158.78 631.822 158.78H637.813V145.89C630.768 145.703 624.861 144.741 620.091 143.002C615.322 141.263 612.937 139.221 612.937 136.877C612.937 134.356 615.566 132.216 620.823 130.457C626.08 128.698 632.473 127.818 640 127.818C647.557 127.818 653.957 128.698 659.2 130.457C664.442 132.216 667.063 134.356 667.063 136.877C667.063 139.24 664.674 141.286 659.895 143.016C655.116 144.745 649.214 145.703 642.188 145.89V158.78H648.178C649.064 158.78 649.884 159.033 650.637 159.54C651.391 160.047 651.939 160.719 652.284 161.556L656.434 171.905H652.004L648.504 163.155H631.496L627.996 171.905H623.566ZM640 141.56C644.977 141.56 649.561 141.11 653.751 140.208C657.94 139.307 660.755 138.197 662.194 136.877C660.755 135.557 657.94 134.446 653.751 133.545C649.561 132.644 644.977 132.193 640 132.193C635.023 132.193 630.439 132.644 626.249 133.545C622.06 134.446 619.245 135.557 617.806 136.877C619.245 138.197 622.06 139.307 626.249 140.208C630.439 141.11 635.023 141.56 640 141.56Z"
      fill="#302E2E" />
  </g>
  <mask id="mask6_244_25" style="mask-type:alpha" maskUnits="userSpaceOnUse" x="0" y="220" width="70" height="70">
    <rect y="220" width="70" height="70" fill="#D9D9D9" />
  </mask>
  <g mask="url(#mask6_244_25)">
    <path
      d="M12.648 280.241L9.5746 277.167L39.302 247.44C38.3711 245.249 38.2029 242.944 38.7974 240.527C39.3919 238.109 40.712 235.908 42.7575 233.922C44.997 231.683 47.6218 230.269 50.6318 229.682C53.6423 229.095 56.1253 229.779 58.081 231.735C60.0366 233.69 60.7208 236.173 60.1336 239.184C59.5463 242.194 58.133 244.819 55.8935 247.059C53.9077 249.104 51.7061 250.424 49.2887 251.018C46.8712 251.613 44.5668 251.444 42.3754 250.513L37.8881 255.001L60.0548 277.167L56.9814 280.241L34.8147 258.22L12.648 280.241ZM21.4206 255.472L13.0075 247.059C10.6066 244.658 9.36412 241.803 9.28002 238.494C9.19592 235.184 10.2887 232.273 12.5584 229.761L29.8002 247.092L21.4206 255.472Z"
      fill="#302E2E" />
  </g>
  <mask id="mask7_244_25" style="mask-type:alpha" maskUnits="userSpaceOnUse" x="121" y="115" width="70" height="70">
    <rect x="121" y="115" width="70" height="70" fill="#D9D9D9" />
  </mask>
  <g mask="url(#mask7_244_25)">
    <path
      d="M155.995 178.268C154.544 178.268 153.303 177.752 152.273 176.72C151.243 175.687 150.727 174.446 150.727 172.996H161.273C161.273 174.451 160.756 175.693 159.722 176.723C158.689 177.753 157.446 178.268 155.995 178.268ZM134.125 170.079V165.705H139.398V143.941C139.398 140.019 140.608 136.551 143.03 133.537C145.45 130.523 148.559 128.595 152.354 127.754V125.937C152.354 124.924 152.708 124.063 153.417 123.354C154.125 122.645 154.985 122.291 155.996 122.291C157.008 122.291 157.87 122.645 158.58 123.354C159.29 124.063 159.646 124.924 159.646 125.937V126.52C159.167 127.384 158.787 128.263 158.507 129.156C158.226 130.05 158.055 130.978 157.991 131.939C157.659 131.879 157.336 131.826 157.02 131.781C156.705 131.736 156.365 131.714 156 131.714C152.623 131.714 149.741 132.908 147.354 135.296C144.966 137.683 143.773 140.565 143.773 143.941V165.705H168.227V147.47C168.897 147.709 169.604 147.896 170.348 148.031C171.092 148.165 171.844 148.223 172.602 148.205V165.705H177.875V170.079H134.125ZM171.988 141.839C169.762 141.839 167.868 141.059 166.307 139.5C164.745 137.941 163.965 136.048 163.965 133.821C163.965 131.594 164.744 129.7 166.303 128.138C167.862 126.577 169.755 125.797 171.982 125.797C174.209 125.797 176.103 126.576 177.664 128.135C179.226 129.694 180.006 131.587 180.006 133.814C180.006 136.041 179.227 137.936 177.668 139.496C176.109 141.058 174.216 141.839 171.988 141.839Z"
      fill="#302E2E" />
  </g>
  <mask id="mask8_244_25" style="mask-type:alpha" maskUnits="userSpaceOnUse" x="242" y="115" width="70" height="70">
    <rect x="242" y="115" width="70" height="70" fill="#D9D9D9" />
  </mask>
  <g mask="url(#mask8_244_25)">
    <path
      d="M256.583 140.689H297.417V133.397C297.417 133.173 297.323 132.967 297.136 132.78C296.949 132.593 296.744 132.5 296.519 132.5H257.481C257.256 132.5 257.051 132.593 256.864 132.78C256.677 132.967 256.583 133.173 256.583 133.397V140.689ZM257.481 177.708C256.008 177.708 254.76 177.197 253.74 176.177C252.719 175.156 252.208 173.909 252.208 172.435V133.397C252.208 131.924 252.719 130.677 253.74 129.656C254.76 128.635 256.008 128.125 257.481 128.125H261.519V121.955H266.006V128.125H288.106V121.955H292.481V128.125H296.519C297.993 128.125 299.24 128.635 300.26 129.656C301.281 130.677 301.792 131.924 301.792 133.397V149.332C301.092 149.026 300.378 148.778 299.649 148.589C298.92 148.4 298.176 148.252 297.417 148.143V145.064H256.583V172.435C256.583 172.66 256.677 172.865 256.864 173.052C257.051 173.239 257.256 173.333 257.481 173.333H276.445C276.692 174.14 276.99 174.904 277.34 175.624C277.689 176.344 278.087 177.039 278.531 177.708H257.481ZM295.061 180.625C291.419 180.625 288.321 179.348 285.767 176.794C283.213 174.239 281.936 171.142 281.936 167.5C281.936 163.858 283.213 160.76 285.767 158.206C288.321 155.652 291.419 154.375 295.061 154.375C298.703 154.375 301.801 155.652 304.355 158.206C306.909 160.76 308.186 163.858 308.186 167.5C308.186 171.142 306.909 174.239 304.355 176.794C301.801 179.348 298.703 180.625 295.061 180.625ZM299.918 174.174L301.736 172.357L296.351 166.972V158.918H293.771V168.027L299.918 174.174Z"
      fill="#302E2E" />
  </g>
  <mask id="mask9_244_25" style="mask-type:alpha" maskUnits="userSpaceOnUse" x="605" y="5" width="70" height="70">
    <rect x="605" y="5" width="70" height="70" fill="#D9D9D9" />
  </mask>
  <g mask="url(#mask9_244_25)">
    <path
      d="M629.5 53.5728L640 43.0728L650.5 53.5728L653.573 50.4993L643.073 39.9993L653.573 29.4993L650.5 26.4259L640 36.9259L629.5 26.4259L626.427 29.4993L636.927 39.9993L626.427 50.4993L629.5 53.5728ZM640.005 67.7077C636.173 67.7077 632.57 66.9805 629.198 65.526C625.826 64.0716 622.893 62.0977 620.398 59.6045C617.904 57.1112 615.929 54.1792 614.474 50.8085C613.019 47.4378 612.292 43.8365 612.292 40.0045C612.292 36.172 613.019 32.5696 614.473 29.1975C615.928 25.8253 617.902 22.8921 620.395 20.3979C622.888 17.9037 625.82 15.9288 629.191 14.4734C632.561 13.0185 636.163 12.291 639.995 12.291C643.827 12.291 647.43 13.0182 650.802 14.4727C654.174 15.9271 657.107 17.901 659.601 20.3942C662.096 22.8875 664.07 25.8195 665.526 29.1902C666.981 32.5609 667.708 36.1622 667.708 39.9942C667.708 43.8267 666.981 47.4291 665.527 50.8012C664.072 54.1734 662.098 57.1066 659.605 59.6008C657.112 62.095 654.18 64.0699 650.809 65.5253C647.438 66.9802 643.837 67.7077 640.005 67.7077ZM640 63.3327C646.514 63.3327 652.031 61.0723 656.552 56.5514C661.073 52.0306 663.333 46.5132 663.333 39.9993C663.333 33.4855 661.073 27.9681 656.552 23.4473C652.031 18.9264 646.514 16.666 640 16.666C633.486 16.666 627.969 18.9264 623.448 23.4473C618.927 27.9681 616.667 33.4855 616.667 39.9993C616.667 46.5132 618.927 52.0306 623.448 56.5514C627.969 61.0723 633.486 63.3327 640 63.3327Z"
      fill="#302E2E" />
  </g>
  <mask id="mask10_244_25" style="mask-type:alpha" maskUnits="userSpaceOnUse" x="121" y="220" width="70" height="70">
    <rect x="121" y="220" width="70" height="70" fill="#D9D9D9" />
  </mask>
  <g mask="url(#mask10_244_25)">
    <path
      d="M125.403 277.438V266.5C125.403 265.091 125.881 263.897 126.836 262.919C127.791 261.941 128.95 261.434 130.311 261.396H139.302C140.181 261.396 141.016 261.611 141.807 262.042C142.597 262.472 143.241 263.072 143.739 263.842C145.186 265.831 146.979 267.379 149.12 268.486C151.261 269.593 153.554 270.146 156 270.146C158.475 270.146 160.788 269.593 162.938 268.486C165.089 267.379 166.872 265.831 168.289 263.842C168.846 263.072 169.513 262.472 170.289 262.042C171.065 261.611 171.868 261.396 172.698 261.396H181.689C183.08 261.434 184.25 261.941 185.2 262.919C186.15 263.897 186.625 265.091 186.625 266.5V277.438H167.667V270.578C166.003 271.85 164.182 272.825 162.204 273.503C160.225 274.182 158.157 274.521 156 274.521C153.891 274.521 151.845 274.179 149.861 273.495C147.877 272.811 146.044 271.833 144.361 270.561V277.438H125.403ZM156 266.108C154.246 266.108 152.585 265.701 151.016 264.888C149.448 264.075 148.133 262.952 147.071 261.519C146.319 260.435 145.403 259.55 144.322 258.864C143.242 258.178 142.066 257.76 140.794 257.61C142.032 256.092 144.194 254.913 147.281 254.074C150.367 253.234 153.274 252.815 156 252.815C158.726 252.815 161.633 253.234 164.719 254.074C167.806 254.913 169.978 256.092 171.234 257.61C169.992 257.76 168.824 258.178 167.729 258.864C166.633 259.55 165.709 260.435 164.958 261.519C163.944 263.001 162.649 264.136 161.071 264.925C159.493 265.714 157.803 266.108 156 266.108ZM133.508 257.358C131.302 257.358 129.414 256.573 127.843 255.002C126.273 253.432 125.487 251.543 125.487 249.337C125.487 247.082 126.273 245.182 127.843 243.636C129.414 242.09 131.302 241.316 133.508 241.316C135.763 241.316 137.663 242.09 139.209 243.636C140.756 245.182 141.529 247.082 141.529 249.337C141.529 251.543 140.756 253.432 139.209 255.002C137.663 256.573 135.763 257.358 133.508 257.358ZM178.492 257.358C176.286 257.358 174.398 256.573 172.827 255.002C171.256 253.432 170.471 251.543 170.471 249.337C170.471 247.082 171.256 245.182 172.827 243.636C174.398 242.09 176.286 241.316 178.492 241.316C180.746 241.316 182.647 242.09 184.193 243.636C185.74 245.182 186.513 247.082 186.513 249.337C186.513 251.543 185.74 253.432 184.193 255.002C182.647 256.573 180.746 257.358 178.492 257.358ZM156 248.608C153.794 248.608 151.906 247.823 150.335 246.252C148.764 244.682 147.979 242.793 147.979 240.587C147.979 238.332 148.764 236.432 150.335 234.886C151.906 233.34 153.794 232.566 156 232.566C158.255 232.566 160.155 233.34 161.701 234.886C163.248 236.432 164.021 238.332 164.021 240.587C164.021 242.793 163.248 244.682 161.701 246.252C160.155 247.823 158.255 248.608 156 248.608Z"
      fill="#302E2E" />
  </g>
  <mask id="mask11_244_25" style="mask-type:alpha" maskUnits="userSpaceOnUse" x="726" y="115" width="70" height="70">
    <rect x="726" y="115" width="70" height="70" fill="#D9D9D9" />
  </mask>
  <g mask="url(#mask11_244_25)">
    <path
      d="M734.162 176.755L746.95 140.97L769.946 163.966L734.162 176.755ZM741.375 169.542L761.937 162.25L748.666 148.979L741.375 169.542ZM766.783 152.053L764.338 149.608L780.334 133.611C781.796 132.149 783.565 131.418 785.64 131.418C787.716 131.418 789.484 132.149 790.946 133.611L792.36 135.024L789.971 137.469L788.557 136.056C787.764 135.263 786.801 134.867 785.669 134.867C784.536 134.867 783.573 135.263 782.78 136.056L766.783 152.053ZM756.126 141.396L753.681 138.95L755.431 137.2C756.298 136.333 756.732 135.282 756.732 134.048C756.732 132.814 756.298 131.764 755.431 130.896L753.591 129.056L756.036 126.611L757.876 128.45C759.431 130.006 760.209 131.872 760.209 134.048C760.209 136.224 759.431 138.09 757.876 139.646L756.126 141.396ZM761.455 146.725L759.009 144.279L769.173 134.116C769.965 133.323 770.361 132.36 770.361 131.227C770.361 130.094 769.965 129.131 769.173 128.338L764.842 124.008L767.288 121.562L771.618 125.893C773.099 127.374 773.839 129.152 773.839 131.227C773.839 133.302 773.099 135.08 771.618 136.561L761.455 146.725ZM772.111 157.381L769.666 154.936L773.155 151.447C774.729 149.873 776.628 149.086 778.853 149.086C781.078 149.086 782.978 149.873 784.552 151.447L788.041 154.936L785.595 157.381L782.107 153.893C781.221 153.006 780.136 152.563 778.853 152.563C777.571 152.563 776.487 153.006 775.6 153.893L772.111 157.381Z"
      fill="#302E2E" />
  </g>
  <mask id="mask12_244_25" style="mask-type:alpha" maskUnits="userSpaceOnUse" x="605" y="220" width="70" height="70">
    <rect x="605" y="220" width="70" height="70" fill="#D9D9D9" />
  </mask>
  <g mask="url(#mask12_244_25)">
    <path
      d="M632.148 260.02H636.523V247.147H632.148V260.02ZM620.789 256.205C618.666 255.143 616.961 253.616 615.676 251.623C614.392 249.63 613.75 247.45 613.75 245.083C613.75 241.755 614.904 238.93 617.211 236.608C619.518 234.285 622.335 233.124 625.664 233.124C626.242 233.124 626.833 233.173 627.436 233.27C628.039 233.367 628.629 233.489 629.208 233.635L629.461 233.691L629.601 233.466C630.742 231.586 632.214 230.086 634.018 228.968C635.822 227.85 637.816 227.291 640 227.291C642.184 227.291 644.178 227.85 645.982 228.968C647.786 230.086 649.268 231.586 650.427 233.466L650.567 233.691L650.792 233.635C651.361 233.489 651.931 233.367 652.5 233.27C653.07 233.173 653.663 233.124 654.281 233.124C657.627 233.124 660.458 234.285 662.775 236.607C665.092 238.928 666.25 241.763 666.25 245.111C666.25 247.478 665.612 249.653 664.337 251.636C663.062 253.62 661.353 255.141 659.211 256.199V271.377H620.789V256.205ZM643.506 260.02H647.881V247.147H643.506V260.02ZM625.164 267.003H654.836V253.474L657.623 252.094C658.944 251.443 659.987 250.505 660.754 249.278C661.52 248.052 661.903 246.694 661.903 245.204C661.903 243.047 661.154 241.223 659.657 239.734C658.159 238.244 656.348 237.499 654.225 237.499C653.708 237.499 653.227 237.543 652.78 237.631C652.333 237.719 651.876 237.836 651.409 237.982L648.542 238.789L646.702 235.699C645.966 234.469 645.014 233.489 643.845 232.76C642.676 232.031 641.399 231.666 640.014 231.666C638.628 231.666 637.351 232.031 636.183 232.76C635.014 233.489 634.062 234.469 633.325 235.699L631.486 238.789L628.546 237.982C628.079 237.866 627.615 237.757 627.153 237.654C626.691 237.551 626.217 237.499 625.731 237.499C623.607 237.499 621.809 238.242 620.335 239.728C618.862 241.213 618.125 243.031 618.125 245.183C618.125 246.668 618.507 248.022 619.271 249.245C620.035 250.468 621.08 251.417 622.404 252.094L625.164 253.474V267.003ZM620.789 271.377H625.164V278.333H654.836V271.377H659.211V282.708H620.789V271.377Z"
      fill="#302E2E" />
  </g>
  <mask id="mask13_244_25" style="mask-type:alpha" maskUnits="userSpaceOnUse" x="242" y="220" width="70" height="70">
    <rect x="242" y="220" width="70" height="70" fill="#D9D9D9" />
  </mask>
  <g mask="url(#mask13_244_25)">
    <path
      d="M258.042 282.874V278.499H274.812V265.766H268.25C264.608 265.766 261.51 264.489 258.956 261.935C256.402 259.382 255.125 256.284 255.125 252.641C255.125 249.893 255.946 247.408 257.587 245.187C259.229 242.966 261.336 241.315 263.909 240.235C264.328 236.495 265.756 233.497 268.194 231.238C270.632 228.979 273.568 227.85 277 227.85C280.432 227.85 283.368 228.979 285.806 231.238C288.244 233.497 289.672 236.495 290.091 240.235C292.682 241.278 294.794 242.919 296.426 245.159C298.059 247.399 298.875 249.893 298.875 252.641C298.875 256.284 297.598 259.382 295.044 261.935C292.49 264.489 289.392 265.766 285.75 265.766H279.188V278.499H295.958V282.874H258.042ZM268.25 261.391H285.75C288.181 261.391 290.247 260.541 291.948 258.839C293.649 257.138 294.5 255.072 294.5 252.641C294.5 250.761 293.922 249.077 292.767 247.59C291.611 246.104 290.147 245.002 288.375 244.284L286.042 243.308L285.716 240.683C285.406 238.066 284.45 236.002 282.85 234.491C281.25 232.98 279.3 232.225 277 232.225C274.7 232.225 272.75 232.98 271.15 234.491C269.55 236.002 268.594 238.066 268.284 240.683L267.958 243.308L265.4 244.397C263.703 245.115 262.295 246.207 261.177 247.675C260.059 249.142 259.5 250.798 259.5 252.641C259.5 255.072 260.351 257.138 262.052 258.839C263.753 260.541 265.819 261.391 268.25 261.391Z"
      fill="#302E2E" />
  </g>
  <mask id="mask14_244_25" style="mask-type:alpha" maskUnits="userSpaceOnUse" x="363" y="220" width="70" height="70">
    <rect x="363" y="220" width="70" height="70" fill="#D9D9D9" />
  </mask>
  <g mask="url(#mask14_244_25)">
    <path
      d="M398 278.444C395.147 278.444 392.714 277.437 390.7 275.423C388.686 273.41 387.679 270.977 387.679 268.124H377.583C376.38 268.124 375.35 267.695 374.494 266.838C373.637 265.981 373.208 264.952 373.208 263.749C373.208 257.298 375.379 251.704 379.721 246.967C384.062 242.229 389.426 239.589 395.813 239.047V230.768H400.188V239.047C406.574 239.589 411.938 242.229 416.28 246.967C420.621 251.704 422.792 257.298 422.792 263.749C422.792 264.952 422.363 265.981 421.506 266.838C420.65 267.695 419.62 268.124 418.417 268.124H408.321C408.321 270.977 407.314 273.41 405.3 275.423C403.286 277.437 400.853 278.444 398 278.444ZM377.583 263.749H418.417C418.417 258.11 416.424 253.297 412.438 249.311C408.451 245.325 403.639 243.332 398 243.332C392.361 243.332 387.549 245.325 383.563 249.311C379.576 253.297 377.583 258.11 377.583 263.749ZM398.007 274.069C399.644 274.069 401.043 273.487 402.204 272.323C403.365 271.158 403.946 269.758 403.946 268.124H392.054C392.054 269.765 392.637 271.166 393.803 272.327C394.969 273.488 396.37 274.069 398.007 274.069Z"
      fill="#302E2E" />
  </g>
  <mask id="mask15_244_25" style="mask-type:alpha" maskUnits="userSpaceOnUse" x="484" y="220" width="70" height="70">
    <rect x="484" y="220" width="70" height="70" fill="#D9D9D9" />
  </mask>
  <g mask="url(#mask15_244_25)">
    <path
      d="M507.614 282.71C503.897 282.71 500.734 281.391 498.123 278.753C495.513 276.115 494.208 272.937 494.208 269.22C494.208 265.503 495.523 262.331 498.152 259.702C500.78 257.073 503.943 255.759 507.642 255.759V260.162C505.136 260.162 503 261.045 501.234 262.812C499.467 264.579 498.583 266.715 498.583 269.22C498.583 271.726 499.467 273.862 501.234 275.628C503 277.395 505.146 278.279 507.67 278.279C510.194 278.279 512.34 277.395 514.107 275.628C515.873 273.862 516.756 271.726 516.756 269.22H521.131C521.131 272.937 519.808 276.115 517.16 278.753C514.513 281.391 511.331 282.71 507.614 282.71ZM532.91 279.793V267.033C532.91 266.846 532.859 266.696 532.756 266.584C532.653 266.472 532.499 266.416 532.293 266.416H516.083C514.038 266.416 512.446 265.537 511.307 263.779C510.169 262.022 510.028 260.193 510.884 258.294L516.56 245.775H509.56L507.67 250.716L503.486 249.449L505.471 244.199C505.853 243.212 506.448 242.461 507.258 241.946C508.067 241.433 508.99 241.176 510.025 241.176H523.257C525.201 241.176 526.679 241.932 527.691 243.444C528.703 244.957 528.799 246.635 527.98 248.478L522.354 260.779H532.237C533.636 260.779 534.827 261.275 535.81 262.268C536.794 263.261 537.285 264.457 537.285 265.855V279.793H532.91ZM528.871 239.408C527.417 239.408 526.179 238.898 525.159 237.877C524.138 236.856 523.627 235.619 523.627 234.164C523.627 232.71 524.138 231.472 525.159 230.451C526.179 229.43 527.417 228.92 528.871 228.92C530.326 228.92 531.559 229.43 532.571 230.451C533.582 231.472 534.088 232.71 534.088 234.164C534.088 235.619 533.582 236.856 532.571 237.877C531.559 238.898 530.326 239.408 528.871 239.408Z"
      fill="#302E2E" />
  </g>
  <mask id="mask16_244_25" style="mask-type:alpha" maskUnits="userSpaceOnUse" x="363" y="115" width="70" height="70">
    <rect x="363" y="115" width="70" height="70" fill="#D9D9D9" />
  </mask>
  <g mask="url(#mask16_244_25)">
    <path
      d="M394.938 167.454L385.593 158.11L388.756 154.947L394.938 161.128L407.244 148.822L410.407 151.985L394.938 167.454ZM378.481 177.708C377.008 177.708 375.76 177.197 374.74 176.177C373.719 175.156 373.208 173.909 373.208 172.435V133.397C373.208 131.924 373.719 130.677 374.74 129.656C375.76 128.635 377.008 128.125 378.481 128.125H382.519V121.955H387.006V128.125H409.106V121.955H413.481V128.125H417.519C418.993 128.125 420.24 128.635 421.26 129.656C422.281 130.677 422.792 131.924 422.792 133.397V172.435C422.792 173.909 422.281 175.156 421.26 176.177C420.24 177.197 418.993 177.708 417.519 177.708H378.481ZM378.481 173.333H417.519C417.744 173.333 417.949 173.239 418.136 173.052C418.323 172.866 418.417 172.66 418.417 172.435V145.064H377.583V172.435C377.583 172.66 377.677 172.866 377.864 173.052C378.051 173.239 378.256 173.333 378.481 173.333ZM377.583 140.689H418.417V133.397C418.417 133.173 418.323 132.967 418.136 132.78C417.949 132.593 417.744 132.5 417.519 132.5H378.481C378.256 132.5 378.051 132.593 377.864 132.78C377.677 132.967 377.583 133.173 377.583 133.397V140.689Z"
      fill="#302E2E" />
  </g>
  <mask id="mask17_244_25" style="mask-type:alpha" maskUnits="userSpaceOnUse" x="121" y="0" width="90" height="90">
    <rect x="121" width="90" height="90" fill="#D9D9D9" />
  </mask>
  <g mask="url(#mask17_244_25)">
    <path
      d="M131.208 58.7801V53.781H180.792V58.7801H131.208ZM131.208 42.4985V37.4985H180.792V42.4985H131.208ZM131.208 26.216V21.2168H180.792V26.216H131.208Z"
      fill="#302E2E" />
  </g>
  <mask id="mask18_244_25" style="mask-type:alpha" maskUnits="userSpaceOnUse" x="726" y="220" width="70" height="70">
    <rect x="726" y="220" width="70" height="70" fill="#D9D9D9" />
  </mask>
  <g mask="url(#mask18_244_25)">
    <path
      d="M740.898 241.09C740.281 240.357 739.803 239.56 739.465 238.7C739.126 237.84 738.957 236.936 738.957 235.986C738.957 233.758 739.736 231.864 741.295 230.305C742.854 228.745 744.747 227.965 746.975 227.965C749.201 227.965 751.096 228.745 752.657 230.305C754.218 231.864 754.998 233.758 754.998 235.986C754.998 236.936 754.829 237.84 754.491 238.7C754.152 239.56 753.675 240.357 753.058 241.09H740.898ZM755.45 282.035C752.521 282.035 750.011 280.992 747.922 278.904C745.834 276.818 744.79 274.309 744.79 271.378H742.21L739.462 244.119H754.494L751.746 271.378H749.165C749.165 273.113 749.78 274.594 751.011 275.821C752.241 277.047 753.72 277.66 755.448 277.66C757.175 277.66 758.654 277.045 759.884 275.815C761.114 274.585 761.729 273.106 761.729 271.378V238.622C761.729 235.692 762.772 233.183 764.859 231.096C766.945 229.009 769.453 227.965 772.383 227.965C775.313 227.965 777.822 229.009 779.911 231.096C781.999 233.183 783.044 235.692 783.044 238.622V282.035H778.669V238.622C778.669 236.895 778.053 235.416 776.823 234.185C775.593 232.955 774.114 232.34 772.386 232.34C770.658 232.34 769.18 232.955 767.95 234.185C766.719 235.416 766.104 236.895 766.104 238.622V271.378C766.104 274.309 765.061 276.818 762.975 278.904C760.888 280.992 758.38 282.035 755.45 282.035ZM746.142 267.004H747.813L749.648 248.494H744.308L746.142 267.004Z"
      fill="#302E2E" />
  </g>
  <mask id="mask19_244_25" style="mask-type:alpha" maskUnits="userSpaceOnUse" x="0" y="115" width="70" height="70">
    <rect y="115" width="70" height="70" fill="#D9D9D9" />
  </mask>
  <g mask="url(#mask19_244_25)">
    <path
      d="M22.7498 167.499H47.3395L48.8372 146.634H21.2076L22.7498 167.499ZM20.8817 142.259H49.1624L49.4934 137.659L41.2706 129.582H28.729L20.5061 137.659L20.8817 142.259ZM16.7429 146.095L6.84302 136.447L9.8326 133.318L16.2099 139.499L15.9518 136.122L26.8667 125.207H43.1329L54.0478 136.122L53.7897 139.499L60.167 133.318L63.1566 136.447L53.2567 146.095H16.7429ZM18.7 171.874L16.7429 146.095H53.2567L51.2996 171.874H18.7Z"
      fill="#302E2E" />
  </g>
  <mask id="mask20_244_25" style="mask-type:alpha" maskUnits="userSpaceOnUse" x="726" y="5" width="70" height="70">
    <rect x="726" y="5" width="70" height="70" fill="#D9D9D9" />
  </mask>
  <g mask="url(#mask20_244_25)">
    <path
      d="M743.5 60.4155H753.26V43.084H768.74V60.4155H778.5V34.1655L761 20.9844L743.5 34.1655V60.4155ZM739.125 64.7905V31.978L761 15.5156L782.875 31.978V64.7905H764.365V47.459H757.635V64.7905H739.125Z"
      fill="#302E2E" />
  </g>
  <mask id="mask21_244_25" style="mask-type:alpha" maskUnits="userSpaceOnUse" x="0" y="314" width="70" height="70">
    <rect y="314" width="70" height="70" fill="#D9D9D9" />
  </mask>
  <g mask="url(#mask21_244_25)">
    <path
      d="M25.8123 363.072L34.9998 357.53L44.1873 363.145L41.7811 352.645L49.8748 345.645L39.229 344.697L34.9998 334.78L30.7707 344.624L20.1248 345.572L28.2186 352.645L25.8123 363.072ZM19.1769 372.22L23.3558 354.226L9.39514 342.128L27.8146 340.529L34.9998 323.562L42.185 340.529L60.6045 342.128L46.6439 354.226L50.8228 372.22L34.9998 362.674L19.1769 372.22Z"
      fill="#302E2E" />
  </g>
</svg>