<svg width="757" height="358" viewBox="0 0 757 358" fill="none" xmlns="http://www.w3.org/2000/svg">
  <path
    d="M141.5 320.583H176.5M173.583 332.25C174.357 332.25 175.099 331.943 175.646 331.396C176.193 330.849 176.5 330.107 176.5 329.333V313.729C176.5 312.396 177.422 311.268 178.62 310.693C181.102 309.509 183.086 307.486 184.222 304.982C185.358 302.477 185.573 299.652 184.828 297.005C184.084 294.358 182.428 292.058 180.154 290.513C177.879 288.968 175.132 288.275 172.396 288.558C171.27 285.94 169.4 283.709 167.02 282.141C164.639 280.574 161.851 279.738 159 279.738C156.149 279.738 153.361 280.574 150.98 282.141C148.6 283.709 146.73 285.94 145.604 288.558C142.87 288.277 140.124 288.971 137.851 290.516C135.578 292.061 133.924 294.36 133.18 297.005C132.435 299.651 132.649 302.475 133.784 304.979C134.918 307.482 136.9 309.505 139.38 310.69C140.578 311.268 141.5 312.396 141.5 313.726V329.333C141.5 330.107 141.807 330.849 142.354 331.396C142.901 331.943 143.643 332.25 144.417 332.25H173.583Z"
    stroke="#302E2E" stroke-width="2" stroke-linecap="round" stroke-linejoin="round" />
  <path
    d="M265 322.167V331.667M252.333 322.167C249.616 322.173 246.969 321.305 244.783 319.692C242.597 318.078 240.988 315.805 240.193 313.207C239.398 310.608 239.459 307.824 240.368 305.263C241.277 302.703 242.985 300.502 245.24 298.987C243.85 297.249 243.014 295.134 242.843 292.915C242.671 290.697 243.172 288.478 244.279 286.548C245.386 284.617 247.048 283.065 249.049 282.093C251.051 281.12 253.298 280.772 255.5 281.095V281C255.5 278.48 256.501 276.064 258.283 274.282C260.064 272.501 262.48 271.5 265 271.5C267.52 271.5 269.936 272.501 271.718 274.282C273.499 276.064 274.5 278.48 274.5 281V281.127C276.702 280.804 278.949 281.152 280.951 282.124C282.952 283.097 284.614 284.649 285.721 286.579C286.828 288.51 287.329 290.728 287.157 292.947C286.986 295.166 286.15 297.281 284.76 299.018C287.001 300.539 288.696 302.738 289.595 305.292C290.495 307.846 290.552 310.622 289.759 313.211C288.966 315.8 287.363 318.067 285.187 319.679C283.01 321.291 280.375 322.163 277.667 322.167H252.333Z"
    stroke="#302E2E" stroke-width="2" stroke-linecap="round" stroke-linejoin="round" />
  <path
    d="M378 264.666V281.333M368.567 311.333C368.036 312.841 367.875 314.454 368.096 316.037C368.318 317.62 368.916 319.127 369.84 320.431C370.763 321.736 371.987 322.799 373.406 323.534C374.826 324.268 376.401 324.651 378 324.651C379.598 324.651 381.174 324.268 382.593 323.534C384.013 322.799 385.236 321.736 386.16 320.431C387.084 319.127 387.682 317.62 387.904 316.037C388.125 314.454 387.964 312.841 387.433 311.333M358 281.333H398L411.333 311.333H344.667L358 281.333Z"
    stroke="#302E2E" stroke-width="2" stroke-linecap="round" stroke-linejoin="round" />
  <path
    d="M511.5 322.75L514.75 300L495.25 303.25M469.25 287L479 277.25L496.875 287L489.205 298.375M466.78 308.125C465.863 311.125 465.834 314.326 466.696 317.342C467.559 320.358 469.275 323.061 471.64 325.122C474.004 327.184 476.914 328.518 480.02 328.962C483.125 329.406 486.293 328.942 489.14 327.625M497.72 317.875C498.637 314.875 498.666 311.674 497.804 308.658C496.942 305.642 495.225 302.939 492.86 300.878C490.496 298.816 487.586 297.482 484.48 297.038C481.375 296.594 478.207 297.058 475.36 298.375M508.25 274C508.25 275.795 506.795 277.25 505 277.25C503.205 277.25 501.75 275.795 501.75 274C501.75 272.205 503.205 270.75 505 270.75C506.795 270.75 508.25 272.205 508.25 274Z"
    stroke="#302E2E" stroke-width="2" stroke-linecap="round" stroke-linejoin="round" />
  <path
    d="M588.333 270.334V283.001M613.667 270.334V283.001M572.5 295.667H629.5M591.5 314.667L597.833 321.001L610.5 308.334M578.833 276.667H623.167C626.664 276.667 629.5 279.503 629.5 283.001V327.334C629.5 330.832 626.664 333.667 623.167 333.667H578.833C575.336 333.667 572.5 330.832 572.5 327.334V283.001C572.5 279.503 575.336 276.667 578.833 276.667Z"
    stroke="#302E2E" stroke-width="2" stroke-linecap="round" stroke-linejoin="round" />
  <path
    d="M686.888 328.382L691.888 306.956L691.957 306.662L691.729 306.465L675.099 292.058L697.003 290.162L697.303 290.136L697.421 289.859L706 269.647L714.58 289.855L714.697 290.132L714.997 290.158L736.896 292.053L720.267 306.46L720.039 306.658L720.108 306.952L725.112 328.378L706.258 317.005L706 316.849L705.742 317.005L686.888 328.382Z"
    stroke="#302E2E" />
  <path
    d="M65 296.546C63.98 295.384 62.9317 294.222 61.8267 293.117L61.005 292.352L61.4017 292.012C62.7873 290.823 63.7747 289.237 64.2307 287.469C64.6866 285.701 64.5893 283.835 63.9517 282.124C63.0277 280.194 61.5648 278.574 59.7397 277.457C57.9146 276.341 55.8053 275.777 53.6667 275.834V281.501C54.6748 281.487 55.6684 281.742 56.5449 282.24C57.4215 282.738 58.1494 283.461 58.6534 284.334C59.135 285.467 58.6534 286.714 57.3217 288.046C57.1234 288.272 56.8967 288.414 56.6984 288.612C48.1984 281.784 38.8767 277.931 34.315 282.492C33.8388 282.982 33.4464 283.547 33.1534 284.164V284.447L32.6434 285.949L20.1484 323.066C19.6757 324.464 19.5431 325.956 19.7616 327.416C19.98 328.876 20.5432 330.263 21.4045 331.462C22.2658 332.661 23.4004 333.638 24.7143 334.311C26.0282 334.985 27.4836 335.335 28.96 335.334C29.9241 335.325 30.8805 335.162 31.7934 334.852L70.6667 321.961C71.1444 321.783 71.5653 321.479 71.885 321.082L72.48 320.572C76.5317 316.492 73.925 308.644 68.485 301.022C71.7152 299.137 75.4345 298.259 79.1667 298.501V292.834C74.1725 292.559 69.2179 293.857 65 296.546ZM30.15 329.469C29.5069 329.682 28.8172 329.712 28.158 329.555C27.4989 329.399 26.8961 329.063 26.4171 328.584C25.9381 328.105 25.6016 327.502 25.4452 326.843C25.2889 326.183 25.3188 325.494 25.5317 324.851L29.385 313.234C32.135 318.478 36.3606 322.802 41.54 325.672L30.15 329.469ZM49.9834 322.867C45.7014 321.733 41.7953 319.488 38.6606 316.358C35.5259 313.228 33.2742 309.326 32.1334 305.046L34.9667 296.546L35.1367 296.801C35.4484 297.424 35.845 298.076 36.2417 298.727C36.6384 299.379 36.695 299.549 36.9784 299.974C37.2617 300.399 37.9134 301.334 38.4234 302.042C38.9334 302.751 38.9617 302.836 39.2734 303.232C39.585 303.629 40.4917 304.791 41.1434 305.556L41.965 306.547C42.9284 307.652 43.9484 308.729 45.025 309.834C46.1017 310.939 46.9517 311.647 47.8584 312.667L48.7934 313.461L51.0034 315.246L52.0517 316.039C52.845 316.606 53.61 317.172 54.4034 317.682L55.2817 318.249C56.3017 318.872 57.3217 319.467 58.3134 319.977H58.455L49.9834 322.867ZM68.4283 316.549H68.2583C66.3033 317.626 58.1717 314.934 49.02 305.754C48.0567 304.791 47.15 303.856 46.3284 302.921L45.5067 301.929L44.005 300.116L43.1834 298.982C42.815 298.444 42.4184 297.934 42.0784 297.424L41.3417 296.234L40.52 294.902C40.2934 294.506 40.1234 294.137 39.925 293.769C39.7267 293.401 39.5 293.032 39.33 292.636C39.176 292.304 39.0435 291.964 38.9334 291.616C38.7917 291.247 38.6217 290.879 38.5084 290.539C38.395 290.199 38.3667 290.001 38.2817 289.661C38.1967 289.321 38.14 289.037 38.0834 288.754C38.0674 288.509 38.0674 288.263 38.0834 288.017C38.0561 287.791 38.0561 287.563 38.0834 287.337L38.395 286.459C39.415 285.439 44.7134 286.459 51.7967 291.842C50.5965 292.386 49.3127 292.721 48 292.834V298.501C51.0097 298.328 53.9297 297.413 56.5 295.837L57.86 297.141C59.05 298.331 60.155 299.549 61.2034 300.767C59.5815 303.7 58.9833 307.09 59.5033 310.401L65.17 309.296C65.0045 308.244 65.0045 307.174 65.17 306.122C66.0375 307.432 66.8046 308.805 67.465 310.231C69.0517 313.971 68.9383 316.067 68.4283 316.549Z"
    fill="#302E2E" />
  <path
    d="M602.438 145.859C602.438 144.554 602.023 143.302 601.284 142.379C600.546 141.456 599.544 140.938 598.5 140.938C597.456 140.938 596.454 141.456 595.716 142.379C594.977 143.302 594.562 144.554 594.562 145.859C594.562 147.165 594.977 148.417 595.716 149.34C596.454 150.263 597.456 150.781 598.5 150.781C599.544 150.781 600.546 150.263 601.284 149.34C602.023 148.417 602.438 147.165 602.438 145.859ZM581.175 162.594C582.219 162.594 583.221 162.075 583.959 161.152C584.698 160.229 585.113 158.977 585.113 157.672C585.113 156.367 584.698 155.115 583.959 154.192C583.221 153.269 582.219 152.75 581.175 152.75C580.131 152.75 579.129 153.269 578.391 154.192C577.652 155.115 577.238 156.367 577.238 157.672C577.238 158.977 577.652 160.229 578.391 161.152C579.129 162.075 580.131 162.594 581.175 162.594ZM570.15 188.188C568.408 188.188 567 189.947 567 192.125C567 194.303 568.408 196.062 570.15 196.062H626.85C628.592 196.062 630 194.303 630 192.125C630 189.947 628.592 188.188 626.85 188.188H570.15ZM615.825 162.594C616.869 162.594 617.871 162.075 618.609 161.152C619.348 160.229 619.763 158.977 619.763 157.672C619.763 156.367 619.348 155.115 618.609 154.192C617.871 153.269 616.869 152.75 615.825 152.75C614.781 152.75 613.779 153.269 613.041 154.192C612.302 155.115 611.888 156.367 611.888 157.672C611.888 158.977 612.302 160.229 613.041 161.152C613.779 162.075 614.781 162.594 615.825 162.594ZM586.688 175.575L589.335 181.715C589.956 183.155 591.383 183.684 592.535 182.921C593.686 182.158 594.11 180.362 593.499 178.922L589.926 170.616C590.093 170.407 590.241 170.173 590.349 169.903L592.988 163.763V170.469C592.988 172.647 594.395 174.406 596.138 174.406H600.862C602.605 174.406 604.013 172.647 604.013 170.469V163.763L606.66 169.903C606.779 170.173 606.916 170.407 607.084 170.616L603.51 178.922C602.89 180.362 603.323 182.146 604.475 182.921C605.627 183.696 607.054 183.155 607.674 181.715L610.312 175.575V180.312C610.312 182.49 611.72 184.25 613.463 184.25H618.188C619.93 184.25 621.338 182.49 621.338 180.312V175.575L623.985 181.715C624.606 183.155 626.033 183.684 627.185 182.921C628.336 182.158 628.76 180.362 628.149 178.922L624.419 170.272C622.913 166.765 619.979 164.575 616.79 164.575H614.87C613.266 164.575 611.73 165.129 610.401 166.125L607.094 158.459C605.588 154.953 602.654 152.762 599.465 152.762H597.545C594.356 152.762 591.432 154.953 589.916 158.459L586.609 166.125C585.28 165.129 583.744 164.575 582.14 164.575H580.22C577.031 164.575 574.107 166.765 572.591 170.272L568.86 178.91C568.24 180.349 568.673 182.134 569.825 182.909C570.977 183.684 572.404 183.143 573.024 181.703L575.663 175.575V180.312C575.663 182.49 577.07 184.25 578.812 184.25H583.538C585.28 184.25 586.688 182.49 586.688 180.312V175.575Z"
    fill="#302E2E" />
  <g clip-path="url(#clip0_30_353)">
    <path
      d="M703 143.166C691.067 143.166 681.417 152.817 681.417 164.749C681.417 180.937 703 204.833 703 204.833C703 204.833 724.583 180.937 724.583 164.749C724.583 152.817 714.932 143.166 703 143.166ZM703 172.458C698.745 172.458 695.292 169.004 695.292 164.749C695.292 160.494 698.745 157.041 703 157.041C707.255 157.041 710.708 160.494 710.708 164.749C710.708 169.004 707.255 172.458 703 172.458Z"
      fill="#302E2E" />
  </g>
  <path
    d="M479.961 195.333H467.294C465.615 195.333 464.004 194.665 462.816 193.478C461.628 192.29 460.961 190.679 460.961 188.999V150.999C460.961 149.32 461.628 147.709 462.816 146.521C464.004 145.333 465.615 144.666 467.294 144.666H479.961V150.999H467.294V188.999H479.961V195.333Z"
    fill="#302E2E" />
  <path
    d="M496.833 187.051L501.33 182.593L488.916 170.075H517.872C518.712 170.075 519.518 169.741 520.112 169.147C520.705 168.554 521.039 167.748 521.039 166.908C521.039 166.068 520.705 165.263 520.112 164.669C519.518 164.075 518.712 163.742 517.872 163.742H488.859L501.463 151.243L497.004 146.746L476.766 166.813L496.833 187.051Z"
    fill="#302E2E" />
  <path
    d="M264.491 205.046C263.136 205.046 261.981 204.564 261.023 203.601C260.066 202.64 259.588 201.484 259.588 200.134H269.412C269.412 201.492 268.931 202.651 267.968 203.61C267.002 204.567 265.843 205.046 264.491 205.046ZM243.208 197.089V194.047H248.124V169.948C248.124 165.974 249.381 162.479 251.895 159.464C254.41 156.448 257.597 154.57 261.458 153.827V149.125H267.542V152.395C267.102 153.082 266.716 153.775 266.386 154.472C266.055 155.17 265.797 155.912 265.61 156.699L265.069 156.638C264.892 156.622 264.703 156.614 264.5 156.614C260.803 156.614 257.656 157.911 255.059 160.507C252.461 163.102 251.163 166.25 251.165 169.948V194.047H277.838V175.56C278.32 175.651 278.818 175.723 279.331 175.776C279.844 175.829 280.359 175.836 280.876 175.797V194.047H285.792V197.089H243.208ZM279.599 168.604C277.488 168.604 275.691 167.865 274.209 166.386C272.727 164.908 271.987 163.115 271.989 161.006C271.991 158.897 272.729 157.1 274.203 155.616C275.677 154.132 277.472 153.391 279.587 153.395C281.702 153.4 283.496 154.138 284.97 155.61C286.445 157.082 287.187 158.877 287.197 160.994C287.207 163.111 286.468 164.906 284.98 166.38C283.491 167.855 281.697 168.595 279.596 168.601"
    fill="#302E2E" />
  <path
    d="M357.833 173.166C356.993 173.166 356.188 172.832 355.594 172.239C355 171.645 354.667 170.839 354.667 169.999C354.667 169.159 355 168.354 355.594 167.76C356.188 167.166 356.993 166.833 357.833 166.833C358.673 166.833 359.479 167.166 360.072 167.76C360.666 168.354 361 169.159 361 169.999C361 170.839 360.666 171.645 360.072 172.239C359.479 172.832 358.673 173.166 357.833 173.166ZM357.833 185.833C356.993 185.833 356.188 185.499 355.594 184.905C355 184.311 354.667 183.506 354.667 182.666C354.667 181.826 355 181.021 355.594 180.427C356.188 179.833 356.993 179.499 357.833 179.499C358.673 179.499 359.479 179.833 360.072 180.427C360.666 181.021 361 181.826 361 182.666C361 183.506 360.666 184.311 360.072 184.905C359.479 185.499 358.673 185.833 357.833 185.833ZM367.333 182.666C367.333 183.506 367.667 184.311 368.261 184.905C368.855 185.499 369.66 185.833 370.5 185.833C371.34 185.833 372.145 185.499 372.739 184.905C373.333 184.311 373.667 183.506 373.667 182.666C373.667 181.826 373.333 181.021 372.739 180.427C372.145 179.833 371.34 179.499 370.5 179.499C369.66 179.499 368.855 179.833 368.261 180.427C367.667 181.021 367.333 181.826 367.333 182.666ZM383.167 185.833C382.327 185.833 381.521 185.499 380.927 184.905C380.334 184.311 380 183.506 380 182.666C380 181.826 380.334 181.021 380.927 180.427C381.521 179.833 382.327 179.499 383.167 179.499C384.006 179.499 384.812 179.833 385.406 180.427C386 181.021 386.333 181.826 386.333 182.666C386.333 183.506 386 184.311 385.406 184.905C384.812 185.499 384.006 185.833 383.167 185.833ZM367.333 169.999C367.333 170.839 367.667 171.645 368.261 172.239C368.855 172.832 369.66 173.166 370.5 173.166C371.34 173.166 372.145 172.832 372.739 172.239C373.333 171.645 373.667 170.839 373.667 169.999C373.667 169.159 373.333 168.354 372.739 167.76C372.145 167.166 371.34 166.833 370.5 166.833C369.66 166.833 368.855 167.166 368.261 167.76C367.667 168.354 367.333 169.159 367.333 169.999ZM383.167 173.166C382.327 173.166 381.521 172.832 380.927 172.239C380.334 171.645 380 170.839 380 169.999C380 169.159 380.334 168.354 380.927 167.76C381.521 167.166 382.327 166.833 383.167 166.833C384.006 166.833 384.812 167.166 385.406 167.76C386 168.354 386.333 169.159 386.333 169.999C386.333 170.839 386 171.645 385.406 172.239C384.812 172.832 384.006 173.166 383.167 173.166ZM357.833 154.166C356.993 154.166 356.188 154.5 355.594 155.094C355 155.687 354.667 156.493 354.667 157.333C354.667 158.173 355 158.978 355.594 159.572C356.188 160.166 356.993 160.499 357.833 160.499H383.167C384.006 160.499 384.812 160.166 385.406 159.572C386 158.978 386.333 158.173 386.333 157.333C386.333 156.493 386 155.687 385.406 155.094C384.812 154.5 384.006 154.166 383.167 154.166H357.833Z"
    fill="#302E2E" />
  <path fill-rule="evenodd" clip-rule="evenodd"
    d="M351.5 141.5C348.98 141.5 346.564 142.501 344.782 144.282C343.001 146.064 342 148.48 342 151V189C342 191.52 343.001 193.936 344.782 195.718C346.564 197.499 348.98 198.5 351.5 198.5H389.5C392.02 198.5 394.436 197.499 396.218 195.718C397.999 193.936 399 191.52 399 189V151C399 148.48 397.999 146.064 396.218 144.282C394.436 142.501 392.02 141.5 389.5 141.5H351.5ZM389.5 147.833H351.5C350.66 147.833 349.855 148.167 349.261 148.761C348.667 149.355 348.333 150.16 348.333 151V189C348.333 189.84 348.667 190.645 349.261 191.239C349.855 191.833 350.66 192.167 351.5 192.167H389.5C390.34 192.167 391.145 191.833 391.739 191.239C392.333 190.645 392.667 189.84 392.667 189V151C392.667 150.16 392.333 149.355 391.739 148.761C391.145 148.167 390.34 147.833 389.5 147.833Z"
    fill="#302E2E" />
  <path
    d="M136.431 202.463L134.222 200.251L165.891 168.579C164.832 166.073 164.602 163.609 165.2 161.188C165.798 158.77 167.142 156.526 169.231 154.457C171.271 152.418 173.823 151.003 176.887 150.213C179.952 149.424 182.512 150.057 184.569 152.113C186.625 154.17 187.258 156.73 186.469 159.795C185.679 162.859 184.265 165.411 182.225 167.451C180.158 169.543 177.915 170.886 175.494 171.482C173.073 172.078 170.609 171.848 168.103 170.791L162.394 176.501L186.144 200.251L183.931 202.463L160.181 178.87L136.431 202.463ZM146.012 176.104L137.356 167.448C135.025 165.121 133.769 162.364 133.587 159.179C133.406 155.994 134.343 153.114 136.397 150.541L153.969 168.148L146.012 176.104Z"
    fill="#302E2E" />
  <path
    d="M33.375 201H56.625M45 177.75V201M33.375 158.375H56.625M14 146.75C14 144.695 14.8165 142.723 16.2699 141.27C17.7233 139.817 19.6946 139 21.75 139H68.25C70.3054 139 72.2767 139.817 73.7301 141.27C75.1835 142.723 76 144.695 76 146.75V170C76 172.055 75.1835 174.027 73.7301 175.48C72.2767 176.933 70.3054 177.75 68.25 177.75H21.75C19.6946 177.75 17.7233 176.933 16.2699 175.48C14.8165 174.027 14 172.055 14 170V146.75Z"
    stroke="#302E2E" stroke-width="2" stroke-linecap="round" stroke-linejoin="round" />
  <path
    d="M707.479 80.7383C706.902 81.18 706.21 81.4175 705.5 81.4175C704.79 81.4175 704.098 81.18 703.521 80.7383C686.458 67.7672 668.349 41.0863 686.656 21.8068C691.682 16.5341 698.45 13.5807 705.5 13.584C712.567 13.584 719.348 16.5422 724.344 21.803C742.651 41.0826 724.542 67.7596 707.479 80.7383Z"
    stroke="#302E2E" stroke-width="1.5" stroke-linecap="round" stroke-linejoin="round" />
  <path
    d="M705.5 47.4997C707.374 47.4997 709.172 46.7056 710.497 45.2922C711.822 43.8787 712.567 41.9617 712.567 39.9627C712.567 37.9638 711.822 36.0468 710.497 34.6333C709.172 33.2199 707.374 32.4258 705.5 32.4258C703.626 32.4258 701.828 33.2199 700.503 34.6333C699.178 36.0468 698.433 37.9638 698.433 39.9627C698.433 41.9617 699.178 43.8787 700.503 45.2922C701.828 46.7056 703.626 47.4997 705.5 47.4997Z"
    stroke="#302E2E" stroke-width="1.5" stroke-linecap="round" stroke-linejoin="round" />
  <path
    d="M566.5 42.1256L592 22.584L617.5 42.1256V72.834C617.5 74.3148 616.903 75.7349 615.84 76.782C614.778 77.8291 613.336 78.4173 611.833 78.4173H572.167C570.664 78.4173 569.222 77.8291 568.16 76.782C567.097 75.7349 566.5 74.3148 566.5 72.834V42.1256Z"
    stroke="#302E2E" stroke-width="2" stroke-linecap="round" stroke-linejoin="round" />
  <path d="M583.5 78.4167V50.5H600.5V78.4167" stroke="#302E2E" stroke-width="2" stroke-linecap="round"
    stroke-linejoin="round" />
  <path d="M517.333 25.5L479.75 63.0833L462.667 46" stroke="#302E2E" stroke-width="2" stroke-linecap="round"
    stroke-linejoin="round" />
  <path
    d="M395 76.666C395 71.3617 392.893 66.2746 389.142 62.5239C385.391 58.7732 380.304 56.666 375 56.666M375 56.666C369.696 56.666 364.609 58.7732 360.858 62.5239C357.107 66.2746 355 71.3617 355 76.666M375 56.666C382.364 56.666 388.333 50.6965 388.333 43.3327C388.333 35.9689 382.364 29.9993 375 29.9993C367.636 29.9993 361.667 35.9689 361.667 43.3327C361.667 50.6965 367.636 56.666 375 56.666ZM408.333 49.9994C408.333 68.4088 393.409 83.3327 375 83.3327C356.59 83.3327 341.667 68.4088 341.667 49.9994C341.667 31.5899 356.59 16.666 375 16.666C393.409 16.666 408.333 31.5899 408.333 49.9994Z"
    stroke="#302E2E" stroke-width="2" stroke-linecap="round" stroke-linejoin="round" />
  <path d="M283 28L247 64" stroke="#302E2E" stroke-width="2" stroke-linecap="round" stroke-linejoin="round" />
  <path d="M247 28L283 64" stroke="#302E2E" stroke-width="2" stroke-linecap="round" stroke-linejoin="round" />
  <path d="M132 46H186M132 64H186M132 28H186" stroke="#302E2E" stroke-width="2" stroke-linecap="round"
    stroke-linejoin="round" />
  <path d="M56.25 67.5L33.75 45L56.25 22.5" stroke="#302E2E" stroke-width="2" stroke-linecap="round"
    stroke-linejoin="round" />
  <defs>
    <clipPath id="clip0_30_353">
      <rect width="74" height="74" fill="white" transform="translate(666 137)" />
    </clipPath>
  </defs>
</svg>