<svg width="637" height="361" viewBox="0 0 637 361" fill="none" xmlns="http://www.w3.org/2000/svg">
  <path
    d="M218.992 61.1233C218.712 61.0627 218.487 60.9719 218.319 60.8508C218.151 60.7298 218.011 60.5178 217.899 60.2151C216.666 57.672 215.405 54.4933 214.117 50.6787C212.828 46.8036 211.568 42.6258 210.334 38.1453C209.101 33.6648 207.953 29.1539 206.888 24.6128C205.823 20.0717 204.899 15.803 204.115 11.8069C203.386 7.8107 202.826 4.38969 202.434 1.54398C202.377 0.999044 202.377 0.605527 202.434 0.363288C202.49 0.121048 202.658 0 202.938 0H207.645C207.981 0 208.177 0.0908213 208.233 0.272466C208.345 0.393514 208.429 0.69635 208.485 1.18069C208.822 3.48147 209.269 6.14568 209.83 9.17303C210.446 12.2004 211.118 15.4095 211.847 18.8002C212.576 22.1908 213.388 25.5816 214.285 28.9723C215.182 32.3629 216.077 35.6023 216.974 38.6902C217.871 41.7176 218.739 44.412 219.58 46.7734C219.804 47.5 220.057 48.4082 220.336 49.498C220.616 50.5273 220.925 51.4053 221.261 52.1319C221.429 52.3135 221.57 52.4346 221.681 52.4952C221.793 52.4952 221.933 52.3741 222.101 52.1319C222.438 51.4659 222.746 50.6181 223.026 49.5889C223.306 48.499 223.587 47.5606 223.866 46.7734C224.65 44.4726 225.491 41.8084 226.388 38.781C227.285 35.6931 228.181 32.4537 229.078 29.0631C229.975 25.6118 230.815 22.1908 231.599 18.8002C232.383 15.3489 233.055 12.1096 233.616 9.08221C234.232 6.05485 234.681 3.45124 234.961 1.27151C235.073 0.726577 235.157 0.393514 235.213 0.272466C235.325 0.0908213 235.522 0 235.802 0H240.592C240.872 0 241.04 0.121048 241.097 0.363288C241.153 0.605527 241.124 1.02927 241.013 1.6348C240.676 4.23841 240.116 7.53823 239.332 11.5344C238.548 15.47 237.623 19.7386 236.558 24.3403C235.493 28.942 234.345 33.5436 233.112 38.1453C231.879 42.6864 230.618 46.8944 229.33 50.7696C228.097 54.5841 226.92 57.7326 225.8 60.2151C225.631 60.5784 225.436 60.8206 225.211 60.9416C224.987 61.0022 224.763 61.0627 224.539 61.1233H218.992ZM257.242 60.4875C257.242 60.9114 257.018 61.1233 256.57 61.1233H251.695C251.302 61.1233 251.106 60.9114 251.106 60.4875V0.726576C251.106 0.242238 251.302 0 251.695 0H256.57C257.018 0 257.242 0.242238 257.242 0.726576V60.4875ZM283.753 61.1233C283.472 61.0627 283.249 60.9719 283.081 60.8508C282.913 60.7298 282.772 60.5178 282.661 60.2151C281.427 57.672 280.167 54.4933 278.878 50.6787C277.589 46.8036 276.328 42.6258 275.096 38.1453C273.863 33.6648 272.714 29.1539 271.65 24.6128C270.585 20.0717 269.66 15.803 268.876 11.8069C268.148 7.8107 267.587 4.38969 267.195 1.54398C267.139 0.999044 267.139 0.605527 267.195 0.363288C267.251 0.121048 267.419 0 267.7 0H272.406C272.743 0 272.938 0.0908213 272.995 0.272466C273.106 0.393514 273.191 0.69635 273.247 1.18069C273.583 3.48147 274.031 6.14568 274.592 9.17303C275.208 12.2004 275.88 15.4095 276.609 18.8002C277.337 22.1908 278.149 25.5816 279.046 28.9723C279.942 32.3629 280.839 35.6023 281.736 38.6902C282.632 41.7176 283.501 44.412 284.342 46.7734C284.565 47.5 284.817 48.4082 285.098 49.498C285.378 50.5273 285.686 51.4053 286.023 52.1319C286.191 52.3135 286.33 52.4346 286.443 52.4952C286.554 52.4952 286.695 52.3741 286.863 52.1319C287.199 51.4659 287.507 50.6181 287.788 49.5889C288.067 48.499 288.347 47.5606 288.627 46.7734C289.412 44.4726 290.253 41.8084 291.15 38.781C292.045 35.6931 292.942 32.4537 293.839 29.0631C294.735 25.6118 295.575 22.1908 296.361 18.8002C297.145 15.3489 297.817 12.1096 298.378 9.08221C298.994 6.05485 299.442 3.45124 299.723 1.27151C299.834 0.726577 299.918 0.393514 299.975 0.272466C300.086 0.0908213 300.282 0 300.563 0H305.354C305.634 0 305.802 0.121048 305.858 0.363288C305.913 0.605527 305.886 1.02927 305.774 1.6348C305.438 4.23841 304.877 7.53823 304.093 11.5344C303.308 15.47 302.383 19.7386 301.32 24.3403C300.255 28.942 299.105 33.5436 297.874 38.1453C296.64 42.6864 295.38 46.8944 294.091 50.7696C292.858 54.5841 291.681 57.7326 290.561 60.2151C290.393 60.5784 290.196 60.8206 289.973 60.9416C289.748 61.0022 289.524 61.0627 289.301 61.1233H283.753ZM306.113 61.1233C305.832 61.1233 305.664 61.0325 305.609 60.8508C305.552 60.6086 305.552 60.1848 305.609 59.5793C306 56.7336 306.588 53.3126 307.374 49.3164C308.158 45.3202 309.082 41.0516 310.147 36.5105C311.211 31.9694 312.333 27.4585 313.509 22.978C314.741 18.4975 316.002 14.3499 317.292 10.5354C318.58 6.66024 319.813 3.45124 320.99 0.90822C321.158 0.605527 321.326 0.393514 321.494 0.272466C321.662 0.0908213 321.858 0 322.083 0H328.975C329.254 0.0605954 329.479 0.151417 329.647 0.272466C329.87 0.393514 330.067 0.635754 330.235 0.999043C331.356 3.42101 332.532 6.56942 333.765 10.4445C335.054 14.3197 336.315 18.5277 337.548 23.0688C338.78 27.6099 339.929 32.1813 340.994 36.783C342.114 41.3847 343.066 45.6835 343.851 49.6797C344.635 53.6153 345.196 56.9152 345.531 59.5793C345.644 60.1848 345.672 60.6086 345.616 60.8508C345.56 61.0325 345.364 61.1233 345.028 61.1233H340.237C340.013 61.1233 339.845 61.0627 339.733 60.9416C339.676 60.76 339.565 60.3967 339.397 59.8518C339.172 58.217 338.864 56.3097 338.472 54.13C338.08 51.8896 337.659 49.6191 337.211 47.3183C337.155 46.955 337.043 46.7128 336.875 46.5917C336.762 46.4707 336.51 46.4101 336.119 46.4101H314.938C314.602 46.4707 314.378 46.5615 314.266 46.6826C314.153 46.7432 314.041 46.9853 313.93 47.4091C313.481 49.6495 313.06 51.8896 312.669 54.13C312.276 56.3097 311.94 58.2472 311.66 59.9426C311.604 60.4269 311.52 60.76 311.408 60.9416C311.352 61.0627 311.184 61.1233 310.904 61.1233H306.113ZM316.199 41.1424H334.774C335.054 41.1424 335.249 41.0516 335.362 40.8699C335.53 40.6883 335.558 40.325 335.446 39.7801C334.213 34.6334 332.953 29.4566 331.664 24.2495C330.431 19.0424 328.918 14.0774 327.126 9.35468C327.013 8.99139 326.76 8.80974 326.369 8.80974H324.772C324.436 8.80974 324.211 9.02162 324.1 9.4455C323.203 11.8069 322.222 14.7132 321.158 18.1644C320.149 21.5551 319.168 25.1577 318.216 28.9723C317.263 32.7868 316.395 36.5105 315.611 40.1434C315.554 40.3856 315.554 40.6277 315.611 40.8699C315.666 41.0516 315.863 41.1424 316.199 41.1424ZM388.712 46.8642C388.823 47.1064 388.991 47.2275 389.216 47.2275C389.496 47.1669 389.636 46.955 389.636 46.5917C389.804 44.4726 389.916 41.9296 389.972 38.9627C390.084 35.9958 390.141 32.817 390.141 29.4264C390.196 26.0357 390.196 22.6147 390.141 19.1635C390.084 15.7122 389.943 12.4124 389.72 9.26385C389.552 6.11531 389.328 3.29982 389.048 0.817398C388.991 0.272465 389.132 0 389.468 0H394.343C394.511 0 394.679 0.0605944 394.847 0.181643C395.015 0.302692 395.098 0.484336 395.098 0.726576C395.436 2.84571 395.688 5.50992 395.856 8.71892C396.079 11.8675 396.22 15.3489 396.275 19.1635C396.331 22.978 396.331 26.8833 396.275 30.8795C396.275 34.8757 396.22 38.7508 396.108 42.5047C395.995 46.2587 395.856 49.7099 395.688 52.8585C395.52 55.9464 395.323 58.4894 395.098 60.4875C395.043 60.7298 394.902 60.9114 394.679 61.0325C394.511 61.0931 394.314 61.1233 394.091 61.1233H390.812C390.532 61.1233 390.28 60.8508 390.056 60.3059L362.572 13.9866C362.516 13.7444 362.375 13.6233 362.152 13.6233C361.984 13.6233 361.871 13.7747 361.816 14.0774C361.703 16.8021 361.591 19.7992 361.48 23.0688C361.367 26.2778 361.283 29.6382 361.227 33.1501C361.227 36.6619 361.255 40.1131 361.311 43.5038C361.423 46.834 361.535 49.9522 361.648 52.8585C361.816 55.7648 362.039 58.2472 362.32 60.3059C362.32 60.8508 362.18 61.1233 361.9 61.1233H357.109C356.884 61.1233 356.689 61.0931 356.521 61.0325C356.352 60.9114 356.24 60.7298 356.184 60.4875C355.96 58.4288 355.764 55.8254 355.596 52.6768C355.428 49.5283 355.287 46.077 355.176 42.3231C355.119 38.5086 355.092 34.6032 355.092 30.607C355.092 26.6109 355.147 22.7358 355.26 18.9818C355.371 15.1673 355.512 11.6858 355.68 8.53728C355.848 5.32828 356.1 2.72466 356.437 0.726576C356.437 0.484336 356.521 0.302692 356.689 0.181643C356.912 0.0605944 357.08 0 357.193 0H360.555C360.835 0 361.059 0.211871 361.227 0.635755L388.712 46.8642ZM418.434 61.1233C418.266 61.1233 418.098 61.0627 417.929 60.9416C417.817 60.8206 417.761 60.6692 417.761 60.4875V6.08508C417.761 5.78239 417.705 5.60074 417.593 5.54015C417.537 5.4191 417.396 5.3585 417.173 5.3585H405.154C404.873 5.3585 404.677 5.32828 404.566 5.26768C404.453 5.14663 404.397 4.96499 404.397 4.72275V0.635755C404.397 0.393515 404.425 0.242239 404.482 0.181643C404.593 0.0605944 404.789 0 405.07 0H436.589C436.925 0 437.148 0.0605944 437.261 0.181643C437.373 0.302692 437.429 0.484336 437.429 0.726576V4.63193C437.429 4.93462 437.373 5.14663 437.261 5.26768C437.148 5.32828 436.925 5.3585 436.589 5.3585H424.653C424.372 5.3585 424.177 5.4191 424.065 5.54015C423.952 5.60074 423.897 5.78239 423.897 6.08508V60.4875C423.897 60.9114 423.7 61.1233 423.309 61.1233H418.434Z"
    fill="#302E2E" />
  <path
    d="M210.115 360.552C209.852 360.552 209.721 360.425 209.721 360.169V332.284C209.721 332.028 209.852 331.901 210.115 331.901H216.103C218.1 331.901 219.715 332.17 220.949 332.71C222.184 333.221 223.09 334.086 223.668 335.307C224.246 336.527 224.535 338.202 224.535 340.33C224.535 342.061 224.219 343.622 223.589 345.013C222.985 346.404 222.039 347.44 220.752 348.121C220.437 348.376 220.214 348.632 220.083 348.887C219.978 349.114 220.017 349.412 220.201 349.781C220.411 350.519 220.674 351.286 220.989 352.08C221.33 352.847 221.711 353.556 222.131 354.209C222.578 354.862 223.064 355.401 223.589 355.827C224.062 356.196 224.574 356.494 225.126 356.721C225.703 356.948 226.334 357.061 227.017 357.061C227.201 357.061 227.319 357.09 227.371 357.146C227.45 357.203 227.49 357.331 227.49 357.53V360.169C227.49 360.283 227.463 360.368 227.411 360.425C227.384 360.481 227.293 360.524 227.135 360.552C226.977 360.552 226.715 360.552 226.347 360.552C225.296 360.552 224.338 360.382 223.471 360.041C222.604 359.672 221.816 359.19 221.107 358.594C220.424 357.998 219.781 357.26 219.176 356.38C218.599 355.5 218.086 354.535 217.64 353.485C217.193 352.435 216.839 351.385 216.576 350.335C216.55 350.221 216.484 350.079 216.379 349.909C216.3 349.71 216.156 349.611 215.946 349.611H213.621C213.437 349.611 213.346 349.781 213.346 350.122V360.169C213.346 360.425 213.214 360.552 212.952 360.552H210.115ZM213.346 346.12C213.346 346.262 213.372 346.361 213.424 346.418C213.477 346.446 213.556 346.461 213.661 346.461H216.261C217.784 346.461 218.953 345.964 219.767 344.971C220.582 343.949 220.989 342.402 220.989 340.33C220.989 338.769 220.805 337.591 220.437 336.797C220.07 336.002 219.518 335.463 218.783 335.179C218.047 334.867 217.102 334.711 215.946 334.711H213.621C213.516 334.711 213.437 334.739 213.385 334.796C213.359 334.824 213.346 334.923 213.346 335.094V346.12ZM231.276 360.552C231.013 360.552 230.882 360.425 230.882 360.169V332.284C230.882 332.028 231.013 331.901 231.276 331.901H243.923C244.133 331.901 244.251 331.929 244.277 331.986C244.33 332.014 244.356 332.128 244.356 332.326V334.498C244.356 334.725 244.33 334.867 244.277 334.923C244.225 334.952 244.106 334.966 243.923 334.966H234.782C234.651 334.966 234.572 334.994 234.546 335.051C234.52 335.08 234.506 335.165 234.506 335.307V344.247C234.506 344.389 234.52 344.488 234.546 344.545C234.598 344.573 234.677 344.587 234.782 344.587H242.15C242.36 344.587 242.478 344.616 242.504 344.673C242.557 344.729 242.583 344.886 242.583 345.141V347.099C242.583 347.326 242.557 347.482 242.504 347.568C242.478 347.624 242.36 347.653 242.15 347.653H234.782C234.651 347.653 234.572 347.667 234.546 347.695C234.52 347.724 234.506 347.809 234.506 347.951V357.104C234.506 357.246 234.52 357.345 234.546 357.402C234.572 357.459 234.651 357.487 234.782 357.487H243.844C244.106 357.487 244.251 357.515 244.277 357.572C244.33 357.629 244.356 357.785 244.356 358.041V359.999C244.356 360.254 244.317 360.41 244.238 360.467C244.185 360.524 244.054 360.552 243.844 360.552H231.276ZM247.793 359.275V356.763C247.793 356.593 247.845 356.522 247.95 356.55C248.055 356.55 248.2 356.593 248.384 356.678C248.909 356.848 249.487 357.019 250.117 357.189C250.774 357.359 251.417 357.501 252.048 357.615C252.704 357.7 253.256 357.742 253.703 357.742C255.41 357.742 256.684 357.246 257.524 356.252C258.391 355.231 258.824 353.953 258.824 352.421C258.824 351.002 258.443 349.895 257.682 349.1C256.92 348.305 255.751 347.681 254.175 347.227C253.44 347.028 252.665 346.787 251.851 346.503C251.037 346.191 250.275 345.765 249.566 345.226C248.857 344.687 248.266 343.949 247.793 343.012C247.346 342.076 247.123 340.855 247.123 339.351C247.123 337.535 247.504 336.073 248.266 334.966C249.027 333.831 250.025 333.008 251.26 332.497C252.521 331.986 253.873 331.73 255.318 331.73C255.922 331.73 256.552 331.787 257.209 331.901C257.892 331.986 258.535 332.128 259.14 332.326C259.77 332.497 260.321 332.695 260.794 332.923C260.978 332.951 261.083 333.008 261.109 333.093C261.162 333.178 261.188 333.291 261.188 333.433V335.69C261.188 336.201 260.899 336.286 260.321 335.945C259.717 335.605 259.008 335.321 258.194 335.094C257.406 334.838 256.526 334.711 255.554 334.711C254.11 334.711 252.941 335.108 252.048 335.903C251.181 336.669 250.748 337.719 250.748 339.053C250.748 340.018 250.945 340.813 251.339 341.437C251.733 342.033 252.245 342.501 252.875 342.842C253.506 343.183 254.175 343.466 254.884 343.693C255.62 343.92 256.329 344.148 257.012 344.375C258.22 344.772 259.231 345.269 260.046 345.865C260.86 346.432 261.477 347.213 261.897 348.206C262.344 349.2 262.567 350.505 262.567 352.123C262.567 354.053 262.199 355.671 261.464 356.976C260.755 358.253 259.73 359.233 258.391 359.914C257.078 360.595 255.528 360.935 253.742 360.935C252.98 360.935 252.1 360.836 251.102 360.637C250.104 360.439 249.185 360.198 248.344 359.914C248.134 359.857 247.99 359.786 247.911 359.701C247.832 359.587 247.793 359.445 247.793 359.275ZM271.304 360.552C271.199 360.552 271.107 360.524 271.029 360.467C270.95 360.382 270.91 360.283 270.91 360.169V335.307C270.91 335.165 270.884 335.08 270.832 335.051C270.805 334.994 270.74 334.966 270.635 334.966H265.276C265.093 334.966 264.974 334.952 264.922 334.923C264.869 334.867 264.843 334.753 264.843 334.583V332.241C264.843 332.099 264.869 332.014 264.922 331.986C264.974 331.929 265.079 331.901 265.237 331.901H280.208C280.419 331.901 280.55 331.929 280.602 331.986C280.655 332.043 280.681 332.142 280.681 332.284V334.583C280.681 334.753 280.655 334.867 280.602 334.923C280.55 334.952 280.419 334.966 280.208 334.966H274.85C274.719 334.966 274.627 334.994 274.574 335.051C274.522 335.08 274.496 335.165 274.496 335.307V360.169C274.496 360.425 274.377 360.552 274.141 360.552H271.304ZM280.56 360.552C280.377 360.552 280.271 360.496 280.245 360.382C280.219 360.24 280.232 359.985 280.285 359.616C280.442 358.282 280.705 356.692 281.073 354.848C281.44 353.003 281.874 351.044 282.373 348.972C282.872 346.872 283.41 344.786 283.988 342.714C284.566 340.614 285.157 338.684 285.761 336.924C286.365 335.136 286.943 333.646 287.494 332.454C287.573 332.284 287.665 332.156 287.77 332.071C287.875 331.958 287.994 331.901 288.125 331.901H291.513C291.644 331.929 291.763 331.986 291.868 332.071C291.999 332.128 292.104 332.256 292.183 332.454C292.708 333.618 293.273 335.094 293.877 336.882C294.481 338.67 295.072 340.614 295.65 342.714C296.228 344.815 296.766 346.929 297.265 349.058C297.764 351.158 298.198 353.13 298.565 354.975C298.933 356.792 299.196 358.324 299.353 359.573C299.432 359.97 299.445 360.24 299.393 360.382C299.367 360.496 299.261 360.552 299.078 360.552H296.28C296.149 360.552 296.057 360.51 296.005 360.425C295.952 360.339 295.886 360.127 295.808 359.786C295.702 359.048 295.558 358.182 295.374 357.189C295.19 356.196 295.006 355.216 294.823 354.252C294.796 354.081 294.744 353.982 294.665 353.954C294.612 353.897 294.507 353.868 294.35 353.868H285.288C285.131 353.868 285.026 353.897 284.973 353.954C284.92 353.982 284.868 354.095 284.815 354.294C284.632 355.231 284.448 356.196 284.264 357.189C284.08 358.182 283.936 359.048 283.83 359.786C283.778 360.127 283.725 360.339 283.673 360.425C283.62 360.51 283.515 360.552 283.358 360.552H280.56ZM286.037 350.803H293.562C293.693 350.803 293.785 350.761 293.838 350.675C293.89 350.59 293.89 350.42 293.838 350.165C293.339 348.064 292.813 345.936 292.262 343.779C291.736 341.593 291.132 339.55 290.449 337.648C290.397 337.449 290.292 337.35 290.134 337.35H289.504C289.372 337.35 289.267 337.449 289.189 337.648C288.847 338.641 288.466 339.848 288.046 341.267C287.626 342.686 287.219 344.19 286.825 345.78C286.431 347.341 286.076 348.859 285.761 350.335C285.735 350.448 285.735 350.562 285.761 350.675C285.787 350.761 285.879 350.803 286.037 350.803ZM313.173 360.85C310.993 360.85 309.273 360.581 308.012 360.041C306.751 359.474 305.806 358.778 305.175 357.955C304.571 357.132 304.164 356.295 303.954 355.444C303.744 354.564 303.612 353.797 303.56 353.145C303.455 351.981 303.376 350.718 303.323 349.356C303.271 347.993 303.245 346.688 303.245 345.439C303.271 344.048 303.31 342.587 303.363 341.054C303.415 339.521 303.494 338.003 303.599 336.499C303.731 334.994 303.888 333.604 304.072 332.326C304.072 332.213 304.111 332.114 304.19 332.028C304.295 331.943 304.4 331.901 304.505 331.901C304.952 331.901 305.398 331.901 305.845 331.901C306.291 331.901 306.738 331.901 307.184 331.901C307.342 331.901 307.434 331.929 307.46 331.986C307.487 332.043 307.487 332.241 307.46 332.582C307.355 333.717 307.263 334.895 307.184 336.115C307.106 337.336 307.04 338.599 306.987 339.904C306.882 342.147 306.817 344.346 306.79 346.503C306.79 348.632 306.882 350.675 307.066 352.634C307.119 353.287 307.237 353.925 307.421 354.55C307.605 355.146 307.907 355.685 308.327 356.167C308.747 356.65 309.338 357.047 310.1 357.359C310.888 357.643 311.886 357.785 313.094 357.785C314.302 357.785 315.287 357.643 316.049 357.359C316.837 357.047 317.454 356.65 317.901 356.167C318.347 355.685 318.663 355.131 318.846 354.507C319.03 353.883 319.148 353.258 319.201 352.634C319.359 350.704 319.437 348.689 319.437 346.588C319.437 344.488 319.385 342.331 319.28 340.117C319.227 338.783 319.148 337.492 319.043 336.243C318.965 334.966 318.873 333.746 318.768 332.582C318.768 332.241 318.781 332.043 318.807 331.986C318.833 331.929 318.925 331.901 319.083 331.901C319.556 331.901 320.015 331.901 320.462 331.901C320.934 331.901 321.394 331.901 321.841 331.901C321.998 331.901 322.103 331.943 322.156 332.028C322.235 332.114 322.287 332.213 322.313 332.326C322.497 333.604 322.642 334.994 322.747 336.499C322.878 337.974 322.97 339.479 323.023 341.011C323.075 342.516 323.101 343.949 323.101 345.311C323.128 346.588 323.115 347.922 323.062 349.313C323.036 350.675 322.957 351.953 322.826 353.145C322.773 353.655 322.681 354.252 322.55 354.933C322.418 355.585 322.169 356.267 321.801 356.976C321.46 357.657 320.948 358.296 320.265 358.892C319.582 359.46 318.663 359.928 317.507 360.297C316.351 360.666 314.907 360.85 313.173 360.85ZM329.002 360.552C328.739 360.552 328.608 360.425 328.608 360.169V332.284C328.608 332.028 328.739 331.901 329.002 331.901H334.99C336.987 331.901 338.602 332.17 339.836 332.71C341.071 333.221 341.977 334.086 342.555 335.307C343.133 336.527 343.422 338.202 343.422 340.33C343.422 342.061 343.107 343.622 342.476 345.013C341.872 346.404 340.926 347.44 339.639 348.121C339.324 348.376 339.101 348.632 338.97 348.887C338.865 349.114 338.904 349.412 339.088 349.781C339.298 350.519 339.561 351.286 339.876 352.08C340.217 352.847 340.598 353.556 341.018 354.209C341.465 354.862 341.951 355.401 342.476 355.827C342.949 356.196 343.461 356.494 344.013 356.721C344.591 356.948 345.221 357.061 345.904 357.061C346.088 357.061 346.206 357.09 346.258 357.146C346.337 357.203 346.377 357.331 346.377 357.53V360.169C346.377 360.283 346.35 360.368 346.298 360.425C346.272 360.481 346.18 360.524 346.022 360.552C345.864 360.552 345.602 360.552 345.234 360.552C344.183 360.552 343.225 360.382 342.358 360.041C341.491 359.672 340.703 359.19 339.994 358.594C339.311 357.998 338.668 357.26 338.064 356.38C337.486 355.5 336.974 354.535 336.527 353.485C336.08 352.435 335.726 351.385 335.463 350.335C335.437 350.221 335.371 350.079 335.266 349.909C335.187 349.71 335.043 349.611 334.833 349.611H332.508C332.325 349.611 332.233 349.781 332.233 350.122V360.169C332.233 360.425 332.101 360.552 331.839 360.552H329.002ZM332.233 346.12C332.233 346.262 332.259 346.361 332.311 346.418C332.364 346.446 332.443 346.461 332.548 346.461H335.148C336.671 346.461 337.84 345.964 338.654 344.971C339.469 343.949 339.876 342.402 339.876 340.33C339.876 338.769 339.692 337.591 339.324 336.797C338.957 336.002 338.405 335.463 337.67 335.179C336.934 334.867 335.989 334.711 334.833 334.711H332.508C332.403 334.711 332.325 334.739 332.272 334.796C332.246 334.824 332.233 334.923 332.233 335.094V346.12ZM348.431 360.552C348.247 360.552 348.142 360.496 348.115 360.382C348.089 360.24 348.102 359.985 348.155 359.616C348.312 358.282 348.575 356.692 348.943 354.848C349.31 353.003 349.744 351.044 350.243 348.972C350.742 346.872 351.28 344.786 351.858 342.714C352.436 340.614 353.027 338.684 353.631 336.924C354.235 335.136 354.813 333.646 355.365 332.454C355.443 332.284 355.535 332.156 355.64 332.071C355.746 331.958 355.864 331.901 355.995 331.901H359.383C359.515 331.929 359.633 331.986 359.738 332.071C359.869 332.128 359.974 332.256 360.053 332.454C360.578 333.618 361.143 335.094 361.747 336.882C362.351 338.67 362.942 340.614 363.52 342.714C364.098 344.815 364.636 346.929 365.135 349.058C365.634 351.158 366.068 353.13 366.436 354.975C366.803 356.792 367.066 358.324 367.224 359.573C367.302 359.97 367.316 360.24 367.263 360.382C367.237 360.496 367.132 360.552 366.948 360.552H364.15C364.019 360.552 363.927 360.51 363.875 360.425C363.822 360.339 363.757 360.127 363.678 359.786C363.573 359.048 363.428 358.182 363.244 357.189C363.06 356.196 362.877 355.216 362.693 354.252C362.666 354.081 362.614 353.982 362.535 353.954C362.483 353.897 362.378 353.868 362.22 353.868H353.158C353.001 353.868 352.896 353.897 352.843 353.954C352.791 353.982 352.738 354.095 352.686 354.294C352.502 355.231 352.318 356.196 352.134 357.189C351.95 358.182 351.806 359.048 351.701 359.786C351.648 360.127 351.596 360.339 351.543 360.425C351.491 360.51 351.385 360.552 351.228 360.552H348.431ZM353.907 350.803H361.432C361.563 350.803 361.655 350.761 361.708 350.675C361.76 350.59 361.76 350.42 361.708 350.165C361.209 348.064 360.683 345.936 360.132 343.779C359.607 341.593 359.002 339.55 358.32 337.648C358.267 337.449 358.162 337.35 358.004 337.35H357.374C357.243 337.35 357.138 337.449 357.059 337.648C356.717 338.641 356.336 339.848 355.916 341.267C355.496 342.686 355.089 344.19 354.695 345.78C354.301 347.341 353.946 348.859 353.631 350.335C353.605 350.448 353.605 350.562 353.631 350.675C353.657 350.761 353.749 350.803 353.907 350.803ZM386.794 352.293C386.847 352.407 386.925 352.463 387.03 352.463C387.162 352.463 387.241 352.378 387.267 352.208C387.319 351.243 387.359 350.122 387.385 348.845C387.411 347.568 387.424 346.219 387.424 344.8C387.424 343.353 387.398 341.891 387.346 340.415C387.319 338.939 387.267 337.52 387.188 336.158C387.109 334.767 386.991 333.49 386.833 332.326C386.833 332.043 386.912 331.901 387.07 331.901H389.946C390.051 331.901 390.156 331.943 390.261 332.028C390.366 332.085 390.419 332.17 390.419 332.284C390.603 333.306 390.734 334.569 390.813 336.073C390.918 337.549 390.983 339.181 391.01 340.969C391.036 342.728 391.036 344.545 391.01 346.418C391.01 348.263 390.983 350.065 390.931 351.825C390.878 353.556 390.799 355.146 390.694 356.593C390.616 358.04 390.524 359.233 390.419 360.169C390.419 360.339 390.353 360.453 390.222 360.51C390.117 360.538 389.998 360.552 389.867 360.552H387.976C387.818 360.552 387.661 360.396 387.503 360.084L375.487 339.99C375.46 339.876 375.395 339.819 375.29 339.819C375.211 339.819 375.158 339.89 375.132 340.032C375.08 341.394 375.04 342.814 375.014 344.289C374.988 345.765 374.975 347.255 374.975 348.76C374.975 350.235 374.988 351.683 375.014 353.102C375.066 354.493 375.119 355.798 375.172 357.019C375.25 358.211 375.342 359.247 375.447 360.127C375.474 360.41 375.395 360.552 375.211 360.552H372.414C372.282 360.552 372.164 360.538 372.059 360.51C371.954 360.453 371.888 360.339 371.862 360.169C371.757 359.204 371.665 357.998 371.586 356.55C371.507 355.075 371.442 353.457 371.389 351.697C371.363 349.937 371.337 348.135 371.31 346.29C371.31 344.446 371.337 342.643 371.389 340.884C371.442 339.096 371.507 337.464 371.586 335.988C371.691 334.512 371.823 333.277 371.98 332.284C372.007 332.17 372.072 332.085 372.177 332.028C372.282 331.943 372.374 331.901 372.453 331.901H374.344C374.502 331.901 374.633 332 374.738 332.199L386.794 352.293ZM401.042 360.552C400.937 360.552 400.845 360.524 400.766 360.467C400.687 360.382 400.648 360.283 400.648 360.169V335.307C400.648 335.165 400.622 335.08 400.569 335.051C400.543 334.994 400.477 334.966 400.372 334.966H395.014C394.83 334.966 394.712 334.952 394.659 334.923C394.607 334.867 394.58 334.753 394.58 334.583V332.241C394.58 332.099 394.607 332.014 394.659 331.986C394.712 331.929 394.817 331.901 394.974 331.901H409.946C410.156 331.901 410.287 331.929 410.34 331.986C410.392 332.043 410.419 332.142 410.419 332.284V334.583C410.419 334.753 410.392 334.867 410.34 334.923C410.287 334.952 410.156 334.966 409.946 334.966H404.588C404.456 334.966 404.364 334.994 404.312 335.051C404.259 335.08 404.233 335.165 404.233 335.307V360.169C404.233 360.425 404.115 360.552 403.878 360.552H401.042ZM414.571 360.552C414.308 360.552 414.177 360.425 414.177 360.169V332.284C414.177 332.028 414.308 331.901 414.571 331.901H427.218C427.428 331.901 427.546 331.929 427.573 331.986C427.625 332.014 427.651 332.128 427.651 332.326V334.498C427.651 334.725 427.625 334.867 427.573 334.923C427.52 334.952 427.402 334.966 427.218 334.966H418.078C417.946 334.966 417.867 334.994 417.841 335.051C417.815 335.08 417.802 335.165 417.802 335.307V344.247C417.802 344.389 417.815 344.488 417.841 344.545C417.894 344.573 417.973 344.587 418.078 344.587H425.445C425.655 344.587 425.773 344.616 425.8 344.673C425.852 344.729 425.878 344.886 425.878 345.141V347.099C425.878 347.326 425.852 347.482 425.8 347.568C425.773 347.624 425.655 347.653 425.445 347.653H418.078C417.946 347.653 417.867 347.667 417.841 347.695C417.815 347.724 417.802 347.809 417.802 347.951V357.104C417.802 357.246 417.815 357.345 417.841 357.402C417.867 357.459 417.946 357.487 418.078 357.487H427.139C427.402 357.487 427.546 357.515 427.573 357.572C427.625 357.629 427.651 357.785 427.651 358.041V359.999C427.651 360.254 427.612 360.41 427.533 360.467C427.481 360.524 427.349 360.552 427.139 360.552H414.571Z"
    fill="#302E2E" />
  <path fill-rule="evenodd" clip-rule="evenodd"
    d="M197.603 134.093C197.603 134.42 198.567 138.73 199.747 143.672C203.311 158.61 202.39 193.1 198.428 193.1C195.335 193.1 193.787 196.097 195.178 199.395C196.443 202.397 194.951 208.743 183.873 247.471L181.919 254.301L185.315 253.857C188.365 253.457 189.23 251.819 193.804 237.802C196.605 229.216 200.445 217.544 202.337 211.865L205.775 201.538L224.271 201.931L242.767 202.324L251.318 228.223C259.035 251.599 260.16 254.121 262.88 254.121C264.537 254.121 265.889 253.962 265.882 253.766C265.876 253.571 262.69 241.917 258.804 227.868L251.738 202.324L257.398 201.896C263.952 201.4 267.113 198.525 264.641 195.307C261.783 191.587 249.142 189.907 228.51 190.507L208.766 191.081V170.448C208.766 154.059 208.257 148.14 206.288 141.658C204.2 134.781 203.323 133.498 200.707 133.498C199 133.498 197.603 133.766 197.603 134.093ZM432.452 143.786C429.406 154.479 428.392 175.469 430.411 186.005L431.363 190.971H406.026C383.772 190.971 380.248 191.285 377.056 193.544C371.416 197.538 372.964 200.767 380.927 201.615L387.591 202.324L380.624 227.158C376.794 240.817 373.642 252.472 373.621 253.057C373.6 253.642 374.912 254.121 376.538 254.12C379.188 254.12 380.374 251.411 388.029 227.879L396.565 201.639L415.095 201.626L433.627 201.615L442.071 227.513C449.482 250.241 450.887 253.47 453.546 253.883C456.343 254.318 456.502 253.992 455.619 249.625C455.094 247.026 452.072 235.694 448.904 224.448C444.66 209.373 443.366 202.73 443.985 199.171C444.698 195.061 444.413 194.23 442.066 193.566C438.378 192.524 437.285 186.295 437.376 166.847C437.439 153.246 438.088 148.25 441.383 135.981C441.894 134.08 441.27 133.498 438.716 133.498C435.723 133.498 435.083 134.548 432.452 143.786ZM289.533 145.814C276.69 146.443 256.044 149.212 253.992 150.583C249.253 153.746 258.663 155.833 285.593 157.589C297.511 158.366 309.183 159.011 311.53 159.022L315.798 159.042V195.606C315.798 228.166 315.538 232.693 313.424 236.954C310.361 243.123 304.314 246.468 292.605 248.469C287.432 249.353 282.113 250.967 280.785 252.054C278.704 253.758 284 254.03 319.082 254.03C354.381 254.03 359.469 253.765 357.351 252.031C354.878 250.007 344.13 247.026 339.307 247.026C334.975 247.026 328.979 242.922 326.252 238.087C323.882 233.886 323.687 230.736 323.683 196.293L323.678 159.042L328.603 158.998C354.348 158.765 386.715 154.809 386.715 151.895C386.715 147.172 331.91 143.744 289.533 145.814Z"
    fill="#302E2E" />
  <path d="M457.708 28.4844H635V345.652H437.352" stroke="#302E2E" stroke-width="4" />
  <path d="M179.292 29.9043H2V347.072H199.648" stroke="#302E2E" stroke-width="4" />
</svg>